<svg xmlns="http://www.w3.org/2000/svg" xmlns:xlink="http://www.w3.org/1999/xlink" viewBox="0 0 157.89 187.72"><defs><style>.fc3e6d2d-45ce-49e6-9313-e0b9fcd735af{fill:url(#becf1e74-4d36-4e55-a49c-cbfde4c728e8);}</style><linearGradient id="becf1e74-4d36-4e55-a49c-cbfde4c728e8" x1="46.64" y1="56.91" x2="106.61" y2="56.91" gradientUnits="userSpaceOnUse"><stop offset="0.13" stop-color="#0878b1"/><stop offset="0.65" stop-color="#29ca8c"/><stop offset="1" stop-color="#29ca8c"/></linearGradient></defs><g id="b310f984-ed83-4091-a6c3-547be1987731" data-name="Layer 2"><path d="M157.89,149.78c-.34.95-.62,1.93-1,2.85a11.76,11.76,0,0,1-6.19,6.14l-52.4,23.08c-4.69,2.07-9.31,4.33-14.43,5.22a39.45,39.45,0,0,1-28-5.27c-5-3-10-6-15-9a26.32,26.32,0,0,0-9.74-3.16,1.45,1.45,0,0,0-1.16.62c-2,3.66-5.12,5.24-9.26,5.18-5.66-.08-11.31,0-17,0-2.56,0-3.69-1.11-3.69-3.64q0-27.21,0-54.43c0-2.41,1.17-3.59,3.61-3.6,5.49,0,11,.09,16.49,0,4.76-.11,8.27,1.67,10.24,6.19,6.38,0,12.75.15,19.12,0A27.83,27.83,0,0,1,65.15,124c4.29,2.61,8.73,5,13.15,7.4a6.73,6.73,0,0,0,3,.81c6,.08,12,.18,18,0,9.14-.27,14.39,7.2,13.42,14.05,0,.1,0,.2.09.44l8.4-2.87q10-3.42,19.93-6.87a13.15,13.15,0,0,1,7.72-.57,11.35,11.35,0,0,1,8.6,8.56c.11.39.24.78.36,1.16Zm-127,13.49c.55.11,1.05.23,1.55.3a33.38,33.38,0,0,1,13,4.79c4.47,2.81,9,5.49,13.59,8.18,10,5.87,20.35,6.77,31,2.15,19.29-8.38,38.51-16.92,57.75-25.41,3.35-1.48,4.66-4.49,3.44-7.66-1.12-2.89-4.2-4.16-7.59-3-12.95,4.46-25.88,9-38.82,13.44a11.25,11.25,0,0,1-3.44.76c-10.74.06-21.48,0-32.22,0a3.05,3.05,0,0,1-3.11-3,3.14,3.14,0,0,1,3-3.14c.51,0,1,0,1.54,0q14.8,0,29.6,0a6.1,6.1,0,0,0,5-2.23,5.81,5.81,0,0,0,.86-6.49,5.89,5.89,0,0,0-5.64-3.6c-6.11-.05-12.23-.1-18.34,0a14.11,14.11,0,0,1-7.61-2c-4.66-2.72-9.4-5.28-14.07-8A17.76,17.76,0,0,0,51.34,126c-6.32,0-12.65,0-19,0H30.91ZM6.24,169.21H20.9c2.66,0,3.77-1.09,3.77-3.72q0-21,0-41.92c0-2.53-1.15-3.68-3.68-3.69-4.58,0-9.15,0-13.72,0a7.4,7.4,0,0,0-1,.12Z"/><path d="M18.49,129.12a3.07,3.07,0,0,1-6.14,0,3.07,3.07,0,1,1,6.14,0Z"/><g id="a0ad6a4b-acbd-41f2-9549-f64d5651164a" data-name="nM9eMl"><path d="M77.59,0A3.75,3.75,0,0,1,79,3.51c-.07,1.23,0,2.47,0,3.7a2.3,2.3,0,1,1-4.6,0,27.23,27.23,0,0,1,0-4.78A8.11,8.11,0,0,1,75.73,0Z"/><path d="M89,97c.23-5,1.55-9.49,5.22-13.26,2.8-2.87,5.39-6,7.94-9.07,7.42-9,10.62-19.36,8.56-30.87-2.57-14.37-11.15-23.95-25.25-27.68C71.18,12.38,59,16.66,49.62,28c-10.07,12.3-10.2,30.33-.55,43.76A118,118,0,0,0,59,83.62,19.79,19.79,0,0,1,64.36,97ZM82.13,71.42c-.89,7.16-1.82,14.31-2.66,21.47-.13,1.11-.46,1.47-1.6,1.47-3.88,0-3.84,0-4.29-3.67Q71.68,75,69.7,59.4l-.09-.91c1.93,1,3.65,1.75,5.32,2.66a3.4,3.4,0,0,0,3.51,0c1.67-.89,3.39-1.7,5.27-2.63C83.17,63,82.66,67.19,82.13,71.42ZM55,72c-7.92-9.68-10.48-20.58-6.45-32.55a29.86,29.86,0,0,1,57.75,5.94c1.34,10-1.44,18.88-7.91,26.59-3,3.59-6.1,7.14-9.19,10.66a18.53,18.53,0,0,0-4.45,10.34c0,.42-.15.83-.23,1.25L84,94.13c.15-1.42.27-2.85.45-4.27,1.42-11.51,2.89-23,4.25-34.52a4,4,0,0,0-.89-2.71c-.75-.87-1.87-.51-2.85,0-2.39,1.23-4.76,2.48-7.2,3.57a3.07,3.07,0,0,1-2.25,0c-2.44-1.09-4.76-2.45-7.22-3.5a4.14,4.14,0,0,0-2.86-.06c-1.07.42-1.1,1.58-1,2.68q2.34,18.48,4.62,37c.08.62.1,1.24.15,1.87l-.44,0c-.15-.76-.35-1.52-.44-2.29a17.15,17.15,0,0,0-4.15-9.16C61.16,79.16,58,75.63,55,72Z"/><path d="M31.27,25.87a15.79,15.79,0,0,1,1.5.55c1.43.81,2.88,1.6,4.26,2.49A2.23,2.23,0,0,1,37.81,32a2.13,2.13,0,0,1-2.94.91,48.38,48.38,0,0,1-4.68-2.69,2,2,0,0,1-.74-2.72C29.85,26.8,30.72,26.35,31.27,25.87Z"/><path d="M124.08,28.85a6.25,6.25,0,0,1-1.29,1.58,35.29,35.29,0,0,1-4,2.34,2.32,2.32,0,1,1-2.33-4c1.4-.86,2.82-1.71,4.29-2.44S124,26.62,124.08,28.85Z"/><path d="M126.24,56.71c-.87,0-1.76.06-2.62,0a2.1,2.1,0,0,1-2.09-2.09,2,2,0,0,1,1.88-2.4,36.16,36.16,0,0,1,5.7,0,2.07,2.07,0,0,1,1.95,2.37,2.14,2.14,0,0,1-2.19,2.15c-.88,0-1.75,0-2.63,0Z"/><path d="M27,56.71c-.88,0-1.76,0-2.63,0a2.12,2.12,0,0,1-2.11-2.07A2,2,0,0,1,24,52.26a35.09,35.09,0,0,1,6.15,0c1.21.11,1.77,1.17,1.65,2.41a2.06,2.06,0,0,1-2,2c-.92.09-1.85,0-2.78,0Z"/><path d="M31.55,83.26c-.89-.79-1.91-1.27-2.08-2a3,3,0,0,1,.68-2.56A19.41,19.41,0,0,1,34.94,76a2.81,2.81,0,0,1,2.55.62c.48.56.62,2.24.21,2.57A69.84,69.84,0,0,1,31.55,83.26Z"/><path d="M117.11,75.53a12.4,12.4,0,0,1,1.65.55c1.4.77,2.8,1.55,4.14,2.39a2.3,2.3,0,1,1-2.25,4c-1.51-.79-3-1.65-4.41-2.56a2,2,0,0,1-.87-2.67A7.93,7.93,0,0,1,117.11,75.53Z"/><path d="M51.14,7A6.72,6.72,0,0,1,52.7,8.36,36.94,36.94,0,0,1,55,12.21a2.33,2.33,0,1,1-4,2.34c-.83-1.35-1.67-2.72-2.37-4.14C47.76,8.75,48.85,7,51.14,7Z"/><path d="M100.65,15.87c-2.09,0-3.25-1.61-2.49-3.21A38.82,38.82,0,0,1,100.85,8a2.12,2.12,0,0,1,3-.65,2,2,0,0,1,1,2.77A45.6,45.6,0,0,1,102,15C101.67,15.51,100.92,15.71,100.65,15.87Z"/><path class="fc3e6d2d-45ce-49e6-9313-e0b9fcd735af" d="M68.84,94.2c-.15-.76-.35-1.52-.44-2.29a17.15,17.15,0,0,0-4.15-9.16C61.16,79.16,58,75.63,55,72c-7.92-9.68-10.48-20.58-6.45-32.55a29.86,29.86,0,0,1,57.75,5.94c1.34,10-1.44,18.88-7.91,26.59-3,3.59-6.1,7.14-9.19,10.66a18.53,18.53,0,0,0-4.45,10.34c0,.42-.15.83-.23,1.25L84,94.13c.15-1.42.27-2.85.45-4.27,1.42-11.51,2.89-23,4.25-34.52a4,4,0,0,0-.89-2.71c-.75-.87-1.87-.51-2.85,0-2.39,1.22-4.76,2.47-7.2,3.56a3.07,3.07,0,0,1-2.25,0c-2.44-1.09-4.76-2.45-7.22-3.5a4.14,4.14,0,0,0-2.86-.06c-1.07.42-1.1,1.58-1,2.68q2.34,18.48,4.62,37c.08.62.1,1.24.15,1.87Zm.86-34.8q2,15.65,3.88,31.29c.45,3.69.41,3.65,4.29,3.67,1.14,0,1.47-.36,1.6-1.47.84-7.16,1.77-14.31,2.66-21.47.53-4.23,1-8.46,1.58-12.92-1.88.93-3.6,1.74-5.27,2.63a3.4,3.4,0,0,1-3.51,0c-1.67-.91-3.39-1.7-5.32-2.66Z"/></g><g id="a74395e4-ca17-41c9-9eaa-353c019362e2" data-name="OIEqbV"><path d="M63.74,94.46c0,.46,0,.91,0,1.38,0,3.32,0,6.65,0,10a4.49,4.49,0,0,0,2.63,4.42,1.52,1.52,0,0,1,1,1.69,5,5,0,0,0,5,5.21c2.77,0,5.55,0,8.32,0a5,5,0,0,0,5-5c0-.46,0-.93,0-1.36,2.78-1.15,3.66-2.48,3.66-5.43,0-3.25,0-6.5,0-9.74,0-.37,0-.73,0-1.1ZM80,114c-2.21-.08-4.42,0-6.64,0-2.37,0-3-.66-2.78-3.14H82.49C83,113.39,81.64,114.06,80,114Zm6.22-8a1.56,1.56,0,0,1-1.75,1.63c-1.45,0-2.9,0-4.35,0H69.06c-1.6,0-2.13-.54-2.13-2.15,0-2.77,0-5.55,0-8.41H86.16c0,.07.09.14.09.21C86.25,100.19,86.27,103.09,86.25,106Z"/></g></g></svg>