<svg xmlns="http://www.w3.org/2000/svg" xmlns:xlink="http://www.w3.org/1999/xlink" viewBox="0 0 157.89 189.23"><defs><style>.adc2cf33-bc42-406d-9daa-995b00412788{fill:url(#b517d8a4-cdd8-40f1-9b10-275b719e7676);}</style><linearGradient id="b517d8a4-cdd8-40f1-9b10-275b719e7676" x1="39.05" y1="76.47" x2="118.79" y2="76.47" gradientUnits="userSpaceOnUse"><stop offset="0.13" stop-color="#0878b1"/><stop offset="0.65" stop-color="#29ca8c"/><stop offset="1" stop-color="#29ca8c"/></linearGradient></defs><g id="bd08cb4c-0783-40ac-807a-d229c3b80ac8" data-name="Layer 2"><path d="M157.89,151.29c-.34,1-.62,1.93-1,2.85a11.76,11.76,0,0,1-6.19,6.14l-52.4,23.08c-4.69,2.07-9.31,4.33-14.43,5.23a39.55,39.55,0,0,1-28-5.27q-7.53-4.51-15-9a26.13,26.13,0,0,0-9.74-3.16,1.42,1.42,0,0,0-1.16.61c-2,3.66-5.12,5.25-9.26,5.19-5.66-.09-11.31,0-17,0-2.56,0-3.69-1.11-3.69-3.64Q0,146,0,118.82c0-2.41,1.17-3.59,3.61-3.6,5.49,0,11,.09,16.49,0,4.76-.1,8.27,1.67,10.24,6.2,6.38,0,12.75.14,19.12,0a27.83,27.83,0,0,1,15.68,4.13c4.29,2.61,8.73,5,13.15,7.4a6.73,6.73,0,0,0,3,.81c6,.08,12,.19,18,0,9.14-.28,14.39,7.2,13.42,14.05,0,.09,0,.19.09.43q4.22-1.42,8.4-2.86,10-3.44,19.93-6.88a13.15,13.15,0,0,1,7.72-.57,11.35,11.35,0,0,1,8.6,8.57c.11.39.24.77.36,1.16Zm-127,13.49c.55.11,1.05.23,1.55.3a33.54,33.54,0,0,1,13,4.79c4.47,2.82,9,5.5,13.59,8.18,10,5.87,20.35,6.78,31,2.15,19.29-8.38,38.51-16.92,57.75-25.41,3.35-1.48,4.66-4.49,3.44-7.66-1.12-2.89-4.2-4.16-7.59-3q-19.42,6.71-38.82,13.45a11.24,11.24,0,0,1-3.44.75c-10.74.06-21.48,0-32.22,0a3,3,0,0,1-3.11-3,3.13,3.13,0,0,1,3-3.14c.51-.05,1,0,1.54,0q14.8,0,29.6,0a6.07,6.07,0,0,0,5-2.23,5.81,5.81,0,0,0,.86-6.49,5.89,5.89,0,0,0-5.64-3.6c-6.11,0-12.23-.1-18.34,0a14.11,14.11,0,0,1-7.61-2c-4.66-2.71-9.4-5.28-14.07-8a17.67,17.67,0,0,0-9.11-2.4c-6.32,0-12.65,0-19,0H30.91ZM6.24,170.73H20.9c2.66,0,3.77-1.08,3.77-3.72q0-21,0-41.92c0-2.53-1.15-3.68-3.68-3.69-4.58,0-9.15,0-13.72,0a9.3,9.3,0,0,0-1,.12Z"/><path d="M18.49,130.63a3.07,3.07,0,0,1-6.14.05,3.07,3.07,0,1,1,6.14-.05Z"/><g id="bbbf6f2c-2837-45dd-bf92-d45e9c9fd0aa" data-name="o5Cgdm"><path d="M87.87,0a11.42,11.42,0,0,1,5.56,2.53,9.66,9.66,0,0,1,3.08,10.2A9.41,9.41,0,0,1,88.4,20a9.94,9.94,0,0,1-11.69-9.78A10,10,0,0,1,84.94.2a5.1,5.1,0,0,0,.63-.2Zm4.41,10.12a5.5,5.5,0,0,0-5.46-5.51,5.58,5.58,0,0,0-5.55,5.46,5.59,5.59,0,0,0,5.56,5.57A5.5,5.5,0,0,0,92.28,10.12Z"/><path d="M49.76,36.36a10.3,10.3,0,0,1-1-9,9.93,9.93,0,0,1,3.81-4.92,10.09,10.09,0,0,1,12.17.65c2.88,2.34,5.2,7.4,2.08,13.23H79.92C81.75,29.63,86,25.56,93.1,25.64c6.87.08,11,4.14,12.79,10.72,4.25,0,8.46,0,12.68,0a4.62,4.62,0,0,1,4.89,4.34,5.44,5.44,0,0,1-1.2,3.51q-14.83,22-29.66,44.06a4.38,4.38,0,0,0-.81,2.66c0,4.91,0,9.82,0,14.73a2.87,2.87,0,0,1-2,3c-6.65,2.86-13.27,5.78-19.91,8.66-2.5,1.09-3.93.13-3.93-2.62,0-8.06,0-16.11,0-24.16a3.84,3.84,0,0,0-.6-2Q50.53,66.33,35.6,44.15C34.11,41.93,34,40,35.37,38.2a4.69,4.69,0,0,1,4-1.84H49.76ZM70.71,111.9c.38-.13.67-.21.94-.33,4.92-2.14,9.82-4.29,14.75-6.4a1.17,1.17,0,0,0,.82-1.28c0-4.53,0-9,0-13.57a6.66,6.66,0,0,1,1.22-4.07q14.85-22,29.64-44.06c.24-.36.47-.73.74-1.16H39.05c1.28,1.9,2.51,3.65,3.64,5.46a1.79,1.79,0,0,0,1.75.93q23.76,0,47.51,0c2.1,0,3.21.78,3.24,2.26S94.07,52,91.91,52H46.49c.21.36.31.56.43.74q11.09,16.5,22.22,33a2,2,0,0,0,1.38.71c2.83.07,5.67,0,8.51.07a2.14,2.14,0,0,1,2.19,2.08,2.16,2.16,0,0,1-2,2.39,9.54,9.54,0,0,1-1.6.09H70.71Zm-6.95-81a5.5,5.5,0,0,0-5.41-5.56,5.52,5.52,0,1,0,5.41,5.56Zm37.18,5.42c-.69-3.52-4.45-6.27-8.29-6.14s-7.33,3-7.75,6.14Z"/><path class="adc2cf33-bc42-406d-9daa-995b00412788" d="M70.71,111.9V91.06h6.94a9.54,9.54,0,0,0,1.6-.09,2.16,2.16,0,0,0,2-2.39A2.14,2.14,0,0,0,79,86.5c-2.84-.06-5.68,0-8.51-.07a2,2,0,0,1-1.38-.71Q58,69.25,46.92,52.74c-.12-.18-.22-.38-.43-.74H91.91c2.16,0,3.32-.82,3.28-2.34S94.05,47.4,92,47.4q-23.76,0-47.51,0a1.79,1.79,0,0,1-1.75-.93c-1.13-1.81-2.36-3.56-3.64-5.46h79.74c-.27.43-.5.8-.74,1.16q-14.8,22-29.64,44.06a6.66,6.66,0,0,0-1.22,4.07c.06,4.52,0,9,0,13.57a1.17,1.17,0,0,1-.82,1.28c-4.93,2.11-9.83,4.26-14.75,6.4C71.38,111.69,71.09,111.77,70.71,111.9Z"/></g></g></svg>