<svg xmlns="http://www.w3.org/2000/svg" xmlns:xlink="http://www.w3.org/1999/xlink" viewBox="0 0 150.24 150.26"><defs><style>.ab46c71b-cfc4-46cc-92ed-67e078603c6f{fill:url(#f4ab9336-95f6-4931-a081-05542a1a3c71);}</style><linearGradient id="f4ab9336-95f6-4931-a081-05542a1a3c71" x1="31.55" y1="31.5" x2="118.69" y2="31.5" gradientUnits="userSpaceOnUse"><stop offset="0.13" stop-color="#0878b1"/><stop offset="0.65" stop-color="#29ca8c"/><stop offset="1" stop-color="#29ca8c"/></linearGradient></defs><g id="ef040335-9ee5-4ffd-8c21-d7252151ad6a" data-name="Layer 2"><g id="ad39d843-402d-4d56-9c29-e82e73ae037c" data-name="CENxcI"><path d="M123.6,26.65h16.09c6.56,0,10.55,4,10.55,10.55v80.68c0,6.55-4,10.56-10.54,10.56h-49c1,3.14,2,6.1,3,9,.11.3.77.55,1.19.56,2.16.06,4.33,0,6.5,0,1.89,0,2.8.9,2.82,2.77,0,2.07,0,4.14,0,6.21,0,2.37-.82,3.18-3.18,3.18H51.85c-1.11,0-2.22,0-3.33,0A2.37,2.37,0,0,1,46,147.74q-.07-3.56,0-7.11a2.38,2.38,0,0,1,2.57-2.55c2.22,0,4.44,0,6.66,0,.45,0,1.17-.3,1.29-.63,1-2.88,2-5.81,3-9H10.63C4,128.44,0,124.46,0,117.81V37.29c0-6.67,4-10.64,10.62-10.64h16V24.9c0-4.95,0-9.89,0-14.84a9.66,9.66,0,0,1,10-10h77a9.66,9.66,0,0,1,9.92,10c0,4.94,0,9.89,0,14.83Zm0,5v1.87q0,21.65,0,43.3c0,6.45-4,10.48-10.47,10.48h-76c-6.44,0-10.47-4-10.47-10.48q0-21.64,0-43.3V31.55h-16c-3.9,0-5.73,1.83-5.73,5.74v71.58H145.27c0-.28.06-.43.06-.58q0-35.88,0-71.75a4.8,4.8,0,0,0-5.11-5c-5.15,0-10.3,0-15.45,0C124.42,31.56,124.08,31.59,123.6,31.61Zm-4.91,26.47V10.46c0-3.67-1.91-5.55-5.63-5.55H37.22c-3.8,0-5.67,1.86-5.67,5.66V58.08ZM4.91,114c0,1.69,0,3.2,0,4.71.09,3.06,2.21,4.85,5.71,4.85h129c.4,0,.81,0,1.21,0a4.75,4.75,0,0,0,4.45-4.22c.16-1.74,0-3.5,0-5.32ZM118.68,63.17H31.55V76.3c0,4.34,1.71,6.06,6,6.06h75.07c.46,0,.91,0,1.37,0a4.77,4.77,0,0,0,4.64-4.68C118.73,72.88,118.68,68.09,118.68,63.17ZM61.61,138h27c-1-3.06-2-6-3-9a1.32,1.32,0,0,0-1-.58q-9.45,0-18.9,0c-.36,0-1,.27-1,.54C63.6,132,62.64,134.91,61.61,138Zm37.65,5H51.05v2.19H99.26Z"/><path d="M111.45,89.63h9.08c2.19,0,3,.84,3.06,3,0,2.87,0,5.75,0,8.62,0,2.14-.87,3-3.06,3q-9.07,0-18.15,0c-2.19,0-3-.85-3.06-3q0-4.31,0-8.62c0-2.14.86-3,3.06-3Zm-7.17,9.56h14.3V94.63h-14.3Z"/><path d="M75.15,104.22c-3.08,0-6.15,0-9.23,0-2.06,0-2.93-.88-2.94-3,0-2.92,0-5.85,0-8.77,0-2,.9-2.85,2.88-2.86H84.32c2.06,0,2.93.88,2.94,3,0,2.93,0,5.85,0,8.77,0,2-.91,2.85-2.89,2.87C81.3,104.24,78.22,104.22,75.15,104.22Zm7.15-9.57H68v4.57H82.3Z"/><path d="M41.31,89.63h9.08c2.07,0,2.94.87,3,2.94,0,2.92,0,5.84,0,8.77,0,2-.91,2.87-2.87,2.87q-9.3,0-18.6,0a2.45,2.45,0,0,1-2.8-2.78c0-3,0-6.05,0-9.07a2.42,2.42,0,0,1,2.7-2.72C35,89.61,38.14,89.63,41.31,89.63ZM34,99.19h14.3V94.63H34Z"/><path d="M63,31.56c0-4.64,0-9.28,0-13.91,0-2.73,1.65-3.79,4.06-2.59q14.07,7,28.11,14a2.63,2.63,0,0,1,1.78,2.39A2.69,2.69,0,0,1,95.09,34Q81,41,67,48c-2.32,1.15-4,.07-4-2.55C63,40.84,63,36.2,63,31.56Zm5,10.49L89,31.52,67.94,21Z"/><path d="M19.41,121.18c-2.32,0-4.64,0-6.95,0-1.72,0-2.8-1-2.76-2.52a2.45,2.45,0,0,1,2.75-2.37q7,0,13.91,0c1.72,0,2.8,1,2.76,2.52a2.48,2.48,0,0,1-2.76,2.37C24.05,121.2,21.73,121.18,19.41,121.18Z"/><path d="M35.29,116.29a10.29,10.29,0,0,1,1.36,0,2.39,2.39,0,0,1,2.15,2.48,2.31,2.31,0,0,1-2.13,2.35,14.43,14.43,0,0,1-2.71,0,2.44,2.44,0,1,1,0-4.88c.45,0,.91,0,1.36,0Z"/><path d="M89.78,75.15q-10.52,0-21,0a1.68,1.68,0,0,0-1.77,1,7.22,7.22,0,0,1-12.77,0,1.68,1.68,0,0,0-1.79-1c-4.34,0-8.67,0-13,0-1.93,0-3-.87-3-2.39s1.08-2.5,3.07-2.51c4.34,0,8.68,0,13,0a1.79,1.79,0,0,0,1.82-1.14,7.22,7.22,0,0,1,12.65,0,1.92,1.92,0,0,0,2,1.1q20.65,0,41.32,0a12.34,12.34,0,0,1,1.36,0,2.43,2.43,0,0,1,2.3,2.37,2.4,2.4,0,0,1-2.33,2.49c-1.25.07-2.52,0-3.78,0ZM58.21,72.78a2.38,2.38,0,1,0,2.34-2.46A2.43,2.43,0,0,0,58.21,72.78Z"/><path class="ab46c71b-cfc4-46cc-92ed-67e078603c6f" d="M118.69,58.08H31.55V10.57c0-3.8,1.87-5.66,5.67-5.66h75.84c3.72,0,5.63,1.88,5.63,5.55V58.08ZM63,31.56c0,4.64,0,9.28,0,13.92,0,2.62,1.68,3.7,4,2.55q14.07-7,28.11-14a2.69,2.69,0,0,0,1.84-2.51,2.63,2.63,0,0,0-1.78-2.39q-14.06-7-28.11-14c-2.41-1.2-4.05-.14-4.06,2.59C63,22.28,63,26.92,63,31.56Zm26,0L67.94,21v21Z"/></g></g></svg>