<svg xmlns="http://www.w3.org/2000/svg" xmlns:xlink="http://www.w3.org/1999/xlink" viewBox="0 0 182.15 171.28"><defs><style>.bf248ee8-56f1-4c1b-8e3b-8e826379bbe0{fill:url(#fffc9fad-829c-4f22-a3cf-072a33e4a351);}.b9cfb118-a87b-4d70-ac1d-7fcd6fb9ec33{fill:url(#b7d03b6e-044d-4186-810a-a87ff9ff217c);}</style><linearGradient id="fffc9fad-829c-4f22-a3cf-072a33e4a351" x1="40.58" y1="27.74" x2="93" y2="27.74" gradientUnits="userSpaceOnUse"><stop offset="0.13" stop-color="#0878b1"/><stop offset="0.65" stop-color="#29ca8c"/><stop offset="1" stop-color="#29ca8c"/></linearGradient><linearGradient id="b7d03b6e-044d-4186-810a-a87ff9ff217c" x1="124.76" y1="127.04" x2="177.1" y2="127.04" xlink:href="#fffc9fad-829c-4f22-a3cf-072a33e4a351"/></defs><g id="f8bfe5af-8bcb-4785-8730-cd456f2107b0" data-name="Layer 2"><path class="bf248ee8-56f1-4c1b-8e3b-8e826379bbe0" d="M57.53,50.43l.43-.64c1.73-3,3.51-6,5.18-9a3.2,3.2,0,0,1,3.16-1.83c7.56,0,15.13,0,22.69,0a3.64,3.64,0,0,0,4-3.8Q93,22,93,9a3.64,3.64,0,0,0-4-3.91H44.9c-2.92,0-4.29,1.41-4.29,4.33q0,12.81,0,25.63a3.74,3.74,0,0,0,3.81,3.91H47.5c3.44,0,3.43,0,5.13,3C54.23,44.72,55.85,47.51,57.53,50.43Z"/><g id="ee9dbc52-fe8a-4d50-aa54-265e4529ada7" data-name="3oOhIS"><path d="M11.29,115.21c-.52-1-1-2-1.51-3-.84-1.71-.43-3,1.24-3.88l19.06-9.71c3.29-1.68,6.61-3.28,9.84-5.06a14.39,14.39,0,0,0,2.91-2.46q13.65-13.4,27.26-26.83c1.65-1.62,3.45-1.33,4.51.76l7.64,15,.43.8A12.63,12.63,0,1,1,94.1,103.32l3.34,6.58,3.28,6.44c1,2,.22,3.68-2,4l-17.77,3c-6.41,1.06-12.8,2.27-19.23,3.13a24.6,24.6,0,0,0-8.8,3.3l3.26,6.43q5.12,10,10.21,20a9.15,9.15,0,0,1-3.61,12.22,27.59,27.59,0,0,1-5,2.38,9,9,0,0,1-10.68-4.43c-4.4-8.53-8.74-17.09-13.1-25.65l-.57-1.08c-1.71.86-3.33,1.69-4.95,2.52-1.86.94-3.14.52-4.06-1.32-.47-1-1-1.89-1.47-2.87-3.24,1.65-6.42,3.25-9.59,4.88a2.56,2.56,0,0,1-3.87-1.21l-9-17.58c-.93-1.83-.52-3.1,1.33-4.05l8.64-4.4C10.72,115.54,11,115.38,11.29,115.21Zm34-19.41c.06.14.08.23.12.31q6.42,12.63,12.81,25.27c.33.65.74.58,1.26.49,2.73-.48,5.46-1,8.19-1.42,7.81-1.31,15.63-2.59,23.44-3.89,1.22-.2,2.43-.42,3.76-.66C87,100.55,79.28,85.34,71.47,70Zm-30,16.07L28,136.81l25.84-13.16c-4.26-8.34-8.48-16.62-12.72-24.94ZM48.41,132,37.89,137.4c.92,1.8,1.79,3.53,2.67,5.26q5.38,10.54,10.76,21.09a4.18,4.18,0,0,0,5.54,2.11,36.61,36.61,0,0,0,3.42-1.74,4.1,4.1,0,0,0,2-4.53,8.33,8.33,0,0,0-.81-1.93q-4.65-9.16-9.33-18.32ZM5.89,123.65c2.36,4.63,4.69,9.19,7,13.81l7.7-3.92-7-13.82ZM85,85.41c2.28,4.48,4.52,8.88,6.79,13.32a7.41,7.41,0,0,0,4.92-6.5,7,7,0,0,0-3.48-6.89A7.39,7.39,0,0,0,85,85.41Z"/><path d="M148.53,24H176.8c2,0,2.94.93,2.94,3V64.66a2.51,2.51,0,0,1-2.8,2.84H120.73c-2.64,0-3.4-.76-3.4-3.36V27.09c0-2.23.88-3.12,3.09-3.12Zm-22.19,5.08,22.2,20.47,22.21-20.47ZM142.9,51.16,127.56,62.44h42L154.19,51.16c-1.26,1.17-2.44,2.27-3.63,3.36-1.42,1.28-2.61,1.28-4,0C145.33,53.42,144.15,52.31,142.9,51.16ZM158,47.69,174.69,60V32.27Zm-18.83,0c-5.61-5.18-11.11-10.24-16.7-15.39V60Z"/><path d="M160.3,119.6h1.14c4.12,0,8.24,0,12.36,0a6.48,6.48,0,0,1,6.78,6.71,4.33,4.33,0,0,1-.27,1.61,1.73,1.73,0,0,0,.37,2.13,6.27,6.27,0,0,1,0,8.08,1,1,0,0,0-.11,1.2,6.41,6.41,0,0,1-1.46,7.47.81.81,0,0,0-.28,1,6.45,6.45,0,0,1-6.3,8.72c-6.07,0-12.14.06-18.21,0A34.4,34.4,0,0,1,143.94,155a28.39,28.39,0,0,1-3.63-1.69c-.54-.26-1-.59-1.77-1,0,.55,0,.9,0,1.25a2.42,2.42,0,0,1-2.57,2.58q-6.87,0-13.73,0a2.43,2.43,0,0,1-2.54-2.54c0-1.47,0-2.93,0-4.4q0-12.43,0-24.89c0-1,0-2.07,0-3.11a2.57,2.57,0,0,1,2.85-2.91c1.59,0,3.17,0,4.76,0,2.68,0,5.36,0,8,0,2.1,0,2.81.55,3.3,2.63.42-.21.84-.37,1.22-.6a25,25,0,0,0,9.35-9.92c1.19-2.22,1.22-4.67,1.2-7.14a5.71,5.71,0,0,1,5.08-5.85,7.24,7.24,0,0,1,7.33,4.24,14.85,14.85,0,0,1,.45,10.81,62.57,62.57,0,0,1-2.49,6.08C160.67,118.88,160.51,119.16,160.3,119.6Zm-21.76,6.81c0,6.84,0,13.64,0,20.44a.92.92,0,0,0,.52.63c1.22.52,2.46,1,3.69,1.47a19.29,19.29,0,0,0,3.77,1.54,59.27,59.27,0,0,0,8.7,1c5.7.15,11.41,0,17.11,0,1.16,0,1.82-.53,1.84-1.45s-.65-1.5-1.87-1.5c-2,0-4,0-6,0a2.52,2.52,0,1,1,0-5c2.65,0,5.31,0,8,0,1.19,0,1.91-.58,1.89-1.5s-.7-1.44-1.86-1.44c-2.38,0-4.75,0-7.13,0a2.5,2.5,0,1,1,0-5c1.68,0,3.36,0,5,0,1.13,0,2.26,0,3.38,0a1.48,1.48,0,1,0,.09-3,9.92,9.92,0,0,0-1.09,0c-2.38,0-4.76,0-7.14,0a2.47,2.47,0,0,1-1.42-4.4,3.59,3.59,0,0,1,1.77-.56c2-.07,4,0,6,0,1.1,0,1.73-.54,1.75-1.45s-.64-1.48-1.78-1.5h-.64c-4.91,0-9.83-.1-14.74,0-3.53.09-3.92-1.77-3.53-4.31a.85.85,0,0,1,0-.17c.71-1.78,1.33-3.59,2.14-5.32A16.58,16.58,0,0,0,159,106.6a4.85,4.85,0,0,0-1.3-3.51,2.39,2.39,0,0,0-1.7-.55c-.76.1-.49.91-.53,1.46a4.87,4.87,0,0,0,0,.54,17.23,17.23,0,0,1-2.68,9.93C149.27,119.83,144.88,124.22,138.54,126.41Zm-13.78,24.71h8.71V123.4h-8.71Z"/><path d="M66.81,0C74.19,0,81.57,0,89,0a8.69,8.69,0,0,1,9,7.5,13.41,13.41,0,0,1,.08,2q0,12.68,0,25.35a8.64,8.64,0,0,1-9,9.05q-10.53,0-21.06,0a1.22,1.22,0,0,0-1.26.75q-3.39,6-6.85,11.88c-1.16,2-3.43,1.94-4.59-.06-2.26-3.91-4.53-7.81-6.76-11.73A1.48,1.48,0,0,0,47,43.91a23.65,23.65,0,0,1-4.38-.17,8.51,8.51,0,0,1-7-8.52q0-13.12,0-26.27A8.66,8.66,0,0,1,44.47,0c7.44,0,14.89,0,22.34,0ZM57.53,50.43l.43-.64c1.73-3,3.51-6,5.18-9a3.2,3.2,0,0,1,3.16-1.83c7.56,0,15.13,0,22.69,0a3.64,3.64,0,0,0,4-3.8Q93,22,93,9a3.64,3.64,0,0,0-4-3.91H44.9c-2.92,0-4.29,1.41-4.29,4.33q0,12.81,0,25.63a3.74,3.74,0,0,0,3.81,3.91H47.5c3.44,0,3.43,0,5.13,3C54.23,44.72,55.85,47.51,57.53,50.43Z"/><path d="M107.13,81.27A2.43,2.43,0,0,1,108.52,79c2.58-1.32,5.15-2.65,7.75-3.93a2.5,2.5,0,1,1,2.26,4.46c-2.57,1.34-5.14,2.67-7.74,3.94A2.47,2.47,0,0,1,107.13,81.27Z"/><path d="M99.34,60.18c0,.19-.12.61-.25,1q-1.25,3.83-2.5,7.64a2.48,2.48,0,0,1-3.23,1.84,2.52,2.52,0,0,1-1.54-3.4q1.29-4,2.59-8a2.54,2.54,0,0,1,2.81-1.82A2.57,2.57,0,0,1,99.34,60.18Z"/><path d="M120,106.6a9.81,9.81,0,0,1-1-.17c-2.78-.89-5.56-1.77-8.32-2.7a2.46,2.46,0,0,1-1.7-2.62,2.42,2.42,0,0,1,2-2.2,3,3,0,0,1,1.34.09c2.73.85,5.44,1.73,8.16,2.63a2.42,2.42,0,0,1,1.79,2,2.33,2.33,0,0,1-.94,2.41A6.18,6.18,0,0,1,120,106.6Z"/><path class="b9cfb118-a87b-4d70-ac1d-7fcd6fb9ec33" d="M138.54,126.41c6.34-2.19,10.73-6.58,14.24-11.94a17.23,17.23,0,0,0,2.68-9.93,4.87,4.87,0,0,1,0-.54c0-.55-.23-1.36.53-1.46a2.39,2.39,0,0,1,1.7.55,4.85,4.85,0,0,1,1.3,3.51,16.58,16.58,0,0,1-1.94,8.27c-.81,1.73-1.43,3.54-2.14,5.32a.85.85,0,0,0,0,.17c-.39,2.54,0,4.4,3.53,4.31,4.91-.14,9.83,0,14.74,0h.64c1.14,0,1.81.58,1.78,1.5s-.65,1.44-1.75,1.45c-2,0-4,0-6,0a3.59,3.59,0,0,0-1.77.56,2.47,2.47,0,0,0,1.42,4.4c2.38,0,4.76,0,7.14,0a9.92,9.92,0,0,1,1.09,0,1.48,1.48,0,1,1-.09,3c-1.12,0-2.25,0-3.38,0-1.68,0-3.36,0-5,0a2.5,2.5,0,1,0,0,5c2.38,0,4.75,0,7.13,0,1.16,0,1.84.54,1.86,1.44s-.7,1.5-1.89,1.5c-2.65,0-5.31,0-8,0a2.52,2.52,0,1,0,0,5c2,0,4,0,6,0,1.22,0,1.89.54,1.87,1.5s-.68,1.45-1.84,1.45c-5.7,0-11.41.12-17.11,0a59.27,59.27,0,0,1-8.7-1,19.29,19.29,0,0,1-3.77-1.54c-1.23-.5-2.47-.95-3.69-1.47a.92.92,0,0,1-.52-.63C138.54,140.05,138.54,133.25,138.54,126.41Zm-5.07,24.71V123.4h-8.71v27.72Z"/></g></g></svg>