<svg xmlns="http://www.w3.org/2000/svg" xmlns:xlink="http://www.w3.org/1999/xlink" viewBox="0 0 157.07 157.06"><defs><style>.e5bad4c4-2630-4805-96f8-6c33c0b7878e{fill:url(#b882fd25-6195-4ef0-9591-1df85d374794);}.a91a0427-d240-44eb-b1ed-1a054107e908{fill:url(#a113e91f-d54d-47d4-a37c-a3680d383c0c);}</style><linearGradient id="b882fd25-6195-4ef0-9591-1df85d374794" x1="35.43" y1="62.03" x2="96.31" y2="62.03" gradientUnits="userSpaceOnUse"><stop offset="0.13" stop-color="#0878b1"/><stop offset="0.65" stop-color="#29ca8c"/><stop offset="1" stop-color="#29ca8c"/></linearGradient><linearGradient id="a113e91f-d54d-47d4-a37c-a3680d383c0c" x1="116.65" y1="127.1" x2="149.31" y2="127.1" xlink:href="#b882fd25-6195-4ef0-9591-1df85d374794"/></defs><g id="a050b7b6-69f8-4207-88af-e4791303fcc6" data-name="Layer 2"><g id="fad1a026-65cf-415a-81b0-e3cbd51f8035" data-name="Kclpht"><path d="M67.09,131.74c-32.39,0-59.49-22.08-65.75-52.59A65.85,65.85,0,0,1,129.63,49.52,64,64,0,0,1,126,92.64a4.83,4.83,0,0,1-1.22,1.8,2.31,2.31,0,0,1-3.06-.18c-1.07-.85-1-1.94-.59-3.15a119.69,119.69,0,0,0,3.9-11.5c6.91-28.53-8.46-58.47-35.71-69.8A60.83,60.83,0,0,0,6.14,54.54c-5.31,27.21,9.08,55.34,34.51,66.54,21.23,9.35,41.6,7.19,60.77-5.91.31-.21.59-.45.91-.64a2.44,2.44,0,0,1,3.6.6,2.31,2.31,0,0,1-.64,3.46,107.39,107.39,0,0,1-9.09,5.72A62.89,62.89,0,0,1,67.09,131.74Z"/><path d="M78.36,98.81c-2.16,6.44-6.43,10-12.08,10.12-6,.15-10.21-3.08-13-10.12H34.23c-3.16,0-3.56-.69-3.88-3.76-.59-5.51,1.49-9.27,6.11-12.3,4.94-3.24,4-2.14,4.08-7.92.07-5.1-.38-10.24,1-15.26A31.31,31.31,0,0,1,57,39.66a2.05,2.05,0,0,0,1.33-2.17c-.1-1.62-.06-3.27,0-4.9a7.59,7.59,0,0,1,15.16-.05c.06,1.79,0,3.59.06,5.37a2,2,0,0,0,.84,1.43c11.42,6.57,16.92,16.49,16.86,29.59,0,3,0,6,0,9a3.28,3.28,0,0,0,1.46,3c1.76,1.26,3.45,2.62,5.2,3.88a7.9,7.9,0,0,1,3.49,6.89c0,1.32,0,2.63,0,4,0,2.28-.89,3.18-3.15,3.18H78.36ZM35.64,93.63H96.12A4.65,4.65,0,0,0,93.79,88c-1.56-1-3-2.18-4.44-3.3a7.74,7.74,0,0,1-3.22-6.55c0-2.11.06-4.22,0-6.33a63.82,63.82,0,0,0-.51-9.3c-1.68-9-6.86-15.47-15.13-19.42a3.19,3.19,0,0,1-2.09-3.32c.07-2.21,0-4.43,0-6.65a2.53,2.53,0,1,0-5,0c0,2-.13,3.91,0,5.85.18,2.28-.77,3.47-2.81,4.51C52.19,47.76,47.06,54.58,46,64a117.17,117.17,0,0,0-.32,13.91A8.24,8.24,0,0,1,42,85c-1.37,1-2.63,2.14-4.07,3A4.57,4.57,0,0,0,35.64,93.63ZM59,98.89a7.17,7.17,0,0,0,7.42,5c3-.22,5.92-2.5,6.27-5Z"/><path d="M144.89,129.12l5,8.16c1.63,2.65,3.27,5.29,4.89,7.94,1.31,2.15.93,3.5-1.33,4.57q-7.2,3.42-14.44,6.79c-1.93.9-2.95.58-4.09-1.27-3.32-5.38-6.63-10.77-10-16.3l-6.57,4.1c-.9.56-1.78,1.14-2.69,1.67-2.15,1.25-4.1.18-4.14-2.29,0-2.64,0-5.28,0-7.91q0-17.42,0-34.82c0-3.26,1.72-4.29,4.58-2.74l38.62,21c.28.15.56.3.83.47,2.1,1.3,2.11,3.49-.06,4.74-3,1.71-6,3.33-9,5C146,128.46,145.49,128.76,144.89,129.12Zm4.42,17c-.37-.65-.62-1.11-.89-1.56Q144,137.3,139.48,130c-1.25-2-.91-3.23,1.17-4.39l8.6-4.81-32.6-17.69v35l6.57-4.12c2.7-1.7,3.66-1.48,5.33,1.24l9.11,14.82c.34.56.54,1.3,1.52.82C142.5,149.32,145.84,147.77,149.31,146.13Z"/><path d="M22.72,49.86a25.05,25.05,0,0,1,20.6-24.42c1.79-.32,3,.34,3.29,1.84s-.46,2.75-2.27,3.14c-11,2.33-17.35,11-16.27,22.26a2.55,2.55,0,0,1-2.27,3c-1.46.16-2.48-.7-2.73-2.41C22.9,52.17,22.83,51,22.72,49.86Z"/><path d="M109,49.92c-.1,1.11-.15,2.11-.29,3.1-.28,2-1.25,2.88-2.8,2.7s-2.45-1.41-2.21-3.35a19.43,19.43,0,0,0-2.93-13,19.24,19.24,0,0,0-13.37-9c-2-.36-2.89-1.88-2.14-3.57a2.48,2.48,0,0,1,3-1.43,24.88,24.88,0,0,1,20.34,20.68C108.8,47.39,108.89,48.71,109,49.92Z"/><path d="M32.65,49.88a14.84,14.84,0,0,1,12.2-14.61c1.7-.31,2.91.42,3.22,2a2.5,2.5,0,0,1-2.11,3C40.28,41.63,37.5,45.28,37.71,51c.08,2.08-.68,3.12-2.33,3.22s-2.56-.89-2.72-2.95C32.62,50.83,32.65,50.36,32.65,49.88Z"/><path d="M99.12,50.49A11.1,11.1,0,0,1,99,52.07a2.35,2.35,0,0,1-2.76,2.18c-1.47-.15-2.15-1.1-2.25-2.71a19.46,19.46,0,0,0-.69-5.26,9.3,9.3,0,0,0-7.33-6c-1.87-.39-2.71-1.71-2.21-3.29a2.47,2.47,0,0,1,3.12-1.69C94,36.55,99.13,42.73,99.12,50.49Z"/><path class="e5bad4c4-2630-4805-96f8-6c33c0b7878e" d="M35.64,93.63A4.57,4.57,0,0,1,38,88c1.44-.86,2.7-2,4.07-3a8.24,8.24,0,0,0,3.59-7.17A117.17,117.17,0,0,1,46,64c1.11-9.38,6.24-16.2,14.62-20.44,2-1,3-2.23,2.81-4.51-.16-1.94-.06-3.9,0-5.85a2.53,2.53,0,1,1,5,0c0,2.22.07,4.44,0,6.65a3.19,3.19,0,0,0,2.09,3.32c8.27,4,13.45,10.41,15.13,19.42a63.82,63.82,0,0,1,.51,9.3c.07,2.11,0,4.22,0,6.33a7.74,7.74,0,0,0,3.22,6.55c1.46,1.12,2.88,2.33,4.44,3.3a4.65,4.65,0,0,1,2.33,5.59Z"/><path class="a91a0427-d240-44eb-b1ed-1a054107e908" d="M149.31,146.13c-3.47,1.64-6.81,3.19-10.13,4.79-1,.48-1.18-.26-1.52-.82l-9.11-14.82c-1.67-2.72-2.63-2.94-5.33-1.24l-6.57,4.12v-35l32.6,17.69-8.6,4.81c-2.08,1.16-2.42,2.35-1.17,4.39q4.46,7.29,8.94,14.55C148.69,145,148.94,145.48,149.31,146.13Z"/></g></g></svg>