<svg xmlns="http://www.w3.org/2000/svg" xmlns:xlink="http://www.w3.org/1999/xlink" viewBox="0 0 372.32 552.15"><defs><style>.f35c3b3d-14c8-47a3-a398-3259f580377b{fill:none;}.b3896f7a-7951-4bff-9dcb-0a3c94e2c39a{clip-path:url(#b6f7aef6-6969-4e5d-ba82-b403046fc404);}.a98dcea3-1bf5-4de7-836a-6bc5b7e77f01{fill:#263238;}.bf506714-76cb-481c-89c5-cb06badc50b9{fill:#e7e7e7;}.b45f2b56-59d2-46ec-b16a-5a5ac95383c6{fill:#455a64;}.ecd7d350-d5ea-4f74-b06f-ae7ba6af365d{fill:#b3d1d4;}.b9546624-d893-458d-9e59-a04ef1c91216{fill:#e74f2a;}.ad30cac8-46ec-4e9d-b54a-3a0ad3f16ae7{opacity:0.3;}.efcd7538-b8b5-4696-92ec-a9bfaf48bb62{clip-path:url(#ac493642-d2ee-4255-84d9-a56620cb0977);}.b0a13408-4b71-4e58-b609-081827d1f439{clip-path:url(#be3a8719-8b2b-45a4-9f76-14453c81fa3e);}.ae01dfcf-ab28-49f5-86c1-07c45df85d17{fill:#d9d9d9;}.bc14cd58-9679-407f-9a7d-5b17ec8a74c9{fill:#f3f3f3;}</style><clipPath id="b6f7aef6-6969-4e5d-ba82-b403046fc404"><rect id="f348b116-8db4-414e-9dae-bfbd6604c174" data-name="SVGID" class="f35c3b3d-14c8-47a3-a398-3259f580377b" width="372.32" height="551.41"/></clipPath><clipPath id="ac493642-d2ee-4255-84d9-a56620cb0977"><rect id="b0c1a3b0-4eff-436e-9990-551089ce7431" data-name="SVGID" class="f35c3b3d-14c8-47a3-a398-3259f580377b" x="205.89" y="275.15" width="95.7" height="29.04"/></clipPath><clipPath id="be3a8719-8b2b-45a4-9f76-14453c81fa3e"><rect id="a82e5f1c-c457-47d6-bed5-b8dfc4c9d86a" data-name="SVGID" class="f35c3b3d-14c8-47a3-a398-3259f580377b" x="287.98" y="196.15" width="20.58" height="53.93"/></clipPath></defs><g id="f466574e-8868-4cbb-af14-0900a38165f5" data-name="Layer 2"><g class="b3896f7a-7951-4bff-9dcb-0a3c94e2c39a"><path class="a98dcea3-1bf5-4de7-836a-6bc5b7e77f01" d="M267.94,32.94c-5-7.23-1.91-18.43,5.54-23.23a22.46,22.46,0,0,1,24.95,1.79c7.09,5.33,9.07,14.62,7.91,22.58-.87,5.91-10.13,18-19,12.66"/><path class="a98dcea3-1bf5-4de7-836a-6bc5b7e77f01" d="M214.74,83.13c-19.62-38,21.45-59.62,44.7-54.29,21.86,5,31.58,15.3,35.85,29.53a71.37,71.37,0,0,1,0,43.89c-2.41,6.92-7.23,14-14.47,15.27"/><path class="bf506714-76cb-481c-89c5-cb06badc50b9" d="M274.28,49.78a7.24,7.24,0,0,1,6.92,7.1L282,156c.43,11.7-16.31,19.15-28.83,19.52s-13.37-5.82-14.12-16.89c-1.23-18.55-1.57-25.53-1.57-25.43S221.37,131.35,217,110.7c-2.17-10.28-2.41-27.29-2.41-41.21.17-12.54,7.67-28.27,20.19-27.57Z"/><path class="a98dcea3-1bf5-4de7-836a-6bc5b7e77f01" d="M237.46,133.19A53,53,0,0,0,265,124.36s-6.05,14.64-27,13.72Z"/><path class="a98dcea3-1bf5-4de7-836a-6bc5b7e77f01" d="M220.63,43.22a20.13,20.13,0,0,0,8.44,19.3,38.72,38.72,0,0,0,11.87,4.66l7.94,2.17a64.79,64.79,0,0,0,17.9,3.11c-.32,6.8-1.11,11.39,2.55,17.13,3.29,5.16,8.06,8.81,14.24,7.24A203.87,203.87,0,0,0,286,56.13,19.12,19.12,0,0,0,283.93,46c-3.14-4.82-9.65-5.79-15.51-6.25l-24.35-1.9a48.43,48.43,0,0,0-11.91,0,16.38,16.38,0,0,0-10.28,5.55"/><path class="b45f2b56-59d2-46ec-b16a-5a5ac95383c6" d="M299,72.61h-.91a6.79,6.79,0,0,1-2.59-.58,11,11,0,0,1-3.4-2.41,54.05,54.05,0,0,1-3.47-4.25A19.75,19.75,0,0,0,283.83,61a25.63,25.63,0,0,0-6.78-3.13,57.66,57.66,0,0,0-17.15-1.88,78.42,78.42,0,0,1-17.44-1.21,25,25,0,0,1-12.57-6.68,19.68,19.68,0,0,1-3.31-4.44,14.87,14.87,0,0,1-1.4-3.93,10.73,10.73,0,0,1-.16-3.53,28.62,28.62,0,0,0,.48,3.45A15.11,15.11,0,0,0,227,43.39a19.19,19.19,0,0,0,3.33,4.22A24.6,24.6,0,0,0,242.63,54a80.57,80.57,0,0,0,17.27,1.11,57.19,57.19,0,0,1,17.37,2,25.91,25.91,0,0,1,7,3.29A20.42,20.42,0,0,1,289.05,65c1.23,1.61,2.26,3.13,3.35,4.29a11.33,11.33,0,0,0,3.21,2.41,8.48,8.48,0,0,0,3.42.9"/><path class="b45f2b56-59d2-46ec-b16a-5a5ac95383c6" d="M295.73,59.89a6.55,6.55,0,0,0-.44-2.94,12,12,0,0,0-6.22-5.16A40.78,40.78,0,0,0,277.2,48.6a106.82,106.82,0,0,0-15.18,0,70.64,70.64,0,0,1-15.31-.53,30.66,30.66,0,0,1-11.66-4.53,20,20,0,0,1-6-6,18.7,18.7,0,0,1-1-2,3.36,3.36,0,0,1-.27-.75,23.84,23.84,0,0,0,1.59,2.63,20.62,20.62,0,0,0,6,5.67,31,31,0,0,0,11.46,4.27,73.78,73.78,0,0,0,15.15.46,102.68,102.68,0,0,1,15.29,0,40.83,40.83,0,0,1,12.06,3.43,12.06,12.06,0,0,1,6.28,5.55,4.83,4.83,0,0,1,.31,2.41,2.26,2.26,0,0,1-.19.72"/><path class="b45f2b56-59d2-46ec-b16a-5a5ac95383c6" d="M304.85,19.89a3.28,3.28,0,0,1,.34,1.4,8.87,8.87,0,0,1-.68,3.84,21.75,21.75,0,0,1-8.71,9.24,20.07,20.07,0,0,1-6.59,2.55,19.51,19.51,0,0,1-5.76.17,27.11,27.11,0,0,1-3.81-.67,5.16,5.16,0,0,1-1.33-.48c0-.15,2,.38,5.19.58a20.83,20.83,0,0,0,5.57-.37,19.63,19.63,0,0,0,6.3-2.41A22.42,22.42,0,0,0,304,25a10.29,10.29,0,0,0,.9-5.07"/><path class="b45f2b56-59d2-46ec-b16a-5a5ac95383c6" d="M297.32,10.7a4.11,4.11,0,0,1,0,1.4,21.49,21.49,0,0,1-.72,3.74,24.88,24.88,0,0,1-6.28,10.81A25.36,25.36,0,0,1,279.56,33a19.47,19.47,0,0,1-3.71.72,3.66,3.66,0,0,1-1.4,0c0-.14,1.95-.31,4.94-1.32A26.09,26.09,0,0,0,296,15.55c1-2.87,1.13-4.85,1.28-4.85"/><path class="b45f2b56-59d2-46ec-b16a-5a5ac95383c6" d="M295.25,100.91a6.61,6.61,0,0,1,0-1.09V96.66a35.67,35.67,0,0,0-2.13-11.29,22.1,22.1,0,0,0-4.05-6.73,18.56,18.56,0,0,0-7.43-5c-6-2.26-13.29-1.9-20.75-2.22a63.53,63.53,0,0,1-20.77-4,34.57,34.57,0,0,1-14.07-9.94,26.25,26.25,0,0,1-5.4-10.27,19.68,19.68,0,0,1-.56-3.14,5.15,5.15,0,0,1,0-1.11,25.37,25.37,0,0,0,.92,4.15,27,27,0,0,0,5.55,10,34.86,34.86,0,0,0,13.9,9.65A63.77,63.77,0,0,0,261,70.6c7.41.34,14.77,0,21,2.42a18.44,18.44,0,0,1,7.67,5.23,21.94,21.94,0,0,1,4.1,7,33.5,33.5,0,0,1,1.91,11.48v3.16c0,.75-.34,1-.38,1"/><path class="ecd7d350-d5ea-4f74-b06f-ae7ba6af365d" d="M290.52,47.3a36.05,36.05,0,0,1-3-3.19,50.1,50.1,0,0,0-17.09-11.82,34.33,34.33,0,0,1-4-1.66,16.08,16.08,0,0,1,4.24,1.11A41.38,41.38,0,0,1,288,43.8a16.47,16.47,0,0,1,2.54,3.5"/><path class="bf506714-76cb-481c-89c5-cb06badc50b9" d="M279,84.33c.29-.14,10.91-5.48,11.66,7s-11.92,10.64-12.07,10.31.41-17.28.41-17.28"/><path class="bf506714-76cb-481c-89c5-cb06badc50b9" d="M95.58,195.84s-8.37-16.45-10.49-18.05-20.85-8.1-22.44-7.57S38.53,175,41.2,177.6s18.34-.51,18.34-.51l2.12,1s-13.56,2.41-16.4,4.07-1.67,4.83.82,4.49,14.28-2.77,15-2.41-12.79,3.38-14.24,4.27c-2,1.18-2.09,4.68.39,4.49,1.45-.15,14.19-3.65,14.19-3.65a112.08,112.08,0,0,0-11,5,1.86,1.86,0,0,0,1.93,3.14c1.52-.34,8.61-3.88,10.64-4.34,0,0,1.88.46,3.66,4.27s14.24,13.27,14.24,13.27Z"/><path class="bf506714-76cb-481c-89c5-cb06badc50b9" d="M90.42,196.15a4.46,4.46,0,0,1-5.23,0c-1.65-.94-2.9-2.41-4.44-3.47C76.09,189.52,69.5,190.41,65,187c-.63-.48-1.26-1.25-.92-2s1.18-.75,1.9-.73l18.61.15"/><path class="a98dcea3-1bf5-4de7-836a-6bc5b7e77f01" d="M84.61,184.55a8,8,0,0,0-2-.22c-1.3,0-3.18-.17-5.5-.22L69,183.92H66.56a3.72,3.72,0,0,0-2.73.6,1.6,1.6,0,0,0-.29,1.74,3.08,3.08,0,0,0,1,1.18,11.57,11.57,0,0,0,2.41,1.4,67.08,67.08,0,0,0,9.65,2.61,13.58,13.58,0,0,1,3.84,1.69,26.57,26.57,0,0,1,2.94,2.41,6.54,6.54,0,0,0,5.26,1.76c1.38-.29,1.81-1,1.76-1a5.27,5.27,0,0,1-1.81.63A6.28,6.28,0,0,1,83.74,195a37.34,37.34,0,0,0-2.92-2.41,15.42,15.42,0,0,0-4.08-1.88,81.66,81.66,0,0,1-9.31-2.92,11.31,11.31,0,0,1-2.15-1.26c-.6-.46-.92-1.11-.58-1.37a3.63,3.63,0,0,1,2-.32H77.2c2.41,0,4.2,0,5.5-.12a8.16,8.16,0,0,0,1.91-.14"/><path class="a98dcea3-1bf5-4de7-836a-6bc5b7e77f01" d="M218.24,315.33,94,475.55a57.9,57.9,0,0,0-9.1,54.31l90,183.83,30.21-51.36L153.48,517.17l67.31-80.92,30-124Z"/><path class="a98dcea3-1bf5-4de7-836a-6bc5b7e77f01" d="M169.86,738l55.71-388.85,2.77-34.79,68.28-3.57s23.88,37.2,25,60-62.17,182.08-62.17,182.08l-9.1,63.57L212.18,750.94Z"/><path class="b45f2b56-59d2-46ec-b16a-5a5ac95383c6" d="M227.77,321.6c.33,0-12.33,93.32-28.33,208.28S170.2,738.06,169.87,738s12.35-93.29,28.32-208.3,29.24-208.15,29.58-208.11"/><path class="b45f2b56-59d2-46ec-b16a-5a5ac95383c6" d="M153.1,517.33c-.15.17-1.52-1-4.08-2.41a25.84,25.84,0,0,0-21.71-.84c-2.63,1.13-4.1,2.22-4.25,2a10.62,10.62,0,0,1,4-2.68,23.54,23.54,0,0,1,22.43.87,10.26,10.26,0,0,1,3.65,3"/><path class="b45f2b56-59d2-46ec-b16a-5a5ac95383c6" d="M300.7,334.56a8,8,0,0,1-1.5.87,22.74,22.74,0,0,1-4.39,1.57,30.93,30.93,0,0,1-6.9,1,35.92,35.92,0,0,1-8.52-.84,36.77,36.77,0,0,1-8-2.95,32.25,32.25,0,0,1-5.8-3.88,24.73,24.73,0,0,1-3.28-3.35c-.67-.87-1-1.38-.94-1.43s1.72,1.74,4.83,4.08a35.11,35.11,0,0,0,5.76,3.55,40.33,40.33,0,0,0,7.77,2.75,39.1,39.1,0,0,0,8.2.91,33.56,33.56,0,0,0,6.71-.67c3.74-.77,6-1.79,6.06-1.57"/><path class="b45f2b56-59d2-46ec-b16a-5a5ac95383c6" d="M101.2,563.15a25.45,25.45,0,0,1-2.14-3.81c-1.33-2.41-3.21-6.11-5.43-10.62a157.22,157.22,0,0,1-7.07-16.26,87.66,87.66,0,0,1-3-10A56.35,56.35,0,0,1,82,511.23a46.54,46.54,0,0,1,1-11.29,62.14,62.14,0,0,1,3.23-10A87.82,87.82,0,0,1,95,474.49c2.89-4.15,5.45-7.24,7.24-9.51.87-1.08,1.61-1.9,2.1-2.41a4,4,0,0,1,.79-.8,32,32,0,0,1-2.53,3.57c-1.67,2.25-4.1,5.51-6.88,9.65a92,92,0,0,0-8.42,15.4,63.88,63.88,0,0,0-3.11,9.84,47,47,0,0,0-.94,11,55.4,55.4,0,0,0,1.5,10.95,81.85,81.85,0,0,0,2.89,9.94c2.2,6.25,4.68,11.7,6.78,16.26l5.07,10.78,1.32,3a4.42,4.42,0,0,1,.41,1"/><polygon class="b9546624-d893-458d-9e59-a04ef1c91216" points="203.52 171.38 157.32 224.55 97.42 191.4 76.47 212.37 154.26 265.66 188.95 265.13 218.55 206.77 203.52 171.38"/><path class="b9546624-d893-458d-9e59-a04ef1c91216" d="M186.63,210.63l25.7,108.3,86.27-7.41,11.1-85.16L332.81,190s-5.72-34.19-43.64-34.45L283,141.05l-45.47,3.81-5.41,13.25s-37.42,2.68-36.55,36.64Z"/><g class="ad30cac8-46ec-4e9d-b54a-3a0ad3f16ae7"><g class="efcd7538-b8b5-4696-92ec-a9bfaf48bb62"><path d="M208.44,302.67a45.18,45.18,0,0,0,38.6-7.41,13.75,13.75,0,0,1,5.14-3,12.46,12.46,0,0,1,6.18.9A114.47,114.47,0,0,0,287,298.3a20.1,20.1,0,0,0,9.94-1.33,7.76,7.76,0,0,0,4.61-8.18,265.71,265.71,0,0,0-44.88-12.06c-7.93-1.4-16.14-2.41-24-.65s-15.15,6.44-22,11a9.64,9.64,0,0,0-4.42,4.54c-1.35,4,2.68,8.15,1.86,12.28"/></g></g><path class="b9546624-d893-458d-9e59-a04ef1c91216" d="M273.15,188.6c2.41,2.2,34.5,57.2,34.5,57.2L256.4,257l-1.76,25.26,50.4,7.23,22.65,2.42a29.12,29.12,0,0,0,29.87-40.44l-26.18-66.63Z"/><path class="a98dcea3-1bf5-4de7-836a-6bc5b7e77f01" d="M321.76,245.66c0,.34-14.48,3.18-32.57,6.32s-32.74,5.4-32.79,5.07,14.48-3.16,32.57-6.33,32.74-5.45,32.79-5.06"/><path class="a98dcea3-1bf5-4de7-836a-6bc5b7e77f01" d="M309.62,247.66a16.4,16.4,0,0,1-1.37-2.75c-.87-2-2-4.61-3.31-7.65-2.75-6.46-6.44-15.46-10.47-25.4q-3-7.46-5.62-14.07a25.54,25.54,0,0,1-2.24-12.28A12.41,12.41,0,0,1,290.3,178a9.78,9.78,0,0,1,1.88-1.38,2.54,2.54,0,0,1,.75-.29c-.79.63-1.55,1.3-2.27,2a12.54,12.54,0,0,0-3.16,7.24,25.36,25.36,0,0,0,2.41,11.75c1.79,4.32,3.69,9.05,5.72,14,4,10,7.6,19,10.13,25.55,1.19,3.11,2.18,5.72,2.95,7.82a12,12,0,0,1,.91,3"/><path class="a98dcea3-1bf5-4de7-836a-6bc5b7e77f01" d="M335.92,292.15a13.43,13.43,0,0,1-3.23.12c-2.08,0-5.09,0-8.78-.27-7.43-.38-17.64-1.3-29-2.87s-21.33-3.3-28.62-4.56L257.68,283a14.55,14.55,0,0,1-3.13-.74,18.44,18.44,0,0,1,3.23.26c2.05.24,5,.63,8.68,1.16,7.24,1.06,17.47,2.65,28.66,4.2s21.36,2.63,28.74,3.23l8.76.68a16.67,16.67,0,0,1,3.3.36"/><path class="a98dcea3-1bf5-4de7-836a-6bc5b7e77f01" d="M202.24,258a31.18,31.18,0,0,0-1.35-9.14c-.77-2.77-2-6-3-9.77a19.19,19.19,0,0,1-.67-6.13,25.93,25.93,0,0,1,1.37-6.46,103.4,103.4,0,0,1,10.88-20l3.72-5.77a13.49,13.49,0,0,1,1.42-2.09,7.92,7.92,0,0,1-1,2.41c-.74,1.45-1.9,3.5-3.4,6A123.53,123.53,0,0,0,199.76,227a24.78,24.78,0,0,0-1.33,6.13,17.68,17.68,0,0,0,.58,5.79c.84,3.69,2.05,6.95,2.75,9.79a25,25,0,0,1,.87,6.88,9.92,9.92,0,0,1-.2,1.88c-.09.36-.14.58-.19.55"/><path class="a98dcea3-1bf5-4de7-836a-6bc5b7e77f01" d="M244.46,160a24.45,24.45,0,0,1-.17-7.87,24.75,24.75,0,0,1,1.09-7.79,25.59,25.59,0,0,1,.17,7.86,26.07,26.07,0,0,1-1.09,7.8"/><path class="a98dcea3-1bf5-4de7-836a-6bc5b7e77f01" d="M261.32,158.52a48.05,48.05,0,0,1-2.41-15.37,23.94,23.94,0,0,1,1.86,7.58,24.88,24.88,0,0,1,.55,7.79"/><path class="a98dcea3-1bf5-4de7-836a-6bc5b7e77f01" d="M275.9,155.72a34.77,34.77,0,0,1-3.72-12.67,35.17,35.17,0,0,1,3.72,12.67"/><g class="ad30cac8-46ec-4e9d-b54a-3a0ad3f16ae7"><g class="b0a13408-4b71-4e58-b609-081827d1f439"><path d="M288,196.15c.27,16.5,3.21,30.18,3.48,46.69a10.71,10.71,0,0,0,.79,4.68c1.86,3.57,6.06,2.41,10.06,2.26a37.55,37.55,0,0,0,6.13-1.3,5.3,5.3,0,0,0-.51-3.64c-6.65-17.15-13.29-31.56-19.95-48.69"/></g></g><polygon class="a98dcea3-1bf5-4de7-836a-6bc5b7e77f01" points="105.86 228.82 130.64 252.7 170.64 291.25 239.44 287.83 183.74 224.94 105.86 228.82"/><path class="ae01dfcf-ab28-49f5-86c1-07c45df85d17" d="M116.72,228.09s-18,8,.33,21.72,43.43,18.94,47.19,28.95a16.88,16.88,0,0,1-2.41,16.89l52.72-2.42s15.65-13.51,4-25.54-42.32-29.27-45.87-34.1,5-8.46,5-8.46Z"/><polygon class="b45f2b56-59d2-46ec-b16a-5a5ac95383c6" points="133.41 227.32 131.34 224.89 159.78 223.13 159.78 226.07 133.41 227.32"/><path class="bc14cd58-9679-407f-9a7d-5b17ec8a74c9" d="M168,235.36a34.44,34.44,0,0,1-7.07,1.08c-4.39.46-10.47,1-17.2,1.35s-12.83.51-17.27.41a30.33,30.33,0,0,1-7.24-.6,67.31,67.31,0,0,1,7.24-.29c4.39,0,10.49-.41,17.2-.77l17.2-1a50.06,50.06,0,0,1,7.14-.19"/><path class="bc14cd58-9679-407f-9a7d-5b17ec8a74c9" d="M173.58,243.25a216.36,216.36,0,0,1-23,1.71,216.91,216.91,0,0,1-23.09.48,206.59,206.59,0,0,1,23-1.74,214.29,214.29,0,0,1,23.09-.45"/><path class="bc14cd58-9679-407f-9a7d-5b17ec8a74c9" d="M185.84,249.93a33.78,33.78,0,0,1-6.61,1.16c-4.11.55-9.65,1.15-16.07,1.66s-12.06.75-16.14.85a34.2,34.2,0,0,1-6.71-.15,37.22,37.22,0,0,1,6.66-.75l16.09-1.2,16.07-1.28a38.58,38.58,0,0,1,6.71-.29"/><path class="bc14cd58-9679-407f-9a7d-5b17ec8a74c9" d="M194.11,259a161,161,0,0,1-19.71,2.2,159.85,159.85,0,0,1-19.81.94,157.2,157.2,0,0,1,19.71-2.2,154.32,154.32,0,0,1,19.81-.94"/><path class="bc14cd58-9679-407f-9a7d-5b17ec8a74c9" d="M206.51,267.06a151.42,151.42,0,0,1-19.08,2.63,148.39,148.39,0,0,1-19.18,1.37,151.11,151.11,0,0,1,19.06-2.63,141.79,141.79,0,0,1,19.2-1.37"/><path class="bc14cd58-9679-407f-9a7d-5b17ec8a74c9" d="M212.3,278.52a26.29,26.29,0,0,1-5.72.94c-3.54.41-8.44.84-13.89,1.11s-10.35.34-13.92.29a24.44,24.44,0,0,1-5.79-.39,30.92,30.92,0,0,1,5.76-.51l13.9-.65,13.87-.74a26.07,26.07,0,0,1,5.79-.05"/><path class="bf506714-76cb-481c-89c5-cb06badc50b9" d="M254.67,281.85l-13.08-2.05L192.88,281s-2.53-.73-.34-2.12c1.06-.68,19-5.12,19-5.12l-25.72,2.08a33.78,33.78,0,0,1,9.8-11.73c6.22-4.25,18.28-7,18.28-7l-7.79-5.91s25.45-3.33,28.73-.43a95.24,95.24,0,0,1,7.24,7.43l14.07-.15"/><path class="a98dcea3-1bf5-4de7-836a-6bc5b7e77f01" d="M220.5,272.32c0,.36-7.69.6-17.1,1.52s-17,2.07-17.08,1.71a18.66,18.66,0,0,1,4.82-1.28c3.07-.58,7.24-1.23,12.07-1.69s9-.6,12.18-.6a19.05,19.05,0,0,1,5.11.34"/><path class="a98dcea3-1bf5-4de7-836a-6bc5b7e77f01" d="M219,266a89.59,89.59,0,0,1-14.62,2.7,84.43,84.43,0,0,1-14.79,1.45,89.71,89.71,0,0,1,14.62-2.75A87.34,87.34,0,0,1,219,266"/></g></g></svg>