<svg xmlns="http://www.w3.org/2000/svg" xmlns:xlink="http://www.w3.org/1999/xlink" viewBox="0 0 170.03 170.07"><defs><style>.fe29481d-03a0-4f85-bccc-804b9fba40a9{fill:url(#bc3026f4-8efc-4d9e-b76d-5faa5f59dada);}.ed5bde1a-4780-491f-ae7c-0b27f6a91e80{fill:url(#b9b3d973-c548-40c7-bbe6-c74c9b2c2fa6);}</style><linearGradient id="bc3026f4-8efc-4d9e-b76d-5faa5f59dada" x1="60.68" y1="144.05" x2="144.14" y2="144.05" gradientUnits="userSpaceOnUse"><stop offset="0.13" stop-color="#0878b1"/><stop offset="0.65" stop-color="#29ca8c"/><stop offset="1" stop-color="#29ca8c"/></linearGradient><linearGradient id="b9b3d973-c548-40c7-bbe6-c74c9b2c2fa6" x1="4.98" y1="28.91" x2="52.77" y2="28.91" xlink:href="#bc3026f4-8efc-4d9e-b76d-5faa5f59dada"/></defs><g id="e7267333-2886-4a8b-bfc1-0032a5dc2896" data-name="Layer 2"><g id="e3acce37-ca71-4e83-9df8-5b841ef8219f" data-name="FBuJCr"><path d="M0,166.75a3.61,3.61,0,0,1,3.5-1.69q27.06.06,54.12,0h2.13c-.38-3.64-.73-7.14-1.1-10.63-1-9.3-2-18.59-2.92-27.89-.48-4.88,2.7-8.35,7.59-8.43,2.36,0,4.73,0,7.19,0V103.48c-.14-.08-.2-.14-.23-.12-6.36,2.82-12.94,5.22-19,8.58s-9,9.45-9.05,16.53c-.09,9.29,0,18.59,0,27.89a9,9,0,0,1-.06,1.65c-.22,1.24-1.06,2.16-2.25,2a4.58,4.58,0,0,1-2.41-1.57c-.36-.4-.25-1.27-.25-1.92,0-9.13-.08-18.26,0-27.39.11-11.27,5.37-19.22,15.7-23.77,3.59-1.58,7.2-3.12,10.79-4.69.39-.17.75-.38,1.36-.69l-1.7-.7a20.12,20.12,0,0,1-8.24-30.69c3.36-4.37,6.16-9,6.74-14.54a86.15,86.15,0,0,0,.24-9.78c-.06-6.11.18-12.14,2.23-18C70.16,9.69,86.86-1.33,104.1.13c18.26,1.55,32.9,14.71,35.67,32.49.76,4.88.61,9.93.64,14.89,0,4.62.05,9.22,2.07,13.49a24.84,24.84,0,0,0,3.5,6,20.42,20.42,0,0,1-8.52,32.91c.82.39,1.49.73,2.19,1,3.65,1.57,7.37,3,10.95,4.74,9.25,4.49,14.2,12,14.39,22.25.21,11.73,0,23.46,0,35.19V165c1.87.29,4.22-.54,4.9,2.08.37,1.41-.56,2.25-1.58,3H0ZM140,165c.44-4.1.86-8.05,1.28-12,.94-8.8,1.89-17.6,2.79-26.4.27-2.59-.59-3.49-3.13-3.49q-38.59,0-77.2,0c-2.48,0-3.29.89-3,3.4q1.05,10.39,2.16,20.79c.62,5.88,1.26,11.75,1.9,17.7ZM124,13.66l-1.14,1.65a66.61,66.61,0,0,1-13,14.35A66,66,0,0,1,79.11,43.92c-.83.15-1.55.22-1.54,1.44.07,6.31-.08,12.62.09,18.93.23,8.63,6.26,16.37,14.74,18a61.19,61.19,0,0,0,15,.47c6.3-.39,11.12-3.79,14.4-9.15a45.75,45.75,0,0,0,2.63-5.88,67.66,67.66,0,0,0-7.56,4.59A5,5,0,0,0,115.25,74c-1.24,2.38-3.07,4-5.75,4.22a43,43,0,0,1-8.1-.08,7.06,7.06,0,0,1-6-7.42,7.24,7.24,0,0,1,6.8-6.9c1.38-.08,2.77,0,4.15-.06,3.59-.23,6.74.47,8.71,4a18.66,18.66,0,0,0,9.18-9.15,5.46,5.46,0,0,0,.46-2.06c.05-3.66,0-7.31,0-11,0-1.06-.26-1.54-1.36-1.8A28.55,28.55,0,0,1,113.21,39c-1.7-1.23-2.12-2.6-1.23-3.9s2.4-1.39,4.06-.19a24.48,24.48,0,0,0,11.45,4.52,68.43,68.43,0,0,0,8,.06A34.55,34.55,0,0,0,124,13.66ZM67.08,39.41c20,1.8,42.83-11.24,52.73-28.8-9.16-6.44-23.6-8-35.36-1.08C73.15,16.18,67.59,26.27,67.08,39.41Zm93,125.61v-1.3c0-11.84.1-23.69,0-35.53-.1-8.56-4.21-14.7-12-18.26-3.27-1.49-6.59-2.86-9.89-4.27-2.06-.89-4.13-1.75-6.31-2.68v15.14h8.86c5.86,0,9,3.34,8.39,9.12-1,9.91-2.12,19.8-3.18,29.7-.28,2.67-.53,5.34-.8,8.08ZM90.36,87.17a1.23,1.23,0,0,0-.23.4A15.84,15.84,0,0,1,79.49,99.16c-3.26,1.09-4.4,2.81-4,6.11.17,1.27.46,1.84,1.72,2,4.57.76,9.11,1.82,13.7,2.37a88.16,88.16,0,0,0,34.64-3c.39-.11,1-.4,1-.64a18.53,18.53,0,0,0-.07-4.94c-.14-.62-1.55-1-2.44-1.41-3.71-1.46-7.21-3.26-9.41-6.74-1.14-1.8-1.94-3.8-2.92-5.76A63.91,63.91,0,0,1,90.36,87.17ZM67.13,44.57c0,1.37,0,2.58,0,3.79.43,8.63-2.36,16.13-7.73,22.85a15,15,0,0,0,1.22,20.34,15.93,15.93,0,0,0,20.65,1,11.29,11.29,0,0,0,4-6.15,1.57,1.57,0,0,0-.79-2c-7.8-4.93-11.8-12-11.86-21.29,0-5.58,0-11.17,0-16.76,0-.58,0-1.16-.07-1.78Zm62.58.24c0,6.13,0,12,0,17.85,0,9.42-3.94,16.74-12,21.78a1.44,1.44,0,0,0-.74,1.89,11.1,11.1,0,0,0,4,6.14,15.65,15.65,0,0,0,14.72,2.62,15.09,15.09,0,0,0,7.41-23.5,38.12,38.12,0,0,1-6-10.43,35.13,35.13,0,0,1-1.68-12.75c0-1.24,0-2.48,0-3.6Zm-3.08,66.78a97.91,97.91,0,0,1-50.91.49V118h50.91Zm-21-38.27a29.4,29.4,0,0,0,3,0,2.29,2.29,0,1,0-.15-4.58c-1.87,0-3.75,0-5.62,0a2.16,2.16,0,0,0-2.39,2.2,2.19,2.19,0,0,0,2.22,2.39C103.64,73.4,104.64,73.32,105.63,73.32Z"/><path d="M0,26c.43-1.82.75-3.67,1.29-5.46a28.83,28.83,0,0,1,56.22,4.94,28.28,28.28,0,0,1-7.09,22.71l-1.14,1.28c1.08.66,2.1,1.26,3.09,1.89a3.43,3.43,0,0,1-1.78,6.5c-7.58,0-15.16.14-22.73,0C14.28,57.44,2.27,46.61.33,33.19c-.07-.43-.22-.84-.33-1.26ZM44.53,52.54c-1.78-2.62-1.63-4,.75-6.25a23.34,23.34,0,0,0,7.47-16.48A23.92,23.92,0,0,0,25.19,5.33C13.71,6.92,4.94,17.22,5,29.06c0,11.67,8.94,22.26,20.34,23.37C31.67,53,38.12,52.54,44.53,52.54Z"/><path class="fe29481d-03a0-4f85-bccc-804b9fba40a9" d="M140,165H64.78c-.64-5.95-1.28-11.82-1.9-17.7q-1.1-10.4-2.16-20.79c-.25-2.51.56-3.4,3-3.4q38.59,0,77.2,0c2.54,0,3.4.9,3.13,3.49-.9,8.8-1.85,17.6-2.79,26.4C140.88,157,140.46,160.9,140,165Zm-37.55-11.49a9.45,9.45,0,0,0,9.4-9.54A9.46,9.46,0,0,0,93,144.1,9.4,9.4,0,0,0,102.47,153.51Z"/><path class="ed5bde1a-4780-491f-ae7c-0b27f6a91e80" d="M44.53,52.54c-6.41,0-12.86.5-19.21-.11C13.92,51.32,5,40.73,5,29.06c0-11.84,8.73-22.14,20.21-23.73A23.92,23.92,0,0,1,52.75,29.81a23.34,23.34,0,0,1-7.47,16.48C42.9,48.58,42.75,49.92,44.53,52.54ZM38.78,26.48a2.45,2.45,0,1,0,.13,4.89,2.45,2.45,0,0,0-.13-4.89Zm-10,0A2.45,2.45,0,1,0,29,31.37a2.45,2.45,0,0,0-.16-4.89Zm-9.9,4.89a2.45,2.45,0,0,0,0-4.89,2.45,2.45,0,1,0,0,4.89Z"/><path d="M102.47,153.51A9.4,9.4,0,0,1,93,144.1a9.46,9.46,0,1,1,9.51,9.41Zm-.15-5a4.47,4.47,0,0,0,4.56-4.32,4.56,4.56,0,0,0-4.48-4.61A4.51,4.51,0,0,0,98,144,4.4,4.4,0,0,0,102.32,148.52Z"/><path d="M38.78,26.48a2.45,2.45,0,1,1-2.39,2.59A2.43,2.43,0,0,1,38.78,26.48Z"/><path d="M28.8,26.48a2.45,2.45,0,1,1-2.37,2.61A2.42,2.42,0,0,1,28.8,26.48Z"/><path d="M18.9,31.37A2.45,2.45,0,1,1,21.36,29,2.4,2.4,0,0,1,18.9,31.37Z"/></g></g></svg>