<svg xmlns="http://www.w3.org/2000/svg" xmlns:xlink="http://www.w3.org/1999/xlink" viewBox="0 0 158.76 159.15"><defs><style>.adae22be-22dc-470b-8ffd-ce21831a11af{fill:url(#b5ae1056-eacd-4915-b678-3a026a613166);}</style><linearGradient id="b5ae1056-eacd-4915-b678-3a026a613166" x1="36.93" y1="79.57" x2="121.84" y2="79.57" gradientUnits="userSpaceOnUse"><stop offset="0.13" stop-color="#0878b1"/><stop offset="0.65" stop-color="#29ca8c"/><stop offset="1" stop-color="#29ca8c"/></linearGradient></defs><g id="a344892a-fd5b-4f21-a349-5736cc931a75" data-name="Layer 2"><g id="b6e36ef9-0237-4fe6-a9e6-b824e28ff1b9" data-name="IpDJ4Y"><path d="M136.37,64.81c3.2,2.5,6.58,4.92,9.85,7.27l3.12,2.24.44-.62c.69-1,1.3-1.84,1.92-2.7s1.33-1.85,2-2.78c1.48-2,3-4.15,4.45-6.27a2.87,2.87,0,0,0-.49-4.05c-1.31-1-3-.71-4.19.73-.34.38-.66.78-1,1.16l-.91,1.12-.72-.28-.18-.07a1.18,1.18,0,0,1-.83-.72c-.22-.59-.44-1.19-.63-1.79A73.15,73.15,0,0,0,88.5,6.87a11.82,11.82,0,0,0-1.59-.13A2.72,2.72,0,0,0,84,8.51a2.4,2.4,0,0,0,0,2.2c.52.94,1.83,1.64,3.6,1.92C115,16.92,133.73,32.36,143.3,58.52a7.92,7.92,0,0,1,.34,1.51c0,.25.08.52.14.83l.44,2.33-2-1.23c-.38-.23-.72-.45-1-.66a7.24,7.24,0,0,0-1.4-.8,3.62,3.62,0,0,0-1.34-.28,2.51,2.51,0,0,0-2.14,1.2C135.55,62.45,135.19,63.88,136.37,64.81Z"/><path d="M151.38,84.94a2.73,2.73,0,0,0-1.83-1.13c-1.78-.26-3.06,1-3.33,3.14-.22,1.69-.47,3.51-.87,5.32-5.49,24.66-20.3,41.72-44,50.68-.6.23-1.21.4-1.91.6l-1.19.34-2.55.77L97,142.35c.24-.4.44-.73.63-1a7,7,0,0,0,.63-1.15,2.7,2.7,0,0,0-1-3.62,2.47,2.47,0,0,0-3.6.46c-2.37,3.14-4.61,6.28-7,9.61-.73,1-1.46,2.07-2.21,3.11L87.61,152c3.23,2.31,6.28,4.49,9.42,6.63a2.75,2.75,0,0,0,3.93-.7,2.86,2.86,0,0,0-.7-4c-.46-.39-.94-.75-1.53-1.19l-1-.79-1.63-1.25,2-.59,1.3-.38c.69-.2,1.22-.35,1.74-.54,29.17-10.25,46.3-31,50.91-61.6A3.43,3.43,0,0,0,151.38,84.94Z"/><path d="M70.31,146c-27-4.53-45.49-19.94-54.91-45.81a7.66,7.66,0,0,1-.32-1.5c0-.27-.08-.57-.14-.92l-.45-2.5,2.77,1.93.73.5c1.85,1.16,3.46,1.09,4.49-.29.72-1,1.24-2.3-1.2-4.19-1.55-1.2-2.82-2.16-4-3-2-1.49-4.1-3-6.19-4.46L9.32,84.5,7.1,87.62C4.84,90.8,2.7,93.8.59,96.88a2.84,2.84,0,0,0,.54,4c1.28,1,3,.64,4.2-.78.28-.33.55-.67.9-1.1l1.89-2.34,1,3.16c.23.71.42,1.28.63,1.86,10.15,28.32,30.32,45.17,60,50.08a12.12,12.12,0,0,0,1.88.17c2.66,0,3.18-1.24,3.33-2.46C75.07,148.56,75.29,146.84,70.31,146Z"/><path d="M74.28,9.42,71.16,7.19c-3.24-2.32-6.29-4.5-9.44-6.65A3,3,0,0,0,60.06,0a2.82,2.82,0,0,0-2.29,1.25,2.89,2.89,0,0,0,.73,4c.38.33.78.64,1.24,1L62,8.08l-2.81,1-1.71.59c-22.42,7.46-38,22.25-46.37,44A70,70,0,0,0,7.94,66.81c-.25,1.48-.5,3-.79,4.41a3.6,3.6,0,0,0,.64,2.65,3.82,3.82,0,0,0,2.83.82c.91-.15,1.59-.74,1.93-3.13,3.59-24.85,16.9-42.9,39.58-53.66,1.78-.84,3.66-1.52,5.65-2.24l3.14-1.16,2.82-1.08L62.2,16c-.3.51-.56.92-.78,1.28a17,17,0,0,0-.86,1.5,2.67,2.67,0,0,0,.78,3.68c1.37,1,2.78.92,3.75-.35,2.38-3.12,4.61-6.26,7-9.58C72.79,11.51,73.53,10.46,74.28,9.42Z"/><g id="e7b044cd-a54f-4a1d-b9a6-89c13d1a52d8" data-name="3kLQhT"><path d="M75.06,31.49H83.7a1.59,1.59,0,0,0,.32.16A8.74,8.74,0,0,1,91.12,39a14.51,14.51,0,0,1,.1,2.72.82.82,0,0,0,.67.93c1.15.39,2.27.86,3.4,1.32.66.27,1.36.89,1.95.79s1.06-.88,1.58-1.37A8.78,8.78,0,0,1,111,43.27c1.65,1.53,3.25,3.13,4.77,4.79a8.52,8.52,0,0,1,2.11,7.65,9.09,9.09,0,0,1-2.77,4.9c-1.08,1-1.05,1-.45,2.38.48,1.05.92,2.12,1.34,3.2.58,1.51.56,1.52,2.18,1.53a8.82,8.82,0,0,1,8.58,5.51c.27.66.45,1.35.67,2v8.64c-.07.2-.16.4-.21.6a8.91,8.91,0,0,1-4.6,6,9.76,9.76,0,0,1-5.29,1,.89.89,0,0,0-1.06.74c-.37,1.13-.84,2.22-1.29,3.32-.27.66-.88,1.36-.79,2s.89,1.06,1.37,1.58a8.78,8.78,0,0,1,.08,12.22q-2.27,2.44-4.71,4.71a8.85,8.85,0,0,1-12.73-.75,1.42,1.42,0,0,0-2.11-.39,25.68,25.68,0,0,1-3.45,1.46c-1.43.54-1.46.52-1.44,2.06a8.62,8.62,0,0,1-4.12,7.92,20.68,20.68,0,0,1-3.42,1.42H75.06c-.29-.1-.57-.21-.87-.29a8.84,8.84,0,0,1-5.47-4.11,9.69,9.69,0,0,1-1.19-5.7.88.88,0,0,0-.74-1.06c-1.15-.38-2.27-.87-3.4-1.33-.63-.26-1.31-.86-1.85-.75s-1.07.89-1.59,1.37a8.77,8.77,0,0,1-12.22.08c-1.67-1.55-3.3-3.16-4.83-4.85a8.5,8.5,0,0,1-2.06-7.59,9.12,9.12,0,0,1,2.78-4.89c1.07-1.05,1.05-1.05.44-2.38-.43-.93-.83-1.89-1.21-2.84-.73-1.86-.72-1.86-2.68-1.89a8.82,8.82,0,0,1-8.7-7.12,2.17,2.17,0,0,0-.17-.42V75.25a6,6,0,0,0,.2-.6,8.61,8.61,0,0,1,6.36-6.6,14.78,14.78,0,0,1,3.53-.31A1,1,0,0,0,42.46,67a13.62,13.62,0,0,1,1.28-3.21c.95-1.52.69-2.47-.6-3.75a8.6,8.6,0,0,1-.06-12.11C44.66,46.22,46.29,44.57,48,43a8.85,8.85,0,0,1,12.45.86,1.51,1.51,0,0,0,2.27.42,16.8,16.8,0,0,1,2.74-1.19c2-.8,2-.79,2.06-2.94a8.83,8.83,0,0,1,6-8.23C74.06,31.78,74.56,31.64,75.06,31.49Zm-38.13,48c0,1,0,2,0,3a3.18,3.18,0,0,0,3.27,3.26c1.28,0,2.56,0,3.85,0a2.82,2.82,0,0,1,3,2.29,36,36,0,0,0,3.44,8.29,2.76,2.76,0,0,1-.5,3.74c-.85.88-1.73,1.73-2.59,2.6a3.21,3.21,0,0,0,0,4.89q2,2,4,4a3.17,3.17,0,0,0,4.75,0c.91-.87,1.77-1.77,2.67-2.65a2.8,2.8,0,0,1,3.82-.52,35.7,35.7,0,0,0,8.2,3.41A2.87,2.87,0,0,1,73.16,115c0,1.28,0,2.56,0,3.85A3.15,3.15,0,0,0,76.38,122q3,0,6,0a3.16,3.16,0,0,0,3.21-3.22c0-1.28,0-2.56,0-3.85a2.84,2.84,0,0,1,2.33-3.07,36,36,0,0,0,8.21-3.41A2.8,2.8,0,0,1,100,109c.87.85,1.72,1.73,2.59,2.58a3.2,3.2,0,0,0,4.83,0q2-2,4-4a3.17,3.17,0,0,0,0-4.69c-.89-.93-1.82-1.81-2.71-2.73a2.76,2.76,0,0,1-.51-3.74,36.2,36.2,0,0,0,3.44-8.29,2.84,2.84,0,0,1,3-2.29c1.28,0,2.57,0,3.85,0a3.16,3.16,0,0,0,3.26-3.26c0-2,0-4,0-5.92a3.16,3.16,0,0,0-3.27-3.25c-1.28,0-2.56,0-3.85,0a2.84,2.84,0,0,1-3-2.3,36.2,36.2,0,0,0-3.44-8.29,2.77,2.77,0,0,1,.51-3.74c.9-.92,1.83-1.8,2.71-2.73a3.17,3.17,0,0,0,0-4.69c-1.33-1.37-2.69-2.71-4.05-4.05a3.18,3.18,0,0,0-4.75,0c-.93.89-1.81,1.83-2.74,2.72a2.76,2.76,0,0,1-3.67.49,35.26,35.26,0,0,0-8.37-3.48,2.8,2.8,0,0,1-2.24-3c0-1.32,0-2.63,0-3.94a3.16,3.16,0,0,0-3.22-3.22q-3,0-6,0a3.16,3.16,0,0,0-3.2,3.22c0,1.32,0,2.63,0,3.95a2.84,2.84,0,0,1-2.25,3,35.9,35.9,0,0,0-8.38,3.47,2.75,2.75,0,0,1-3.67-.5c-.94-.92-1.84-1.87-2.8-2.78a3.15,3.15,0,0,0-4.61,0c-1.39,1.35-2.77,2.73-4.12,4.12a3.17,3.17,0,0,0,0,4.75c.87.9,1.78,1.76,2.65,2.66a2.78,2.78,0,0,1,.5,3.75,36,36,0,0,0-3.44,8.29,2.84,2.84,0,0,1-3,2.29c-1.31,0-2.63,0-3.94,0a3.16,3.16,0,0,0-3.17,3.16C36.91,77.52,36.93,78.52,36.93,79.53Z"/><path class="adae22be-22dc-470b-8ffd-ce21831a11af" d="M36.93,79.53c0-1,0-2,0-3a3.16,3.16,0,0,1,3.17-3.16c1.31,0,2.63,0,3.94,0a2.84,2.84,0,0,0,3-2.29,36,36,0,0,1,3.44-8.29A2.78,2.78,0,0,0,50,59c-.87-.9-1.78-1.76-2.65-2.66a3.17,3.17,0,0,1,0-4.75c1.35-1.39,2.73-2.77,4.12-4.12a3.15,3.15,0,0,1,4.61,0c1,.91,1.86,1.86,2.8,2.78a2.75,2.75,0,0,0,3.67.5,35.9,35.9,0,0,1,8.38-3.47,2.84,2.84,0,0,0,2.25-3c0-1.32,0-2.63,0-3.95a3.16,3.16,0,0,1,3.2-3.22q3,0,6,0a3.16,3.16,0,0,1,3.22,3.22c0,1.31,0,2.62,0,3.94a2.8,2.8,0,0,0,2.24,3,35.26,35.26,0,0,1,8.37,3.48,2.76,2.76,0,0,0,3.67-.49c.93-.89,1.81-1.83,2.74-2.72a3.18,3.18,0,0,1,4.75,0c1.36,1.34,2.72,2.68,4.05,4.05a3.17,3.17,0,0,1,0,4.69c-.88.93-1.81,1.81-2.71,2.73a2.77,2.77,0,0,0-.51,3.74,36.2,36.2,0,0,1,3.44,8.29,2.84,2.84,0,0,0,3,2.3c1.29,0,2.57,0,3.85,0a3.16,3.16,0,0,1,3.27,3.25c0,2,0,4,0,5.92a3.16,3.16,0,0,1-3.26,3.26c-1.28,0-2.57,0-3.85,0a2.84,2.84,0,0,0-3,2.29,36.2,36.2,0,0,1-3.44,8.29,2.76,2.76,0,0,0,.51,3.74c.89.92,1.82,1.8,2.71,2.73a3.17,3.17,0,0,1,0,4.69q-2,2.05-4,4a3.2,3.2,0,0,1-4.83,0c-.87-.85-1.72-1.73-2.59-2.58a2.8,2.8,0,0,0-3.82-.52,36,36,0,0,1-8.21,3.41,2.84,2.84,0,0,0-2.33,3.07c0,1.29,0,2.57,0,3.85A3.16,3.16,0,0,1,82.39,122q-3,0-6,0a3.15,3.15,0,0,1-3.21-3.21c0-1.29,0-2.57,0-3.85a2.87,2.87,0,0,0-2.34-3.08,35.7,35.7,0,0,1-8.2-3.41,2.8,2.8,0,0,0-3.82.52c-.9.88-1.76,1.78-2.67,2.65a3.17,3.17,0,0,1-4.75,0q-2-2-4-4a3.21,3.21,0,0,1,0-4.89c.86-.87,1.74-1.72,2.59-2.6a2.76,2.76,0,0,0,.5-3.74,36,36,0,0,1-3.44-8.29,2.82,2.82,0,0,0-3-2.29c-1.29,0-2.57,0-3.85,0a3.18,3.18,0,0,1-3.27-3.26C36.92,81.53,36.93,80.53,36.93,79.53Zm63.36.12a20.91,20.91,0,1,0-21,20.83A20.89,20.89,0,0,0,100.29,79.65Z"/><path d="M100.29,79.65a20.91,20.91,0,1,1-20.81-21A20.9,20.9,0,0,1,100.29,79.65Zm-5.64-.07A15.27,15.27,0,1,0,79.38,94.85,15.24,15.24,0,0,0,94.65,79.58Z"/></g></g></g></svg>