<svg xmlns="http://www.w3.org/2000/svg" xmlns:xlink="http://www.w3.org/1999/xlink" viewBox="0 0 247.5 457.32"><defs><style>.a970f3af-d393-49ef-99a9-efbc510c7fb2{fill:none;}.f9575f04-1d52-4b96-a57d-9c8caa614c3f{fill:#e7e7e7;}.b949777b-47dc-45e2-8806-75c4c2270ff0{fill:#b3d1d4;}.bd49c3ba-09ac-492f-ad15-33554f5e5a33,.f76a7976-8a36-4dde-9e43-3eadede4ce33{opacity:0.5;}.bcef57c3-f64c-424a-87fa-7347e0e69d24{clip-path:url(#ef972cfd-7387-4077-b1df-cd56c8994dc5);}.a776f885-4c78-40c8-b3d8-4dbe4e5a5d6f{fill:#fff;}.a197a917-65fb-406b-acac-e345203525bd,.bd49c3ba-09ac-492f-ad15-33554f5e5a33,.e5d19495-1816-4d08-b035-1544b7d601a2{isolation:isolate;}.e9912b47-04e9-4225-b139-e4cbe0f69819{clip-path:url(#b033bca0-c362-4e90-8f36-6221eff29582);}.b056ff4f-1e3b-45db-8a67-f71807bd82a3{fill:#263238;}.abdc901a-b9e2-4c37-a2cb-b26eedcb5685{clip-path:url(#eb225b4a-c0a5-4073-b348-d65919c6d5fc);}.f6915883-9f85-4078-a0bb-2a53ff7863bc{clip-path:url(#bdb58d54-b714-40bb-b0ef-e83d71def39a);}.aa9a367a-35f4-4f3e-9b6b-8faacffc4973{fill:#455a64;}.a197a917-65fb-406b-acac-e345203525bd{opacity:0.3;}.e4b52e79-06f1-400d-86f0-b01bf1625ca5{clip-path:url(#a283791f-2087-41f0-8aea-fcb1403093dd);}.a78c90c0-e40d-472d-a358-059d2e1f9df6{clip-path:url(#b2f9d3e2-dda6-4a42-be00-b434c2c3e7ba);}.f3056228-a980-485e-8a60-488fe915185d{clip-path:url(#aa55affe-d750-4b36-a232-9f71905870eb);}.b9ccf720-2d2b-4123-83ff-4b483aaf233a{clip-path:url(#e86e0677-70af-4df2-996d-9dabdd3fa144);}.fb345ada-e6bd-430a-a6b2-d79cca26bf8b{clip-path:url(#a2cc8aff-59b1-4422-b5f8-095cee4e84cd);}.a9c8a93c-48f8-4c67-a8ac-5418fc723fec{clip-path:url(#b94ee84b-eb8d-4c9a-80de-c693bb05748d);}.f37294b7-0f96-4710-a05b-cc9320cb892d{clip-path:url(#aef19a9f-29ac-4728-ab36-8ee8cd9c7145);}.f8e91d1d-88e2-44f4-8183-32423f112c1d{clip-path:url(#be0305cd-f29c-4f9c-a3a0-1211aacf847f);}.fbbb3488-1d04-4db9-9fb4-e40ef887c7f6{clip-path:url(#b934c40c-3d70-4830-ae78-2f0246c884c6);}.b7a956ec-888f-4a0f-b8b1-768b82c5ebdf{clip-path:url(#b5ba7b61-5415-4f07-8255-b617bbfa001c);}.ec1941c0-a72f-456d-9936-2393e61a5668{clip-path:url(#aa38bcb9-65d5-48cc-b5ff-f5bcc1120319);}.aae760fc-49b5-4a4a-b4af-8ac8c367acdf{clip-path:url(#aafa80a9-c5d8-4aee-9694-c1c693b96036);}.a833e22e-0f99-46e4-a888-6c477a1cd7ad{clip-path:url(#e72ad561-46ae-48a2-9dc3-159e798323c1);}.eca8e595-5bf8-4d53-ac4c-c9c8ed33e741{clip-path:url(#befeebc8-6a79-4afa-8532-d07c15b405bf);}.b5dae2bd-0d4b-458b-a7d5-d63e9d1b81c8{clip-path:url(#a9c2e5f7-0fd1-438f-86c9-9d2853e0c5c1);}.e96a28fa-0245-4d12-a05e-127405c76485{clip-path:url(#b216f698-26ba-4b2e-91f6-5a4065e46281);}.fdbdc819-cf3b-47f2-949a-bd41528b02b0{clip-path:url(#f348b841-17fc-4a02-9788-642e85ceccdf);}.eea4fe34-6a34-4cfe-bea0-50e668ed4423{clip-path:url(#b1e2366b-7d0a-48e8-9748-8578c3cd40cb);}.b1dccb14-56d5-4eaa-ac0d-708a5ff847e6{clip-path:url(#b5e7339a-43ac-4087-9fa8-6b89e8905135);}.bd322d70-dadf-4778-a500-ddb5a6f6385d{clip-path:url(#a8f3ef8b-67a7-43c2-aa49-2e0f5b9ca23a);}.f81a51dd-676a-4d51-bfd0-b705c491d241{clip-path:url(#e3ab54cb-d180-4e43-bafe-60eaf6936fb0);}.a0a044da-593d-4d14-bb32-4ca096bbfd02{clip-path:url(#f5a50e1a-fa8e-4206-b18a-7df239d005c2);}.a4f688eb-b483-4306-be00-6ae31fc9f16e{clip-path:url(#a2a12f43-369a-42a1-a4e0-cbf841618138);}.a195fd67-8bd9-4195-bc76-5dbfbe2b3bad{clip-path:url(#afa5074d-08cc-42d3-a751-7b7000e658fd);}.a84d4150-9c2c-4c13-b827-9c48878d0cad{clip-path:url(#be48a5a6-9a60-4a24-8d98-35b33a21bdb8);}.a94a7e35-bbf0-477d-98e7-027c5a789129{clip-path:url(#b04f2fcb-e301-4364-a3ab-a4253c5da887);}.ab0e9202-4de9-4c96-9293-570963060e4e{clip-path:url(#ae41ba03-0fc6-4606-b6b6-903bab801486);}.af8ea5fc-ebdd-417d-a35c-903ccbf4b304{clip-path:url(#e681512c-2b07-4223-ab9c-fc38fc3a97cc);}.b3a299aa-cf46-49cf-801d-eb720a6384d3{clip-path:url(#fc7b499a-c97c-402b-ab32-4b790acd25ef);}.abbfabce-9a40-4ce2-a005-b6fe1597ed48{clip-path:url(#a4e45302-73b0-462f-8801-1eb7b14f58d6);}.bcace06d-fcff-44ec-88ab-857b693cdf28{clip-path:url(#b0ea0c7e-5c96-4be7-bba2-580d60f70acd);}.ad58ee69-67cc-49ef-b435-dee5b972ec49{clip-path:url(#ad109a09-eae1-469d-98fd-983c418135d0);}.b159d32b-62a9-4e7a-a293-be55c1bc19e0{clip-path:url(#a01d627a-5947-4462-85c7-31fd32d93dc1);}.a0f1bcdc-5071-45a4-96ea-f15186639aff{clip-path:url(#a6cfedf1-0304-4c1c-b8bc-110732305272);}.e68c43f2-dfbf-473d-ab04-6eb6a58f8724{clip-path:url(#ac18d220-9979-4d0b-a287-63e0fdaafd85);}.f8de3b39-9e95-4dec-aabd-a118755bfc33{clip-path:url(#a9059d36-edd8-4f5b-b515-2e682f98e2ed);}.b1bc5d21-362c-465a-8c80-85e2a33d8b4b{clip-path:url(#b27c8b34-9bdb-40cf-84a8-4961ba9a8262);}.ec5235b5-4314-43a0-8c46-3191b5525c34{clip-path:url(#e32d8f71-c87f-456d-9f14-a21eb2e44e81);}.fb42296b-e6df-4c39-b5e0-af96c69df2ca{clip-path:url(#aaff8e37-5d4e-4423-9c57-b43eb4f5aec3);}.b927129c-6346-4564-a36c-813b04bacdba{clip-path:url(#a5831e24-5c0a-4966-8b02-f3ee6f9fb7a3);}.bd99a78d-37d8-4830-9225-124814b39121{clip-path:url(#e5b9e1be-35a1-4a5d-b82b-c9e3a08a34e3);}.b58e7fbb-e3b8-434e-bf74-a233e51c100e{clip-path:url(#bfb4f03e-7a20-4418-b3b4-015f1daa303e);}.e4e78c41-63b9-412c-9548-1502c5a8ed3d{clip-path:url(#abda5c7e-9d44-4ddc-9d7e-b05c3f07ad89);}.a9d2b6ae-6f2e-41eb-994d-af37e7846c6f{clip-path:url(#fb2c5fb4-3242-4a7f-9232-296233dd3d1a);}.fe0f7c54-cbc9-4c72-8bbe-26facec2c691{clip-path:url(#a850b9a2-612d-4158-93f4-de9aba4d4cb0);}.a50b9105-746c-4f39-83ec-24a5af6c0037{clip-path:url(#a5e7db04-0063-41ed-b709-04f33793425b);}.b798a83c-bdb8-41dd-aacf-60de8540f43b{clip-path:url(#bcd2fcd9-1e58-4533-b09f-a6f6cd1add0c);}.ba79f5a8-2054-46b8-af83-e3705e160193{clip-path:url(#a1909be5-02f5-49b2-b114-c23f8dd3863d);}.f21873e8-c2d5-4ce4-ac19-591f3e2c4687{clip-path:url(#bf4254cf-d0c7-4828-aea3-b79dd9b6a53f);}.bc1d9693-f120-4f21-aba0-e28b6990f13a{clip-path:url(#ece6258a-1d19-42e3-b2d3-1b0fb83ca618);}.a212abb5-c9d4-4a7b-a1d6-184859bf5843{clip-path:url(#ad21ced6-8de8-4d45-b6f7-f3629ba33a5a);}.bf41a20c-f77b-4777-9de7-9f740e9e507f{clip-path:url(#b5f7c62f-bb51-4dd2-a99f-a0658f10e14f);}.ad10a80a-72b7-4e76-afa8-84798f037203{clip-path:url(#a8aaedb3-b736-400c-b22e-e78ca2c667e6);}.e7131e8c-84bb-4d59-8226-1ee424fdbb21{clip-path:url(#b0b1ffc9-75fb-4133-995a-1f120a616d0e);}.af35c54a-2569-498f-8b69-0a4f2164cf0f{clip-path:url(#a0a73393-84e8-41cf-bf88-f76729ab1f19);}.f153c84f-b99e-4155-8204-677101294ac8{clip-path:url(#b9f0e988-9bc1-46b6-91ef-91f9b1d48b0e);}.f0ae4f1e-6d29-4446-b004-8e54e6f08e48{clip-path:url(#bbaf1e6d-5ef8-489f-9f03-61840fa9d175);}.e31f5ff2-f3bf-4e54-950b-f2b6965f445d{fill:#ffcf00;}.f9e3ea26-1d1a-4350-89a3-7d0a1451a4ff{fill:#e74f2a;}.e5d19495-1816-4d08-b035-1544b7d601a2,.ef309b28-f818-493d-8a99-b43461f44a66{opacity:0.2;}.b08659b1-12cc-4007-bf73-20ced04d06f8{clip-path:url(#aa7526e4-c21a-4669-a0b1-538611fa37cb);}.ee4e3891-6916-45b6-992a-32af6c52d0aa{clip-path:url(#e5e5fb2f-f2c9-43de-a662-fd0639e2bd26);}.e70c60ab-9065-4fab-819d-a404306efbc1{clip-path:url(#e229b112-7c1b-4771-bd76-b4673347c29a);}.f8522b91-a0b7-402c-9039-a67824b226bd{clip-path:url(#a5f050c5-8e61-4d55-9706-0e59d6738e25);}.a2e6f21c-4006-46b9-9245-70c9a26d5a1b{clip-path:url(#be296ed9-602a-4c16-b808-e79ed6c1c5b4);}.b86d473e-1619-4a2c-9066-a66decb79acd{clip-path:url(#a5120130-c42b-4cda-abb5-2fd901d5dcc5);}.e00ef09b-d4f4-4f0f-bd64-703e52a65d39{clip-path:url(#fe44402f-b4c0-414f-ba60-c114e5276fa3);}.a6a50a46-d3bf-4548-b34d-a26c653dc1f0{clip-path:url(#b8013b7c-6ae6-46e9-8fcd-0a1c5234c6bb);}.bf0403db-6192-4777-a8ca-bec976c583b7{clip-path:url(#eb26ab20-0ed4-4018-87ff-99ac6ed0a85d);}.b674bdef-6aa9-4b13-93c4-4d5e37ace8a5{clip-path:url(#b68df826-2d9a-4eae-bbd6-4dcd823a2dbe);}.ab6a112d-f7c1-4271-bf04-5d0684671323{clip-path:url(#a70af2c1-eaf5-4339-b4de-b49896113203);}.b125aa1f-7a03-433d-963a-871a6e1a6206{clip-path:url(#ae1e1e3b-780b-4ce0-a925-b766d1cc2809);}.f585c974-684f-431d-aad8-be87c06b89d3{clip-path:url(#a540988e-2daf-44c0-8931-67a637ec9d5b);}.e3397fdc-d1b4-451f-bada-1aca0bfaf980{clip-path:url(#bf51f407-5170-41e9-ae94-b05ebf9c884b);}.a74a4a61-2c00-4ee9-b6f8-093666d81823{clip-path:url(#becb0690-eacf-406f-8086-a6327a75ae34);}.b6218b6e-8fb8-4f34-a515-ece01efe901d{clip-path:url(#ee6b7cf2-9291-47cd-955e-706a6eb1f870);}.f28fae70-2957-45f3-ace2-e95706fe5582{clip-path:url(#e19f0873-351b-4bca-b4c1-a27cc784eb63);}.e9ffb7d0-e7c4-4b43-a85f-ab8ad1366bca{clip-path:url(#b13a6c67-ab27-426a-b80a-343d0ede7518);}.b4cf4b02-8f5f-4f4b-b943-3ccd308c2b49{clip-path:url(#b356f387-2d29-48ba-9a08-e4688e7ae81c);}.f4a75b7c-c474-4707-bdf0-9845cb48c5e3{clip-path:url(#f34219da-20af-464f-bed6-bb12c4db2c95);}.a70769d0-e1e6-47f5-808e-98d2dfb9e21c{clip-path:url(#b9337217-2e23-4d61-88fc-a90f0bf74ad9);}.b058b291-d1f7-46bd-b5b0-5965d0a01877{clip-path:url(#fba69cea-5a9d-4ebf-b7b3-433938135305);}.bf486eb4-d435-4943-a27f-91048eb87c7d{clip-path:url(#ffd02711-b12e-434c-932f-75d6e91fdb88);}.b9955ce7-78ea-42d4-ae50-3748366cf423{clip-path:url(#aa2d90ea-7398-4065-a48e-06aeec8c6e0e);}.a3ff3e7e-1d05-4f7f-ab5b-4e6fbc0c40e2{clip-path:url(#e2ed2b74-e65a-4bc5-b91b-7e1fa305aaf6);}.a5045a2e-8a2c-4bd4-9b42-2dc785a7d413{clip-path:url(#bb270fe9-91f2-41df-8f96-be286d453e1d);}.a5fb849b-8674-4b75-ac81-79b9406a7922{clip-path:url(#bba397fe-0a6b-468b-8a6c-dcd02f2198c4);}.a2c54719-392e-4b1d-8f9c-add6b0303aca{clip-path:url(#be41c1b2-8e38-4fc9-9243-d47075b09d95);}.be4f08b8-5e57-4a7e-9a6a-7f8ced86184d{clip-path:url(#a3caa31a-926c-427c-98d1-23b1e866c04c);}.b9d6cad7-6d94-4f7d-9c2d-b325977193c0{clip-path:url(#f19bc452-6890-4f8b-b58d-b35abf6f8144);}.a14c41b9-6e1f-49d3-b245-91bc53ecf192{clip-path:url(#bb4667cb-7e45-4a20-8170-396407f6f565);}.ec6411ef-d6bf-4163-835d-c6f668aa1700{clip-path:url(#a4b0bda5-4e1d-4be9-9d35-fea076bb8938);}.e3411964-4f77-489e-b989-02f194625b89{clip-path:url(#fad26368-a957-416e-a813-d56e3889a14e);}.b5218183-297a-44b0-bb88-406da94af558{clip-path:url(#a300c9d3-fcc1-4be3-96b3-6705fe196442);}.fe64d773-ad8e-470e-8fa2-74573a36b6b9{clip-path:url(#b6dda8da-ae9f-472e-973f-03860e9c41b5);}.a5ed8c0e-0813-4c05-9da0-ceffb320ee2a{clip-path:url(#ed2684d0-d334-4cea-ab41-9c71f30b67e0);}.b00efcf7-b0a7-4fed-91c2-c9b5b2cbd082{clip-path:url(#a3f28546-8298-4593-aac7-2e2fa6685228);}.bd0089c6-68fd-45da-856d-f0d71e57f673{clip-path:url(#f6c33971-cc10-41ce-ac8f-92424a7bb3d4);}.a72fbf20-6162-499e-b281-82fa06425072{clip-path:url(#b63b4b69-17b2-4b1b-883b-93641cd3674c);}.eeba48cd-221c-4594-8c9c-c596b5d1ee3c{clip-path:url(#be7fa7d0-42b4-4f15-8c82-dc16fdde0765);}.a0e2fd48-f4ac-4546-b948-85df67ada5d1{clip-path:url(#e292a0dd-ebc8-45bf-9d70-2f74a2774bea);}.b353f731-d4d2-473e-8d8e-03c2e37c9c05{clip-path:url(#faf5581b-15ed-41d9-b4b8-1c5508399e74);}</style><clipPath id="ef972cfd-7387-4077-b1df-cd56c8994dc5"><rect id="a0bf6e54-88f8-4fc6-aa35-7207e05e5c9b" data-name="SVGID" class="a970f3af-d393-49ef-99a9-efbc510c7fb2" x="27.72" y="411.43" width="7.33" height="10.87"/></clipPath><clipPath id="b033bca0-c362-4e90-8f36-6221eff29582"><rect id="bee87139-a638-4ea1-937d-32c7791d8da9" data-name="SVGID" class="a970f3af-d393-49ef-99a9-efbc510c7fb2" x="27.45" y="415.67" width="26.74" height="30.07"/></clipPath><clipPath id="eb225b4a-c0a5-4073-b348-d65919c6d5fc"><rect id="ada9776c-3c94-4568-a5cc-c532710a4012" data-name="SVGID" class="a970f3af-d393-49ef-99a9-efbc510c7fb2" x="159.58" y="450.12" width="8.78" height="6.63"/></clipPath><clipPath id="bdb58d54-b714-40bb-b0ef-e83d71def39a"><rect id="bad0e329-6b38-4854-8bcd-3e23f7245ce8" data-name="SVGID" class="a970f3af-d393-49ef-99a9-efbc510c7fb2" x="159.8" y="452.6" width="39.8" height="4.72"/></clipPath><clipPath id="a283791f-2087-41f0-8aea-fcb1403093dd"><rect id="aa9e479c-3de9-4f44-8f15-da88bb6ad245" data-name="SVGID" class="a970f3af-d393-49ef-99a9-efbc510c7fb2" x="136.88" y="115.76" width="7.79" height="33.98"/></clipPath><clipPath id="b2f9d3e2-dda6-4a42-be00-b434c2c3e7ba"><rect id="be33612d-a2b4-4f2e-9668-e602b884fb6b" data-name="SVGID" class="a970f3af-d393-49ef-99a9-efbc510c7fb2" x="87.62" y="91.02" width="50.33" height="7.26"/></clipPath><clipPath id="aa55affe-d750-4b36-a232-9f71905870eb"><rect id="aca1c52d-147b-4712-8c23-9bb1e80a370d" data-name="SVGID" class="a970f3af-d393-49ef-99a9-efbc510c7fb2" x="91.85" y="102.15" width="52.4" height="8.07"/></clipPath><clipPath id="e86e0677-70af-4df2-996d-9dabdd3fa144"><rect id="e6b85258-ce69-4ccb-bb8d-050345958ec9" data-name="SVGID" class="a970f3af-d393-49ef-99a9-efbc510c7fb2" x="93.8" y="100.85" width="5.89" height="6.05"/></clipPath><clipPath id="a2cc8aff-59b1-4422-b5f8-095cee4e84cd"><rect id="b2c27dd2-cda1-4122-9a4d-9c1dbb5b32e9" data-name="SVGID" class="a970f3af-d393-49ef-99a9-efbc510c7fb2" x="121.89" y="98.74" width="5.92" height="6.05"/></clipPath><clipPath id="b94ee84b-eb8d-4c9a-80de-c693bb05748d"><rect id="ae1f20b7-ad4c-48b7-a388-e4e349b61683" data-name="SVGID" class="a970f3af-d393-49ef-99a9-efbc510c7fb2" x="106.99" y="96.49" width="5.89" height="6.05"/></clipPath><clipPath id="aef19a9f-29ac-4728-ab36-8ee8cd9c7145"><rect id="ae8a5cda-c0cb-4db2-a941-ef16db7c4550" data-name="SVGID" class="a970f3af-d393-49ef-99a9-efbc510c7fb2" x="133.69" y="94.5" width="5.92" height="6.05"/></clipPath><clipPath id="be0305cd-f29c-4f9c-a3a0-1211aacf847f"><rect id="a54b6759-0184-470d-b8bb-b963c5882cda" data-name="SVGID" class="a970f3af-d393-49ef-99a9-efbc510c7fb2" x="91.09" y="88.71" width="5.9" height="6.05"/></clipPath><clipPath id="b934c40c-3d70-4830-ae78-2f0246c884c6"><rect id="f6992209-985c-478f-803e-92f48ea2c7cb" data-name="SVGID" class="a970f3af-d393-49ef-99a9-efbc510c7fb2" x="121.06" y="85.93" width="5.91" height="6.04"/></clipPath><clipPath id="b5ba7b61-5415-4f07-8255-b617bbfa001c"><rect id="ba91207e-b1f2-4157-b3a2-0b6515f6f804" data-name="SVGID" class="a970f3af-d393-49ef-99a9-efbc510c7fb2" x="106.22" y="85.22" width="5.88" height="6.05"/></clipPath><clipPath id="aa38bcb9-65d5-48cc-b5ff-f5bcc1120319"><rect id="b08bae47-9389-42d2-aace-323b4c79e6af" data-name="SVGID" class="a970f3af-d393-49ef-99a9-efbc510c7fb2" x="96.55" y="111.51" width="5.91" height="6.05"/></clipPath><clipPath id="aafa80a9-c5d8-4aee-9694-c1c693b96036"><rect id="b4aa9ceb-3685-4099-aef3-c35629ac12cd" data-name="SVGID" class="a970f3af-d393-49ef-99a9-efbc510c7fb2" x="125.5" y="109.89" width="5.89" height="6.04"/></clipPath><clipPath id="e72ad561-46ae-48a2-9dc3-159e798323c1"><rect id="b8eafdee-4ea7-4511-947a-bcd1e738227a" data-name="SVGID" class="a970f3af-d393-49ef-99a9-efbc510c7fb2" x="110.61" y="107.58" width="5.89" height="6.05"/></clipPath><clipPath id="befeebc8-6a79-4afa-8532-d07c15b405bf"><rect id="bcfcfb46-f47f-416b-a59d-762fb094ff40" data-name="SVGID" class="a970f3af-d393-49ef-99a9-efbc510c7fb2" x="137.29" y="105.65" width="5.89" height="6.04"/></clipPath><clipPath id="a9c2e5f7-0fd1-438f-86c9-9d2853e0c5c1"><rect id="fbc8cfc8-1b14-4ceb-8196-74d3e8448301" data-name="SVGID" class="a970f3af-d393-49ef-99a9-efbc510c7fb2" x="99.05" y="121.56" width="5.89" height="6.04"/></clipPath><clipPath id="b216f698-26ba-4b2e-91f6-5a4065e46281"><rect id="f56073ef-f6ae-489b-9b09-39624173a29c" data-name="SVGID" class="a970f3af-d393-49ef-99a9-efbc510c7fb2" x="128.51" y="120.92" width="5.92" height="6.04"/></clipPath><clipPath id="f348b841-17fc-4a02-9788-642e85ceccdf"><rect id="f34c8fe7-fd3a-48fa-b0d1-6d8d49a025ef" data-name="SVGID" class="a970f3af-d393-49ef-99a9-efbc510c7fb2" x="113.59" y="118.61" width="5.91" height="6.04"/></clipPath><clipPath id="b1e2366b-7d0a-48e8-9748-8578c3cd40cb"><rect id="e2234a75-2d00-45b9-b8ca-b627567d1cb3" data-name="SVGID" class="a970f3af-d393-49ef-99a9-efbc510c7fb2" x="140.29" y="116.62" width="5.93" height="6.04"/></clipPath><clipPath id="b5e7339a-43ac-4087-9fa8-6b89e8905135"><rect id="e3671041-8f64-4363-9dba-c77ee74cb17e" data-name="SVGID" class="a970f3af-d393-49ef-99a9-efbc510c7fb2" x="94.35" y="114.75" width="42.72" height="5.3"/></clipPath><clipPath id="a8f3ef8b-67a7-43c2-aa49-2e0f5b9ca23a"><rect id="ae9508dd-60e9-46fe-baf9-66710aed2aba" data-name="SVGID" class="a970f3af-d393-49ef-99a9-efbc510c7fb2" x="138.33" y="111.57" width="8.71" height="2.85"/></clipPath><clipPath id="e3ab54cb-d180-4e43-bafe-60eaf6936fb0"><rect id="bc12045f-5910-4328-9086-0da0c3da1f55" data-name="SVGID" class="a970f3af-d393-49ef-99a9-efbc510c7fb2" x="96.87" y="125.94" width="44.12" height="6.8"/></clipPath><clipPath id="f5a50e1a-fa8e-4206-b18a-7df239d005c2"><rect id="bb9d4d25-2611-43de-b373-1765041d6fe3" data-name="SVGID" class="a970f3af-d393-49ef-99a9-efbc510c7fb2" x="143.71" y="122.09" width="9.36" height="2.07"/></clipPath><clipPath id="a2a12f43-369a-42a1-a4e0-cbf841618138"><rect id="b40ea3a2-320a-4fe5-85d9-0790206ff177" data-name="SVGID" class="a970f3af-d393-49ef-99a9-efbc510c7fb2" x="85.46" y="81.16" width="42.4" height="5.09"/></clipPath><clipPath id="afa5074d-08cc-42d3-a751-7b7000e658fd"><rect id="f71d3a4c-f6fd-42d7-a597-16083a3482a9" data-name="SVGID" class="a970f3af-d393-49ef-99a9-efbc510c7fb2" x="87.38" y="90.47" width="1.72" height="3.54"/></clipPath><clipPath id="be48a5a6-9a60-4a24-8d98-35b33a21bdb8"><rect id="b61ebe0d-36ea-4a8e-ac87-389ad5e8c845" data-name="SVGID" class="a970f3af-d393-49ef-99a9-efbc510c7fb2" x="98.03" y="88.93" width="2.13" height="4.16"/></clipPath><clipPath id="b04f2fcb-e301-4364-a3ab-a4253c5da887"><rect id="be5cab1a-b8bb-4a18-a7f3-2d5debce1fad" data-name="SVGID" class="a970f3af-d393-49ef-99a9-efbc510c7fb2" x="100.31" y="88.3" width="1.71" height="3.4"/></clipPath><clipPath id="ae41ba03-0fc6-4606-b6b6-903bab801486"><rect id="f9944c30-5813-4088-b9e1-c93a1ff74868" data-name="SVGID" class="a970f3af-d393-49ef-99a9-efbc510c7fb2" x="103.37" y="87.54" width="1.44" height="4"/></clipPath><clipPath id="e681512c-2b07-4223-ab9c-fc38fc3a97cc"><rect id="e2488b55-bf3a-4217-8383-826b69490cf9" data-name="SVGID" class="a970f3af-d393-49ef-99a9-efbc510c7fb2" x="113.82" y="86.62" width="1.71" height="3.86"/></clipPath><clipPath id="fc7b499a-c97c-402b-ab32-4b790acd25ef"><rect id="b31ef10f-3e91-4190-8ad0-3f6cd6ea2073" data-name="SVGID" class="a970f3af-d393-49ef-99a9-efbc510c7fb2" x="117.29" y="87.07" width="1.06" height="4"/></clipPath><clipPath id="a4e45302-73b0-462f-8801-1eb7b14f58d6"><rect id="f0667a5d-8154-4a2f-a98b-9586c9680bc1" data-name="SVGID" class="a970f3af-d393-49ef-99a9-efbc510c7fb2" x="127.61" y="86.28" width="2.83" height="2.96"/></clipPath><clipPath id="b0ea0c7e-5c96-4be7-bba2-580d60f70acd"><rect id="f0afbe17-3bb2-452e-bd1f-947acd34bddf" data-name="SVGID" class="a970f3af-d393-49ef-99a9-efbc510c7fb2" x="129.19" y="85.32" width="3.55" height="3.04"/></clipPath><clipPath id="ad109a09-eae1-469d-98fd-983c418135d0"><rect id="f565ced8-002d-4fe7-920d-da9c9f754d8d" data-name="SVGID" class="a970f3af-d393-49ef-99a9-efbc510c7fb2" x="83.73" y="79.38" width="0.91" height="4.16"/></clipPath><clipPath id="a01d627a-5947-4462-85c7-31fd32d93dc1"><rect id="af130b58-b76c-450b-81bd-844e459b74b2" data-name="SVGID" class="a970f3af-d393-49ef-99a9-efbc510c7fb2" x="86.61" y="79.09" width="1.58" height="4.3"/></clipPath><clipPath id="a6cfedf1-0304-4c1c-b8bc-110732305272"><rect id="b309a63b-b349-4507-842b-e486e3f9c20e" data-name="SVGID" class="a970f3af-d393-49ef-99a9-efbc510c7fb2" x="90.21" y="78.91" width="1.99" height="4.48"/></clipPath><clipPath id="ac18d220-9979-4d0b-a287-63e0fdaafd85"><rect id="e499be6a-9883-4cc6-aef2-d6062904db33" data-name="SVGID" class="a970f3af-d393-49ef-99a9-efbc510c7fb2" x="96" y="78.55" width="6.01" height="5.67"/></clipPath><clipPath id="a9059d36-edd8-4f5b-b515-2e682f98e2ed"><rect id="b0b8cf61-d790-4677-afe9-85fc18a29df8" data-name="SVGID" class="a970f3af-d393-49ef-99a9-efbc510c7fb2" x="104.46" y="79.26" width="1.29" height="2.75"/></clipPath><clipPath id="b27c8b34-9bdb-40cf-84a8-4961ba9a8262"><rect id="f5315fc7-1301-4567-969e-f9475e3a42ca" data-name="SVGID" class="a970f3af-d393-49ef-99a9-efbc510c7fb2" x="108.12" y="78.17" width="1.2" height="3.22"/></clipPath><clipPath id="e32d8f71-c87f-456d-9f14-a21eb2e44e81"><rect id="b0e625ed-12f4-4732-83e5-98cf429ce842" data-name="SVGID" class="a970f3af-d393-49ef-99a9-efbc510c7fb2" x="111.52" y="78" width="1.19" height="3.24"/></clipPath><clipPath id="aaff8e37-5d4e-4423-9c57-b43eb4f5aec3"><rect id="b0eed9d9-2ba6-4919-8bd2-2a53a3417c54" data-name="SVGID" class="a970f3af-d393-49ef-99a9-efbc510c7fb2" x="116.11" y="77.53" width="6.13" height="4.97"/></clipPath><clipPath id="a5831e24-5c0a-4966-8b02-f3ee6f9fb7a3"><rect id="b0aaf51c-7fd6-4ce0-9240-9f24d0ded6d2" data-name="SVGID" class="a970f3af-d393-49ef-99a9-efbc510c7fb2" x="90.25" y="100.73" width="1.53" height="3.55"/></clipPath><clipPath id="e5b9e1be-35a1-4a5d-b82b-c9e3a08a34e3"><rect id="bac0585b-856b-4673-9392-a0bc8b66efb1" data-name="SVGID" class="a970f3af-d393-49ef-99a9-efbc510c7fb2" x="100.68" y="101.51" width="2.02" height="3.85"/></clipPath><clipPath id="bfb4f03e-7a20-4418-b3b4-015f1daa303e"><rect id="f2337c02-dc6c-4e34-9cc0-dd89f92c7dd4" data-name="SVGID" class="a970f3af-d393-49ef-99a9-efbc510c7fb2" x="102.81" y="100.29" width="1.69" height="3.7"/></clipPath><clipPath id="abda5c7e-9d44-4ddc-9d7e-b05c3f07ad89"><rect id="b091f148-599c-4b70-98f3-d6f16256961b" data-name="SVGID" class="a970f3af-d393-49ef-99a9-efbc510c7fb2" x="115.13" y="98.02" width="1.1" height="3.2"/></clipPath><clipPath id="fb2c5fb4-3242-4a7f-9232-296233dd3d1a"><rect id="f14014a4-5146-46c0-ad72-1c1cf3c61f86" data-name="SVGID" class="a970f3af-d393-49ef-99a9-efbc510c7fb2" x="117.93" y="98.77" width="1.07" height="3.68"/></clipPath><clipPath id="a850b9a2-612d-4158-93f4-de9aba4d4cb0"><rect id="fcb8974f-54da-4483-bf9a-19f735631d57" data-name="SVGID" class="a970f3af-d393-49ef-99a9-efbc510c7fb2" x="129.42" y="99.51" width="1.97" height="3.25"/></clipPath><clipPath id="a5e7db04-0063-41ed-b709-04f33793425b"><rect id="f77dae17-25ee-42e5-b618-b4fdfc142da6" data-name="SVGID" class="a970f3af-d393-49ef-99a9-efbc510c7fb2" x="131.45" y="97.96" width="2.1" height="3.42"/></clipPath><clipPath id="bcd2fcd9-1e58-4533-b09f-a6f6cd1add0c"><rect id="b4976fcc-7c88-43a5-8e67-d551c419fd31" data-name="SVGID" class="a970f3af-d393-49ef-99a9-efbc510c7fb2" x="104.53" y="112.21" width="1.7" height="3.29"/></clipPath><clipPath id="a1909be5-02f5-49b2-b114-c23f8dd3863d"><rect id="efc79e5d-45a6-44d3-bee2-c75087b78358" data-name="SVGID" class="a970f3af-d393-49ef-99a9-efbc510c7fb2" x="107.52" y="110.6" width="1.46" height="3.99"/></clipPath><clipPath id="bf4254cf-d0c7-4828-aea3-b79dd9b6a53f"><rect id="bce80c61-e8c6-44dc-a6d3-edc2a2d4e518" data-name="SVGID" class="a970f3af-d393-49ef-99a9-efbc510c7fb2" x="118.81" y="109.21" width="1.84" height="3.39"/></clipPath><clipPath id="ece6258a-1d19-42e3-b2d3-1b0fb83ca618"><rect id="b3dd0ff6-8f3d-4c6b-809d-c8d58230993c" data-name="SVGID" class="a970f3af-d393-49ef-99a9-efbc510c7fb2" x="122.12" y="109.52" width="1.32" height="4.15"/></clipPath><clipPath id="ad21ced6-8de8-4d45-b6f7-f3629ba33a5a"><rect id="aef00728-13e0-4046-bf83-8d08b322da49" data-name="SVGID" class="a970f3af-d393-49ef-99a9-efbc510c7fb2" x="131.91" y="110.97" width="2.38" height="2.56"/></clipPath><clipPath id="b5f7c62f-bb51-4dd2-a99f-a0658f10e14f"><rect id="b4403c9f-6760-4ca0-a49c-3c4487f123a2" data-name="SVGID" class="a970f3af-d393-49ef-99a9-efbc510c7fb2" x="106.88" y="122.86" width="2.09" height="3.26"/></clipPath><clipPath id="a8aaedb3-b736-400c-b22e-e78ca2c667e6"><rect id="aa7e0ec9-5e33-4437-9523-7515c2460a8e" data-name="SVGID" class="a970f3af-d393-49ef-99a9-efbc510c7fb2" x="109.18" y="122.08" width="2.23" height="3.87"/></clipPath><clipPath id="b0b1ffc9-75fb-4133-995a-1f120a616d0e"><rect id="e92fbcad-2fc2-4866-b7a1-271753e0e1eb" data-name="SVGID" class="a970f3af-d393-49ef-99a9-efbc510c7fb2" x="121.26" y="119.81" width="1.84" height="4.01"/></clipPath><clipPath id="a0a73393-84e8-41cf-bf88-f76729ab1f19"><rect id="bc9ce1f6-9241-4ac0-b238-b4417bbf847f" data-name="SVGID" class="a970f3af-d393-49ef-99a9-efbc510c7fb2" x="124.76" y="120.43" width="1.42" height="4.62"/></clipPath><clipPath id="b9f0e988-9bc1-46b6-91ef-91f9b1d48b0e"><rect id="bcb84a86-4077-42de-abf8-e0e2f1c9b9b4" data-name="SVGID" class="a970f3af-d393-49ef-99a9-efbc510c7fb2" x="135.46" y="120.4" width="1.95" height="3.73"/></clipPath><clipPath id="bbaf1e6d-5ef8-489f-9f03-61840fa9d175"><rect id="bfd9b39e-4e83-420d-bd86-b90cd1aec4cd" data-name="SVGID" class="a970f3af-d393-49ef-99a9-efbc510c7fb2" x="147.21" y="117.04" width="2.09" height="3.13"/></clipPath><clipPath id="aa7526e4-c21a-4669-a0b1-538611fa37cb"><rect id="a61ee61a-4d62-435e-a911-d376e4ebc154" data-name="SVGID" class="a970f3af-d393-49ef-99a9-efbc510c7fb2" x="93.43" y="121.38" width="44.97" height="32.11"/></clipPath><clipPath id="e5e5fb2f-f2c9-43de-a662-fd0639e2bd26"><rect id="ed7c4280-7f2c-49a2-bc3a-cf1170c93bfa" data-name="SVGID" class="a970f3af-d393-49ef-99a9-efbc510c7fb2" x="70.66" y="162.52" width="64.99" height="28.3"/></clipPath><clipPath id="e229b112-7c1b-4771-bd76-b4673347c29a"><rect id="b15985ee-1f61-4048-be9f-2676d6a78c8a" data-name="SVGID" class="a970f3af-d393-49ef-99a9-efbc510c7fb2" x="85.35" y="109.54" width="1.66" height="5.15"/></clipPath><clipPath id="a5f050c5-8e61-4d55-9706-0e59d6738e25"><rect id="f0b2f705-bbcb-463a-b7f5-859e54b1841e" data-name="SVGID" class="a970f3af-d393-49ef-99a9-efbc510c7fb2" x="89.23" y="109.35" width="1.54" height="3.67"/></clipPath><clipPath id="be296ed9-602a-4c16-b808-e79ed6c1c5b4"><rect id="acbeaf5f-7c9f-416b-9150-0ced52d87df4" data-name="SVGID" class="a970f3af-d393-49ef-99a9-efbc510c7fb2" x="58.49" y="100.02" width="6.19" height="6.07"/></clipPath><clipPath id="a5120130-c42b-4cda-abb5-2fd901d5dcc5"><rect id="a0b4cad7-8c8c-4a29-b481-e8714da04132" data-name="SVGID" class="a970f3af-d393-49ef-99a9-efbc510c7fb2" x="56.32" y="95.01" width="29.23" height="5.68"/></clipPath><clipPath id="fe44402f-b4c0-414f-ba60-c114e5276fa3"><rect id="add3dc86-ec63-4a1c-8e9c-df49be92f70e" data-name="SVGID" class="a970f3af-d393-49ef-99a9-efbc510c7fb2" x="77.25" y="98.29" width="5.87" height="5.84"/></clipPath><clipPath id="b8013b7c-6ae6-46e9-8fcd-0a1c5234c6bb"><rect id="e1e61677-441e-40ae-bd62-7a704c964f69" data-name="SVGID" class="a970f3af-d393-49ef-99a9-efbc510c7fb2" x="56.42" y="105.4" width="33.49" height="7.02"/></clipPath><clipPath id="eb26ab20-0ed4-4018-87ff-99ac6ed0a85d"><rect id="a6a1559f-e66f-47ae-86bf-c8c4a627074d" data-name="SVGID" class="a970f3af-d393-49ef-99a9-efbc510c7fb2" x="70.38" y="101.79" width="1.1" height="3.67"/></clipPath><clipPath id="b68df826-2d9a-4eae-bbd6-4dcd823a2dbe"><rect id="a454f742-ea04-446d-86a5-f26904600fce" data-name="SVGID" class="a970f3af-d393-49ef-99a9-efbc510c7fb2" x="67.76" y="101.64" width="0.93" height="3.52"/></clipPath><clipPath id="a70af2c1-eaf5-4339-b4de-b49896113203"><rect id="a08da598-907e-4947-ad70-d6b5f80a0d19" data-name="SVGID" class="a970f3af-d393-49ef-99a9-efbc510c7fb2" x="72.94" y="101.08" width="1.25" height="3.66"/></clipPath><clipPath id="ae1e1e3b-780b-4ce0-a925-b766d1cc2809"><rect id="baa11c99-35ab-4810-9455-df1501f9e9cd" data-name="SVGID" class="a970f3af-d393-49ef-99a9-efbc510c7fb2" x="84.79" y="98.82" width="1.11" height="3.39"/></clipPath><clipPath id="a540988e-2daf-44c0-8931-67a637ec9d5b"><rect id="edd0550c-f66a-456d-8810-5b6c04d129cb" data-name="SVGID" class="a970f3af-d393-49ef-99a9-efbc510c7fb2" x="55.81" y="103.98" width="0.8" height="3.01"/></clipPath><clipPath id="bf51f407-5170-41e9-ae94-b05ebf9c884b"><rect id="a22a5204-9a18-43b7-a62f-0c91fa272eac" data-name="SVGID" class="a970f3af-d393-49ef-99a9-efbc510c7fb2" x="67.6" y="89.84" width="6.06" height="6.24"/></clipPath><clipPath id="becb0690-eacf-406f-8086-a6327a75ae34"><rect id="e375e761-117c-45f6-b132-f597c12ad867" data-name="SVGID" class="a970f3af-d393-49ef-99a9-efbc510c7fb2" x="71.19" y="111.43" width="6.06" height="6.22"/></clipPath><clipPath id="ee6b7cf2-9291-47cd-955e-706a6eb1f870"><rect id="a6bf0a60-2e84-49e7-ad35-298f17631e89" data-name="SVGID" class="a970f3af-d393-49ef-99a9-efbc510c7fb2" x="62.68" y="121.5" width="6.1" height="6.08"/></clipPath><clipPath id="e19f0873-351b-4bca-b4c1-a27cc784eb63"><rect id="b8b44624-1693-49db-a04a-da9c32217224" data-name="SVGID" class="a970f3af-d393-49ef-99a9-efbc510c7fb2" x="60.53" y="116.5" width="29.18" height="5.71"/></clipPath><clipPath id="b13a6c67-ab27-426a-b80a-343d0ede7518"><rect id="b2dbce09-5326-4776-b324-b5a48a5079e8" data-name="SVGID" class="a970f3af-d393-49ef-99a9-efbc510c7fb2" x="81.41" y="119.8" width="5.89" height="5.83"/></clipPath><clipPath id="b356f387-2d29-48ba-9a08-e4688e7ae81c"><rect id="ad53f140-1724-4aa4-8d06-9dc6810f692e" data-name="SVGID" class="a970f3af-d393-49ef-99a9-efbc510c7fb2" x="60.58" y="126.84" width="33.5" height="7.01"/></clipPath><clipPath id="f34219da-20af-464f-bed6-bb12c4db2c95"><rect id="a8a2a344-acb5-4a41-bc32-caf7653e528b" data-name="SVGID" class="a970f3af-d393-49ef-99a9-efbc510c7fb2" x="74.56" y="123.28" width="1.08" height="3.67"/></clipPath><clipPath id="b9337217-2e23-4d61-88fc-a90f0bf74ad9"><rect id="a930971a-2aa3-4cef-97ee-d4a6882b98df" data-name="SVGID" class="a970f3af-d393-49ef-99a9-efbc510c7fb2" x="71.93" y="123.13" width="0.93" height="3.53"/></clipPath><clipPath id="fba69cea-5a9d-4ebf-b7b3-433938135305"><rect id="be836265-d1c9-47bf-a743-82e100bc5831" data-name="SVGID" class="a970f3af-d393-49ef-99a9-efbc510c7fb2" x="77.12" y="122.57" width="1.24" height="3.67"/></clipPath><clipPath id="ffd02711-b12e-434c-932f-75d6e91fdb88"><rect id="e2d0ad95-85e7-4b15-af71-8258f2d22e3e" data-name="SVGID" class="a970f3af-d393-49ef-99a9-efbc510c7fb2" x="88.98" y="120.31" width="1.09" height="3.39"/></clipPath><clipPath id="aa2d90ea-7398-4065-a48e-06aeec8c6e0e"><rect id="a999fa78-8a78-497b-bfe7-261b60cffb7d" data-name="SVGID" class="a970f3af-d393-49ef-99a9-efbc510c7fb2" x="59.98" y="125.49" width="0.8" height="3.01"/></clipPath><clipPath id="e2ed2b74-e65a-4bc5-b91b-7e1fa305aaf6"><rect id="e6c57387-596f-4c08-9f76-55d5ac080e03" data-name="SVGID" class="a970f3af-d393-49ef-99a9-efbc510c7fb2" x="67.58" y="112.52" width="0.88" height="3.16"/></clipPath><clipPath id="bb270fe9-91f2-41df-8f96-be286d453e1d"><rect id="fa6e4de1-9f09-41cb-b503-b66eb003a330" data-name="SVGID" class="a970f3af-d393-49ef-99a9-efbc510c7fb2" x="64.09" y="112.61" width="1.1" height="3.5"/></clipPath><clipPath id="bba397fe-0a6b-468b-8a6c-dcd02f2198c4"><rect id="ae37c093-7901-475f-8350-023450e9404a" data-name="SVGID" class="a970f3af-d393-49ef-99a9-efbc510c7fb2" x="60.56" y="113.17" width="1.24" height="3.91"/></clipPath><clipPath id="be41c1b2-8e38-4fc9-9243-d47075b09d95"><rect id="a565d287-a86a-4608-bae2-254ee3e4bb26" data-name="SVGID" class="a970f3af-d393-49ef-99a9-efbc510c7fb2" x="55.72" y="115.03" width="3.92" height="6.59"/></clipPath><clipPath id="a3caa31a-926c-427c-98d1-23b1e866c04c"><rect id="fa4d8d5c-4320-463b-bb8b-45191779cdf2" data-name="SVGID" class="a970f3af-d393-49ef-99a9-efbc510c7fb2" x="81.04" y="110.22" width="1.57" height="4.61"/></clipPath><clipPath id="f19bc452-6890-4f8b-b58d-b35abf6f8144"><rect id="b563c6d6-b17a-4ef6-b951-8248ab1ef210" data-name="SVGID" class="a970f3af-d393-49ef-99a9-efbc510c7fb2" x="56.57" y="85.73" width="26.69" height="4.68"/></clipPath><clipPath id="bb4667cb-7e45-4a20-8170-396407f6f565"><rect id="bb6a3fa1-3702-49f6-acfb-612e8ec40604" data-name="SVGID" class="a970f3af-d393-49ef-99a9-efbc510c7fb2" x="56.67" y="92.46" width="1.19" height="3.26"/></clipPath><clipPath id="a4b0bda5-4e1d-4be9-9d35-fea076bb8938"><rect id="b169ef2c-8f45-4a5e-a212-3f515dab5147" data-name="SVGID" class="a970f3af-d393-49ef-99a9-efbc510c7fb2" x="59.82" y="91.07" width="0.93" height="4.42"/></clipPath><clipPath id="fad26368-a957-416e-a813-d56e3889a14e"><rect id="b4fe4fe3-08d8-449c-b5bf-0a89cb4883b9" data-name="SVGID" class="a970f3af-d393-49ef-99a9-efbc510c7fb2" x="63.16" y="91.05" width="1.21" height="3.97"/></clipPath><clipPath id="a300c9d3-fcc1-4be3-96b3-6705fe196442"><rect id="a63e810a-2915-4985-9549-b5912e8dfd0e" data-name="SVGID" class="a970f3af-d393-49ef-99a9-efbc510c7fb2" x="77.86" y="90.36" width="1.39" height="3.5"/></clipPath><clipPath id="b6dda8da-ae9f-472e-973f-03860e9c41b5"><rect id="ad84eefd-be16-413a-b7f5-1d50aa38879f" data-name="SVGID" class="a970f3af-d393-49ef-99a9-efbc510c7fb2" x="80.91" y="89.89" width="1.57" height="3.98"/></clipPath><clipPath id="ed2684d0-d334-4cea-ab41-9c71f30b67e0"><rect id="baee4837-ff83-46fc-811f-154b9b449b57" data-name="SVGID" class="a970f3af-d393-49ef-99a9-efbc510c7fb2" x="73.15" y="78.9" width="6.69" height="6.78"/></clipPath><clipPath id="a3f28546-8298-4593-aac7-2e2fa6685228"><rect id="e452eedb-cc6f-42e3-a468-000b4622b1d7" data-name="SVGID" class="a970f3af-d393-49ef-99a9-efbc510c7fb2" x="67.05" y="80.57" width="0.81" height="4.2"/></clipPath><clipPath id="f6c33971-cc10-41ce-ac8f-92424a7bb3d4"><rect id="acb83716-bc0b-46c0-a8ef-a3905d8982b1" data-name="SVGID" class="a970f3af-d393-49ef-99a9-efbc510c7fb2" x="63.43" y="81.99" width="0.81" height="3"/></clipPath><clipPath id="b63b4b69-17b2-4b1b-883b-93641cd3674c"><rect id="b34fa872-b5be-47c4-b141-1ed8c05c4fc8" data-name="SVGID" class="a970f3af-d393-49ef-99a9-efbc510c7fb2" x="144.54" y="148.73" width="8.36" height="27.45"/></clipPath><clipPath id="be7fa7d0-42b4-4f15-8c82-dc16fdde0765"><rect id="a1552d54-7da2-4237-a76e-042606da1d0d" data-name="SVGID" class="a970f3af-d393-49ef-99a9-efbc510c7fb2" x="144.83" y="160.52" width="4.97" height="4.87"/></clipPath><clipPath id="e292a0dd-ebc8-45bf-9d70-2f74a2774bea"><rect id="ab0c5c6d-19a3-45a9-9052-be8f68f81ffa" data-name="SVGID" class="a970f3af-d393-49ef-99a9-efbc510c7fb2" x="149.04" y="149.45" width="5.32" height="5.44"/></clipPath><clipPath id="faf5581b-15ed-41d9-b4b8-1c5508399e74"><rect id="f86adce6-b9c5-4234-83d4-74c48dd8ff8c" data-name="SVGID" class="a970f3af-d393-49ef-99a9-efbc510c7fb2" x="154.4" y="167.11" width="5.22" height="5.2"/></clipPath></defs><g id="ec3df347-f6ac-4bfa-bc6c-9a5a6f90de30" data-name="Layer 2"><polygon class="f9575f04-1d52-4b96-a57d-9c8caa614c3f" points="92.77 383.89 46.47 428.36 33.46 411.71 76.54 362.12 92.77 383.89"/><path class="b949777b-47dc-45e2-8806-75c4c2270ff0" d="M47.57,430l1.62-1.51L34.15,410l-6.7,6,.9,1.16c4,5.12,20.9,25.78,24.78,28.18C57.45,448,47.57,430,47.57,430"/><g class="f76a7976-8a36-4dde-9e43-3eadede4ce33"><g class="bcef57c3-f64c-424a-87fa-7347e0e69d24"><path class="a776f885-4c78-40c8-b3d8-4dbe4e5a5d6f" d="M33.25,422.3A8.21,8.21,0,0,0,35,416.7a8,8,0,0,0-2.38-5.27l-4.94,4.36Z"/></g></g><g class="bd49c3ba-09ac-492f-ad15-33554f5e5a33"><g class="e9912b47-04e9-4225-b139-e4cbe0f69819"><path class="a776f885-4c78-40c8-b3d8-4dbe4e5a5d6f" d="M52.12,439s3.14,6.64,1.69,6.74S34.53,425.61,27.45,416l.42-.33L48.5,439.46s2.67-1.45,3.62-.46"/></g></g><path class="b056ff4f-1e3b-45db-8a67-f71807bd82a3" d="M27.63,415.38s0,.12.24.33l.72.93Q29.7,418,31.28,420c2.3,2.81,5.53,6.65,9.19,10.8s7.05,7.85,9.55,10.53l3,3.09.82.83.3.29a3.18,3.18,0,0,0-.26-.32l-.78-.87-2.9-3.16c-2.45-2.68-5.82-6.39-9.49-10.53s-6.9-8-9.23-10.75c-1.1-1.29-2-2.39-2.79-3.28l-.75-.88a1.73,1.73,0,0,0-.31-.35"/><path class="b056ff4f-1e3b-45db-8a67-f71807bd82a3" d="M48.18,439.7a10.15,10.15,0,0,1,2.08-.76,10,10,0,0,1,2.19,0,3.25,3.25,0,0,0-2.25-.28,3.11,3.11,0,0,0-2,1"/><path class="b056ff4f-1e3b-45db-8a67-f71807bd82a3" d="M46.23,432.12c0,.09.54,0,1.17,0a2.64,2.64,0,0,0,1.13-.33,2.32,2.32,0,0,0-1.17,0,2.6,2.6,0,0,0-1.13.33"/><path class="b056ff4f-1e3b-45db-8a67-f71807bd82a3" d="M45.73,430a4,4,0,0,0,1,.25,3.48,3.48,0,0,0,1,0,3.54,3.54,0,0,0-1-.25c-.54-.06-1-.09-1,0"/><path class="b056ff4f-1e3b-45db-8a67-f71807bd82a3" d="M46.6,427.64a5.05,5.05,0,0,0,.69,1c.46.53.86.89.92.85s-.25-.53-.7-1-.85-.89-.91-.84"/><path class="b056ff4f-1e3b-45db-8a67-f71807bd82a3" d="M47.51,426.28a2.37,2.37,0,0,0,.6,1.31c.48.63,1,1,1.08.93a10.29,10.29,0,0,0-.84-1.11,9.19,9.19,0,0,0-.84-1.13"/><path class="b056ff4f-1e3b-45db-8a67-f71807bd82a3" d="M48.3,431.37a5.13,5.13,0,0,0,1,1.12,9.21,9.21,0,0,0,1.34,1,5.4,5.4,0,0,0,.9.45.78.78,0,0,0,.6,0,.59.59,0,0,0,.3-.58,2.79,2.79,0,0,0-2.88-2,3,3,0,0,0-1.09.3c-.24.14-.34.23-.33.24a4.35,4.35,0,0,1,1.51-.33,2.66,2.66,0,0,1,1.5.42,2.33,2.33,0,0,1,1.1,1.43c0,.3-.24.42-.54.33a6.59,6.59,0,0,1-.85-.4,10.79,10.79,0,0,1-1.33-.91c-.82-.6-1.19-1-1.24-1"/><path class="b056ff4f-1e3b-45db-8a67-f71807bd82a3" d="M48.5,431.71a1.31,1.31,0,0,0,.9-.57,2.4,2.4,0,0,0,.56-1,1.51,1.51,0,0,0-.26-1.5.58.58,0,0,0-.82.1h0a1.92,1.92,0,0,0-.34.65,4.49,4.49,0,0,0-.21,1.14,2.37,2.37,0,0,0,.1,1.06,8.14,8.14,0,0,1,.09-1,5,5,0,0,1,.27-1.08c.11-.36.44-.85.74-.62A1.36,1.36,0,0,1,49.7,430a2.87,2.87,0,0,1-.45,1,3.68,3.68,0,0,1-.75.74"/><path class="b056ff4f-1e3b-45db-8a67-f71807bd82a3" d="M32.8,411.47a9,9,0,0,1,1.11,1.36,7.36,7.36,0,0,1,.39,7.89c-.52.95-1,1.41-1,1.5s.15-.09.36-.31a7.22,7.22,0,0,0,1.85-5.16,7.4,7.4,0,0,0-1.51-4,10,10,0,0,0-.88-1c-.2-.24-.34-.33-.35-.32"/><path class="b056ff4f-1e3b-45db-8a67-f71807bd82a3" d="M36.92,423a14.33,14.33,0,0,0,2,2.8,13.6,13.6,0,0,0,2.52,2.39s-1-1.16-2.29-2.59S37,423,36.92,423"/><path class="b056ff4f-1e3b-45db-8a67-f71807bd82a3" d="M33.88,419.52l-.31.66c-.17.34-.35.63-.29.69s.36-.17.54-.57.15-.78.06-.78"/><path class="b056ff4f-1e3b-45db-8a67-f71807bd82a3" d="M34.36,416.78c-.07,0-.16.27-.18.62s0,.63.09.63.17-.27.2-.62,0-.63-.11-.63"/><path class="b056ff4f-1e3b-45db-8a67-f71807bd82a3" d="M33.46,414.25s.15.29.3.63.17.65.24.67.2-.35,0-.77-.54-.6-.54-.53"/><path class="b056ff4f-1e3b-45db-8a67-f71807bd82a3" d="M32.63,412.6c-.07,0-.07.21,0,.41s.2.34.26.31.09-.21,0-.4-.18-.35-.26-.32"/><polygon class="f9575f04-1d52-4b96-a57d-9c8caa614c3f" points="178.42 385.04 184.15 449.79 159.67 449.79 148.88 385.04 178.42 385.04"/><path class="b949777b-47dc-45e2-8806-75c4c2270ff0" d="M183.36,450.4l-.07-2.18-23.77-.1.28,9h1.5c6.53.13,33.21.19,37.51-1.28,4.78-1.67-15.45-5.46-15.45-5.46"/><g class="f76a7976-8a36-4dde-9e43-3eadede4ce33"><g class="abdc901a-b9e2-4c37-a2cb-b26eedcb5685"><path class="a776f885-4c78-40c8-b3d8-4dbe4e5a5d6f" d="M168.36,456.6a8.22,8.22,0,0,0-3.19-4.93,8,8,0,0,0-5.59-1.51l.19,6.59Z"/></g></g><g class="bd49c3ba-09ac-492f-ad15-33554f5e5a33"><g class="f6915883-9f85-4078-a0bb-2a53ff7863bc"><path class="a776f885-4c78-40c8-b3d8-4dbe4e5a5d6f" d="M193.26,452.6s7.1,1.79,6.27,3-27.8,2.13-39.73,1.5v-.53l31.46-.84s.62-3,2-3.14"/></g></g><path class="b056ff4f-1e3b-45db-8a67-f71807bd82a3" d="M159.46,456.55a.9.9,0,0,0,.4,0h5.46c3.64,0,8.65,0,14.18-.25s10.53-.48,14.16-.74l4.29-.32,1.16-.12h-1.18l-4.28.24c-3.62.2-8.63.46-14.17.65s-10.52.29-14.16.33h-5.46Z"/><path class="b056ff4f-1e3b-45db-8a67-f71807bd82a3" d="M191.35,456.09a8.55,8.55,0,0,1,.72-2.08,10.82,10.82,0,0,1,1.4-1.7,3.7,3.7,0,0,0-2.12,3.78"/><path class="b056ff4f-1e3b-45db-8a67-f71807bd82a3" d="M184.19,452.79a4.47,4.47,0,0,0,.71-.93c.31-.56.54-1,.46-1.07s-.37.38-.7.94-.54,1-.47,1.06"/><path class="b056ff4f-1e3b-45db-8a67-f71807bd82a3" d="M182.24,451.86a3.63,3.63,0,0,0,.81-.59c.39-.37.67-.73.62-.79s-.43.21-.82.58-.66.74-.61.8"/><path class="b056ff4f-1e3b-45db-8a67-f71807bd82a3" d="M181,449.67a5.12,5.12,0,0,0,2.46,0,3,3,0,0,0-1.23-.11,2.86,2.86,0,0,0-1.23.11"/><path class="b056ff4f-1e3b-45db-8a67-f71807bd82a3" d="M180.49,448.12a2.59,2.59,0,0,0,1.39.34,2.39,2.39,0,0,0,1.41-.24,8.18,8.18,0,0,0-1.4,0,6,6,0,0,0-1.4-.1"/><path class="b056ff4f-1e3b-45db-8a67-f71807bd82a3" d="M184.91,450.73a3.84,3.84,0,0,0,1.51,0,9.24,9.24,0,0,0,1.61-.4,5.24,5.24,0,0,0,.9-.42.79.79,0,0,0,.36-.48.63.63,0,0,0-.24-.61,2.8,2.8,0,0,0-3.42.94,3,3,0,0,0-.46,1,.94.94,0,0,0,0,.41,4.56,4.56,0,0,1,.64-1.31,2.81,2.81,0,0,1,1.28-.9,2.46,2.46,0,0,1,1.81,0c.25.18.16.47-.09.63a4.56,4.56,0,0,1-.84.39,8.81,8.81,0,0,1-1.51.47l-1.55.25"/><path class="b056ff4f-1e3b-45db-8a67-f71807bd82a3" d="M185.33,450.73a1.47,1.47,0,0,0,.14-1.05,2.79,2.79,0,0,0-.45-1.1,1.52,1.52,0,0,0-1.29-.72.62.62,0,0,0-.46.71,1.82,1.82,0,0,0,.29.67,4.27,4.27,0,0,0,.75.89,2.21,2.21,0,0,0,.89.59,8.41,8.41,0,0,1-.75-.72,5.7,5.7,0,0,1-.66-.89c-.23-.32-.38-.89,0-1s.78.32,1,.62a2.53,2.53,0,0,1,.46,1,5.6,5.6,0,0,1,.06,1"/><path class="b056ff4f-1e3b-45db-8a67-f71807bd82a3" d="M159.77,450.09a8.89,8.89,0,0,1,1.75,0,7.39,7.39,0,0,1,6.34,4.7,16.86,16.86,0,0,1,.51,1.67,1,1,0,0,0,0-.48,5.51,5.51,0,0,0-.3-1.26,7.18,7.18,0,0,0-6.54-4.84,7,7,0,0,0-1.29.07,1.16,1.16,0,0,0-.47.14"/><path class="b056ff4f-1e3b-45db-8a67-f71807bd82a3" d="M171.24,454.22a19.12,19.12,0,0,0,6.91-.24,24.91,24.91,0,0,0-3.45.14c-1.94.13-3.46,0-3.46.1"/><path class="b056ff4f-1e3b-45db-8a67-f71807bd82a3" d="M166.61,454.34s.15.33.32.68.27.66.35.65.1-.38-.1-.79-.51-.6-.57-.54"/><path class="b056ff4f-1e3b-45db-8a67-f71807bd82a3" d="M164.79,452.24a1.61,1.61,0,0,0,.36.54c.26.24.52.37.56.33s-.1-.3-.36-.54a1.21,1.21,0,0,0-.56-.33"/><path class="b056ff4f-1e3b-45db-8a67-f71807bd82a3" d="M162.27,451.33c0,.08.33,0,.67.18s.62.29.68.23-.15-.38-.58-.51-.8,0-.77.1"/><path class="b056ff4f-1e3b-45db-8a67-f71807bd82a3" d="M160.48,450.93c0,.07.1.19.31.25s.38.08.41,0-.12-.19-.32-.27-.39-.06-.4,0"/><path class="b056ff4f-1e3b-45db-8a67-f71807bd82a3" d="M116.3,2C125.17,2,133,16.75,133.44,21c.24,2.27-.12,4.51,0,6.84a8.48,8.48,0,0,0,2.35,6.23c1.08.95,2.49,1.5,3.58,2.36,2.31,2,2.55,5.61,1.58,8.5-.55,1.6-1.4,3.3-.83,4.9s2.51,2.4,3.83,3.61a6.52,6.52,0,0,1,0,9.21c-6.6.8-13.11,2.17-19.73,2.79a46.5,46.5,0,0,1-19.68-1.76"/><path class="f9575f04-1d52-4b96-a57d-9c8caa614c3f" d="M84.72,78.43,82.2,20.68l23-17.4L126,13.49s.69,26.19,0,37.59-12.15,12.57-12.15,12.57.27,6.66.53,13.66a14.86,14.86,0,0,1-14.29,15.4h-.75A14.86,14.86,0,0,1,84.72,78.43"/><path class="b056ff4f-1e3b-45db-8a67-f71807bd82a3" d="M113.88,63.58a28.31,28.31,0,0,1-15-5.09S102.6,67,114,66.54Z"/><path class="b056ff4f-1e3b-45db-8a67-f71807bd82a3" d="M106.39,1a16.29,16.29,0,0,0-12.8,5.48,18.62,18.62,0,0,0-4.51,13.3,8.12,8.12,0,0,0,1.69,5.06c1.67,1.88,4.4,2.25,6.9,2.51a16.46,16.46,0,0,0,7.67-.41c2.4-.92,4.42-3.43,3.89-6C108,22.51,109,25,110.74,26a11,11,0,0,0,5.82,1h8.58a3.57,3.57,0,0,0,4.2-2.79,3.46,3.46,0,0,0,0-1.36c.48-4.51.9-9.43-1.2-13.54A16.1,16.1,0,0,0,118.68,2c-3.91-1.3-8.15-.72-12.27-1"/><path class="b056ff4f-1e3b-45db-8a67-f71807bd82a3" d="M114,1.9C107.67.39,101.05-.65,94.62.47S81.88,5.14,78.87,11a52.91,52.91,0,0,0-3.14,10c-1,3.37-2.44,6.78-5.26,8.84-1.9,1.38-4.51,2.24-5.34,4.43s.59,5,.31,7.52-2.6,4.67-4.37,6.75-3,5.28-1.35,7.39a6.79,6.79,0,0,0,3.42,1.89c3.6,1.18,7.15,2.81,10.76,4,10.24,3.22,16.3,5.7,22.15,7,1.68-3.23,2.42-9.92-.44-12.53s-5.68-6-5.1-9.85c.36-2.43,2.06-4.51,2.78-6.79,2.06-6.68-4-14.24-1-20.56,1.72-3.61,5.79-5.31,9.31-7.22a44.13,44.13,0,0,0,12-9.72"/><path class="aa9a367a-35f4-4f3e-9b6b-8faacffc4973" d="M113.85,24.56a5.72,5.72,0,0,0,.31-1,14.59,14.59,0,0,0,.4-2.86A24.25,24.25,0,0,0,108.3,3.11a19.58,19.58,0,0,0-2.1-2c-.55-.42-.86-.61-.91-.58s1.07,1.08,2.59,2.91A26.79,26.79,0,0,1,114,20.68c0,2.37-.29,3.86-.15,3.88"/><path class="aa9a367a-35f4-4f3e-9b6b-8faacffc4973" d="M122.51,22.63a3,3,0,0,0,.1-1.16,17.83,17.83,0,0,0-.31-3.17,23.07,23.07,0,0,0-12-16.42A18.34,18.34,0,0,0,107.34.65,3,3,0,0,0,106.2.39c0,.12,1.5.65,3.81,2A24.71,24.71,0,0,1,121.8,18.41c.54,2.57.57,4.24.71,4.22"/><path class="aa9a367a-35f4-4f3e-9b6b-8faacffc4973" d="M67.58,60.07a3.5,3.5,0,0,1-.45-.66,3.38,3.38,0,0,1-.26-2.19,5.35,5.35,0,0,1,1.9-3A39.62,39.62,0,0,0,72.5,51a5.05,5.05,0,0,0,1.26-2.7,5.75,5.75,0,0,0-.69-3.12c-.47-1-1-1.93-1.51-3a7.09,7.09,0,0,1-.33-3.29,7.29,7.29,0,0,1,1.33-3.15,7.86,7.86,0,0,1,2.76-2.36c2.21-1.24,5-1.85,7.27-3.67A7.53,7.53,0,0,0,85,26.13a15.12,15.12,0,0,0,.63-4,33.45,33.45,0,0,1,.77-7.4A19.46,19.46,0,0,1,92.83,4.2a17.31,17.31,0,0,1,7.6-3.57c2-.37,3.13-.27,3.12-.36a4.43,4.43,0,0,0-.81-.07,13.18,13.18,0,0,0-2.35.13A16.82,16.82,0,0,0,92.5,3.76,19.68,19.68,0,0,0,85.65,14.5,32.76,32.76,0,0,0,84.83,22a15.88,15.88,0,0,1-.62,3.81A6.66,6.66,0,0,1,82.08,29c-2.06,1.68-4.8,2.3-7.12,3.61a8.54,8.54,0,0,0-3,2.6A8,8,0,0,0,70.6,38.8,7.83,7.83,0,0,0,71,42.42c.42,1.11,1,2,1.5,3a5.25,5.25,0,0,1,.68,2.79,4.5,4.5,0,0,1-1.1,2.41,39.43,39.43,0,0,1-3.59,3.25,5.55,5.55,0,0,0-1.9,3.23A3.45,3.45,0,0,0,67,59.44a1.89,1.89,0,0,0,.56.63"/><path class="aa9a367a-35f4-4f3e-9b6b-8faacffc4973" d="M105.64.39a2.57,2.57,0,0,0-.72.2,20.62,20.62,0,0,0-2,.79,25.59,25.59,0,0,0-6.64,4.38,21.66,21.66,0,0,0-6.38,9.89C88.53,20,89,25,88.59,30a23.2,23.2,0,0,1-1.76,7.1A20.09,20.09,0,0,0,85,43.89a7.87,7.87,0,0,0,.68,3.28c.44,1,1,1.87,1.4,2.74a7.51,7.51,0,0,1,.86,2.57,4.59,4.59,0,0,1-.5,2.38,27.35,27.35,0,0,1-2.66,3.57,5.93,5.93,0,0,0-1.31,3.21,3.28,3.28,0,0,0,.59,2.1c.31.41.55.53.57.51a6.31,6.31,0,0,1-.44-.58,3.38,3.38,0,0,1-.41-2,5.4,5.4,0,0,1,1.36-3,26.4,26.4,0,0,0,2.8-3.59,5.08,5.08,0,0,0,.6-2.68,8.06,8.06,0,0,0-.88-2.82,11.78,11.78,0,0,1-1.94-5.72,19.91,19.91,0,0,1,1.87-6.49A24,24,0,0,0,89.37,30c.42-5.13,0-10,1.2-14.23a21.65,21.65,0,0,1,6-9.69A28,28,0,0,1,103,1.59c1.7-.78,2.66-1.12,2.66-1.2"/><path class="aa9a367a-35f4-4f3e-9b6b-8faacffc4973" d="M101.05,24.36a59.56,59.56,0,0,1,.65-12.44A57.19,57.19,0,0,1,105.76.14a12.26,12.26,0,0,0-2,3.15,33.5,33.5,0,0,0-3.37,17.39,12.47,12.47,0,0,0,.63,3.68"/><path class="aa9a367a-35f4-4f3e-9b6b-8faacffc4973" d="M109.17,1.7c0,.08,1.11,0,3,.21a19.27,19.27,0,0,1,7.74,2.74A18.31,18.31,0,0,1,127.44,14a19,19,0,0,1,1.05,7.06c0,2.51-.36,5.14-.21,7.9a12.66,12.66,0,0,0,2.58,7.52,19.71,19.71,0,0,1,2.34,2.81,4.69,4.69,0,0,1,.36,3.23c-.21,1.11-.6,2.2-.87,3.28a6.56,6.56,0,0,0-.14,3.35,5.77,5.77,0,0,0,1.79,2.56,5.23,5.23,0,0,1,1.42,2.19,7.32,7.32,0,0,1-.17,4.51,12.66,12.66,0,0,1-1.65,3.13c-1.12,1.63-1.82,2.47-1.78,2.51s.23-.18.57-.57.86-1,1.51-1.76a13,13,0,0,0,1.8-3.16,7.51,7.51,0,0,0,.29-4.84,5.84,5.84,0,0,0-1.51-2.45,5.17,5.17,0,0,1-1.6-2.3c-.52-1.91.63-4,1.09-6.33a5.41,5.41,0,0,0-.4-3.73,20.59,20.59,0,0,0-2.42-3,12,12,0,0,1-2.38-7.11c-.15-2.65.18-5.26.2-7.83a19.31,19.31,0,0,0-1.15-7.34A18.43,18.43,0,0,0,112.3,1.49a14.59,14.59,0,0,0-2.29,0,2.47,2.47,0,0,0-.84.21"/><path class="b949777b-47dc-45e2-8806-75c4c2270ff0" d="M80.51,74.12l40.86,3.47s12.25.27,25.56,31.37l19.16,35.91-7.31,2.06-18,6-5.4-3.23.37,45.55L60,189.68c1.72-10.33,9.79-23.93,12.5-32.65-2.75-6.89-16.74-38.46-16.71-52.91C55.76,73.26,80.44,74,80.44,74"/><g class="a197a917-65fb-406b-acac-e345203525bd"><g class="e4b52e79-06f1-400d-86f0-b01bf1625ca5"><path d="M138.63,115.76s5.32,6,5.41,11.08c.14,8.12-1.91,12.28.63,21.14l-7.26,1.76s-1.1-2.17-.15-6.8,2.78-10.27,3.6-15.31a17.14,17.14,0,0,0-2.23-11.87"/></g></g><path class="b056ff4f-1e3b-45db-8a67-f71807bd82a3" d="M137.41,149.74a7.85,7.85,0,0,0-.13-1.81,23.43,23.43,0,0,1,.25-4.88,59.45,59.45,0,0,1,1.7-7.09,58.61,58.61,0,0,0,2.06-8.78,17.26,17.26,0,0,0-1-9,21.61,21.61,0,0,0-4.12-6.15,46.35,46.35,0,0,0-3.57-3.44,7.47,7.47,0,0,0-1.5-1.13c-.11.1,1.85,1.83,4.51,5a22.19,22.19,0,0,1,3.88,6,16.93,16.93,0,0,1,.92,8.63,66.26,66.26,0,0,1-2,8.69,49.09,49.09,0,0,0-1.5,7.21,19.84,19.84,0,0,0,0,5,9.65,9.65,0,0,0,.51,1.82"/><polygon class="b949777b-47dc-45e2-8806-75c4c2270ff0" points="82.2 75.47 83.05 67.44 116.56 70.31 116.56 79.68 109.17 94.7 98.83 96.06 85.11 90.27 82.2 75.47"/><path class="b056ff4f-1e3b-45db-8a67-f71807bd82a3" d="M116.72,76.54a47.81,47.81,0,0,0-5.08.36A90.75,90.75,0,0,1,99.41,77a81.42,81.42,0,0,1-12.12-1.68c-3-.66-4.93-1.2-5-1.08a5.38,5.38,0,0,0,1.26.54c.83.3,2,.68,3.58,1.08a64.59,64.59,0,0,0,12.2,1.93,69.6,69.6,0,0,0,12.33-.38c1.5-.18,2.83-.38,3.7-.56a5,5,0,0,0,1.32-.34"/><path class="b056ff4f-1e3b-45db-8a67-f71807bd82a3" d="M105,69.44c-.21,0,.27,1.73.24,3.79s-.49,3.71-.28,3.81A5.48,5.48,0,0,0,106,73.25a5.57,5.57,0,0,0-1-3.81"/><path class="b056ff4f-1e3b-45db-8a67-f71807bd82a3" d="M112.18,70.06c-.21.1.36,1.5.47,3.37s-.28,3.33,0,3.41a4.55,4.55,0,0,0,.84-3.46,4.52,4.52,0,0,0-1.31-3.32"/><path class="b056ff4f-1e3b-45db-8a67-f71807bd82a3" d="M97.13,68.67a8.09,8.09,0,0,0-.86,8.14c.23,0-.13-1.88.09-4.11s1-3.91.77-4"/><path class="b056ff4f-1e3b-45db-8a67-f71807bd82a3" d="M88.6,67.92a2.17,2.17,0,0,0-.89.77,8,8,0,0,0-1.17,5.38c.15.72.42,1.12.51,1.07s0-.47,0-1.13a13.19,13.19,0,0,1,.32-2.57,31.2,31.2,0,0,1,1.23-3.52"/><g class="f76a7976-8a36-4dde-9e43-3eadede4ce33"><g class="a78c90c0-e40d-472d-a358-059d2e1f9df6"><path class="a776f885-4c78-40c8-b3d8-4dbe4e5a5d6f" d="M138,91.59a1.93,1.93,0,0,0-.49-.27A4.88,4.88,0,0,0,136,91a7.36,7.36,0,0,0-2.46.38,13.71,13.71,0,0,0-3,1.39,37,37,0,0,1-3.41,1.91,8.57,8.57,0,0,1-4.23.79,19.09,19.09,0,0,1-4.77-1.09,46.47,46.47,0,0,0-5.18-1.5,10.24,10.24,0,0,0-5.49.25,26.77,26.77,0,0,0-4.51,2.26,17.24,17.24,0,0,1-4,1.79,14.38,14.38,0,0,1-3.8.51,15,15,0,0,1-5.49-1c-1.25-.49-1.88-.88-1.93-.82s.14.15.44.34a9.64,9.64,0,0,0,1.37.77A14.22,14.22,0,0,0,95,98.27a15.36,15.36,0,0,0,4-.44A17.76,17.76,0,0,0,103.25,96a26.59,26.59,0,0,1,4.42-2.16,9.6,9.6,0,0,1,5.1-.21c3.51.72,6.73,2.42,10,2.57a9.3,9.3,0,0,0,4.52-.92,35.92,35.92,0,0,0,3.43-2,10.42,10.42,0,0,1,5.17-1.94,8.5,8.5,0,0,1,2,.24"/></g></g><g class="f76a7976-8a36-4dde-9e43-3eadede4ce33"><g class="f3056228-a980-485e-8a60-488fe915185d"><path class="a776f885-4c78-40c8-b3d8-4dbe4e5a5d6f" d="M144.25,102.91a3,3,0,0,0-.48-.31,6.26,6.26,0,0,0-1.59-.44,10.75,10.75,0,0,0-5.84,1.39c-1.14.58-2.3,1.33-3.56,2.07a13.86,13.86,0,0,1-4.23,1.79,9.85,9.85,0,0,1-5-.41c-1.71-.51-3.43-1.27-5.31-1.82a11.8,11.8,0,0,0-5.69-.39,22.91,22.91,0,0,0-5,1.66,35.52,35.52,0,0,1-8.17,3.09,9.7,9.7,0,0,1-5.7-.63,13.38,13.38,0,0,1-1.83-1.15,2.47,2.47,0,0,0,.36.45,6.24,6.24,0,0,0,1.32,1,9.65,9.65,0,0,0,5.93.91,33.63,33.63,0,0,0,8.37-3,21.37,21.37,0,0,1,4.88-1.5,10.84,10.84,0,0,1,5.36.37c1.81.53,3.52,1.29,5.3,1.81a10.72,10.72,0,0,0,5.33.37,14.51,14.51,0,0,0,4.41-1.94c1.28-.77,2.41-1.5,3.49-2.13a10.74,10.74,0,0,1,5.55-1.51,10.6,10.6,0,0,1,2.1.36"/></g></g><g class="f76a7976-8a36-4dde-9e43-3eadede4ce33"><g class="b9ccf720-2d2b-4123-83ff-4b483aaf233a"><path class="a776f885-4c78-40c8-b3d8-4dbe4e5a5d6f" d="M97.1,101.35s.22.1.57.29a2.6,2.6,0,0,1,1.14,1.11,2.12,2.12,0,0,1,0,2.15A2.45,2.45,0,0,1,96.48,106a2.48,2.48,0,0,1-1.91-1.77,2.33,2.33,0,0,1,.48-2.15,3,3,0,0,1,1.3-1c.37-.15.6-.18.6-.24s-.24-.12-.68,0a3.05,3.05,0,0,0-1.64.89,2.91,2.91,0,0,0-.75,2.71,3.17,3.17,0,0,0,2.48,2.36,3,3,0,0,0,3-1.51,2.74,2.74,0,0,0-1.13-3.7,3.89,3.89,0,0,0-.51-.21c-.39-.21-.63-.15-.63-.1"/></g></g><g class="f76a7976-8a36-4dde-9e43-3eadede4ce33"><g class="fb345ada-e6bd-430a-a6b2-d79cca26bf8b"><path class="a776f885-4c78-40c8-b3d8-4dbe4e5a5d6f" d="M125.19,99.24l.58.29a2.63,2.63,0,0,1,1.13,1.11,2.08,2.08,0,0,1,0,2.15,2.28,2.28,0,0,1-4.22-.64,2.35,2.35,0,0,1,.46-2.15,3,3,0,0,1,1.31-1c.36-.15.59-.18.59-.24s-.23-.12-.68,0a2.93,2.93,0,0,0-1.64.89,2.87,2.87,0,0,0-.75,2.69,3.17,3.17,0,0,0,2.49,2.37,3.07,3.07,0,0,0,3-1.5,2.72,2.72,0,0,0-1.64-3.91c-.37-.21-.64-.15-.64-.11"/></g></g><g class="f76a7976-8a36-4dde-9e43-3eadede4ce33"><g class="a9c8a93c-48f8-4c67-a8ac-5418fc723fec"><path class="a776f885-4c78-40c8-b3d8-4dbe4e5a5d6f" d="M110.28,97l.58.27A2.83,2.83,0,0,1,112,98.37a2.08,2.08,0,0,1,0,2.15,2.39,2.39,0,0,1-2.33,1.14,2.48,2.48,0,0,1-1.91-1.77,2.39,2.39,0,0,1,.48-2.15,3,3,0,0,1,1.29-.95c.38-.15.6-.18.6-.24s-.24-.12-.67,0a2.9,2.9,0,0,0-1.64.89,2.85,2.85,0,0,0-.75,2.69,3.18,3.18,0,0,0,2.48,2.38,3,3,0,0,0,3-1.51,2.75,2.75,0,0,0-1.15-3.72,2.65,2.65,0,0,0-.49-.2c-.4-.21-.64-.14-.64-.09"/></g></g><g class="f76a7976-8a36-4dde-9e43-3eadede4ce33"><g class="f37294b7-0f96-4710-a05b-cc9320cb892d"><path class="a776f885-4c78-40c8-b3d8-4dbe4e5a5d6f" d="M137,95l.57.29a2.55,2.55,0,0,1,1.14,1.11,2.08,2.08,0,0,1,0,2.15,2.41,2.41,0,0,1-2.31,1.15,2.48,2.48,0,0,1-1.91-1.79,2.35,2.35,0,0,1,.46-2.15,3.08,3.08,0,0,1,1.31-1c.36-.15.59-.18.59-.24s-.23-.12-.68,0a3,3,0,0,0-1.64.89,2.89,2.89,0,0,0-.75,2.7,3.18,3.18,0,0,0,2.5,2.36,3.09,3.09,0,0,0,3-1.5,2.66,2.66,0,0,0-.14-2.81,2.6,2.6,0,0,0-1.5-1.1c-.42-.21-.65-.15-.65-.11"/></g></g><g class="f76a7976-8a36-4dde-9e43-3eadede4ce33"><g class="f8e91d1d-88e2-44f4-8183-32423f112c1d"><path class="a776f885-4c78-40c8-b3d8-4dbe4e5a5d6f" d="M94.39,89.21l.57.28a2.68,2.68,0,0,1,1.15,1.11,2.08,2.08,0,0,1,0,2.15,2.39,2.39,0,0,1-2.32,1.14,2.48,2.48,0,0,1-1.91-1.77A2.35,2.35,0,0,1,92.35,90a3.18,3.18,0,0,1,1.29-1c.38-.13.6-.16.6-.22s-.24-.12-.68,0a3,3,0,0,0-1.64.89,2.89,2.89,0,0,0-.75,2.69,3.17,3.17,0,0,0,2.5,2.37,3.09,3.09,0,0,0,3-1.5,2.75,2.75,0,0,0-1.17-3.71,3,3,0,0,0-.49-.2c-.39-.23-.63-.15-.63-.11"/></g></g><g class="f76a7976-8a36-4dde-9e43-3eadede4ce33"><g class="fbbb3488-1d04-4db9-9fb4-e40ef887c7f6"><path class="a776f885-4c78-40c8-b3d8-4dbe4e5a5d6f" d="M124.37,86.43c0,.08.23.11.58.29a2.56,2.56,0,0,1,1.12,1.11,2.12,2.12,0,0,1,0,2.15,2.4,2.4,0,0,1-2.33,1.14,2.5,2.5,0,0,1-1.91-1.77,2.35,2.35,0,0,1,.47-2.15,3.19,3.19,0,0,1,1.31-1c.36-.14.6-.18.6-.24s-.24-.12-.68,0a3,3,0,0,0-2.42,3.49.29.29,0,0,0,0,.09A3.17,3.17,0,0,0,123.62,92a3.11,3.11,0,0,0,3-1.5,2.63,2.63,0,0,0-.14-2.8,2.66,2.66,0,0,0-1.5-1.11c-.38-.21-.62-.15-.62-.11"/></g></g><g class="f76a7976-8a36-4dde-9e43-3eadede4ce33"><g class="b7a956ec-888f-4a0f-b8b1-768b82c5ebdf"><path class="a776f885-4c78-40c8-b3d8-4dbe4e5a5d6f" d="M109.5,85.73s.23.1.57.28a2.8,2.8,0,0,1,1.15,1.11,2.19,2.19,0,0,1,0,2.16,2.43,2.43,0,0,1-2.33,1.14A2.49,2.49,0,0,1,107,88.64a2.36,2.36,0,0,1,.46-2.15,3.19,3.19,0,0,1,1.31-1c.36-.13.6-.18.6-.24s-.24-.12-.67,0a3,3,0,0,0-2.41,3.51s0,0,0,.07a3.17,3.17,0,0,0,2.49,2.38,3.1,3.1,0,0,0,3-1.51,2.73,2.73,0,0,0-1.13-3.7,2.28,2.28,0,0,0-.51-.21c-.39-.21-.63-.15-.63-.1"/></g></g><g class="f76a7976-8a36-4dde-9e43-3eadede4ce33"><g class="ec1941c0-a72f-456d-9936-2393e61a5668"><path class="a776f885-4c78-40c8-b3d8-4dbe4e5a5d6f" d="M99.85,112l.57.27a2.77,2.77,0,0,1,1.14,1.11,2.12,2.12,0,0,1,0,2.15,2.4,2.4,0,0,1-2.33,1.14,2.5,2.5,0,0,1-1.91-1.77,2.33,2.33,0,0,1,.48-2.15,3.16,3.16,0,0,1,1.3-1c.37-.14.6-.17.6-.24s-.24-.11-.68,0a2.91,2.91,0,0,0-1.64.88,2.88,2.88,0,0,0-.75,2.69,3.14,3.14,0,0,0,2.48,2.38,3,3,0,0,0,3-1.5,2.63,2.63,0,0,0-.14-2.8,2.66,2.66,0,0,0-1.5-1.11c-.39-.21-.63-.14-.63-.09"/></g></g><g class="f76a7976-8a36-4dde-9e43-3eadede4ce33"><g class="aae760fc-49b5-4a4a-b4af-8ac8c367acdf"><path class="a776f885-4c78-40c8-b3d8-4dbe4e5a5d6f" d="M128.8,110.39c0,.07.22.1.57.28a2.73,2.73,0,0,1,1.14,1.12,2.08,2.08,0,0,1,0,2.15,2.4,2.4,0,0,1-2.32,1.14,2.48,2.48,0,0,1-1.91-1.78,2.36,2.36,0,0,1,.47-2.15,3.13,3.13,0,0,1,1.29-1c.38-.13.61-.18.61-.24s-.25-.11-.68,0a3,3,0,0,0-1.64.87,2.92,2.92,0,0,0-.75,2.71,3.19,3.19,0,0,0,2.49,2.38,3.11,3.11,0,0,0,3-1.51,2.75,2.75,0,0,0-1.17-3.71,2.55,2.55,0,0,0-.48-.2c-.39-.21-.63-.15-.63-.1"/></g></g><g class="f76a7976-8a36-4dde-9e43-3eadede4ce33"><g class="a833e22e-0f99-46e4-a888-6c477a1cd7ad"><path class="a776f885-4c78-40c8-b3d8-4dbe4e5a5d6f" d="M113.88,108.13l.57.29a2.55,2.55,0,0,1,1.14,1.11,2.12,2.12,0,0,1,0,2.15,2.43,2.43,0,0,1-2.33,1.14,2.5,2.5,0,0,1-1.91-1.77,2.33,2.33,0,0,1,.48-2.15,3,3,0,0,1,1.33-1c.37-.13.6-.18.6-.24s-.24-.12-.68,0a3.05,3.05,0,0,0-1.64.89,2.89,2.89,0,0,0-.75,2.7,3.17,3.17,0,0,0,2.48,2.37,3,3,0,0,0,3-1.51,2.74,2.74,0,0,0-1.13-3.7,2.28,2.28,0,0,0-.51-.21c-.42-.16-.66-.1-.66-.06"/></g></g><g class="f76a7976-8a36-4dde-9e43-3eadede4ce33"><g class="eca8e595-5bf8-4d53-ac4c-c9c8ed33e741"><path class="a776f885-4c78-40c8-b3d8-4dbe4e5a5d6f" d="M140.58,106.16l.58.27a2.77,2.77,0,0,1,1.14,1.11,2.09,2.09,0,0,1,0,2.16,2.4,2.4,0,0,1-2.32,1.14,2.52,2.52,0,0,1-1.92-1.78,2.39,2.39,0,0,1,.48-2.15,3.31,3.31,0,0,1,1.29-1c.38-.13.6-.16.6-.24s-.24-.1-.67,0a3.05,3.05,0,0,0-1.64.89,2.84,2.84,0,0,0-.75,2.69,3.17,3.17,0,0,0,2.49,2.37,3.09,3.09,0,0,0,3-1.5,2.75,2.75,0,0,0-1.17-3.71,2.86,2.86,0,0,0-.48-.2c-.4-.21-.64-.13-.64-.09"/></g></g><g class="f76a7976-8a36-4dde-9e43-3eadede4ce33"><g class="b5dae2bd-0d4b-458b-a7d5-d63e9d1b81c8"><path class="a776f885-4c78-40c8-b3d8-4dbe4e5a5d6f" d="M102.35,122.06c0,.07.22.12.57.28a2.77,2.77,0,0,1,1.14,1.11,2.08,2.08,0,0,1,0,2.15,2.39,2.39,0,0,1-2.32,1.15A2.52,2.52,0,0,1,99.82,125a2.39,2.39,0,0,1,.48-2.15,3.31,3.31,0,0,1,1.29-1c.38-.14.61-.17.61-.24s-.25-.11-.68,0a2.93,2.93,0,0,0-1.64.89,2.87,2.87,0,0,0-.75,2.69,3.17,3.17,0,0,0,2.49,2.37,3.09,3.09,0,0,0,3-1.5,2.75,2.75,0,0,0-1.17-3.71,2.55,2.55,0,0,0-.48-.2c-.35-.21-.63-.13-.63-.1"/></g></g><g class="f76a7976-8a36-4dde-9e43-3eadede4ce33"><g class="e96a28fa-0245-4d12-a05e-127405c76485"><path class="a776f885-4c78-40c8-b3d8-4dbe4e5a5d6f" d="M131.8,121.42l.59.29a2.69,2.69,0,0,1,1.13,1.11,2.08,2.08,0,0,1,0,2.15,2.39,2.39,0,0,1-2.32,1.15,2.51,2.51,0,0,1-1.91-1.78,2.33,2.33,0,0,1,.47-2.15,3.19,3.19,0,0,1,1.31-1c.36-.14.6-.18.6-.24s-.24-.12-.68,0a3,3,0,0,0-1.64.87,2.89,2.89,0,0,0-.77,2.71,3.18,3.18,0,0,0,2.5,2.37,3.09,3.09,0,0,0,3-1.5,2.65,2.65,0,0,0-.14-2.8,2.71,2.71,0,0,0-1.5-1.11c-.39-.27-.65-.21-.65-.11"/></g></g><g class="f76a7976-8a36-4dde-9e43-3eadede4ce33"><g class="fdbdc819-cf3b-47f2-949a-bd41528b02b0"><path class="a776f885-4c78-40c8-b3d8-4dbe4e5a5d6f" d="M116.89,119.11l.57.28a2.73,2.73,0,0,1,1.14,1.12,2.08,2.08,0,0,1,0,2.15,2.43,2.43,0,0,1-2.32,1.14,2.53,2.53,0,0,1-1.92-1.77,2.38,2.38,0,0,1,.48-2.15,3,3,0,0,1,1.29-1c.38-.13.61-.18.61-.24s-.25-.12-.68,0a3.05,3.05,0,0,0-1.64.89,2.91,2.91,0,0,0-.75,2.71,3.16,3.16,0,0,0,2.49,2.36,3.09,3.09,0,0,0,3-1.51,2.63,2.63,0,0,0-.15-2.79,2.56,2.56,0,0,0-1.5-1.12c-.39-.21-.63-.15-.63-.1"/></g></g><g class="f76a7976-8a36-4dde-9e43-3eadede4ce33"><g class="eea4fe34-6a34-4cfe-bea0-50e668ed4423"><path class="a776f885-4c78-40c8-b3d8-4dbe4e5a5d6f" d="M143.59,117.12c0,.08.23.12.59.29a2.75,2.75,0,0,1,1.13,1.11,2.08,2.08,0,0,1,0,2.15,2.37,2.37,0,0,1-2.32,1.14,2.48,2.48,0,0,1-1.91-1.77,2.36,2.36,0,0,1,.47-2.15,3.28,3.28,0,0,1,1.31-1c.36-.14.6-.17.6-.24s-.24-.11-.68,0a2.82,2.82,0,0,0-1.64.88,2.88,2.88,0,0,0-.77,2.7,3.18,3.18,0,0,0,2.5,2.37,3.09,3.09,0,0,0,3-1.5,2.74,2.74,0,0,0-1.64-3.91c-.39-.21-.65-.14-.65-.11"/></g></g><g class="f76a7976-8a36-4dde-9e43-3eadede4ce33"><g class="b1dccb14-56d5-4eaa-ac0d-708a5ff847e6"><path class="a776f885-4c78-40c8-b3d8-4dbe4e5a5d6f" d="M137.07,114.78a14.8,14.8,0,0,1-1.19,1.31,7.71,7.71,0,0,1-4.32,1.74,16.81,16.81,0,0,1-6.93-1.25c-1.29-.43-2.65-.93-4.1-1.31a14.17,14.17,0,0,0-4.67-.49,12.21,12.21,0,0,0-4.51,1.43c-1.35.67-2.57,1.39-3.79,2a14.54,14.54,0,0,1-6.88,1.25,15,15,0,0,1-4.68-1c-.54-.25-1.09-.48-1.65-.68a5,5,0,0,0,1.5,1,14.44,14.44,0,0,0,12,.15c2.54-1.07,5-3,8-3.25a13.42,13.42,0,0,1,4.42.45c1.42.36,2.76.84,4,1.25a16.69,16.69,0,0,0,7.23,1.11,7.48,7.48,0,0,0,4.51-2.06,5.4,5.4,0,0,0,.82-1.08c.09-.29.15-.44.12-.45"/></g></g><g class="f76a7976-8a36-4dde-9e43-3eadede4ce33"><g class="bd322d70-dadf-4778-a500-ddb5a6f6385d"><path class="a776f885-4c78-40c8-b3d8-4dbe4e5a5d6f" d="M147,112c0-.1-.49-.3-1.35-.38a9.48,9.48,0,0,0-3.35.31,9.76,9.76,0,0,0-3,1.5c-.71.51-1,.93-1,1a28.37,28.37,0,0,1,4.23-1.67c2.4-.63,4.44-.54,4.46-.77"/></g></g><g class="f76a7976-8a36-4dde-9e43-3eadede4ce33"><g class="f81a51dd-676a-4d51-bfd0-b705c491d241"><path class="a776f885-4c78-40c8-b3d8-4dbe4e5a5d6f" d="M141,125.94s-.44.51-1.28,1.33a11.54,11.54,0,0,1-4.21,2.62,11.68,11.68,0,0,1-3.35.68,11.3,11.3,0,0,1-3.87-.54c-1.32-.41-2.69-1-4.16-1.51a11.46,11.46,0,0,0-4.84-.81,11.58,11.58,0,0,0-4.62,1.7,31.93,31.93,0,0,1-3.89,2,6.82,6.82,0,0,1-3.79.39,21,21,0,0,1-3.3-1c-1-.38-1.92-.72-2.76-.95a7,7,0,0,0-2.23-.26,3.67,3.67,0,0,0-.81.11,2.7,2.7,0,0,0-.57.18c-.29.12-.44.2-.44.23s.18,0,.48,0a1.88,1.88,0,0,1,.57-.09,2.62,2.62,0,0,1,.79,0,7.47,7.47,0,0,1,2.09.37c.79.26,1.7.62,2.69,1a18.83,18.83,0,0,0,3.37,1.14,7.36,7.36,0,0,0,4.15-.34,29.35,29.35,0,0,0,4-2.05,10.83,10.83,0,0,1,4.31-1.5,10.69,10.69,0,0,1,4.51.75c1.51.51,2.83,1.1,4.23,1.5a11.17,11.17,0,0,0,4.1.5,11.73,11.73,0,0,0,3.51-.81,11.13,11.13,0,0,0,4.22-3.19,6.48,6.48,0,0,0,.84-1.11,1.54,1.54,0,0,0,.23-.39"/></g></g><g class="f76a7976-8a36-4dde-9e43-3eadede4ce33"><g class="a0a044da-593d-4d14-bb32-4ca096bbfd02"><path class="a776f885-4c78-40c8-b3d8-4dbe4e5a5d6f" d="M153.07,122.63a10.1,10.1,0,0,0-9.36,1.5c.12.21,2-.74,4.62-1.14s4.69-.06,4.74-.36"/></g></g><g class="f76a7976-8a36-4dde-9e43-3eadede4ce33"><g class="a4f688eb-b483-4306-be00-6ae31fc9f16e"><path class="a776f885-4c78-40c8-b3d8-4dbe4e5a5d6f" d="M127.86,81.15s-.48.4-1.38,1A11.82,11.82,0,0,1,122.24,84a11.19,11.19,0,0,1-3.16.24,13.54,13.54,0,0,1-3.56-.81,21.27,21.27,0,0,0-4-1.16,9.63,9.63,0,0,0-4.51.57c-1.5.51-2.83,1.14-4.16,1.59a21.45,21.45,0,0,1-4,.91,35,35,0,0,1-6.94.09c-4-.37-6.43-.76-6.44-.64a6.51,6.51,0,0,0,1.68.44c1.1.21,2.69.51,4.69.74a31.13,31.13,0,0,0,7.09.09,21.56,21.56,0,0,0,4.13-.89c1.38-.47,2.74-1.1,4.17-1.5a8.94,8.94,0,0,1,4.19-.57,22.43,22.43,0,0,1,3.93,1.08,13.26,13.26,0,0,0,3.74.78,11.41,11.41,0,0,0,3.34-.35,11.12,11.12,0,0,0,4.28-2.13,4.33,4.33,0,0,0,1.16-1.36"/></g></g><g class="f76a7976-8a36-4dde-9e43-3eadede4ce33"><g class="a195fd67-8bd9-4195-bc76-5dbfbe2b3bad"><path class="a776f885-4c78-40c8-b3d8-4dbe4e5a5d6f" d="M89,94c.2-.09,0-1-.42-1.91s-.95-1.7-1.14-1.61,0,1,.42,1.92,1,1.69,1.14,1.6"/></g></g><g class="f76a7976-8a36-4dde-9e43-3eadede4ce33"><g class="a84d4150-9c2c-4c13-b827-9c48878d0cad"><path class="a776f885-4c78-40c8-b3d8-4dbe4e5a5d6f" d="M100.11,93.08c.19-.09-.11-1.1-.67-2.24s-1.15-2-1.35-1.91.11,1.1.65,2.24,1.17,2,1.37,1.91"/></g></g><g class="f76a7976-8a36-4dde-9e43-3eadede4ce33"><g class="a94a7e35-bbf0-477d-98e7-027c5a789129"><path class="a776f885-4c78-40c8-b3d8-4dbe4e5a5d6f" d="M102,91.68c.18-.13-.15-.89-.56-1.79s-.76-1.64-1-1.59-.2,1,.25,1.92,1.11,1.58,1.28,1.46"/></g></g><g class="f76a7976-8a36-4dde-9e43-3eadede4ce33"><g class="ab0e9202-4de9-4c96-9293-570963060e4e"><path class="a776f885-4c78-40c8-b3d8-4dbe4e5a5d6f" d="M104.71,91.53c.21,0,.1-1-.24-2.1s-.79-2-1-1.88-.09,1,.24,2.1.8,2,1,1.88"/></g></g><g class="f76a7976-8a36-4dde-9e43-3eadede4ce33"><g class="af8ea5fc-ebdd-417d-a35c-903ccbf4b304"><path class="a776f885-4c78-40c8-b3d8-4dbe4e5a5d6f" d="M115.49,90.46c.18-.13-.2-1-.6-2s-.71-1.88-.92-1.85-.26,1,.19,2.15,1.16,1.82,1.33,1.7"/></g></g><g class="f76a7976-8a36-4dde-9e43-3eadede4ce33"><g class="b3a299aa-cf46-49cf-801d-eb720a6384d3"><path class="a776f885-4c78-40c8-b3d8-4dbe4e5a5d6f" d="M118.27,91.06c.19-.09,0-1-.15-2s-.26-1.94-.47-2-.48.94-.3,2.09.72,2,.92,1.91"/></g></g><g class="f76a7976-8a36-4dde-9e43-3eadede4ce33"><g class="abbfabce-9a40-4ce2-a005-b6fe1597ed48"><path class="a776f885-4c78-40c8-b3d8-4dbe4e5a5d6f" d="M130.4,89.21c.17-.13-.33-.91-1.09-1.72s-1.51-1.34-1.67-1.19.33.93,1.1,1.73,1.51,1.33,1.66,1.18"/></g></g><g class="f76a7976-8a36-4dde-9e43-3eadede4ce33"><g class="bcace06d-fcff-44ec-88ab-857b693cdf28"><path class="a776f885-4c78-40c8-b3d8-4dbe4e5a5d6f" d="M132.7,88.34c.17-.13-.36-1.1-1.36-1.94s-2.05-1.22-2.14-1,.69.82,1.63,1.62,1.71,1.46,1.87,1.35"/></g></g><g class="f76a7976-8a36-4dde-9e43-3eadede4ce33"><g class="ad58ee69-67cc-49ef-b435-dee5b972ec49"><path class="a776f885-4c78-40c8-b3d8-4dbe4e5a5d6f" d="M84.42,83.53c.21,0,.29-1,.15-2.12s-.4-2-.62-2-.28,1-.16,2.12.41,2.06.63,2"/></g></g><g class="f76a7976-8a36-4dde-9e43-3eadede4ce33"><g class="b159d32b-62a9-4e7a-a293-be55c1bc19e0"><path class="a776f885-4c78-40c8-b3d8-4dbe4e5a5d6f" d="M88.11,83.38c.21,0,0-1.08-.33-2.26s-.88-2.1-1.09-2,0,1.09.35,2.28.87,2.09,1.07,2"/></g></g><g class="f76a7976-8a36-4dde-9e43-3eadede4ce33"><g class="a0f1bcdc-5071-45a4-96ea-f15186639aff"><path class="a776f885-4c78-40c8-b3d8-4dbe4e5a5d6f" d="M92.11,83.38c.19,0,.09-1.17-.44-2.44s-1.23-2.13-1.41-2,.19,1.13.69,2.34,1,2.19,1.16,2.13"/></g></g><g class="f76a7976-8a36-4dde-9e43-3eadede4ce33"><g class="e68c43f2-dfbf-473d-ab04-6eb6a58f8724"><path class="a776f885-4c78-40c8-b3d8-4dbe4e5a5d6f" d="M98.6,79.09h.62a2.52,2.52,0,0,1,1.41.67,2,2,0,0,1,.62,2,2.4,2.4,0,0,1-1.93,1.67,2.53,2.53,0,0,1-2.55-3.31,2.28,2.28,0,0,1,1-1.2c.33-.2.56-.23.56-.29s-.25-.12-.68,0a2.39,2.39,0,0,0-1.34,1.27,2.89,2.89,0,0,0,.17,2.75,3.53,3.53,0,0,0,1.18,1.19,2.9,2.9,0,0,0,1.82.37,3,3,0,0,0,2.5-2.27,2.35,2.35,0,0,0-.14-1.5,2.52,2.52,0,0,0-.82-1,2.45,2.45,0,0,0-1.76-.54c-.44.06-.63.23-.62.25"/></g></g><g class="f76a7976-8a36-4dde-9e43-3eadede4ce33"><g class="f8de3b39-9e95-4dec-aabd-a118755bfc33"><path class="a776f885-4c78-40c8-b3d8-4dbe4e5a5d6f" d="M105.64,82c.21-.08.12-.77-.17-1.51s-.7-1.3-.9-1.23-.13.77.17,1.5.72,1.31.9,1.24"/></g></g><g class="f76a7976-8a36-4dde-9e43-3eadede4ce33"><g class="b1bc5d21-362c-465a-8c80-85e2a33d8b4b"><path class="a776f885-4c78-40c8-b3d8-4dbe4e5a5d6f" d="M109.19,81.38c.21,0,.16-.83-.09-1.71s-.63-1.51-.85-1.51-.16.83.1,1.72.63,1.56.84,1.5"/></g></g><g class="f76a7976-8a36-4dde-9e43-3eadede4ce33"><g class="ec5235b5-4314-43a0-8c46-3191b5525c34"><path class="a776f885-4c78-40c8-b3d8-4dbe4e5a5d6f" d="M112.57,81.23c.21,0,.18-.83-.07-1.73s-.64-1.5-.85-1.5-.16.82.09,1.73.62,1.56.83,1.5"/></g></g><g class="f76a7976-8a36-4dde-9e43-3eadede4ce33"><g class="fb42296b-e6df-4c39-b5e0-af96c69df2ca"><path class="a776f885-4c78-40c8-b3d8-4dbe4e5a5d6f" d="M121.55,78a7.47,7.47,0,0,1,.13,1.73,2.77,2.77,0,0,1-.76,1.5,2.52,2.52,0,0,1-1.94.65,2.49,2.49,0,0,1-1.81-1,2.73,2.73,0,0,1-.49-1.67c0-1,.52-1.6.42-1.68s-.78.38-1,1.64a3.07,3.07,0,1,0,6.12.51c-.06-1.22-.65-1.79-.69-1.71"/></g></g><g class="f76a7976-8a36-4dde-9e43-3eadede4ce33"><g class="b927129c-6346-4564-a36c-813b04bacdba"><path class="a776f885-4c78-40c8-b3d8-4dbe4e5a5d6f" d="M91.7,104.27c.21-.08,0-.94-.32-1.91s-.84-1.7-1-1.63,0,.93.32,1.91.85,1.72,1,1.63"/></g></g><g class="f76a7976-8a36-4dde-9e43-3eadede4ce33"><g class="bd99a78d-37d8-4830-9225-124814b39121"><path class="a776f885-4c78-40c8-b3d8-4dbe4e5a5d6f" d="M102.63,105.35c.2-.09,0-1-.59-2.09s-1.09-1.83-1.29-1.74,0,1,.59,2.09,1.08,1.83,1.29,1.74"/></g></g><g class="f76a7976-8a36-4dde-9e43-3eadede4ce33"><g class="b58e7fbb-e3b8-434e-bf74-a233e51c100e"><path class="a776f885-4c78-40c8-b3d8-4dbe4e5a5d6f" d="M104.42,104c.21-.09,0-1-.41-2s-.93-1.77-1.12-1.68,0,1,.4,2,.94,1.78,1.13,1.7"/></g></g><g class="f76a7976-8a36-4dde-9e43-3eadede4ce33"><g class="e4e78c41-63b9-412c-9548-1502c5a8ed3d"><path class="a776f885-4c78-40c8-b3d8-4dbe4e5a5d6f" d="M116.07,101.21c.21,0,.2-.81,0-1.69s-.58-1.51-.79-1.51-.2.83,0,1.72.58,1.55.79,1.48"/></g></g><g class="f76a7976-8a36-4dde-9e43-3eadede4ce33"><g class="a9d2b6ae-6f2e-41eb-994d-af37e7846c6f"><path class="a776f885-4c78-40c8-b3d8-4dbe4e5a5d6f" d="M118.84,102.45c.21,0,.21-.9,0-1.93s-.54-1.8-.75-1.76-.23.91,0,1.93.54,1.8.75,1.76"/></g></g><g class="f76a7976-8a36-4dde-9e43-3eadede4ce33"><g class="fe0f7c54-cbc9-4c72-8bbe-26facec2c691"><path class="a776f885-4c78-40c8-b3d8-4dbe4e5a5d6f" d="M131.34,102.75c.18-.11-.08-.92-.59-1.81s-1.08-1.5-1.26-1.42,0,.91.58,1.81,1.13,1.52,1.27,1.42"/></g></g><g class="f76a7976-8a36-4dde-9e43-3eadede4ce33"><g class="a50b9105-746c-4f39-83ec-24a5af6c0037"><path class="a776f885-4c78-40c8-b3d8-4dbe4e5a5d6f" d="M133.49,101.36c.19-.12-.11-1-.67-1.89s-1.14-1.61-1.32-1.5.11.94.66,1.88,1.15,1.62,1.33,1.51"/></g></g><g class="f76a7976-8a36-4dde-9e43-3eadede4ce33"><g class="b798a83c-bdb8-41dd-aacf-60de8540f43b"><path class="a776f885-4c78-40c8-b3d8-4dbe4e5a5d6f" d="M106.15,115.48c.2-.09,0-.88-.42-1.77s-.93-1.5-1.13-1.5,0,.88.42,1.79.93,1.59,1.13,1.48"/></g></g><g class="f76a7976-8a36-4dde-9e43-3eadede4ce33"><g class="ba79f5a8-2054-46b8-af83-e3705e160193"><path class="a776f885-4c78-40c8-b3d8-4dbe4e5a5d6f" d="M108.89,114.58c.19,0,.09-1-.26-2.1s-.8-1.94-1-1.88-.09,1,.26,2.12.77,1.94,1,1.86"/></g></g><g class="f76a7976-8a36-4dde-9e43-3eadede4ce33"><g class="f21873e8-c2d5-4ce4-ac19-591f3e2c4687"><path class="a776f885-4c78-40c8-b3d8-4dbe4e5a5d6f" d="M120.57,112.58c.2-.09,0-.93-.5-1.86s-1-1.61-1.18-1.51,0,.94.49,1.87,1,1.61,1.19,1.5"/></g></g><g class="f76a7976-8a36-4dde-9e43-3eadede4ce33"><g class="bc1d9693-f120-4f21-aba0-e28b6990f13a"><path class="a776f885-4c78-40c8-b3d8-4dbe4e5a5d6f" d="M123.32,113.66c.2,0,.14-1-.16-2.16s-.71-2-.92-2-.14,1,.16,2.18.71,2,.92,2"/></g></g><g class="f76a7976-8a36-4dde-9e43-3eadede4ce33"><g class="a212abb5-c9d4-4a7b-a1d6-184859bf5843"><path class="a776f885-4c78-40c8-b3d8-4dbe4e5a5d6f" d="M134.21,113.51c.21-.07,0-.93-.66-1.68s-1.51-1-1.63-.8.47.68,1.06,1.33,1.06,1.24,1.23,1.15"/></g></g><g class="f76a7976-8a36-4dde-9e43-3eadede4ce33"><g class="bf41a20c-f77b-4777-9de7-9f740e9e507f"><path class="a776f885-4c78-40c8-b3d8-4dbe4e5a5d6f" d="M108.92,126.1c.18-.12-.11-.93-.67-1.82s-1.14-1.5-1.32-1.41.11.92.66,1.82,1.15,1.52,1.33,1.41"/></g></g><g class="f76a7976-8a36-4dde-9e43-3eadede4ce33"><g class="ad10a80a-72b7-4e76-afa8-84798f037203"><path class="a776f885-4c78-40c8-b3d8-4dbe4e5a5d6f" d="M111.35,125.94c.2-.11-.12-1.06-.7-2.13s-1.22-1.83-1.42-1.72.14,1,.72,2.12,1.22,1.85,1.4,1.73"/></g></g><g class="f76a7976-8a36-4dde-9e43-3eadede4ce33"><g class="e7131e8c-84bb-4d59-8226-1ee424fdbb21"><path class="a776f885-4c78-40c8-b3d8-4dbe4e5a5d6f" d="M123,123.81c.21-.09,0-1-.48-2.15s-1-1.94-1.2-1.85,0,1.06.48,2.15,1,1.93,1.2,1.85"/></g></g><g class="f76a7976-8a36-4dde-9e43-3eadede4ce33"><g class="af35c54a-2569-498f-8b69-0a4f2164cf0f"><path class="a776f885-4c78-40c8-b3d8-4dbe4e5a5d6f" d="M126.07,125.05c.21,0,.11-1.13-.22-2.41s-.77-2.27-1-2.21-.11,1.13.23,2.41.76,2.27,1,2.21"/></g></g><g class="f76a7976-8a36-4dde-9e43-3eadede4ce33"><g class="f153c84f-b99e-4155-8204-677101294ac8"><path class="a776f885-4c78-40c8-b3d8-4dbe4e5a5d6f" d="M137.34,124.12c.19-.09,0-1-.56-2s-1.05-1.78-1.25-1.69,0,1,.54,2,1.07,1.78,1.27,1.69"/></g></g><g class="f76a7976-8a36-4dde-9e43-3eadede4ce33"><g class="f0ae4f1e-6d29-4446-b004-8e54e6f08e48"><path class="a776f885-4c78-40c8-b3d8-4dbe4e5a5d6f" d="M149.25,120.15c.18-.12-.12-.91-.67-1.75s-1.14-1.5-1.32-1.34.12.91.66,1.76,1.18,1.45,1.33,1.33"/></g></g><path class="b056ff4f-1e3b-45db-8a67-f71807bd82a3" d="M135.41,195.11s19.14,127.19,16.36,133.33-79.21,91.08-79.21,91.08L39.25,385.05s65.5-72.34,64.88-74.7S74.56,184.82,74.56,184.82Z"/><path class="b056ff4f-1e3b-45db-8a67-f71807bd82a3" d="M142.22,242c-.19-1.34-15.64-36.09-15.64-36.09l7.52-10.52,1.33-.29Z"/><path class="b056ff4f-1e3b-45db-8a67-f71807bd82a3" d="M63.7,183.08l-1.16,4.72a55.63,55.63,0,0,0,5.84,41l51.92,90a72.31,72.31,0,0,1,8,20.45l14.51,92.72,48.47-3.37s-12.75-71-17.43-100.19c-3.53-22-33-90.22-47.22-122.46l8.83-10.81-15.34-2.56Z"/><path class="aa9a367a-35f4-4f3e-9b6b-8faacffc4973" d="M127.71,205.63a46.11,46.11,0,0,0,2.17,5.7c1.41,3.47,3.37,8.29,5.44,13.62s3.88,10.2,5.19,13.73a50.05,50.05,0,0,0,2.24,5.66,6.27,6.27,0,0,0-.36-1.61c-.29-1-.72-2.47-1.31-4.26-1.16-3.58-2.87-8.48-5-13.83S132,214.5,130.43,211.1c-.78-1.71-1.5-3-1.91-4a7.58,7.58,0,0,0-.81-1.44"/><path class="aa9a367a-35f4-4f3e-9b6b-8faacffc4973" d="M132.36,356.84a4.27,4.27,0,0,0,0-1c-.09-.75-.2-1.69-.33-2.87a43.08,43.08,0,0,0-.69-4.51c-.33-1.76-.65-3.77-1.24-6l-.84-3.43c-.28-1.19-.71-2.41-1.08-3.67-.72-2.56-1.73-5.2-2.71-8a181.36,181.36,0,0,0-7.89-17.68,310.74,310.74,0,0,0-18.14-30.07c-2.49-3.73-4.51-6.72-6-8.78l-1.68-2.35c-.41-.54-.62-.81-.65-.78a5.71,5.71,0,0,0,.49.87L93.1,271l5.8,8.92c4.86,7.52,11.57,18,17.87,30.18q4.4,8.58,7.92,17.56c1,2.8,2,5.41,2.77,7.95.37,1.25.8,2.46,1.13,3.64s.6,2.32.88,3.4c.62,2.15,1,4.15,1.36,5.9s.64,3.25.82,4.51.36,2.1.48,2.86a4.3,4.3,0,0,0,.23.94"/><path class="aa9a367a-35f4-4f3e-9b6b-8faacffc4973" d="M190.46,422.16a8.53,8.53,0,0,0-1.89,0l-5.16.27c-4.36.27-10.36.69-17,1.19s-12.63,1-17,1.43l-5.15.51a9.32,9.32,0,0,0-1.88.3,7.63,7.63,0,0,0,1.91,0l5.16-.27c4.35-.27,10.36-.69,17-1.2s12.65-1,17-1.42l5.13-.51a9.83,9.83,0,0,0,1.88-.3"/><path class="aa9a367a-35f4-4f3e-9b6b-8faacffc4973" d="M188.88,414a10.16,10.16,0,0,0-1.91,0l-5.14.45c-4.33.41-10.33,1-16.93,1.76s-12.6,1.43-16.92,2l-5.11.69a7.85,7.85,0,0,0-1.86.36,10,10,0,0,0,1.89,0l5.14-.45c4.33-.41,10.33-1,16.93-1.76s12.6-1.43,16.92-2l5.13-.7a8.38,8.38,0,0,0,1.86-.36"/><path class="aa9a367a-35f4-4f3e-9b6b-8faacffc4973" d="M187.68,408.4a8.44,8.44,0,0,0-1.88,0l-5.08.37c-4.3.34-10.23.87-16.77,1.5s-12.45,1.25-16.73,1.73l-5.07.61a7.28,7.28,0,0,0-1.84.34,11.68,11.68,0,0,0,1.87,0l5.1-.38c4.28-.33,10.21-.86,16.75-1.5s12.46-1.25,16.73-1.73l5.07-.62a8.85,8.85,0,0,0,1.85-.32"/><path class="aa9a367a-35f4-4f3e-9b6b-8faacffc4973" d="M72.47,417.65a10.14,10.14,0,0,0-1.1-1.5c-.74-.93-1.85-2.26-3.23-3.87-2.79-3.21-6.76-7.52-11.34-12.16s-8.92-8.57-12.14-11.37c-1.61-1.4-2.91-2.5-3.85-3.25a8.93,8.93,0,0,0-1.5-1.08,8.06,8.06,0,0,0,1.29,1.32l3.69,3.43c3.1,2.89,7.37,6.92,11.94,11.5s8.6,8.86,11.47,12l3.43,3.7a7.92,7.92,0,0,0,1.34,1.25"/><path class="aa9a367a-35f4-4f3e-9b6b-8faacffc4973" d="M81.05,411.28a8.81,8.81,0,0,0-1.27-1.39l-3.72-3.53c-3.14-3-7.52-7-12.4-11.44s-9.33-8.44-12.56-11.3c-1.5-1.32-2.84-2.45-3.88-3.35a7.24,7.24,0,0,0-1.5-1.14A9.27,9.27,0,0,0,47,380.5l3.7,3.53c3.14,3,7.52,7,12.4,11.46s9.33,8.42,12.58,11.28l3.87,3.36a9.12,9.12,0,0,0,1.49,1.15"/><path class="aa9a367a-35f4-4f3e-9b6b-8faacffc4973" d="M86.09,405.52a9.26,9.26,0,0,0-1.2-1.51l-3.48-3.74c-3-3.14-7.09-7.52-11.69-12.17s-8.8-8.94-11.85-12l-3.67-3.56a7.26,7.26,0,0,0-1.42-1.23,10.32,10.32,0,0,0,1.21,1.5l3.47,3.75c3,3.14,7.1,7.44,11.7,12.16s8.78,8.95,11.85,12l3.58,3.56a8.11,8.11,0,0,0,1.5,1.24"/><path class="e31f5ff2-f3bf-4e54-950b-f2b6965f445d" d="M.41,195.29c-2.1-16.87,4.09-31.54,13.84-32.93h0L226.9,135.86l7.7,61.73L21.94,224.09l0-.28c-9.8,1.05-19.4-11.65-21.5-28.52"/><path class="a776f885-4c78-40c8-b3d8-4dbe4e5a5d6f" d="M211.39,169c2.12,17,11.82,29.74,21.68,28.51s16.14-16,14-33S235.27,134.82,225.41,136s-16.13,16-14,33"/><path class="f9e3ea26-1d1a-4350-89a3-7d0a1451a4ff" d="M224.09,167.42c.81,6.47,4.44,11.35,8.1,10.89s6-6.07,5.18-12.55-4.43-11.34-8.1-10.89-6,6.08-5.18,12.55"/><path class="b949777b-47dc-45e2-8806-75c4c2270ff0" d="M165.79,166.14c.78,2.65,2,4.51-.67,5.45-11.21,3.8-42.52,14.81-59.74,14.81-15.88,0-23.11-4.63-32.87-21.53C63.61,149.44,58.17,129,56.41,118a3.12,3.12,0,0,0-.09-.44c-.5-2-4.36-18.36,1.41-30.45,7.13-14.93,28.65-16.54,29.14,0l1.6,25.77c0,.45,3.26-.25,3.38.18.92,3,4.72,16.21,5,17,3,8,7.63,21,8.35,23.08a.48.48,0,0,0,.42.34c5.92,1,53.88-8.78,53.88-8.78Z"/><path class="b056ff4f-1e3b-45db-8a67-f71807bd82a3" d="M159.77,145a10,10,0,0,0-1.08.14l-3.11.49c-2.7.48-6.59,1.24-11.43,2.27s-10.53,2.35-17.08,3.52a107.57,107.57,0,0,1-21.49,1.9l.34.24c-.81-2.14-1.66-4.41-2.51-6.72-5.74-16.18-10.22-31.09-13.92-41.73-1.82-5.34-3.37-9.63-4.51-12.56-.56-1.5-1-2.6-1.35-3.37A8,8,0,0,0,83.1,88a8.45,8.45,0,0,0,.37,1.21l1.22,3.42c1.06,3,2.53,7.28,4.27,12.61,3.57,10.7,8,25.57,13.72,41.82.84,2.33,1.7,4.6,2.52,6.75l.09.24h.27a104,104,0,0,0,21.63-2c6.51-1.2,12.25-2.6,17.08-3.68s8.69-1.94,11.37-2.5l3-.64a5.31,5.31,0,0,0,1.13-.26"/><path class="b056ff4f-1e3b-45db-8a67-f71807bd82a3" d="M167.4,171.17a6.62,6.62,0,0,0-1.24.39l-3.49,1.2c-3,1-7.51,2.41-13,4s-12.13,3.24-19.55,5.06A127.18,127.18,0,0,1,105.94,186a43,43,0,0,1-6.42-.17,26.31,26.31,0,0,1-6-1.25,29.59,29.59,0,0,1-10-6,62.06,62.06,0,0,1-12-15.94c-2.75-5-4.67-9.25-6-12.16L64,147.05c-.37-.77-.56-1.16-.57-1.16a6.51,6.51,0,0,0,.42,1.22c.31.79.76,1.95,1.39,3.43,1.25,3,3.1,7.23,5.81,12.3a61.32,61.32,0,0,0,12,16.22,30,30,0,0,0,10.21,6.24,26.37,26.37,0,0,0,6.22,1.29,42,42,0,0,0,6.54.18,124.93,124.93,0,0,0,24.35-4.25c7.35-1.87,14-3.61,19.47-5.23s9.93-3.09,12.93-4.2c1.51-.56,2.68-1,3.46-1.34a8.26,8.26,0,0,0,1.15-.58"/><g class="ef309b28-f818-493d-8a99-b43461f44a66"><g class="b08659b1-12cc-4007-bf73-20ced04d06f8"><path d="M138.4,149.17l-22.42.51a12.54,12.54,0,0,1-5.26-.62c-2.36-1-3.88-3.29-5.2-5.49q-5.91-9.73-10.83-20c-4.92-10.28,5.93,18.85,9.64,27.07a4.29,4.29,0,0,0,5.25,2.71,101.45,101.45,0,0,0,28.82-4.15"/></g></g><g class="e5d19495-1816-4d08-b035-1544b7d601a2"><g class="ee4e3891-6916-45b6-992a-32af6c52d0aa"><path d="M70.66,162.52s7.52,28.87,27.07,28.28,37.92-8.91,37.92-8.91l-.87-.91s-33.08,7.13-42.28,2.65C75,175.12,70.66,162.52,70.66,162.52"/></g></g><g class="f76a7976-8a36-4dde-9e43-3eadede4ce33"><g class="e70c60ab-9065-4fab-819d-a404306efbc1"><path class="a776f885-4c78-40c8-b3d8-4dbe4e5a5d6f" d="M86.87,114.69c.21,0,.2-1.28-.22-2.72s-1-2.52-1.24-2.43.09,1.24.48,2.64.77,2.54,1,2.51"/></g></g><g class="f76a7976-8a36-4dde-9e43-3eadede4ce33"><g class="f8522b91-a0b7-402c-9039-a67824b226bd"><path class="a776f885-4c78-40c8-b3d8-4dbe4e5a5d6f" d="M90.6,113c.21,0,.29-1-.1-2s-1.06-1.75-1.22-1.63.13.92.48,1.9.59,1.79.84,1.76"/></g></g><g class="f76a7976-8a36-4dde-9e43-3eadede4ce33"><g class="a2e6f21c-4006-46b9-9245-70c9a26d5a1b"><path class="a776f885-4c78-40c8-b3d8-4dbe4e5a5d6f" d="M61,100.51a3.51,3.51,0,0,1,.68.09,2.65,2.65,0,0,1,1.5.79,2.19,2.19,0,0,1,.56,2.25,2.48,2.48,0,0,1-2.23,1.66,2.55,2.55,0,0,1-2.24-1.68,2.42,2.42,0,0,1,.44-2.32,3,3,0,0,1,1.5-1c.4-.14.65-.15.65-.21s-.24-.14-.72-.09a3,3,0,0,0-1.78.9,3.15,3.15,0,0,0-.73,1.23,2.86,2.86,0,0,0,0,1.69,3.23,3.23,0,0,0,2.91,2.24,3.18,3.18,0,0,0,3-2.23,2.61,2.61,0,0,0,0-1.7,2.83,2.83,0,0,0-.82-1.17,2.77,2.77,0,0,0-1.9-.69c-.62.07-.84.18-.83.21"/></g></g><g class="f76a7976-8a36-4dde-9e43-3eadede4ce33"><g class="b86d473e-1619-4a2c-9066-a66decb79acd"><path class="a776f885-4c78-40c8-b3d8-4dbe4e5a5d6f" d="M85.55,96a2.57,2.57,0,0,0-1.08-.6,7.28,7.28,0,0,0-3.4-.32,18,18,0,0,0-4.81,1.4,22.9,22.9,0,0,1-5.64,1.86,17.61,17.61,0,0,1-5.87-.6A16.48,16.48,0,0,0,62,97.37a8.73,8.73,0,0,0-2.38.3,5.08,5.08,0,0,0-2.85,1.86,2,2,0,0,0-.48,1.16,5.92,5.92,0,0,1,.72-1,5.16,5.16,0,0,1,2.75-1.5,10.13,10.13,0,0,1,4.77.21,17.55,17.55,0,0,0,6.12.67,22.72,22.72,0,0,0,5.82-2,19.51,19.51,0,0,1,4.6-1.5,8.36,8.36,0,0,1,3.23,0,8.62,8.62,0,0,0,1.22.38"/></g></g><g class="f76a7976-8a36-4dde-9e43-3eadede4ce33"><g class="e00ef09b-d4f4-4f0f-bd64-703e52a65d39"><path class="a776f885-4c78-40c8-b3d8-4dbe4e5a5d6f" d="M79.14,98.57h.69a3.12,3.12,0,0,1,1.64.57,2.31,2.31,0,0,1,1,2.13,2.25,2.25,0,1,1-4.06-1.59,2.68,2.68,0,0,1,1.39-1c.4-.14.66-.14.66-.21s-.24-.14-.73-.09a2.72,2.72,0,0,0-1.75.94,2.83,2.83,0,0,0-.43,3,3,3,0,0,0,1.24,1.4,2.87,2.87,0,0,0,2,.33,3,3,0,0,0,1.74-1A3,3,0,0,0,82,98.88l-.22-.16a3,3,0,0,0-2-.41c-.46.08-.7.21-.69.26"/></g></g><g class="f76a7976-8a36-4dde-9e43-3eadede4ce33"><g class="a6a50a46-d3bf-4548-b34d-a26c653dc1f0"><path class="a776f885-4c78-40c8-b3d8-4dbe4e5a5d6f" d="M89.91,107.51a3,3,0,0,0-1.07-1,7.42,7.42,0,0,0-3.8-1.12,15.64,15.64,0,0,0-5.78,1.07,35.33,35.33,0,0,1-6.67,2.08,24,24,0,0,1-6.92-.5,11.74,11.74,0,0,0-5.88.36,5.73,5.73,0,0,0-3,2.6,2.53,2.53,0,0,0-.36,1.42c.08,0,.15-.5.62-1.27A5.74,5.74,0,0,1,60,108.91a11.7,11.7,0,0,1,5.58-.16,23.2,23.2,0,0,0,7.14.57,34.64,34.64,0,0,0,6.81-2.18A15.6,15.6,0,0,1,85,106a7.57,7.57,0,0,1,3.67.83c.81.42,1.17.78,1.23.73"/></g></g><g class="f76a7976-8a36-4dde-9e43-3eadede4ce33"><g class="bf0403db-6192-4777-a8ca-bec976c583b7"><path class="a776f885-4c78-40c8-b3d8-4dbe4e5a5d6f" d="M71.32,105.45c.21,0,.2-.9,0-1.92s-.57-1.79-.78-1.74-.21.9,0,1.92.51,1.79.78,1.74"/></g></g><g class="f76a7976-8a36-4dde-9e43-3eadede4ce33"><g class="b674bdef-6aa9-4b13-93c4-4d5e37ace8a5"><path class="a776f885-4c78-40c8-b3d8-4dbe4e5a5d6f" d="M68.57,105.15c.2,0,.12-.84,0-1.79s-.22-1.71-.45-1.72-.45.79-.33,1.83.57,1.76.78,1.68"/></g></g><g class="f76a7976-8a36-4dde-9e43-3eadede4ce33"><g class="ab6a112d-f7c1-4271-bf04-5d0684671323"><path class="a776f885-4c78-40c8-b3d8-4dbe4e5a5d6f" d="M74.06,104.73c.21,0,.15-.91-.12-1.92s-.66-1.79-.87-1.73-.15.92.12,1.92.66,1.79.87,1.73"/></g></g><g class="f76a7976-8a36-4dde-9e43-3eadede4ce33"><g class="b125aa1f-7a03-433d-963a-871a6e1a6206"><path class="a776f885-4c78-40c8-b3d8-4dbe4e5a5d6f" d="M85.74,102.21c.21,0,.2-.86,0-1.79s-.6-1.66-.81-1.6-.18.84,0,1.79.6,1.64.81,1.6"/></g></g><g class="f76a7976-8a36-4dde-9e43-3eadede4ce33"><g class="f585c974-684f-431d-aad8-be87c06b89d3"><path class="a776f885-4c78-40c8-b3d8-4dbe4e5a5d6f" d="M56.27,107c.23,0,.36-.68.33-1.51s-.25-1.5-.46-1.5-.36.69-.32,1.5.2,1.52.45,1.51"/></g></g><g class="f76a7976-8a36-4dde-9e43-3eadede4ce33"><g class="e3397fdc-d1b4-451f-bada-1aca0bfaf980"><path class="a776f885-4c78-40c8-b3d8-4dbe4e5a5d6f" d="M67.75,93.36a1.21,1.21,0,0,0,0,.71,3,3,0,0,0,1.18,1.51,2.91,2.91,0,0,0,2.92.19A3.1,3.1,0,0,0,71.32,90a2.86,2.86,0,0,0-2.82.72,2.92,2.92,0,0,0-.9,1.73c0,.47,0,.71.08.71s.08-.24.22-.63a2.94,2.94,0,0,1,1-1.39,2.33,2.33,0,0,1,2.25-.45,2.4,2.4,0,0,1,.41,4.51,2.3,2.3,0,0,1-2.3,0A3,3,0,0,1,68,94c-.16-.38-.22-.62-.28-.61"/></g></g><g class="f76a7976-8a36-4dde-9e43-3eadede4ce33"><g class="a74a4a61-2c00-4ee9-b6f8-093666d81823"><path class="a776f885-4c78-40c8-b3d8-4dbe4e5a5d6f" d="M71.34,114.91a1.47,1.47,0,0,0,0,.71,3,3,0,0,0,3.83,1.86l.27-.12a3.09,3.09,0,0,0,1.53-4.1,3.13,3.13,0,0,0-2-1.72A3,3,0,0,0,71.19,114c0,.46,0,.7.09.7s.07-.25.21-.64a3,3,0,0,1,1-1.39,2.45,2.45,0,1,1,2.66,4.06,2.35,2.35,0,0,1-2.3,0,3,3,0,0,1-1.19-1.19c-.15-.4-.21-.64-.28-.63"/></g></g><g class="f76a7976-8a36-4dde-9e43-3eadede4ce33"><g class="b6218b6e-8fb8-4f34-a515-ece01efe901d"><path class="a776f885-4c78-40c8-b3d8-4dbe4e5a5d6f" d="M65.16,122a3.65,3.65,0,0,1,.69.09,2.76,2.76,0,0,1,1.5.78,2.13,2.13,0,0,1,.56,2.24,2.47,2.47,0,0,1-2.23,1.67,2.54,2.54,0,0,1-2.24-1.68,2.36,2.36,0,0,1,.46-2.32,3,3,0,0,1,1.5-1c.4-.14.66-.16.66-.22s-.26-.13-.72-.09a3.07,3.07,0,0,0-1.79.92,3.17,3.17,0,0,0-.74,1.23,2.86,2.86,0,0,0,0,1.69,3.2,3.2,0,0,0,2.92,2.22,3.14,3.14,0,0,0,2.92-2.22,2.71,2.71,0,0,0,0-1.69,3,3,0,0,0-.85-1.18,2.73,2.73,0,0,0-1.87-.7c-.55,0-.79.19-.77.23"/></g></g><g class="f76a7976-8a36-4dde-9e43-3eadede4ce33"><g class="f28fae70-2957-45f3-ace2-e95706fe5582"><path class="a776f885-4c78-40c8-b3d8-4dbe4e5a5d6f" d="M89.71,117.5a3.31,3.31,0,0,0-1.08-.62,7.45,7.45,0,0,0-3.38-.31A17.3,17.3,0,0,0,80.42,118a24.26,24.26,0,0,1-5.64,1.87,18.13,18.13,0,0,1-5.86-.62,15.1,15.1,0,0,0-2.68-.33,7.85,7.85,0,0,0-2.36.3A5.08,5.08,0,0,0,61,121.05c-.47.69-.51,1.16-.47,1.16s.21-.4.71-1a5.18,5.18,0,0,1,2.77-1.5,10.31,10.31,0,0,1,4.75.21,17.32,17.32,0,0,0,6.12.68,22.59,22.59,0,0,0,5.82-2,18.73,18.73,0,0,1,4.61-1.51,7.94,7.94,0,0,1,3.22,0,8.25,8.25,0,0,0,1.17.35"/></g></g><g class="f76a7976-8a36-4dde-9e43-3eadede4ce33"><g class="e9ffb7d0-e7c4-4b43-a85f-ab8ad1366bca"><path class="a776f885-4c78-40c8-b3d8-4dbe4e5a5d6f" d="M83.32,120.06H84a3.33,3.33,0,0,1,1.64.57,2.28,2.28,0,0,1,1,2.15,2.16,2.16,0,0,1-1.85,2,2.18,2.18,0,0,1-2.39-1.25,2.25,2.25,0,0,1,.18-2.33,2.69,2.69,0,0,1,1.38-1c.41-.14.66-.14.66-.2s-.24-.15-.72-.1a2.81,2.81,0,0,0-2.17,4,2.94,2.94,0,0,0,1.22,1.41,2.95,2.95,0,0,0,3.28-4.88l-.23-.16a3.16,3.16,0,0,0-2-.4c-.47.1-.69.19-.68.24"/></g></g><g class="f76a7976-8a36-4dde-9e43-3eadede4ce33"><g class="b4cf4b02-8f5f-4f4b-b943-3ccd308c2b49"><path class="a776f885-4c78-40c8-b3d8-4dbe4e5a5d6f" d="M94.07,128.94a3.6,3.6,0,0,0-1-1,7.26,7.26,0,0,0-3.82-1.11,15.16,15.16,0,0,0-5.76,1.06A37.91,37.91,0,0,1,76.77,130a24.41,24.41,0,0,1-6.93-.51,11.73,11.73,0,0,0-5.88.36,5.73,5.73,0,0,0-3,2.6,2.32,2.32,0,0,0-.35,1.41,13,13,0,0,1,.6-1.26,5.81,5.81,0,0,1,2.94-2.22,11.46,11.46,0,0,1,5.58-.18,23.15,23.15,0,0,0,7.14.57,34,34,0,0,0,6.81-2.17,15.39,15.39,0,0,1,5.52-1.19,7.71,7.71,0,0,1,3.65.82c.77.48,1.19.84,1.23.73"/></g></g><g class="f76a7976-8a36-4dde-9e43-3eadede4ce33"><g class="f4a75b7c-c474-4707-bdf0-9845cb48c5e3"><path class="a776f885-4c78-40c8-b3d8-4dbe4e5a5d6f" d="M75.49,126.94c.21,0,.19-.9,0-1.91s-.57-1.8-.78-1.76-.2.91,0,1.93.57,1.8.78,1.74"/></g></g><g class="f76a7976-8a36-4dde-9e43-3eadede4ce33"><g class="a70769d0-e1e6-47f5-808e-98d2dfb9e21c"><path class="a776f885-4c78-40c8-b3d8-4dbe4e5a5d6f" d="M72.74,126.66c.21,0,.12-.86,0-1.79s-.23-1.72-.44-1.75-.46.81-.34,1.84.6,1.76.78,1.7"/></g></g><g class="f76a7976-8a36-4dde-9e43-3eadede4ce33"><g class="b058b291-d1f7-46bd-b5b0-5965d0a01877"><path class="a776f885-4c78-40c8-b3d8-4dbe4e5a5d6f" d="M78.23,126.24c.21,0,.16-.94-.12-1.94s-.67-1.79-.86-1.73-.17.91.1,1.94.67,1.77.88,1.73"/></g></g><g class="f76a7976-8a36-4dde-9e43-3eadede4ce33"><g class="bf486eb4-d435-4943-a27f-91048eb87c7d"><path class="a776f885-4c78-40c8-b3d8-4dbe4e5a5d6f" d="M89.92,123.69c.22,0,.19-.85,0-1.79s-.58-1.63-.79-1.59-.2.86,0,1.79.58,1.65.79,1.59"/></g></g><g class="f76a7976-8a36-4dde-9e43-3eadede4ce33"><g class="b9955ce7-78ea-42d4-ae50-3748366cf423"><path class="a776f885-4c78-40c8-b3d8-4dbe4e5a5d6f" d="M60.45,128.49c.21,0,.36-.69.32-1.5s-.24-1.51-.47-1.51-.36.68-.31,1.51.24,1.5.46,1.5"/></g></g><g class="f76a7976-8a36-4dde-9e43-3eadede4ce33"><g class="a3ff3e7e-1d05-4f7f-ab5b-4e6fbc0c40e2"><path class="a776f885-4c78-40c8-b3d8-4dbe4e5a5d6f" d="M68.23,115.68c.22,0,.3-.78.18-1.65s-.39-1.6-.6-1.51-.29.78-.19,1.66.43,1.53.61,1.5"/></g></g><g class="f76a7976-8a36-4dde-9e43-3eadede4ce33"><g class="a5045a2e-8a2c-4bd4-9b42-2dc785a7d413"><path class="a776f885-4c78-40c8-b3d8-4dbe4e5a5d6f" d="M65,116.1c.21,0,.19-.87,0-1.83s-.59-1.72-.8-1.66-.19.87,0,1.84.57,1.7.8,1.65"/></g></g><g class="f76a7976-8a36-4dde-9e43-3eadede4ce33"><g class="a5fb849b-8674-4b75-ac81-79b9406a7922"><path class="a776f885-4c78-40c8-b3d8-4dbe4e5a5d6f" d="M61.67,117.08c.21,0,.17-1-.1-2s-.67-1.91-.88-1.86-.16,1,.11,2,.66,1.91.87,1.87"/></g></g><g class="f76a7976-8a36-4dde-9e43-3eadede4ce33"><g class="a2c54719-392e-4b1d-8f9c-add6b0303aca"><path class="a776f885-4c78-40c8-b3d8-4dbe4e5a5d6f" d="M57.41,121.59c0,.09.61,0,1.24-.68a3.49,3.49,0,0,0-.07-4.93,3.56,3.56,0,0,0-1.44-.84,2,2,0,0,0-1.41,0,4.35,4.35,0,0,1,1.2.48,3.54,3.54,0,0,1,1.84,2.15,3.49,3.49,0,0,1-.53,2.77c-.45.67-.89.88-.83,1"/></g></g><g class="f76a7976-8a36-4dde-9e43-3eadede4ce33"><g class="be4f08b8-5e57-4a7e-9a6a-7f8ced86184d"><path class="a776f885-4c78-40c8-b3d8-4dbe4e5a5d6f" d="M82.53,114.82c.21,0,0-1.14-.32-2.42s-.87-2.24-1.08-2.18,0,1.14.33,2.42.87,2.24,1.07,2.18"/></g></g><g class="f76a7976-8a36-4dde-9e43-3eadede4ce33"><g class="b9d6cad7-6d94-4f7d-9c2d-b325977193c0"><path class="a776f885-4c78-40c8-b3d8-4dbe4e5a5d6f" d="M83.26,85.73a12.92,12.92,0,0,1-3.73,1.67,14.9,14.9,0,0,1-4.42.27c-1.67-.14-3.5-.53-5.44-.89a23.6,23.6,0,0,0-5.62-.53,11.13,11.13,0,0,0-4.52,1.16,7,7,0,0,0-2.43,2,2.26,2.26,0,0,0-.53,1s.27-.3.77-.81a7.88,7.88,0,0,1,2.44-1.68A11.28,11.28,0,0,1,64.06,87a25.36,25.36,0,0,1,5.43.58,47,47,0,0,0,5.55.84,14.27,14.27,0,0,0,4.6-.45,8.26,8.26,0,0,0,2.8-1.39c.64-.46.84-.79.82-.82"/></g></g><g class="f76a7976-8a36-4dde-9e43-3eadede4ce33"><g class="a14c41b9-6e1f-49d3-b245-91bc53ecf192"><path class="a776f885-4c78-40c8-b3d8-4dbe4e5a5d6f" d="M57.73,95.71c.2,0,.17-.84-.09-1.74s-.63-1.58-.84-1.51-.17.84.09,1.75.63,1.56.84,1.5"/></g></g><g class="f76a7976-8a36-4dde-9e43-3eadede4ce33"><g class="ec6411ef-d6bf-4163-835d-c6f668aa1700"><path class="a776f885-4c78-40c8-b3d8-4dbe4e5a5d6f" d="M60.53,95.49c.21,0,.28-1,.15-2.26s-.41-2.2-.63-2.17-.29,1-.15,2.26.36,2.2.63,2.17"/></g></g><g class="f76a7976-8a36-4dde-9e43-3eadede4ce33"><g class="e3411964-4f77-489e-b989-02f194625b89"><path class="a776f885-4c78-40c8-b3d8-4dbe4e5a5d6f" d="M64.23,95c.21,0,.18-1-.08-2.08s-.65-1.94-.86-1.89-.16,1,.09,2.07.64,1.94.85,1.9"/></g></g><g class="f76a7976-8a36-4dde-9e43-3eadede4ce33"><g class="b5218183-297a-44b0-bb88-406da94af558"><path class="a776f885-4c78-40c8-b3d8-4dbe4e5a5d6f" d="M79.14,93.85c.21,0,.11-.91-.21-1.87s-.75-1.7-1-1.62-.1.9.21,1.86.75,1.7,1,1.63"/></g></g><g class="f76a7976-8a36-4dde-9e43-3eadede4ce33"><g class="fe64d773-ad8e-470e-8fa2-74573a36b6b9"><path class="a776f885-4c78-40c8-b3d8-4dbe4e5a5d6f" d="M82.39,93.86c.21,0,0-1-.33-2.12S81.2,89.82,81,89.89s0,1,.33,2.12.88,1.91,1.07,1.85"/></g></g><g class="f76a7976-8a36-4dde-9e43-3eadede4ce33"><g class="a5ed8c0e-0813-4c05-9da0-ceffb320ee2a"><path class="a776f885-4c78-40c8-b3d8-4dbe4e5a5d6f" d="M77.32,79.55l.61.39a3,3,0,0,1,1.12,1.41,2.43,2.43,0,0,1-.3,2.45,2.78,2.78,0,0,1-2.79,1,2.87,2.87,0,0,1-2-2.22,2.76,2.76,0,0,1,.73-2.42,3.4,3.4,0,0,1,1.51-1c.42-.14.67-.15.69-.22s-.27-.13-.75-.09a3.38,3.38,0,0,0-1.9.88,3.26,3.26,0,0,0-1,2.93,3.56,3.56,0,0,0,2.51,2.87,3.47,3.47,0,0,0,3.56-1.35A3.18,3.18,0,0,0,78,79.58a1.26,1.26,0,0,0-.68,0"/></g></g><g class="f76a7976-8a36-4dde-9e43-3eadede4ce33"><g class="b00efcf7-b0a7-4fed-91c2-c9b5b2cbd082"><path class="a776f885-4c78-40c8-b3d8-4dbe4e5a5d6f" d="M67.73,84.76c.21,0,.11-1,.11-2.09s.1-2-.11-2.1-.68.86-.68,2.1.47,2.17.68,2.09"/></g></g><g class="f76a7976-8a36-4dde-9e43-3eadede4ce33"><g class="bd0089c6-68fd-45da-856d-f0d71e57f673"><path class="a776f885-4c78-40c8-b3d8-4dbe4e5a5d6f" d="M63.73,85c.21,0,.44-.65.5-1.5S64.15,82,63.94,82s-.44.65-.49,1.51.09,1.48.28,1.5"/></g></g><g class="f76a7976-8a36-4dde-9e43-3eadede4ce33"><g class="a72fbf20-6162-499e-b281-82fa06425072"><path class="a776f885-4c78-40c8-b3d8-4dbe4e5a5d6f" d="M152.25,176.17a6,6,0,0,1-.67-1,6,6,0,0,1-.64-3.16,13.14,13.14,0,0,1,.32-2.24c.18-.79.48-1.64.77-2.54a19.48,19.48,0,0,0,.73-2.92,7.45,7.45,0,0,0-.1-3.32,6.36,6.36,0,0,0-1.78-2.83,23.63,23.63,0,0,0-2.33-1.88,9,9,0,0,1-3.26-3.5,3.76,3.76,0,0,1,.11-3.08,4.53,4.53,0,0,1,.73-1,1.84,1.84,0,0,0-1,.78,4,4,0,0,0-.35,3.45,9,9,0,0,0,3.34,3.88,9.31,9.31,0,0,1,3.79,4.36,6.91,6.91,0,0,1,.1,3,22.82,22.82,0,0,1-.67,2.83,25.67,25.67,0,0,0-.71,2.62,10.48,10.48,0,0,0-.24,2.37,5.78,5.78,0,0,0,.93,3.33,3.19,3.19,0,0,0,.93.82"/></g></g><g class="f76a7976-8a36-4dde-9e43-3eadede4ce33"><g class="eeba48cd-221c-4594-8c9c-c596b5d1ee3c"><path class="a776f885-4c78-40c8-b3d8-4dbe4e5a5d6f" d="M146,161a.86.86,0,0,0-.49.22,2.23,2.23,0,0,0-.68,1.31,2.41,2.41,0,0,0,4.27,2,2.61,2.61,0,0,0,.66-1.59,2.52,2.52,0,0,0-1.07-2,2.16,2.16,0,0,0-1.41-.45c-.34,0-.53.14-.51.18a2.72,2.72,0,0,1,1.5.69,2.08,2.08,0,0,1,.69,1.51,1.91,1.91,0,0,1-2.21,1.58,1.77,1.77,0,0,1-.79-.32,2.15,2.15,0,0,1-.59-1.59c.06-1,.72-1.46.63-1.55"/></g></g><g class="f76a7976-8a36-4dde-9e43-3eadede4ce33"><g class="a0e2fd48-f4ac-4546-b948-85df67ada5d1"><path class="a776f885-4c78-40c8-b3d8-4dbe4e5a5d6f" d="M152,150c0,.08.21.09.51.24a2.18,2.18,0,0,1,1,1,2.15,2.15,0,0,1,.12,1.93,1.86,1.86,0,0,1-2,.91,2,2,0,0,1-1.75-1.41,2.48,2.48,0,0,1,.41-1.94,2.93,2.93,0,0,1,1.08-.93c.32-.15.53-.2.51-.26s-.21-.12-.6,0a2.61,2.61,0,0,0-1.5.89,3,3,0,0,0-.68,2.44,2.46,2.46,0,0,0,.81,1.35,3,3,0,0,0,1.51.66,2.76,2.76,0,0,0,1.65-.24,2.22,2.22,0,0,0,1.13-1.13,2.72,2.72,0,0,0-.3-2.52,2.31,2.31,0,0,0-1.37-1H152"/></g></g><g class="f76a7976-8a36-4dde-9e43-3eadede4ce33"><g class="b353f731-d4d2-473e-8d8e-03c2e37c9c05"><path class="a776f885-4c78-40c8-b3d8-4dbe4e5a5d6f" d="M157.67,167.3a1,1,0,0,0-.58-.19,2.29,2.29,0,0,0-1.57.51,2.7,2.7,0,0,0-1.12,2.22,2.35,2.35,0,0,0,.62,1.51,3,3,0,0,0,1.43.84,2.86,2.86,0,0,0,1.64,0,2.3,2.3,0,0,0,1.23-1,2.73,2.73,0,0,0,0-2.49,2.36,2.36,0,0,0-1.14-1.21c-.36-.15-.59-.12-.59-.09a2.79,2.79,0,0,0,.44.36,2.47,2.47,0,0,1,.78,1.15,2.24,2.24,0,0,1-.18,1.89,2.07,2.07,0,0,1-2.91.23,2.12,2.12,0,0,1-.67-1.13,2.25,2.25,0,0,1,.75-1.76,2.35,2.35,0,0,1,1.23-.63c.41-.18.62-.15.64-.23"/></g></g><path class="f9575f04-1d52-4b96-a57d-9c8caa614c3f" d="M165.88,166.79h.69a154.14,154.14,0,0,0,17-2.53c6.89-1.74,6.75-2.37,6.44-3.14-.86-2.09-12.23,2.62-10.33.17s14.52-4.12,13.53-6.26c-1.29-2.8-13.11,2.35-14.14,2.71s-1.5-1.13-.6-1.4c1.36-.41,15.55-4.92,14.3-7.67-.67-1.5-3.29,0-3.29,0s-13,5.2-13.53,3.9,7-4.67,9.59-5.61,3.22-2.54,1.89-3.36c-.9-.55-9,2.14-11.53,3.12s-9.56,3.83-7.17-.39l.09-.2c2.46-4.11,3-8.07,2.37-9.32a1.64,1.64,0,0,0-3,.27,1.55,1.55,0,0,0-.21.66v.36a25.15,25.15,0,0,1-2.05,4.44,13.3,13.3,0,0,1-2.75,3.41c-1.28,1.11-2.42,2-3.4,2.77"/></g></svg>