<svg xmlns="http://www.w3.org/2000/svg" xmlns:xlink="http://www.w3.org/1999/xlink" viewBox="0 0 127.36 185.44"><defs><style>.efe93003-4466-42f1-9f5a-b2f61a086d55{fill:url(#e7fb9164-f838-42d2-9b77-c73d611341b5);}</style><linearGradient id="e7fb9164-f838-42d2-9b77-c73d611341b5" x1="28.56" y1="66.61" x2="98.74" y2="66.61" gradientUnits="userSpaceOnUse"><stop offset="0.13" stop-color="#0878b1"/><stop offset="0.65" stop-color="#29ca8c"/><stop offset="1" stop-color="#29ca8c"/></linearGradient></defs><g id="e96d3cfc-3cca-414d-8034-51fa8ec186ff" data-name="Layer 2"><g id="fce4aff6-6936-42ef-9f0c-1cfc8cead9ed" data-name="nM9eMl"><path d="M64.77,0a4.37,4.37,0,0,1,1.66,4.1c-.09,1.44,0,2.89-.05,4.33a2.7,2.7,0,1,1-5.39,0,30.57,30.57,0,0,1,.06-5.58c.13-1,1-1.9,1.55-2.85Z"/><path d="M72.6,115.92H66.54v40.82h6v-2q0-9.33,0-18.65a11,11,0,0,1,.1-2,2.25,2.25,0,0,1,2.5-2.1,4.9,4.9,0,0,1,2.58,1.81c.39.45.26,1.39.26,2.1,0,7.43,0,14.85,0,22.28a8.7,8.7,0,0,1-.86,3.61c-3.47,7.1-7,14.14-10.55,21.21-.61,1.25-1.29,2.37-2.86,2.39s-2.36-1.15-3-2.46c-3.46-7-7-13.89-10.39-20.88a9.9,9.9,0,0,1-1-4.13c-.07-14.37,0-28.74,0-43.1,0-6.42-1.69-12.15-6.27-17A137,137,0,0,1,31.4,84c-11.29-15.72-11.14-36.81.65-51.21C43,19.5,57.27,14.49,74,18.9c16.5,4.36,26.53,15.58,29.54,32.4,2.42,13.47-1.33,25.58-10,36.12-3,3.63-6,7.26-9.3,10.62-4.58,4.71-6,10.42-6.14,16.69,0,2.17,0,4.35,0,6.52s-1.2,3.33-2.83,3.26-2.56-1.28-2.6-3.3C72.57,119.48,72.6,117.74,72.6,115.92Zm-18.07-5.67.52-.07c0-.73-.08-1.46-.17-2.18q-2.7-21.63-5.41-43.26c-.17-1.3-.14-2.66,1.12-3.14a4.88,4.88,0,0,1,3.35.06c2.87,1.24,5.59,2.82,8.45,4.1a3.57,3.57,0,0,0,2.63,0c2.86-1.28,5.64-2.74,8.42-4.17,1.16-.59,2.47-1,3.34,0a4.55,4.55,0,0,1,1,3.17c-1.59,13.47-3.3,26.93-5,40.4-.21,1.66-.35,3.33-.52,5l.54.07c.09-.49.2-1,.26-1.46a21.71,21.71,0,0,1,5.21-12.1C82,92.55,85.56,88.4,89.09,84.2c7.58-9,10.83-19.45,9.26-31.13A35.19,35.19,0,0,0,66.29,22.91c-15.08-1.34-30.53,8.37-35.53,23.21C26,60.14,29,72.88,38.31,84.22c3.51,4.29,7.23,8.42,10.85,12.63A20,20,0,0,1,54,107.56C54.13,108.47,54.36,109.35,54.53,110.25Zm.91-41.79c.06.59.07.83.1,1.06,1.52,12.21,3.06,24.41,4.55,36.62.52,4.31.47,4.26,5,4.29,1.33,0,1.72-.42,1.87-1.71,1-8.39,2.08-16.76,3.12-25.13.62-5,1.22-9.91,1.85-15.13-2.2,1.1-4.21,2-6.17,3.08a4,4,0,0,1-4.11,0C59.71,70.5,57.69,69.57,55.44,68.46Zm5.4,88.32V115.93H54.92v40.85Zm-4.07,5.59c.92,3.16.92,3.16,3.82,3.16h6c3.06,0,3.06,0,4.05-3.16Zm6.92,14.3,2.79-5.59H60.89Z"/><path d="M10.57,30.28a14.77,14.77,0,0,1,1.75.64c1.68.95,3.37,1.87,5,2.92a2.6,2.6,0,0,1,.91,3.63,2.5,2.5,0,0,1-3.44,1.07A57.47,57.47,0,0,1,9.3,35.39a2.33,2.33,0,0,1-.86-3.19A8.42,8.42,0,0,1,10.57,30.28Z"/><path d="M119.18,33.77a7.3,7.3,0,0,1-1.5,1.85A43.55,43.55,0,0,1,113,38.36a2.71,2.71,0,1,1-2.73-4.67c1.64-1,3.3-2,5-2.86S119.12,31.15,119.18,33.77Z"/><path d="M121.71,66.37c-1,0-2,.07-3.07,0a2.43,2.43,0,0,1-2.43-2.43,2.37,2.37,0,0,1,2.19-2.82,43.68,43.68,0,0,1,6.67,0,2.42,2.42,0,0,1,2.29,2.77,2.51,2.51,0,0,1-2.57,2.52c-1,.06-2.05,0-3.08,0Z"/><path d="M5.57,66.37c-1,0-2.06.06-3.08,0A2.48,2.48,0,0,1,0,63.94a2.31,2.31,0,0,1,2-2.77,40.16,40.16,0,0,1,7.19,0c1.42.13,2.08,1.37,1.93,2.81a2.41,2.41,0,0,1-2.34,2.34c-1.08.1-2.17,0-3.25,0Z"/><path d="M10.9,97.44c-1-.92-2.24-1.48-2.44-2.29a3.51,3.51,0,0,1,.8-3,22.84,22.84,0,0,1,5.6-3.24,3.26,3.26,0,0,1,3,.73c.56.65.73,2.62.25,3A82.32,82.32,0,0,1,10.9,97.44Z"/><path d="M111,88.4A13.79,13.79,0,0,1,113,89c1.64.9,3.27,1.81,4.85,2.8a2.7,2.7,0,1,1-2.64,4.7c-1.76-.92-3.48-1.93-5.16-3a2.31,2.31,0,0,1-1-3.13A9,9,0,0,1,111,88.4Z"/><path d="M33.82,8.23a7.9,7.9,0,0,1,1.83,1.55,45,45,0,0,1,2.64,4.51c.87,1.61.5,3.19-.83,3.95A2.79,2.79,0,0,1,33.61,17c-1-1.59-1.95-3.18-2.78-4.85C29.87,10.24,31.14,8.22,33.82,8.23Z"/><path d="M91.77,18.57c-2.46,0-3.81-1.88-2.92-3.76A45.82,45.82,0,0,1,92,9.34a2.48,2.48,0,0,1,3.51-.76,2.34,2.34,0,0,1,1.15,3.24,54.27,54.27,0,0,1-3.33,5.77C93,18.15,92.08,18.39,91.77,18.57Z"/><path class="efe93003-4466-42f1-9f5a-b2f61a086d55" d="M54.53,110.25c-.17-.9-.4-1.78-.52-2.69a20,20,0,0,0-4.85-10.71c-3.62-4.21-7.34-8.34-10.85-12.63C29,72.88,26,60.14,30.76,46.12c5-14.84,20.45-24.55,35.53-23.21A35.19,35.19,0,0,1,98.35,53.07c1.57,11.68-1.68,22.1-9.26,31.13C85.56,88.4,82,92.55,78.34,96.67a21.71,21.71,0,0,0-5.21,12.1c-.06.49-.17,1-.26,1.46l-.54-.07c.17-1.66.31-3.33.52-5,1.67-13.47,3.38-26.93,5-40.4a4.55,4.55,0,0,0-1-3.17c-.87-1-2.18-.6-3.34,0C70.66,63,67.88,64.48,65,65.76a3.57,3.57,0,0,1-2.63,0c-2.86-1.28-5.58-2.86-8.45-4.1a4.88,4.88,0,0,0-3.35-.06c-1.26.48-1.29,1.84-1.12,3.14Q52.2,86.36,54.88,108c.09.72.12,1.45.17,2.18Zm1-40.73c1.52,12.21,3.06,24.41,4.55,36.62.52,4.31.47,4.26,5,4.29,1.33,0,1.72-.42,1.87-1.71,1-8.39,2.08-16.76,3.12-25.13.62-5,1.22-9.91,1.85-15.13-2.2,1.1-4.21,2-6.17,3.08a4,4,0,0,1-4.11,0c-1.95-1.06-4-2-6.22-3.1C55.5,69.05,55.51,69.29,55.54,69.52Z"/></g></g></svg>