<svg xmlns="http://www.w3.org/2000/svg" xmlns:xlink="http://www.w3.org/1999/xlink" viewBox="0 0 158.68 165.9"><defs><style>.a53d51df-9f7a-409d-83f7-9f7a525df2c7{fill:url(#f4944cdd-cc7a-4f44-85eb-fd302e2b4d9e);}</style><linearGradient id="f4944cdd-cc7a-4f44-85eb-fd302e2b4d9e" x1="41.84" y1="96.25" x2="114.03" y2="96.25" gradientUnits="userSpaceOnUse"><stop offset="0.13" stop-color="#0878b1"/><stop offset="0.65" stop-color="#29ca8c"/><stop offset="1" stop-color="#29ca8c"/></linearGradient></defs><g id="f8e8ea3c-b803-4fbb-a722-3d4af80c985e" data-name="Layer 2"><g id="a512f3d7-e173-4df6-84f1-bb040ed17e35" data-name="PWH4l9"><path d="M95.58,0a16.08,16.08,0,0,0-2.33,2.08q-7,9.18-13.87,18.47A2.52,2.52,0,0,1,77,21.76c-2.6-.08-5.21-.06-7.81,0C56.73,22,48,32.6,50.31,44.66c1.75,8.91,9.6,15.17,19.22,15.19,16,0,32.08,0,48.12,0,3.34,0,6.69-.06,10,0,5,.15,8.55,3.62,9.15,8.68a8.94,8.94,0,0,1-7,9.81c-3.85.69-7.87.44-11.93.61,0-3.57,0-6.74,0-9.92,0-2.93-.85-3.79-3.79-3.79H40.16c-3,0-3.86.83-3.86,3.89,0,7.25.15,23.12.18,32.26a1.79,1.79,0,0,1,.32.13,43.68,43.68,0,0,1,5-1.39V70.82h24.4v1.69c0,3.72,0,7.43,0,11.15,0,2.34,1,3.33,3.27,3.34q7.56,0,15.13,0C87,87,87.93,86,88,83.7c0-4.24,0-8.49,0-12.89h24.51v2c0,13.9,0,40.67,0,54.58a43.53,43.53,0,0,0,5.51-1.5V84.31c2.27,0,4.53.11,6.78,0a32.62,32.62,0,0,0,7.22-.84,14.56,14.56,0,0,0,10.3-14.77,14.83,14.83,0,0,0-13.62-14.16c-.95-.06-1.91-.09-2.87-.1q-27.79,0-55.6,0c-3.9,0-7.51-.86-10.39-3.64A13.47,13.47,0,0,1,67.42,27.4c3.34-.22,6.69-.22,10-.17a2.86,2.86,0,0,1,1.84,1.15q7,9.19,13.87,18.47A4.84,4.84,0,0,0,97.46,49q28.61,0,57.2,0c1.76,0,3.28-.29,4-2.13V0ZM82.43,81.45H71.78V70.8H82.43Zm70.71-38c-.52,0-1.07.09-1.63.09q-26.29,0-52.58,0a2.84,2.84,0,0,1-2-.81c-3.73-4.84-7.37-9.74-11-14.63a8.54,8.54,0,0,1-.47-.86c1.83,0,3.46-.09,5.07.05.45,0,1,.69,1.24,1.17a8.15,8.15,0,1,0,9.67-11.64,8,8,0,0,0-9.63,3.87A1.69,1.69,0,0,1,90,21.75c-1.42-.07-2.86,0-4.67,0,3.51-4.69,6.93-9,10-13.46C96.8,6,98.47,5.34,101.13,5.36c16.68.13,33.35.07,50,.07h2ZM96.19,24.52a2.68,2.68,0,0,1,2.53-2.73,2.78,2.78,0,0,1,2.83,2.64A2.72,2.72,0,0,1,99,27.13,2.62,2.62,0,0,1,96.19,24.52Z"/><path class="a53d51df-9f7a-409d-83f7-9f7a525df2c7" d="M112.46,72.76v-2H88c0,4.4,0,8.65,0,12.89,0,2.32-1,3.3-3.31,3.3q-7.56,0-15.13,0c-2.3,0-3.26-1-3.27-3.34,0-3.72,0-7.43,0-11.15V70.82H41.84V102.4c1.2,0,2.4,0,3.61,0a1.84,1.84,0,0,1,1.29.49c1.63-1.06,3.26-2.23,3.21-1.49,7.73-.63,11.42,4.18,18.5,7.75.62.31,1.84,2.32,2.56,2.32,8.39,0,16.78,0,25.17,0,2.44,0,5.72,2.2,8.7,4.61a21,21,0,0,1,4.32.53c.07-.7.41,4.35,1.33,4.16.44-.08,3.06.93,3.5.84C114,107.77,112.46,86.66,112.46,72.76Z"/><path d="M137,38H131.6l-.18-2.56h-5.26V29.93c2.73,0,5.47.05,8.21,0a12.41,12.41,0,0,0,2.44-.54,17.39,17.39,0,0,0-2-1.54c-1.39-.78-2.82-1.47-4.27-2.14-2.79-1.28-4.65-3.21-4.39-6.5s2.28-4.86,5.3-5.59l.15-2.64h5.28l.17,2.62h5.25v5.47H131.7l-.26.52a6.51,6.51,0,0,0,1.18,1.06c2,1,4,2,6,3,2.44,1.23,3.91,3.19,3.73,6a5.89,5.89,0,0,1-4.51,5.54,1.68,1.68,0,0,0-.83,1.06A7.26,7.26,0,0,0,137,38Z"/></g><path d="M157.89,128c-.34,1-.62,1.93-1,2.86a11.74,11.74,0,0,1-6.19,6.13L98.27,160c-4.69,2.07-9.31,4.33-14.43,5.22a39.55,39.55,0,0,1-28-5.27q-7.53-4.52-15-9a26.32,26.32,0,0,0-9.74-3.16,1.4,1.4,0,0,0-1.16.62c-2,3.65-5.12,5.24-9.26,5.18-5.66-.09-11.31,0-17,0-2.56,0-3.69-1.11-3.69-3.64Q0,122.71,0,95.5c0-2.42,1.17-3.59,3.61-3.6,5.49,0,11,.08,16.49,0,4.76-.1,8.27,1.67,10.24,6.2,6.38,0,12.75.14,19.12,0a27.82,27.82,0,0,1,15.68,4.12c4.29,2.61,8.73,5,13.15,7.41a6.86,6.86,0,0,0,3,.81c6,.07,12,.18,18,0,9.14-.27,14.39,7.2,13.42,14,0,.09,0,.19.09.44l8.4-2.87q10-3.44,19.93-6.88a13.15,13.15,0,0,1,7.72-.56,11.32,11.32,0,0,1,8.6,8.56c.11.39.24.77.36,1.16Zm-127,13.49c.55.11,1.05.23,1.55.31a33.36,33.36,0,0,1,13,4.78c4.47,2.82,9,5.5,13.59,8.19,10,5.87,20.35,6.77,31,2.15,19.29-8.39,38.51-16.93,57.75-25.42,3.35-1.48,4.66-4.49,3.44-7.66-1.12-2.89-4.2-4.16-7.59-3-12.95,4.46-25.88,9-38.82,13.44a11,11,0,0,1-3.44.75q-16.11.09-32.22,0a3.06,3.06,0,0,1-3.11-3,3.14,3.14,0,0,1,3-3.14c.51,0,1,0,1.54,0q14.8,0,29.6,0a6.13,6.13,0,0,0,5-2.23,5.81,5.81,0,0,0,.86-6.49,5.9,5.9,0,0,0-5.64-3.61c-6.11,0-12.23-.09-18.34,0a14.12,14.12,0,0,1-7.61-2c-4.66-2.71-9.4-5.27-14.07-8a17.67,17.67,0,0,0-9.11-2.4c-6.32.05-12.65,0-19,0H30.91Zm-24.67,6H20.9c2.66,0,3.77-1.09,3.77-3.72q0-21,0-41.93c0-2.52-1.15-3.68-3.68-3.69-4.58,0-9.15,0-13.72,0-.34,0-.68.08-1,.12Z"/><path d="M18.49,107.31a3.07,3.07,0,0,1-6.14,0,3.07,3.07,0,1,1,6.14,0Z"/></g></svg>