<?xml version="1.0" encoding="utf-8"?>
<!-- Generator: Adobe Illustrator 25.2.3, SVG Export Plug-In . SVG Version: 6.00 Build 0)  -->
<svg version="1.1" id="Layer_1" xmlns="http://www.w3.org/2000/svg" xmlns:xlink="http://www.w3.org/1999/xlink" x="0px" y="0px"
	 viewBox="0 0 1076 1080" style="enable-background:new 0 0 1076 1080;" xml:space="preserve">
<style type="text/css">
	.st0{clip-path:url(#SVGID_2_);}
	.st1{clip-path:url(#SVGID_4_);}
	.st2{clip-path:url(#SVGID_6_);}
</style>
<g id="a0c8140c-a167-48cf-a0e1-5239a6bdb097">
	<g>
		<defs>
			<path id="SVGID_1_" d="M1079.6,438.1c-35.4-36.3-277.3-284.4-430.4-439.9H245.7L101.1,378.5l-75.7,705.9h1054.2V438.1z"/>
		</defs>
		<clipPath id="SVGID_2_">
			<use xlink:href="#SVGID_1_"  style="overflow:visible;"/>
		</clipPath>
		<g class="st0">
			<g>
				<defs>
					<path id="SVGID_3_" d="M494.1,234.1c0,0-362.1,134.4-362.1,151.2s123.2,373.3,123.2,373.3v257.6l9.3,39.2
						c0,0-50.4,72.8-41.1,78.4s158.7,18.7,214.7,11.2s213.2-54.2,235.6-71s163-20.5,170.4-31.7S1076,1080,1076,1080l6-640.1
						l-33.4-19.2L846.9,265.8l-179.2-89.6L494.1,234.1z"/>
				</defs>
				<clipPath id="SVGID_4_">
					<use xlink:href="#SVGID_3_"  style="overflow:visible;"/>
				</clipPath>
				<g class="st1">
					<g>
						<defs>
							<rect id="SVGID_5_" x="-205.6" y="171" width="1384.8" height="984.4"/>
						</defs>
						<clipPath id="SVGID_6_">
							<use xlink:href="#SVGID_5_"  style="overflow:visible;"/>
						</clipPath>
						<g class="st2">
							<g id="bc6cb8a4-01f5-41a7-ac0a-17ced3733a5f">
								
									<image style="overflow:visible;enable-background:new    ;" width="3751" height="2501" id="e8e88162-7ca3-4b79-baa1-c27dbf25c10d" xlink:href="1831D9BD5F891332.png"  transform="matrix(0.4798 0 0 0.4798 -312.7101 102.41)">
								</image>
							</g>
						</g>
					</g>
				</g>
			</g>
		</g>
	</g>
</g>
</svg>
