<svg xmlns="http://www.w3.org/2000/svg" xmlns:xlink="http://www.w3.org/1999/xlink" viewBox="0 0 156 139.99"><defs><style>.f58686f3-9a11-471c-863d-441d752d82b1{fill:url(#bddaa5fa-e895-41ea-9e85-356c48760596);}</style><linearGradient id="bddaa5fa-e895-41ea-9e85-356c48760596" x1="63.86" y1="96.61" x2="92.12" y2="96.61" gradientUnits="userSpaceOnUse"><stop offset="0.13" stop-color="#0878b1"/><stop offset="0.65" stop-color="#29ca8c"/><stop offset="1" stop-color="#29ca8c"/></linearGradient></defs><g id="a4060eee-2ec1-4b3b-9fa7-ac04692f1252" data-name="Layer 2"><g id="a8cc0d77-b2dd-4cf6-9c2b-16855362d012" data-name="zd9GM0"><path d="M89.59,65.58c1,.52,1.8,1,2.61,1.45a27.49,27.49,0,0,1,13,18.32.75.75,0,0,0,.63.67,5,5,0,1,1-6.17,6,4.93,4.93,0,0,1,2.67-5.62.61.61,0,0,0,.39-.84Q98.91,70.39,83.86,66.25c-.24-.07-.5-.1-.85-.17,0,.66,0,1.25,0,1.84,0,1-.42,1.38-1.37,1.39H74.39c-1,0-1.37-.43-1.38-1.43,0-.58,0-1.15,0-1.84-.94.25-1.79.41-2.61.7C61.3,69.94,55.57,76.21,53.3,85.6c-.1.43,0,.59.38.78a4.93,4.93,0,0,1,2.53,6.1,5,5,0,0,1-9.75-2A5,5,0,0,1,50.18,86a.74.74,0,0,0,.65-.64A27.61,27.61,0,0,1,65.7,66l.71-.37c-.31,0-.47-.07-.62-.07-3,0-5.94,0-8.92,0a.66.66,0,0,0-.72.52,5,5,0,0,1-6,3.09,5,5,0,0,1,1.62-9.83,4.77,4.77,0,0,1,4.38,3.22.75.75,0,0,0,.83.57q7.7,0,15.4,0c.51,0,.68-.14.65-.65a17.75,17.75,0,0,1,0-1.93,1.16,1.16,0,0,1,1.21-1.21q3.8,0,7.57,0A1.16,1.16,0,0,1,83,60.52a14.43,14.43,0,0,1,0,1.86c-.05.59.19.72.73.71,3.1,0,6.2,0,9.3,0,2,0,4,0,6,0a.76.76,0,0,0,.88-.59,5,5,0,0,1,5.36-3.17,5,5,0,0,1,.36,9.87,5,5,0,0,1-5.7-3.07.8.8,0,0,0-.92-.61c-2.91,0-5.82,0-8.73,0C90.08,65.54,89.9,65.56,89.59,65.58ZM75.48,66.8h5c0-1.59,0-3.14,0-4.69,0-.11-.3-.29-.46-.29-1.36,0-2.73,0-4.1,0a.6.6,0,0,0-.45.36C75.47,63.7,75.48,65.21,75.48,66.8ZM49,64.3a2.51,2.51,0,0,0,2.53,2.53A2.54,2.54,0,0,0,54,64.32a2.51,2.51,0,0,0-5,0Zm0,26.57a2.48,2.48,0,0,0,2.49,2.48A2.52,2.52,0,1,0,49,90.87ZM107,64.28a2.51,2.51,0,0,0-5,.06,2.59,2.59,0,0,0,2.52,2.49A2.51,2.51,0,0,0,107,64.28Zm0,26.59a2.47,2.47,0,0,0-2.43-2.53,2.51,2.51,0,1,0-.06,5A2.5,2.5,0,0,0,107,90.87Z"/><path d="M78,122.4H69.77c-1.13,0-1.54-.4-1.54-1.55,0-1.88,0-3.76,0-5.65a2.54,2.54,0,0,0-.29-1.14c-2.19-4.18-4.41-8.35-6.62-12.52-.42-.8-.4-1.23.16-1.8,4.43-4.55,7.29-10,9.48-15.9A62.31,62.31,0,0,0,74.07,72.3c.18-1.1.56-1.42,1.68-1.42h4.42c1.23,0,1.57.32,1.79,1.53a64.13,64.13,0,0,0,6,18,38,38,0,0,0,6.5,9.25,1.36,1.36,0,0,1,.24,2c-2.15,4.06-4.29,8.12-6.46,12.17a3.61,3.61,0,0,0-.45,1.82c0,1.78,0,3.55,0,5.33,0,1.09-.42,1.49-1.53,1.49-2.75,0-5.51,0-8.27,0Zm-1.26-49-.24,0c0,.18-.12.36-.17.54-.55,2.24-1,4.51-1.68,6.71-2.2,7.36-5.37,14.23-10.6,20-.25.27-.19.47,0,.74,2,3.75,4,7.51,6,11.25a.94.94,0,0,0,.67.43q7.35,0,14.69,0a.94.94,0,0,0,.68-.41c2-3.75,4-7.51,6-11.26a.59.59,0,0,0-.08-.79A44.19,44.19,0,0,1,84.45,88.9,68.67,68.67,0,0,1,79.7,74a3.33,3.33,0,0,0-.22-.6l-.18,0c0,.18,0,.37,0,.55,0,5.2,0,10.39,0,15.59a.69.69,0,0,0,.54.77,5.41,5.41,0,0,1-2,10.52,5.47,5.47,0,0,1-5.13-4.5,5.41,5.41,0,0,1,3.54-6,.72.72,0,0,0,.58-.81q0-7.76,0-15.52C76.75,73.82,76.73,73.62,76.72,73.41ZM78,119.85c2.22,0,4.44,0,6.66,0,.47,0,.64-.14.62-.62,0-1,0-2,0-3,0-.45-.1-.66-.6-.66q-6.7,0-13.39,0c-.49,0-.62.18-.61.64,0,1,0,2,0,3.08,0,.49.16.61.63.61C73.56,119.84,75.78,119.85,78,119.85Zm0-27.36A3,3,0,1,0,81,95.43,3,3,0,0,0,78,92.49Z"/><path class="f58686f3-9a11-471c-863d-441d752d82b1" d="M76.72,73.41c0,.21,0,.41,0,.61q0,7.77,0,15.52a.72.72,0,0,1-.58.81,5.41,5.41,0,0,0-3.54,6,5.47,5.47,0,0,0,5.13,4.5,5.41,5.41,0,0,0,2-10.52.69.69,0,0,1-.54-.77c0-5.2,0-10.39,0-15.59,0-.18,0-.37,0-.55l.18,0a3.33,3.33,0,0,1,.22.6A68.67,68.67,0,0,0,84.45,88.9a44.19,44.19,0,0,0,7.48,11.66.59.59,0,0,1,.08.79c-2,3.75-4,7.51-6,11.26a.94.94,0,0,1-.68.41q-7.34,0-14.69,0a.94.94,0,0,1-.67-.43c-2-3.74-4-7.5-6-11.25-.15-.27-.21-.47,0-.74,5.23-5.75,8.4-12.62,10.6-20,.66-2.2,1.13-4.47,1.68-6.71,0-.18.12-.36.17-.54Zm8,46.45c.47,0,.64-.14.62-.62,0-1,0-2,0-3,0-.45-.1-.66-.6-.66q-6.7,0-13.39,0c-.49,0-.62.18-.61.64,0,1,0,2,0,3.08,0,.49.16.61.63.61,2.22,0,4.44,0,6.67,0S82.45,119.84,84.67,119.86Z"/></g><g id="bb0f4feb-bd92-4fe9-88b6-b9e0378b743e" data-name="nFhAId"><path d="M156,7c-.82-2.35-1.68-4.06-3.35-5.27A10,10,0,0,0,146.5,0H9.35C3.41,0,0,3.43,0,9.37V130.63c0,6,3.41,9.36,9.35,9.36h135.9c6.58,0,8.33-1.12,10.75-7Zm-4.37,123.14c0,4.27-1.24,5.51-5.54,5.51H9.91c-4.3,0-5.54-1.24-5.54-5.51v-101H151.63Zm0-110.85v5.35H4.52l-.09-1.28c0-.34,0-.67,0-1q0-6.56,0-13.1c0-3.31,1.53-4.85,4.79-4.85H146.87c3.24,0,4.75,1.5,4.76,4.73S151.64,15.85,151.63,19.26Z"/><path d="M140.1,37H15.9c-3.07,0-3.57.51-3.57,3.58v83.52c0,3.07.5,3.57,3.57,3.57H140.1c3.07,0,3.58-.5,3.58-3.57V40.57C143.68,37.5,143.17,37,140.1,37Zm-.87,86.22H16.82V41.47H139.23Z"/><path d="M120.84,14.51a1.92,1.92,0,0,0,.54,1.42,3.08,3.08,0,0,0,2.22.77l3.41,0h13.83c1.75,0,2.8-.82,2.81-2.16a1.9,1.9,0,0,0-.55-1.43,3.06,3.06,0,0,0-2.21-.76l-8.57,0h-8.68C122.3,12.35,120.85,12.92,120.84,14.51Z"/><path d="M14.51,17.58l.05-.89a2.2,2.2,0,0,0,1.49-.7,2.12,2.12,0,0,0,.62-1.51,2.25,2.25,0,0,0-2.15-2.12,2.27,2.27,0,0,0-2.17,2.21,2.27,2.27,0,0,0,2.16,2.12v.89Z"/><path d="M26.84,17.58l0-.9A2.24,2.24,0,0,0,29,14.5a2.16,2.16,0,0,0-4.32,0,2.26,2.26,0,0,0,2.16,2.14v.9Z"/><path d="M110.67,17.58l0-.9a2.2,2.2,0,0,0,1.5-.68,2.17,2.17,0,0,0,.63-1.51,2.16,2.16,0,1,0-4.32.07,2.26,2.26,0,0,0,2.16,2.13v.89Z"/></g></g></svg>