<svg xmlns="http://www.w3.org/2000/svg" xmlns:xlink="http://www.w3.org/1999/xlink" viewBox="0 0 433.56 154.2"><defs><style>.b10afb67-85b7-427d-bec2-8eafe87152b4{fill:none;}.ba6c2d6e-3dbf-4a1b-bc2f-21c6ea93e8b6{fill:#e95028;}.bb311bf9-3533-4221-8f16-4cbb3a76f13f{fill:#f7d000;}.b7c671a8-5e29-4080-a0cf-86c7f68b016e{fill:#dad8d8;}.b8e8525c-2624-45ba-ab65-eb1cbcb858e2,.bf3c230e-d702-4efa-91ba-56756331b7f3{opacity:0.16;}.bf3c230e-d702-4efa-91ba-56756331b7f3{fill:url(#e812157a-4b90-4ef2-b215-94d1795b9d62);}.aa9a9185-6f45-4301-8f7c-e181209db0d1{fill:#b5d3d7;}.b8e8525c-2624-45ba-ab65-eb1cbcb858e2{fill:url(#bc026f14-f644-4c69-920d-2d18d565927e);}.b67cd4ed-cfd2-49dd-8a65-9c92acdc0a7d{fill:#8f8f8f;}.a99cd3de-1316-43aa-b875-640e82f5651a{fill:#515252;}.a6a404d6-085c-4405-b80c-21d0b6a3043e{fill:#9dc8cf;}.a2873043-b208-469d-bda5-ec0c94899f8d{clip-path:url(#fd9b74cb-4a20-4fcd-9eba-80102da70901);}.e16ac749-5917-4c2a-88b9-8a3c928d4f45{fill:#c1c2c2;}</style><linearGradient id="e812157a-4b90-4ef2-b215-94d1795b9d62" x1="9.36" y1="56.65" x2="53.57" y2="56.65" gradientUnits="userSpaceOnUse"><stop offset="0" stop-color="#9c9c9b"/><stop offset="1" stop-color="#2d2d1f"/></linearGradient><linearGradient id="bc026f14-f644-4c69-920d-2d18d565927e" x1="0.03" y1="113.34" x2="53.57" y2="113.34" xlink:href="#e812157a-4b90-4ef2-b215-94d1795b9d62"/><clipPath id="fd9b74cb-4a20-4fcd-9eba-80102da70901"><polygon class="b10afb67-85b7-427d-bec2-8eafe87152b4" points="-220.69 1582.82 -1187.99 1582.82 -1116.31 -346.86 -220.69 -346.86 -220.69 1582.82"/></clipPath></defs><g id="b8f72d8a-f705-4e34-b66c-ddcb275926c3" data-name="Layer 2"><path class="ba6c2d6e-3dbf-4a1b-bc2f-21c6ea93e8b6" d="M2.17,71.86v.41l50.17,22a3.12,3.12,0,0,0,2.54,0L105,72.15V72L55,49.19a3.17,3.17,0,0,0-2.61,0Z"/><path class="bb311bf9-3533-4221-8f16-4cbb3a76f13f" d="M11.88,17.61v3.2a3.79,3.79,0,0,0,2.23,3.47L52,41.18a3.67,3.67,0,0,0,3,0l37.74-17A3.78,3.78,0,0,0,95,20.68V17.39"/><path class="b7c671a8-5e29-4080-a0cf-86c7f68b016e" d="M54.66,89.35l41.1-18.1a2.7,2.7,0,0,0,1.61-2.47V26.13a2.7,2.7,0,0,0-3.79-2.46L54.65,40.9a2.7,2.7,0,0,1-2.16,0L13.17,23.85A2.7,2.7,0,0,0,9.4,26.32l0,42.24A2.71,2.71,0,0,0,11,71L52.48,89.35A2.75,2.75,0,0,0,54.66,89.35Z"/><path class="bf3c230e-d702-4efa-91ba-56756331b7f3" d="M53.57,41.38l-40.8-17.7A2.41,2.41,0,0,0,9.4,25.89l0,44.43L53.57,89.83Z"/><path class="aa9a9185-6f45-4301-8f7c-e181209db0d1" d="M93.78,16,54.25.12A1.59,1.59,0,0,0,53,.12l-40,16a1.62,1.62,0,0,0,0,3L53,36.45a1.59,1.59,0,0,0,1.3,0L93.83,19A1.63,1.63,0,0,0,93.78,16Z"/><path class="b7c671a8-5e29-4080-a0cf-86c7f68b016e" d="M54.48,153.79l51.12-22.66a2.26,2.26,0,0,0,1.35-2.07V74.75a2.27,2.27,0,0,0-3.19-2.07L54.48,94.35a2.3,2.3,0,0,1-1.82,0L3.21,72.67A2.27,2.27,0,0,0,0,74.75l0,54.6a2.26,2.26,0,0,0,1.36,2.08l51.3,22.37A2.26,2.26,0,0,0,54.48,153.79Z"/><path class="b8e8525c-2624-45ba-ab65-eb1cbcb858e2" d="M53.57,94.75,3.21,72.67A2.27,2.27,0,0,0,0,74.75v56.08L53.57,154.2C53.21,153.84,53.57,94.75,53.57,94.75Z"/><path class="b67cd4ed-cfd2-49dd-8a65-9c92acdc0a7d" d="M144.2,125.19v-.09a11.62,11.62,0,0,1,19.68-8.43,1.56,1.56,0,0,1,.52,1.17,1.6,1.6,0,0,1-1.6,1.6,1.76,1.76,0,0,1-1.08-.39,8.64,8.64,0,0,0-6.1-2.69c-4.54,0-8,3.85-8,8.66v.08c0,4.85,3.55,8.7,8.22,8.7a9,9,0,0,0,6.23-2.73,1.33,1.33,0,0,1,1-.43,1.56,1.56,0,0,1,1.51,1.51,1.51,1.51,0,0,1-.43,1,11.25,11.25,0,0,1-8.44,3.59A11.48,11.48,0,0,1,144.2,125.19Z"/><path class="b67cd4ed-cfd2-49dd-8a65-9c92acdc0a7d" d="M169.33,125.19v-.09a11.66,11.66,0,0,1,23.32-.08v.08a11.62,11.62,0,0,1-11.73,11.68A11.45,11.45,0,0,1,169.33,125.19Zm19.9,0v-.09a8.47,8.47,0,0,0-8.31-8.74c-4.84,0-8.17,3.94-8.17,8.66v.08a8.39,8.39,0,0,0,8.26,8.7C185.85,133.8,189.23,129.9,189.23,125.19Z"/><path class="a99cd3de-1316-43aa-b875-640e82f5651a" d="M204.24,135.1l-6.8-18.91a3.27,3.27,0,0,1-.21-.91,1.64,1.64,0,0,1,1.68-1.6,1.75,1.75,0,0,1,1.69,1.39l5.63,16.78L211.89,115a1.72,1.72,0,0,1,1.65-1.34h.17a1.77,1.77,0,0,1,1.73,1.34l5.62,16.83L226.77,115a1.65,1.65,0,0,1,1.6-1.3,1.6,1.6,0,0,1,1.65,1.56,3,3,0,0,1-.22.91L223,135.1a2,2,0,0,1-1.82,1.51H221a1.87,1.87,0,0,1-1.82-1.51l-5.58-16.31L208,135.1a1.86,1.86,0,0,1-1.82,1.51h-.08A2,2,0,0,1,204.24,135.1Z"/><path class="a99cd3de-1316-43aa-b875-640e82f5651a" d="M234.6,129.77v-.08c0-4.72,3.89-7.23,9.56-7.23a23.5,23.5,0,0,1,6.88,1v-.78c0-4-2.47-6.1-6.67-6.1a14,14,0,0,0-5.79,1.25,1.67,1.67,0,0,1-.61.13,1.48,1.48,0,0,1-1.47-1.43,1.52,1.52,0,0,1,.91-1.38,17.62,17.62,0,0,1,7.31-1.51c3.16,0,5.58.82,7.22,2.46a8.82,8.82,0,0,1,2.3,6.53v12.25a1.58,1.58,0,0,1-1.6,1.64,1.53,1.53,0,0,1-1.6-1.56v-2a9.82,9.82,0,0,1-8.09,3.85C238.79,136.74,234.6,134.36,234.6,129.77Zm16.48-1.72v-2.17a23.54,23.54,0,0,0-6.58-.95c-4.19,0-6.53,1.82-6.53,4.63v.09c0,2.81,2.6,4.45,5.63,4.45C247.7,134.1,251.08,131.59,251.08,128.05Z"/><path class="a99cd3de-1316-43aa-b875-640e82f5651a" d="M262.41,115.37a1.67,1.67,0,1,1,3.33,0v4.2c1.64-3.72,4.89-6,7.7-6a1.6,1.6,0,0,1,1.64,1.68,1.65,1.65,0,0,1-1.47,1.69c-4.32.52-7.87,3.76-7.87,10.21v7.61a1.67,1.67,0,1,1-3.33,0Z"/><path class="a99cd3de-1316-43aa-b875-640e82f5651a" d="M289.83,136.78c-6.14,0-11.16-4.71-11.16-11.63v-.09c0-6.45,4.54-11.64,10.73-11.64,6.62,0,10.38,5.41,10.38,11.34a1.55,1.55,0,0,1-1.56,1.55H282c.48,4.85,3.9,7.57,7.88,7.57a9.13,9.13,0,0,0,6.44-2.59,1.43,1.43,0,1,1,1.91,2.12A11.38,11.38,0,0,1,289.83,136.78Zm6.62-12.93c-.35-4.07-2.68-7.61-7.14-7.61-3.89,0-6.83,3.24-7.27,7.61Z"/><path class="a99cd3de-1316-43aa-b875-640e82f5651a" d="M306.74,106.16a1.67,1.67,0,1,1,3.33,0v11.63a8.48,8.48,0,0,1,7.66-4.37c5.4,0,8.56,3.64,8.56,9v12.41a1.65,1.65,0,0,1-1.64,1.69,1.67,1.67,0,0,1-1.69-1.69V123.2c0-4.15-2.25-6.75-6.18-6.75s-6.71,2.81-6.71,7v11.33a1.63,1.63,0,0,1-1.64,1.69,1.67,1.67,0,0,1-1.69-1.69Z"/><path class="a99cd3de-1316-43aa-b875-640e82f5651a" d="M333.08,125.19v-.09A11.66,11.66,0,0,1,356.4,125v.08a11.62,11.62,0,0,1-11.73,11.68A11.45,11.45,0,0,1,333.08,125.19Zm19.9,0v-.09a8.47,8.47,0,0,0-8.31-8.74c-4.84,0-8.17,3.94-8.17,8.66v.08a8.39,8.39,0,0,0,8.26,8.7C349.6,133.8,353,129.9,353,125.19Z"/><path class="a99cd3de-1316-43aa-b875-640e82f5651a" d="M382.65,134.79a1.65,1.65,0,1,1-3.29,0v-2.42a8.53,8.53,0,0,1-7.66,4.37c-5.4,0-8.56-3.63-8.56-9V115.37a1.63,1.63,0,0,1,1.64-1.69,1.69,1.69,0,0,1,1.69,1.69V127c0,4.16,2.25,6.75,6.19,6.75s6.7-2.81,6.7-7V115.37a1.63,1.63,0,0,1,1.65-1.69,1.66,1.66,0,0,1,1.64,1.69Z"/><path class="a99cd3de-1316-43aa-b875-640e82f5651a" d="M390,133.88a1.46,1.46,0,0,1-.61-1.21,1.44,1.44,0,0,1,1.47-1.42,1.31,1.31,0,0,1,.83.26,12.59,12.59,0,0,0,7.09,2.37c2.68,0,4.63-1.38,4.63-3.54v-.09c0-2.25-2.64-3.11-5.58-3.94-3.51-1-7.4-2.2-7.4-6.31v-.09c0-3.85,3.2-6.4,7.61-6.4a15.67,15.67,0,0,1,7.14,1.9,1.63,1.63,0,0,1,.82,1.39,1.44,1.44,0,0,1-1.47,1.42,1.6,1.6,0,0,1-.73-.17,12.15,12.15,0,0,0-5.84-1.73c-2.64,0-4.33,1.39-4.33,3.25v.08c0,2.12,2.77,2.94,5.76,3.85,3.46,1,7.18,2.38,7.18,6.4V130c0,4.24-3.51,6.71-8,6.71A15.39,15.39,0,0,1,390,133.88Z"/><path class="a99cd3de-1316-43aa-b875-640e82f5651a" d="M423.61,136.78c-6.15,0-11.17-4.71-11.17-11.63v-.09c0-6.45,4.55-11.64,10.73-11.64,6.62,0,10.39,5.41,10.39,11.34a1.55,1.55,0,0,1-1.56,1.55H415.82c.47,4.85,3.89,7.57,7.87,7.57a9.17,9.17,0,0,0,6.45-2.59,1.44,1.44,0,0,1,.95-.39,1.45,1.45,0,0,1,1.47,1.43,1.42,1.42,0,0,1-.52,1.08A11.38,11.38,0,0,1,423.61,136.78Zm6.61-12.93c-.34-4.07-2.68-7.61-7.13-7.61-3.9,0-6.84,3.24-7.27,7.61Z"/><path class="a99cd3de-1316-43aa-b875-640e82f5651a" d="M169.24,52.79H157.55v43h-7v-43H140.18V46.47H150.6V33q0-9.8,4.53-14t12-4.16a22,22,0,0,1,3,.21c1,.14,2,.32,3,.53l-1.26,6.32a26.79,26.79,0,0,0-2.64-.53,18,18,0,0,0-2.74-.21,9.77,9.77,0,0,0-4.63.95,6.56,6.56,0,0,0-2.74,2.68,11.73,11.73,0,0,0-1.26,4.06,36.62,36.62,0,0,0-.32,4.94V46.47h11.69Z"/><path class="a99cd3de-1316-43aa-b875-640e82f5651a" d="M186,95.75H179V16.14H186Z"/><path class="a99cd3de-1316-43aa-b875-640e82f5651a" d="M202.58,73A21.27,21.27,0,0,0,204.37,80a18.13,18.13,0,0,0,9.48,9.37,17,17,0,0,0,6.84,1.37,17.6,17.6,0,0,0,9.64-2.58,19.33,19.33,0,0,0,6.16-6l5.37,4.42a26.72,26.72,0,0,1-9.74,8A27.2,27.2,0,0,1,220.69,97a26.16,26.16,0,0,1-10.16-1.94,23.88,23.88,0,0,1-8.06-5.43,25.54,25.54,0,0,1-5.31-8.21,26.86,26.86,0,0,1-1.95-10.32,27.61,27.61,0,0,1,1.89-10.32,25,25,0,0,1,5.27-8.21,24,24,0,0,1,7.9-5.42,24.45,24.45,0,0,1,9.79-1.95,23.91,23.91,0,0,1,10,2,22,22,0,0,1,7.43,5.32,22.8,22.8,0,0,1,4.58,7.79,28.49,28.49,0,0,1,1.58,9.53V73Zm33.48-5.69q0-7-4.21-11.43t-11.79-4.37a16.78,16.78,0,0,0-6.53,1.32A18.28,18.28,0,0,0,208,56.37a17.72,17.72,0,0,0-3.79,5.05,13,13,0,0,0-1.42,5.9Z"/><path class="bb311bf9-3533-4221-8f16-4cbb3a76f13f" d="M251.43,94.66,287.67,49a1.32,1.32,0,0,1,1-.51h5a1.33,1.33,0,0,1,1,2.15L258.48,96.3a1.31,1.31,0,0,1-1,.5h-5A1.32,1.32,0,0,1,251.43,94.66Z"/><path class="ba6c2d6e-3dbf-4a1b-bc2f-21c6ea93e8b6" d="M294.72,94.66,258.48,49a1.32,1.32,0,0,0-1-.51h-5a1.33,1.33,0,0,0-1,2.15L287.67,96.3a1.31,1.31,0,0,0,1,.5h5A1.32,1.32,0,0,0,294.72,94.66Z"/><path class="a6a404d6-085c-4405-b80c-21d0b6a3043e" d="M268.89,72.66,287.67,96.3a1.31,1.31,0,0,0,1,.5h5a1.32,1.32,0,0,0,1-2.14L273.53,67.78"/><path class="a99cd3de-1316-43aa-b875-640e82f5651a" d="M268.87,72.72,287.67,49a1.32,1.32,0,0,1,1-.51h5a1.33,1.33,0,0,1,1,2.15L273.09,78"/><g class="a2873043-b208-469d-bda5-ec0c94899f8d"><path class="e16ac749-5917-4c2a-88b9-8a3c928d4f45" d="M129.66,573.13c-478.14,489-803.73,814.62-971.8,979.47,0,0,30.58,7.71-338.27,7.71l983.5-987.18L-1095.1-331.55l323.88-1.67C-643.36-207.73-645.6-209.94,129.66,573.13"/></g></g></svg>