<svg xmlns="http://www.w3.org/2000/svg" xmlns:xlink="http://www.w3.org/1999/xlink" viewBox="0 0 157.89 151.6"><defs><style>.fc1aa2b6-124a-4f5c-ba0d-b5f4b0ad040c{fill:url(#e975ee29-200b-4dd5-8d14-8cab1fe9a655);}</style><linearGradient id="e975ee29-200b-4dd5-8d14-8cab1fe9a655" x1="48.7" y1="37.55" x2="128.17" y2="37.55" gradientUnits="userSpaceOnUse"><stop offset="0.13" stop-color="#0878b1"/><stop offset="0.65" stop-color="#29ca8c"/><stop offset="1" stop-color="#29ca8c"/></linearGradient></defs><g id="e1b903c5-2ebe-4b01-a77f-6e5323312f30" data-name="Layer 2"><path class="fc1aa2b6-124a-4f5c-ba0d-b5f4b0ad040c" d="M87.22,19.46c-.42-.62,2.46-8.23-7.82-12.13S45.89,2.19,49,21.51,62.34,49.68,62.34,49.68L89.68,72.5l21.59-17.89s17.89-22.41,16.86-30.22S115.59-15.9,89.89,17.2Z"/><path d="M157.89,113.66c-.34,1-.62,1.94-1,2.86a11.79,11.79,0,0,1-6.19,6.14l-52.4,23.08c-4.69,2.07-9.31,4.33-14.43,5.22a39.55,39.55,0,0,1-28-5.27q-7.53-4.51-15-9a26.32,26.32,0,0,0-9.74-3.16,1.42,1.42,0,0,0-1.16.62c-2,3.66-5.12,5.24-9.26,5.18-5.66-.08-11.31,0-17,0-2.56,0-3.69-1.11-3.69-3.65Q0,108.41,0,81.2c0-2.42,1.17-3.59,3.61-3.6,5.49,0,11,.09,16.49,0,4.76-.1,8.27,1.67,10.24,6.2,6.38,0,12.75.14,19.12,0a27.82,27.82,0,0,1,15.68,4.12c4.29,2.62,8.73,5,13.15,7.41a6.73,6.73,0,0,0,3,.81c6,.07,12,.18,18,0,9.14-.27,14.39,7.2,13.42,14,0,.09,0,.2.09.44l8.4-2.87q10-3.44,19.93-6.88a13.15,13.15,0,0,1,7.72-.56,11.35,11.35,0,0,1,8.6,8.56c.11.39.24.77.36,1.16Zm-127,13.49c.55.11,1.05.23,1.55.31a33.22,33.22,0,0,1,13,4.79c4.47,2.81,9,5.49,13.59,8.18,10,5.87,20.35,6.77,31,2.15,19.29-8.39,38.51-16.93,57.75-25.42,3.35-1.47,4.66-4.48,3.44-7.65-1.12-2.9-4.2-4.16-7.59-3-12.95,4.46-25.88,9-38.82,13.44a11,11,0,0,1-3.44.75c-10.74.07-21.48.06-32.22,0a3.05,3.05,0,0,1-3.11-3,3.14,3.14,0,0,1,3-3.14c.51-.05,1,0,1.54,0q14.8,0,29.6,0a6.13,6.13,0,0,0,5-2.23,5.81,5.81,0,0,0,.86-6.49,5.92,5.92,0,0,0-5.64-3.61c-6.11,0-12.23-.09-18.34,0a14.2,14.2,0,0,1-7.61-2c-4.66-2.72-9.4-5.28-14.07-8a17.56,17.56,0,0,0-9.11-2.39c-6.32,0-12.65,0-19,0H30.91ZM6.24,133.1c5,0,9.83,0,14.66,0,2.66,0,3.77-1.09,3.77-3.72q0-21,0-41.93c0-2.52-1.15-3.67-3.68-3.68-4.58,0-9.15,0-13.72,0a9.25,9.25,0,0,0-1,.11Z"/><path d="M130.23,17.21C127.64,8.41,122,2.44,112.83.53c-8.76-1.83-16,1.14-21.64,8-1.08,1.29-2,2.73-3,4.15-.33-.51-.63-1-.94-1.44s-.63-.95-1-1.4C80.75,2.35,73.47-1.27,64.19.42,63.24.59,58.93,2.12,58.9,2c-6.37,2.76-10.47,8-12.57,15.17-2.56,8.7-.71,16.75,4.39,24.14,2.21,3.21,8,9,7.86,9.07,9.24,8.2,18.6,16.26,28,24.34C88,76,89.4,75.87,91.09,74.42c6.92-6,13.88-11.92,20.72-18a85.84,85.84,0,0,0,14-15.09C130.94,34,132.79,25.91,130.23,17.21Zm-5.32,10.88a26.54,26.54,0,0,1-7.54,14.05C112,47.63,106.3,52.85,100.62,58.05c-3.86,3.53-7.92,6.84-12,10.35-4.26-3.59-8.4-7-12.5-10.54C72.68,54.92,62,44.34,59.81,42.14a26.54,26.54,0,0,1-7.54-14c-1.54-8.58,2.91-17.56,10.29-20.62A16.72,16.72,0,0,1,67.8,6.2a15.29,15.29,0,0,1,8.9,2.73,22,22,0,0,1,8.39,11.85c.62,1.9,1.56,2.7,3.09,2.72s2.34-.85,3.19-2.62a49.53,49.53,0,0,1,4.55-8.32,15.24,15.24,0,0,1,18.7-5.09C122,10.53,126.45,19.51,124.91,28.09Z"/><path d="M18.49,93a3.07,3.07,0,0,1-6.14,0,3.07,3.07,0,1,1,6.14,0Z"/></g></svg>