<svg xmlns="http://www.w3.org/2000/svg" xmlns:xlink="http://www.w3.org/1999/xlink" viewBox="0 0 129.44 129.41"><defs><style>.a8433120-83e3-4ff9-8b38-4c1c60845527{fill:url(#b2b43085-ae6f-4fd1-be5b-a4443f97ef6f);}</style><linearGradient id="b2b43085-ae6f-4fd1-be5b-a4443f97ef6f" x1="35.73" y1="76.55" x2="93.67" y2="76.55" gradientUnits="userSpaceOnUse"><stop offset="0.13" stop-color="#0878b1"/><stop offset="0.65" stop-color="#29ca8c"/><stop offset="1" stop-color="#29ca8c"/></linearGradient></defs><g id="aca7ff88-f596-44ee-a436-e6ef71a3f3dc" data-name="Layer 2"><g id="a6ef5584-2d87-48f4-993a-5a2ddcadc741" data-name="zd9GM0"><path d="M88.47,12.92c2,1.08,3.7,2,5.35,3C108,24.65,117,37.12,120.49,53.46a1.52,1.52,0,0,0,1.28,1.37,10.26,10.26,0,1,1-12.65,12.26,10.15,10.15,0,0,1,5.48-11.53,1.24,1.24,0,0,0,.79-1.71q-7.78-31.06-38.67-39.56c-.49-.14-1-.2-1.73-.34,0,1.36,0,2.57,0,3.78,0,1.94-.87,2.83-2.81,2.84q-7.43,0-14.86,0c-2,0-2.82-.89-2.84-2.93,0-1.18,0-2.35,0-3.78-1.92.51-3.68.86-5.35,1.44C30.47,21.87,18.74,34.71,14.08,54c-.22.88,0,1.21.77,1.59A10.1,10.1,0,0,1,20,68.09,10.32,10.32,0,0,1,8.46,74.86,10.36,10.36,0,0,1,.06,64a10.17,10.17,0,0,1,7.63-9.17A1.53,1.53,0,0,0,9,53.54c3.92-18,14.17-31.25,30.48-39.8L41,13c-.64-.07-1-.14-1.26-.14-6.1,0-12.19,0-18.28,0a1.35,1.35,0,0,0-1.49,1.07A10.15,10.15,0,0,1,7.59,20.22,10.26,10.26,0,0,1,10.89.07a9.82,9.82,0,0,1,9,6.61,1.54,1.54,0,0,0,1.7,1.16q15.8,0,31.57,0c1,0,1.4-.3,1.33-1.34-.08-1.31,0-2.63,0-3.95A2.39,2.39,0,0,1,57,.05q7.77,0,15.52,0A2.39,2.39,0,0,1,75,2.55a34.77,34.77,0,0,1,0,3.82c-.09,1.2.39,1.47,1.51,1.46,6.35,0,12.71,0,19.07,0,4.07,0,8.15,0,12.23,0a1.59,1.59,0,0,0,1.81-1.2,10.17,10.17,0,0,1,11-6.51,10.29,10.29,0,0,1,.74,20.24,10.14,10.14,0,0,1-11.68-6.29,1.65,1.65,0,0,0-1.89-1.26c-6,0-11.93,0-17.89,0C89.49,12.85,89.12,12.89,88.47,12.92ZM59.56,15.43H69.9c0-3.26,0-6.44-.05-9.62,0-.21-.6-.59-.93-.6-2.8,0-5.6,0-8.4,0-.33,0-.91.48-.92.75C59.54,9.07,59.56,12.17,59.56,15.43ZM5.21,10.31a5.13,5.13,0,0,0,5.17,5.18,5.23,5.23,0,0,0,5.12-5.14A5.16,5.16,0,0,0,10.29,5.2,5.08,5.08,0,0,0,5.21,10.31Zm0,54.47a5.07,5.07,0,0,0,5.1,5.08,5.15,5.15,0,1,0,0-10.3A5.14,5.14,0,0,0,5.21,64.78Zm119-54.51a5.14,5.14,0,0,0-10.28.11,5.29,5.29,0,0,0,5.16,5.11A5.13,5.13,0,0,0,124.25,10.27Zm0,54.51a5.06,5.06,0,0,0-5-5.19,5.15,5.15,0,1,0-.11,10.29A5.11,5.11,0,0,0,124.25,64.78Z"/><path d="M64.68,129.41H47.84c-2.32,0-3.15-.82-3.15-3.17,0-3.86,0-7.72,0-11.58a5.35,5.35,0,0,0-.6-2.35Q37.3,99.45,30.48,86.65c-.86-1.63-.83-2.53.32-3.7,9.09-9.31,15-20.55,19.44-32.59a129,129,0,0,0,6.42-23.65c.37-2.25,1.15-2.92,3.43-2.93h9.08c2.52,0,3.21.65,3.66,3.13A131.4,131.4,0,0,0,85.11,63.77a77.87,77.87,0,0,0,13.34,19c1.33,1.37,1.41,2.25.48,4q-6.6,12.48-13.24,24.94a7.58,7.58,0,0,0-.92,3.75c.06,3.64,0,7.28,0,10.92,0,2.24-.87,3.06-3.13,3.06h-17ZM62.08,29l-.47-.1c-.12.38-.25.75-.35,1.12-1.14,4.59-2.09,9.23-3.45,13.75-4.52,15.09-11,29.16-21.74,41a1.1,1.1,0,0,0-.09,1.5c4.1,7.69,8.17,15.4,12.3,23.08a1.93,1.93,0,0,0,1.37.87q15.06.07,30.12,0a1.87,1.87,0,0,0,1.38-.84c4.13-7.68,8.19-15.39,12.29-23.09a1.18,1.18,0,0,0-.18-1.61A91,91,0,0,1,77.93,60.73a140.3,140.3,0,0,1-9.72-30.6,9.19,9.19,0,0,0-.45-1.24l-.38.11c0,.38-.08.75-.08,1.13,0,10.65,0,21.31,0,32a1.43,1.43,0,0,0,1.11,1.59,11.09,11.09,0,0,1-4.15,21.55A11.19,11.19,0,0,1,53.73,76,11.08,11.08,0,0,1,61,63.71a1.48,1.48,0,0,0,1.2-1.65q0-15.91,0-31.83C62.16,29.82,62.11,29.4,62.08,29Zm2.65,95.19c4.55,0,9.11,0,13.66,0,1,0,1.31-.28,1.28-1.27-.06-2.06,0-4.12,0-6.17,0-.92-.21-1.35-1.23-1.35q-13.73,0-27.45-.08c-1,0-1.27.37-1.24,1.31.06,2.1.07,4.21,0,6.31,0,1,.34,1.26,1.3,1.25C55.62,124.16,60.17,124.18,64.73,124.18Zm0-56.09a6.06,6.06,0,1,0,6,6A6.09,6.09,0,0,0,64.78,68.09Z"/><path class="a8433120-83e3-4ff9-8b38-4c1c60845527" d="M62.08,29c0,.41.08.83.08,1.24q0,15.92,0,31.83A1.48,1.48,0,0,1,61,63.71,11.08,11.08,0,0,0,53.73,76a11.19,11.19,0,0,0,10.52,9.22A11.09,11.09,0,0,0,68.4,63.68a1.43,1.43,0,0,1-1.11-1.59c0-10.65,0-21.31,0-32,0-.38,0-.75.08-1.13l.38-.11a9.19,9.19,0,0,1,.45,1.24,140.3,140.3,0,0,0,9.72,30.6A91,91,0,0,0,93.26,84.64a1.18,1.18,0,0,1,.18,1.61c-4.1,7.7-8.16,15.41-12.29,23.09a1.87,1.87,0,0,1-1.38.84q-15.06.07-30.12,0a1.93,1.93,0,0,1-1.37-.87c-4.13-7.68-8.2-15.39-12.3-23.08a1.1,1.1,0,0,1,.09-1.5c10.72-11.81,17.22-25.88,21.74-41,1.36-4.52,2.31-9.16,3.45-13.75.1-.37.23-.74.35-1.12ZM78.39,124.2c1,0,1.31-.28,1.28-1.27-.06-2.06,0-4.12,0-6.17,0-.92-.21-1.35-1.23-1.35q-13.73,0-27.45-.08c-1,0-1.27.37-1.24,1.31.06,2.1.07,4.21,0,6.31,0,1,.34,1.26,1.3,1.25,4.55,0,9.1,0,13.66,0S73.84,124.16,78.39,124.2Z"/></g></g></svg>