<svg xmlns="http://www.w3.org/2000/svg" xmlns:xlink="http://www.w3.org/1999/xlink" viewBox="0 0 111.09 145.54"><defs><style>.ab87f9f9-f816-48fa-9975-f293cd95250f{fill:url(#fc87f784-650a-4f51-9d69-35fa3ace4b16);}</style><linearGradient id="fc87f784-650a-4f51-9d69-35fa3ace4b16" x1="-393.74" y1="241.1" x2="-294.27" y2="241.1" gradientTransform="translate(421.94 -93.45) rotate(6.99)" gradientUnits="userSpaceOnUse"><stop offset="0.13" stop-color="#0878b1"/><stop offset="0.65" stop-color="#29ca8c"/><stop offset="1" stop-color="#29ca8c"/></linearGradient></defs><g id="ba07dbc8-2680-4bc9-b573-15a8dffe2114" data-name="Layer 2"><path class="ab87f9f9-f816-48fa-9975-f293cd95250f" d="M105.23,71.66l-3.36,27.43A49.73,49.73,0,0,1,3.14,87L6.5,59.56l27.42,3.36L30.56,90.35a22.1,22.1,0,1,0,43.88,5.38L77.8,68.3l27.43,3.36Z"/><path d="M16.85,88.67a2.77,2.77,0,1,0-3.08,2.4A2.76,2.76,0,0,0,16.85,88.67Z"/><path d="M6.85,34,.39,86.65A52.5,52.5,0,0,0,104.61,99.43l6.46-52.66a2.77,2.77,0,0,0-2.41-3.08L81.23,40.33a2.75,2.75,0,0,0-3.07,2.4L71.7,95.39a19.34,19.34,0,1,1-38.4-4.7L39.76,38A2.75,2.75,0,0,0,37.35,35L9.93,31.59A2.75,2.75,0,0,0,6.85,34Zm96,34.6L80.88,65.9,83.3,46.15l21.94,2.69ZM49.48,117.72A24.9,24.9,0,0,0,77.19,96.06l3-24.68,21.94,2.69-3,24.68A47,47,0,1,1,5.88,87.32l3-24.68,22,2.69L27.82,90A24.85,24.85,0,0,0,49.48,117.72ZM33.94,40.1,31.52,59.84,9.58,57.15,12,37.41Z"/><path d="M17.06,98.93a2.76,2.76,0,1,0-5.45.91,41.84,41.84,0,0,0,12,22.93,2.76,2.76,0,0,0,3.85-4A36.31,36.31,0,0,1,17.06,98.93Z"/><path d="M26.12.46a2.76,2.76,0,0,0-3.83.78L15.46,11.53a2.78,2.78,0,0,0-.2,2.69,2.74,2.74,0,0,0,2.17,1.58l6.53.8L19.6,23.18a2.76,2.76,0,0,0,4.61,3.05L31,15.93a2.76,2.76,0,0,0,.21-2.68,2.78,2.78,0,0,0-2.18-1.59l-6.53-.8L26.9,4.29A2.76,2.76,0,0,0,26.12.46Z"/><path d="M102.92,9.87a2.77,2.77,0,0,0-3.83.78L92.26,21a2.76,2.76,0,0,0,2,4.27l6.53.8L96.4,32.59a2.76,2.76,0,0,0,4.6,3.06l6.83-10.3a2.78,2.78,0,0,0,.21-2.69,2.74,2.74,0,0,0-2.18-1.58l-6.53-.8,4.36-6.58A2.77,2.77,0,0,0,102.92,9.87Z"/></g></svg>