<svg xmlns="http://www.w3.org/2000/svg" xmlns:xlink="http://www.w3.org/1999/xlink" viewBox="0 0 119.75 126.76" style=""><defs><style>.b447dcce-a2cc-45fd-b436-42b0f03a9fed{fill:url(#b096864f-a71a-41cb-a38e-ffc0e397e4a4);}.b40458da-d856-45f8-a5ac-76fb4b534c82{fill:url(#b31f9701-5e51-4f3e-9a58-c629c8995588);}.a54d3f61-454f-4f3f-b7ed-be3559c6ca99{fill:url(#aacc7951-aa07-4cbc-b5ec-02af06753171);}.bc2780c3-8d77-47bd-84a3-80fcc817531a{fill:url(#a93e67b7-ffe1-4189-b5ee-45b983fd9ced);}.aa54ac5d-3f26-4da7-b635-4eda863f4388{fill:url(#b6e33d85-adf4-46c9-be89-370036aa2b7e);}.fbb9333f-884f-4f9a-850d-476d413c0f39{fill:none;stroke:#434244;stroke-miterlimit:10;}</style><linearGradient id="b096864f-a71a-41cb-a38e-ffc0e397e4a4" x1="16.74" y1="63.11" x2="93.06" y2="63.11" gradientUnits="userSpaceOnUse"><stop offset="0" stop-color="#0878b9"></stop><stop offset="0.15" stop-color="#0878b9"></stop><stop offset="0.25" stop-color="#108fb0"></stop><stop offset="0.46" stop-color="#26c998"></stop><stop offset="0.49" stop-color="#29d294"></stop><stop offset="1" stop-color="#29d294"></stop></linearGradient><linearGradient id="b31f9701-5e51-4f3e-9a58-c629c8995588" x1="40.42" y1="63.4" x2="70.15" y2="63.4" xlink:href="#b096864f-a71a-41cb-a38e-ffc0e397e4a4"></linearGradient><linearGradient id="aacc7951-aa07-4cbc-b5ec-02af06753171" x1="78.16" y1="35.38" x2="93.36" y2="35.38" xlink:href="#b096864f-a71a-41cb-a38e-ffc0e397e4a4"></linearGradient><linearGradient id="a93e67b7-ffe1-4189-b5ee-45b983fd9ced" x1="47.13" y1="64.83" x2="87.61" y2="64.83" xlink:href="#b096864f-a71a-41cb-a38e-ffc0e397e4a4"></linearGradient><linearGradient id="b6e33d85-adf4-46c9-be89-370036aa2b7e" x1="27.08" y1="65.08" x2="111.83" y2="65.08" xlink:href="#b096864f-a71a-41cb-a38e-ffc0e397e4a4"></linearGradient></defs><g id="eab6c6ef-7955-4898-b062-c2ff3d34940d" data-name="Layer 2"><path class="b447dcce-a2cc-45fd-b436-42b0f03a9fed pUaVWDDl_0" d="M27.16,103.58l0,0,.32.14h0l.07,0,.22.09.13,0,.07,0,.07,0,.27.11.05,0,.08,0,.14,0,.28.1,7.86,2.56-.41-.14-.08,0-.38-.14-.09,0-.31-.13-.1,0-.37-.16-.1,0-.28-.13-.11-.06-.3-.15-.06,0-.35-.19-.08,0a1.75,1.75,0,0,1-.27-.16l-.08,0-.33-.21-.05,0-.27-.19-.09-.06-.24-.17-.07,0-.29-.23L32,104.3l-.22-.18-.08-.07-.24-.2,0,0a3.32,3.32,0,0,1-.27-.25l-.1-.09-.18-.17-.06-.07q-.25-.26-.48-.51l-.07-.08-.45-.54,0-.06c-.14-.18-.27-.36-.39-.53l-.11-.16c-.12-.17-.24-.35-.35-.53a.21.21,0,0,1,0-.06c-.13-.19-.24-.4-.36-.6a.8.8,0,0,1-.08-.16c-.08-.13-.15-.27-.22-.4L28,99.25l-.16-.36c-.06-.12-.11-.24-.16-.36s-.11-.24-.16-.37-.1-.24-.14-.36-.1-.25-.14-.37-.09-.26-.14-.38L27,96.67l-.12-.38c0-.13-.08-.26-.11-.38s-.08-.26-.11-.39-.07-.26-.1-.39l-.09-.39a2.88,2.88,0,0,1-.09-.4L26.3,94c0-.13-.05-.27-.08-.41s0-.25-.07-.38,0-.28-.07-.41l-.06-.4L26,92c0-.14,0-.27-.05-.4l-.06-.41c0-.13,0-.26,0-.39s0-.29,0-.43l0-.38c0-.14,0-.28,0-.43l0-.38,0-.42,0-.38c0-.14,0-.28,0-.42s0-.26,0-.39l0-.55v-.1l0-.7V86c0-.24,0-.48,0-.71l-.39-16.5-.38-16.44c0-.45,0-.9,0-1.36v-.34c0-.46,0-.93,0-1.4l0-.91a1.77,1.77,0,0,1,0-.23q0-.36,0-.72c0-.1,0-.2,0-.31s0-.45.05-.68,0-.19,0-.28l.09-.95s0-.06,0-.09c0-.29.07-.58.11-.86s.05-.42.09-.63v-.1c0-.22.07-.43.11-.64s0-.13,0-.19a2.56,2.56,0,0,1,.05-.27,2.56,2.56,0,0,0,0-.27l.06-.26.06-.26.06-.28.06-.24c0-.1.06-.2.08-.3l.06-.22a.83.83,0,0,0,0-.15,3,3,0,0,1,.1-.32A.84.84,0,0,1,26,40l.09-.3.06-.17.12-.35,0-.1.17-.44,0-.11.13-.33.05-.12c.06-.15.12-.29.19-.43v0l.19-.4,0-.08.2-.41,0-.08.23-.41h0l.24-.42,0-.07c.08-.13.16-.27.25-.4l0-.06.26-.4h0l.28-.4.05-.06c.09-.13.19-.26.29-.38l0-.06c.1-.12.2-.25.31-.37v0l.32-.37.08-.08.31-.33,0,0,.35-.36.08-.07.28-.26.14-.12a2.55,2.55,0,0,1,.3-.26.52.52,0,0,1,.11-.1l.43-.35h0c.13-.1.27-.21.42-.31l.54-.39.08,0,.49-.32.21-.12.39-.24.24-.13.4-.21.24-.13.44-.22.23-.11.67-.3.12-.05.6-.24.27-.1.48-.17L38,28l.49-.15.31-.1.54-.16.27-.07.84-.22h.07c.26-.07.54-.13.82-.18l.29-.06.62-.12.35-.06.61-.1.36-.06.67-.09.33,0,1-.11,16.88-1.63,17-1.64a41.81,41.81,0,0,1,4.2-.19,29.2,29.2,0,0,1,3.65.27,21,21,0,0,1,3.13.67,16.94,16.94,0,0,1,2.66,1l-7.2-3.61a16.61,16.61,0,0,0-2.68-1.05A20.55,20.55,0,0,0,80,19.64a28.1,28.1,0,0,0-3.69-.26,39.79,39.79,0,0,0-4.24.2L54.89,21.25,37.83,22.91l-1,.11-.34.05-.66.09-.38.05-.6.1-.37.07-.61.12-.23,0-.08,0-.82.18-.07,0-.85.22-.27.07-.56.16-.3.1-.5.16-.17.06-.13,0-.5.19-.26.09-.65.26-.07,0-.7.31-.19.09-.48.24-.09,0-.13.07-.43.24-.22.12-.15.08a2.61,2.61,0,0,1-.28.17l-.18.11L25,27,25,27l-.56.39,0,0L24,27.7a.05.05,0,0,0,0,0h0l-.39.31,0,0-.13.11-.22.19-.07.06-.14.13-.15.14-.12.12-.09.08-.07.07-.27.27,0,0,0,0-.22.22-.09.11-.09.09-.07.08c-.08.09-.15.18-.23.26l0,0,0,0-.16.2a1.83,1.83,0,0,0-.13.16l-.05.06,0,.05-.21.26-.05.07-.05.08-.09.12-.19.26v0h0l-.17.24-.1.17a.1.1,0,0,0,0,.05l0,.05c-.06.09-.12.18-.17.27l0,.09a.21.21,0,0,0,0,.06l-.08.13c-.05.09-.1.19-.16.28v0h0l-.14.26-.09.17,0,.07,0,.06a2.1,2.1,0,0,0-.15.3l0,.06,0,.07-.08.17c0,.08-.07.16-.11.25l0,0v0l-.15.35,0,.07,0,.09-.07.18-.08.2,0,.09,0,.06a3.62,3.62,0,0,1-.13.35v0l0,.1-.1.27,0,.09a.88.88,0,0,1-.05.15,1.21,1.21,0,0,1-.05.18L18,36.6s0,.1,0,.15a.76.76,0,0,0,0,.11c0,.08-.05.16-.07.24l0,.13,0,.05-.05.2a2.86,2.86,0,0,0-.07.28l0,.06c0,.07,0,.13-.05.19l-.06.28a.64.64,0,0,1,0,.07c0,.07,0,.13,0,.19l-.06.27a.29.29,0,0,1,0,.09l0,.18-.06.27a.44.44,0,0,1,0,.1s0,.06,0,.1l-.12.69v0h0c0,.19-.05.37-.08.55s0,.08,0,.12a.77.77,0,0,0,0,.15l-.09.7s0,.07,0,.1v0c0,.28-.06.55-.08.82,0,0,0,.08,0,.12s0,.2,0,.3,0,.45-.05.68,0,.21,0,.31a1.85,1.85,0,0,1,0,.23c0,.17,0,.33,0,.5s0,.16,0,.23c0,.3,0,.59,0,.89v0c0,.47,0,1,0,1.42v.33c0,.46,0,.92,0,1.38l.38,16.64.38,16.7c0,.16,0,.33,0,.5a1.27,1.27,0,0,0,0,.2v.32c0,.17,0,.34,0,.51v.13c0,.13,0,.26,0,.39v.17c0,.13,0,.26,0,.39l0,.42c0,.13,0,.27,0,.4l0,.41c0,.13,0,.27,0,.41l0,.4c0,.14,0,.28,0,.42a2,2,0,0,1,0,.23,1,1,0,0,1,0,.17c0,.14,0,.27.05.41s0,.27.05.41,0,.12,0,.18a1.7,1.7,0,0,0,0,.22,3,3,0,0,0,.06.42l.06.39c0,.14,0,.28.07.41s0,.28.07.41a2.23,2.23,0,0,1,0,.23,1.24,1.24,0,0,1,0,.16l.09.41c0,.13.05.27.08.4s.07.26.1.39.07.27.1.4.07.26.11.39.07.26.11.39l.12.38c0,.08.05.15.07.23l.06.16c0,.13.08.25.13.37l.14.39.06.16.09.2.15.38c.06.12.11.24.16.36l.18.36c.05.12.11.24.17.36s.07.13.11.2a2.12,2.12,0,0,0,.11.21l.09.16.06.11.28.48h0a.16.16,0,0,0,0,.07l.24.38.11.15.11.15a1.3,1.3,0,0,0,.1.15l.24.32.06.07.05.07.13.17.26.3.07.08.06.07.13.15.23.24a1.59,1.59,0,0,0,.13.13l0,0,0,0,.05,0,.15.15.07.07,0,0,.25.23h0l0,0,.18.16.07.06.07.06.1.08.15.12.05,0,0,0,.25.19h0l0,0,.2.15a.24.24,0,0,1,.08.06l.09,0,.08.06.22.15h0l.26.17.05,0,.08.05.14.08.14.08.08,0,.06,0,.28.15h0l0,0,.24.13.09,0,.1.05.11,0,.2.1Z"></path><path class="b40458da-d856-45f8-a5ac-76fb4b534c82 pUaVWDDl_1" d="M43.57,73.08l.24.3,0,.07.1.12.11.14.12.14.1.11.05.06c.09.11.19.21.28.31h0l.24.25.09.1.09.08.07.08.26.24,0,0,0,0,.23.2.12.11.07.06.06,0,.26.21.05,0,0,0,0,0,.12.1.27.2.25.19.16.1.06,0,0,0,.26.17.1.06.07,0,.1.06L48,77l.06,0,.06,0,.15.09.27.14h0l.22.12.21.1,0,0h0l.28.13.14.06.08,0,.06,0,.29.12H50l0,0h0l7.57,2.88h.05l-.48-.2-.06,0-.46-.21h0l-.45-.22,0,0L55.74,80l-.07,0-.4-.24-.07,0-.4-.25-.06,0c-.28-.19-.54-.39-.81-.59,0,0,0,0,0,0l-.38-.31-.06,0-.34-.3,0,0-.34-.33-.09-.09-.33-.34h0L52,76.91l-.1-.12a3.11,3.11,0,0,1-.23-.28l-.1-.11L51.27,76l0,0a1.13,1.13,0,0,1-.1-.13l-.22-.31c-.11-.15-.21-.31-.31-.46l0,0-.26-.43,0-.07c-.08-.13-.15-.27-.23-.41s-.23-.44-.34-.67a1.42,1.42,0,0,1-.08-.18c-.11-.23-.21-.46-.31-.7v0c-.1-.23-.18-.47-.27-.71L49,71.68c-.08-.25-.16-.5-.23-.75,0,0,0-.06,0-.09l-.18-.7a1.16,1.16,0,0,0,0-.18l-.15-.78c0-.17,0-.34-.08-.51a.31.31,0,0,0,0-.1c0-.15,0-.3-.05-.45s0-.12,0-.18l0-.39c0-.06,0-.11,0-.17s0-.37,0-.56,0-.51,0-.77V66q0-.36,0-.72s0-.09,0-.13c0-.24,0-.48.07-.71v-.11c0-.24.06-.47.1-.71a.36.36,0,0,1,0-.1c0-.24.08-.47.13-.71a.19.19,0,0,1,0-.07c0-.24.1-.47.16-.71l0-.07c.07-.24.13-.47.2-.7a.14.14,0,0,0,0-.06l.24-.73,0,0c.08-.23.17-.46.26-.69l0-.06c.1-.24.2-.47.31-.69h0c.11-.23.22-.46.34-.68l0-.06c.11-.22.23-.43.35-.64,0,0,0,0,0,0,.13-.22.26-.43.4-.64l0,0c.13-.2.26-.4.4-.6l0-.06.43-.57,0,0,.46-.57,0,0c.16-.19.33-.38.5-.56l0,0c.16-.17.33-.35.51-.52l0,0,.49-.46.11-.11.53-.44.07-.06c.16-.13.32-.26.49-.38l.11-.08c.18-.14.37-.27.56-.4l.1-.07.5-.32.14-.08c.19-.12.39-.23.59-.34l.1,0c.17-.1.35-.19.53-.28l.15-.07.62-.28.09,0,.57-.23.16-.06.66-.22.06,0,.61-.17.17,0,.69-.15h0l.66-.11.18,0,.7-.08a13.1,13.1,0,0,1,1.87,0,13.37,13.37,0,0,1,1.81.18,14.6,14.6,0,0,1,1.74.39,15.48,15.48,0,0,1,1.65.61L62.69,47.1l-.41-.17c-.41-.17-.83-.31-1.26-.44a12.84,12.84,0,0,0-1.76-.4,13.83,13.83,0,0,0-1.83-.18,13.34,13.34,0,0,0-1.89.05c-.24,0-.47,0-.71.09l-.18,0-.68.12h0l-.54.12-.16,0-.16,0-.63.18-.06,0c-.22.06-.44.14-.66.22l-.16.06-.21.07-.37.15-.09,0-.62.28-.16.08-.53.27-.08,0,0,0,0,0-.55.32-.15.09-.49.32-.11.07-.48.34-.08.06-.12.09-.21.15-.28.23-.08.06,0,0-.39.33-.1.09-.12.11-.16.14-.3.29,0,0s0,0-.05,0l-.21.21-.29.3h0l0,0-.24.25-.24.28,0,0h0v0l-.2.24-.23.29,0,0,0,0L44,52.6l-.21.28-.07.1,0,.07-.08.11-.19.29-.14.21,0,0,0,.05a2.61,2.61,0,0,0-.17.28l-.17.28,0,.05,0,0-.12.21-.16.29-.08.15,0,.06a.59.59,0,0,0,0,.08l-.15.3c0,.1-.1.19-.14.29v0h0c0,.1-.09.19-.13.28l-.13.31-.05.11,0,.07s0,.09,0,.13l-.12.31c0,.08-.07.17-.1.26v0h0v0c0,.11-.08.22-.11.33s-.08.22-.11.33l0,0,0,.07-.06.22c0,.11-.07.22-.1.33a.57.57,0,0,1,0,.14.3.3,0,0,1,0,.1L41,59a2.22,2.22,0,0,0-.09.37c0,.07,0,.13,0,.2a.19.19,0,0,1,0,.08s0,.06,0,.09,0,.25-.08.37,0,.17,0,.26,0,.06,0,.09v.09c0,.14,0,.29-.07.43a1.49,1.49,0,0,1,0,.21s0,.07,0,.1,0,.09,0,.13,0,.29,0,.44,0,.1,0,.15v.14c0,.06,0,.12,0,.18s0,.32,0,.48v.07a.34.34,0,0,1,0,.1v.3c0,.16,0,.32,0,.48V64s0,.08,0,.12v.21s0,.1,0,.16l0,.41c0,.06,0,.11,0,.17s0,.3.05.45,0,.07,0,.11,0,.32.07.48v0l.15.8a1.16,1.16,0,0,1,0,.18l.18.7s0,.05,0,.07v0l.18.59a.88.88,0,0,1,.05.15,1.59,1.59,0,0,1,.07.2c.08.23.17.46.26.68,0,0,0,0,0,0h0c.09.24.2.47.31.71a1.3,1.3,0,0,0,.08.17c.11.23.22.46.34.69h0l.18.33.09.15h0l.25.41,0,.06h0c.1.16.21.31.31.46l.32.45h0Z"></path><path class="a54d3f61-454f-4f3f-b7ed-be3559c6ca99 pUaVWDDl_2" d="M88.41,42.53h.1l.24-.05h.1l.32-.09h0l.28-.1,0,0,0,0,.24-.1.07,0a2.64,2.64,0,0,0,.29-.15h0c.14-.07.27-.16.4-.24l.1-.07.13-.08.14-.11.11-.09h0l.14-.12.13-.12.1-.1h0l.09-.08.1-.1.09-.11.09-.1h0l.07-.09a.39.39,0,0,0,.08-.1.39.39,0,0,0,.08-.1.36.36,0,0,0,.07-.1l0,0h0l0,0,.07-.1a.36.36,0,0,1,.07-.1l.06-.1.06-.1v0h0l0-.07a.31.31,0,0,1,.05-.1.54.54,0,0,0,0-.11l.06-.1a.47.47,0,0,1,0-.1h0a1,1,0,0,0,0-.1s0-.07.05-.1,0-.07,0-.11l0-.11,0-.1h0a.49.49,0,0,1,0-.11l0-.12v0h0a.19.19,0,0,1,0-.08l0-.12,0,0V38l0-.13s0,0,0-.07v-.06a.69.69,0,0,1,0-.13l0-.09v-.06a.77.77,0,0,1,0-.15.17.17,0,0,1,0-.07v-.08s0-.1,0-.16v-.16a.86.86,0,0,1,0-.16v-.5c0-.05,0-.1,0-.14s0-.09,0-.13a2.48,2.48,0,0,0,0-.27s0-.06,0-.09v0l-.06-.33a.19.19,0,0,1,0-.08l-.06-.21s0,0,0,0a0,0,0,0,1,0,0l0-.08c0-.07,0-.14-.07-.21s0-.09-.05-.13l0-.09a.37.37,0,0,1-.05-.11l-.06-.11a1.51,1.51,0,0,0-.11-.22.2.2,0,0,0,0-.08v0a1,1,0,0,0-.1-.17.41.41,0,0,0,0-.09v0h0l0-.05-.11-.16,0-.05,0,0-.05-.06-.09-.11L92.09,33l0,0v0a.94.94,0,0,1-.1-.1l-.1-.11h0l0,0-.06-.06-.09-.09-.09-.08h0l-.08-.07-.09-.08-.09-.07h0l-.09-.07-.1-.07L91,32h0L91,32l-.09-.06-.09-.05,0,0h0l0,0-.08,0-.09,0-.08,0-7.24-3.52.31.16h0l.29.18h0a2.83,2.83,0,0,1,.28.2h0l.26.23h0l.25.24h0c.08.08.15.17.23.26h0l.2.25,0,0,.18.26a.05.05,0,0,0,0,0,2.54,2.54,0,0,1,.16.28l.05.08c0,.08.07.15.1.22l.06.12c0,.06,0,.13.08.2s0,.08,0,.13a1.72,1.72,0,0,1,.07.21.76.76,0,0,1,0,.11,2.86,2.86,0,0,1,.07.28l0,.07c0,.11,0,.23.07.35a.28.28,0,0,1,0,.09,2.51,2.51,0,0,1,0,.27s0,.09,0,.14,0,.2,0,.3v.32a2.18,2.18,0,0,1,0,.25v.05l0,.25v0a2.34,2.34,0,0,1,0,.26v0c0,.08,0,.17,0,.25v0l-.06.25v0c0,.08,0,.16-.07.24v0l-.09.26h0a6.43,6.43,0,0,1-.48,1h0a4.66,4.66,0,0,1-.3.47h0c-.1.15-.22.29-.34.44h0c-.12.14-.24.27-.37.4h0a4.59,4.59,0,0,1-.41.36h0l-.38.29-.11.07a4.23,4.23,0,0,1-.42.25l-.29.15-.08,0-.24.1-.09,0L82,39l0,0-.33.09-.09,0-.26.05h-.1l-.34,0a5.51,5.51,0,0,1-.7,0c-.23,0-.46,0-.68-.07S79,39,78.78,39a5.7,5.7,0,0,1-.62-.24l7.3,3.39a6.25,6.25,0,0,0,.6.24,4.94,4.94,0,0,0,.64.15,5.1,5.1,0,0,0,.67.08,5.51,5.51,0,0,0,.7,0Z"></path><path class="bc2780c3-8d77-47bd-84a3-80fcc817531a pUaVWDDl_3" d="M57,90.19c.76.18,1.53.33,2.32.44a21.36,21.36,0,0,0,2.41.19,22.78,22.78,0,0,0,2.47-.07l.75-.07.22,0,.56-.07.21,0,.73-.13h.07l.67-.14.08,0,.12,0,.56-.14.19,0,.71-.21.11,0,.59-.19.21-.07.54-.19.12,0,0,0,.68-.27.14-.06.54-.23.21-.1.51-.25L73,88.3l.58-.3.06,0,0,0,.13-.07q.24-.12.48-.27l.2-.11.51-.31.12-.08.61-.39.17-.12.44-.3.11-.08.08-.06L77,85.8l.08-.06,0,0,.56-.44,0,0,.1-.08.41-.35.09-.07.09-.08.39-.36.1-.09,0,0,.27-.25.15-.15,0,0c.08-.09.17-.17.26-.26l.15-.16,0,0,.28-.28.14-.15h0l.31-.33a.69.69,0,0,1,.11-.13h0l.09-.1L81,82l0,0,0,0a1.71,1.71,0,0,1,.11-.14l.21-.25,0-.05.15-.19.17-.21,0-.06.16-.21.14-.18.06-.08.15-.2.11-.15a1,1,0,0,1,.08-.11l.15-.21.08-.12.11-.16.13-.19.06-.09.15-.22.11-.18,0,0c.09-.14.18-.28.26-.42l0,0,.26-.43,0-.05a1.4,1.4,0,0,0,.1-.16l.13-.24.06-.1a1.62,1.62,0,0,0,.1-.18l.09-.17.09-.16.1-.19,0-.1c0-.08.08-.17.13-.25l.08-.16,0,0c.07-.15.15-.3.22-.46h0a.54.54,0,0,0,0-.11l.16-.34,0-.07.08-.19.1-.21a.78.78,0,0,1,0-.14,1.54,1.54,0,0,0,.08-.19l.06-.15a1.67,1.67,0,0,0,.08-.2,1.8,1.8,0,0,0,.08-.21l0-.07.11-.29a.88.88,0,0,0,0-.15v0l.18-.5v0s0-.09,0-.13.08-.24.11-.37l0-.07c0-.06,0-.12.05-.18a2.58,2.58,0,0,0,.08-.26s0-.08,0-.13l.06-.21a1.21,1.21,0,0,1,0-.18l0-.16c0-.09,0-.18.07-.27s0-.09,0-.14,0-.12,0-.18l.06-.27,0-.12c0-.07,0-.15,0-.22l.06-.25a.43.43,0,0,1,0-.11c0-.08,0-.16.05-.25s0-.17,0-.25,0,0,0-.08l0-.2c0-.13.05-.25.07-.38s0,0,0-.08l0-.2c0-.13,0-.25.05-.38s0-.06,0-.1a1.11,1.11,0,0,1,0-.17c0-.13,0-.26,0-.39s0-.08,0-.11,0-.11,0-.17,0-.25,0-.38,0-.09,0-.14,0-.09,0-.14l0-.41a.91.91,0,0,1,0-.17v-.12c0-.14,0-.28,0-.42a1.34,1.34,0,0,1,0-.2v-.77c0-.23,0-.47,0-.7a1.21,1.21,0,0,0,0-.19V63c0-.06,0-.12,0-.18s0-.13,0-.19,0-.06,0-.09a2.64,2.64,0,0,0,0-.28c0-.18,0-.37,0-.55l0-.31-.06-.53c0-.09,0-.19,0-.28L87.28,60l0-.19v0c0-.26-.09-.51-.14-.76a1.62,1.62,0,0,0,0-.19c0-.2-.08-.39-.13-.59L86.87,58c0-.18-.09-.35-.13-.53a2,2,0,0,1-.07-.26.84.84,0,0,1,0-.17l-.12-.38c0-.05,0-.1,0-.15s0,0,0,0c-.08-.26-.16-.51-.25-.76v0l-.27-.7a1.43,1.43,0,0,0-.08-.22c0-.11-.09-.22-.13-.33l-.08-.18-.1-.24c-.07-.16-.14-.32-.22-.48a2.4,2.4,0,0,0-.11-.23c-.08-.18-.17-.37-.26-.55a.61.61,0,0,1-.07-.14L84.54,52l0,0-.28-.5-.12-.2v0l-.42-.67,0,0h0l-.47-.69h0l-.13-.17-.36-.49,0,0c-.13-.18-.26-.34-.39-.51l0,0a1.71,1.71,0,0,0-.11-.14c-.09-.11-.18-.21-.26-.32l-.1-.11-.17-.19-.16-.18-.18-.2-.16-.17-.09-.1-.39-.4h0l0,0c-.12-.12-.24-.24-.37-.35l-.12-.12L80,46.11,79.82,46l-.33-.29,0,0h0l0,0L79,45.29l-.13-.11-.12-.1L78.62,45l-.4-.31h0l0,0-.37-.27-.18-.13-.12-.08-.09-.07-.4-.26-.08-.06-.1-.06-.23-.14-.34-.21,0,0h0l-.41-.24-.18-.1-.13-.07-.1-.06L75,42.63l-.08-.05-.11,0-.23-.11-.1-.05-.11,0-.1,0-.11-.05L66.7,38.84l.66.31.11.05.62.33.11.06.62.36.05,0,.57.36.12.07.57.39.12.08.55.4,0,0,.56.44.12.09.55.46,0,0,.5.44.13.13.5.48,0,0,.49.51.18.19.33.37.17.19.36.43.12.15.45.58c.12.15.24.32.35.48l.15.2.47.69a.86.86,0,0,0,.1.16l.35.56.15.27.27.47.36.67.06.12c.1.19.19.38.28.58s.07.15.11.22l.21.49a2.72,2.72,0,0,1,.11.25l.21.5.09.23c.08.23.17.46.25.7l0,0c.08.25.17.5.25.75l.06.22c.06.18.11.37.16.55a2.68,2.68,0,0,1,.07.27c0,.17.1.35.14.53l.06.26c0,.2.09.41.14.61a1.16,1.16,0,0,0,0,.18c.05.27.1.54.14.81l0,.16c0,.22.07.43.09.65a2.36,2.36,0,0,1,0,.28l.06.56,0,.29c0,.19,0,.38.05.58a2.28,2.28,0,0,0,0,.26c0,.28,0,.56,0,.84s0,.47,0,.7,0,.19,0,.28v.43c0,.1,0,.2,0,.29s0,.28,0,.42,0,.2,0,.3l0,.4c0,.1,0,.21,0,.31s0,.24,0,.36l0,.3c0,.13,0,.25,0,.38s0,.19,0,.29,0,.25,0,.38,0,.19,0,.28l-.06.36c0,.11,0,.21,0,.31s0,.16-.05.25,0,.23-.07.35l-.06.27c0,.12,0,.23-.07.34s-.05.18-.07.27,0,.22-.08.33,0,.18-.07.27-.06.23-.1.34l-.06.23c0,.12-.07.24-.11.36l-.06.22c0,.14-.09.28-.14.42a.74.74,0,0,0,0,.14c-.07.18-.13.37-.2.55a1,1,0,0,0,0,.16c0,.13-.1.27-.16.4a1.46,1.46,0,0,1-.07.19l-.14.36-.09.2L78,72a1.54,1.54,0,0,1-.08.19c-.06.15-.13.29-.2.44a.36.36,0,0,1,0,.09c-.08.17-.16.35-.25.52l-.07.14-.19.38-.1.17-.18.35-.1.17a4,4,0,0,1-.2.35,1,1,0,0,1-.1.17c-.09.17-.19.33-.29.49h0l-.3.49-.12.18-.2.31c0,.06-.09.13-.14.2s-.13.19-.2.29l-.14.19c-.07.1-.14.19-.2.29l-.15.19c-.06.09-.13.17-.2.26l-.17.22a2.43,2.43,0,0,1-.2.25l-.17.22-.2.24-.19.22-.22.26-.17.19-.09.09c-.11.13-.22.25-.34.37l-.16.18-.28.28-.17.18-.27.27a1.8,1.8,0,0,0-.2.19l-.26.24-.16.15c-.13.12-.26.24-.4.35l-.17.15-.42.36-.14.11-.56.45-.13.09-.45.34-.19.13c-.15.12-.31.22-.47.33l-.15.11-.63.4-.09.06-.55.33-.18.11-.53.3-.13.07-.66.34-.14.07-.54.26-.2.09-.55.24-.14.06-.69.28-.17.06-.54.19-.22.08-.58.19-.13,0-.71.2-.21.05-.54.14-.22,0-.65.13-.09,0-.74.13-.21,0-.57.08-.22,0-.76.07a23.26,23.26,0,0,1-2.5.07,21.71,21.71,0,0,1-2.43-.19,23.19,23.19,0,0,1-2.35-.45,21,21,0,0,1-2.25-.69l7.66,2.79A20.6,20.6,0,0,0,57,90.19Z"></path><path class="aa54ac5d-3f26-4da7-b635-4eda863f4388 pUaVWDDl_4" d="M110.47,40.48a34.74,34.74,0,0,0-.42-3.55c0-.06,0-.12,0-.18h0c0-.24-.09-.48-.14-.72l0-.19c-.06-.28-.11-.56-.18-.84v-.06c-.13-.6-.28-1.19-.44-1.77-.08-.29-.17-.57-.25-.85h0c-.06-.22-.14-.44-.21-.66l-.06-.2c-.06-.18-.13-.36-.19-.53s-.08-.21-.11-.31l-.21-.54c0-.09-.07-.19-.11-.29h0c-.07-.15-.13-.31-.2-.46l-.15-.35-.18-.4c-.06-.13-.12-.27-.19-.4s-.12-.26-.19-.39-.13-.27-.2-.4-.12-.24-.19-.36l-.21-.4h0c-.15-.27-.3-.53-.46-.78v0l-.13-.2c-.11-.18-.22-.37-.34-.54l0-.06-.15-.23-.31-.46-.07-.09a1.77,1.77,0,0,0-.16-.22l-.31-.42-.09-.12h0l-.24-.3-.13-.17-.05-.06c-.14-.18-.28-.35-.43-.52l0,0-.09-.1-.34-.38-.09-.1-.18-.19-.19-.21-.22-.22-.07-.07a.08.08,0,0,1,0,0l-.07-.07-.41-.39-.06-.06-.12-.1-.23-.22-.26-.22-.11-.1-.06-.05-.39-.32-.12-.1-.12-.09-.16-.13-.41-.31,0,0-.07-.06-.31-.22-.3-.21-.07-.05,0,0-.41-.27-.22-.13-.1-.07-.1-.06-.43-.25-.16-.1,0,0,0,0-.24-.13-.24-.14L96.83,17l-2.48-1.28-1.1-.57-3.57-1.85q.39.19.78.42h0c.24.14.48.28.71.43l.11.06.66.43.06,0,.63.45.07,0,.61.47.12.09.58.49.12.1.48.43.13.12.54.52a1.14,1.14,0,0,1,.11.11,5.77,5.77,0,0,1,.42.44l.17.18c.15.16.3.32.44.49a.94.94,0,0,1,.1.1c.17.2.34.4.5.61,0,0,.09.11.14.17l.32.42c.11.15.22.29.32.44l.22.3c.11.16.22.31.32.47l.2.29c.12.18.23.36.34.55l.15.23c.15.26.31.52.46.79l.23.44.18.34.21.41c.06.13.13.25.19.38s.11.26.17.38.13.29.2.43.09.23.14.34.14.32.2.49.08.2.12.3l.21.54.12.33.18.52c0,.1.06.19.1.29l.18.57a.56.56,0,0,0,0,.12l.22.76a35.83,35.83,0,0,1,.8,3.62c0,.11,0,.22,0,.33s.07.4.1.6.07.51.1.77c0,.06,0,.11,0,.17,0,.3.07.61.1.91v0c0,.32.06.63.08.95l1.34,42.33c0,.24,0,.48,0,.72,0,.08,0,.16,0,.24s0,.33,0,.49,0,.15,0,.23,0,.33,0,.5,0,.1,0,.15,0,.38,0,.57v.07c0,.27,0,.55-.07.82l0,.25c0,.25,0,.49-.08.74a.77.77,0,0,0,0,.15c0,.3-.08.59-.13.88l0,.21c0,.23-.07.46-.12.69,0,.08,0,.17,0,.25l-.09.46c0,.09,0,.18,0,.28s-.08.34-.11.51,0,.15,0,.22c0,.24-.11.47-.17.71l0,.07c-.05.22-.11.44-.17.67l-.1.37c0,.1-.06.19-.08.29s-.08.24-.11.36-.06.2-.1.31l-.12.36-.09.28-.12.37c0,.1-.07.2-.11.29s-.14.41-.22.62l-.06.14-.18.48-.09.19c0,.14-.11.28-.17.41l-.09.23-.18.38-.09.21-.18.39-.1.19-.21.43a1,1,0,0,0-.07.15l-.3.57,0,0-.29.53-.1.17-.22.38-.12.19-.22.37-.12.18-.27.42-.07.11-.36.52-.1.14-.27.38-.13.17-.25.33-.16.21-.24.3-.16.2-.29.35-.12.14q-.21.26-.42.48l-.18.2-.28.3-.19.2-.29.29c-.06.07-.13.13-.2.2l-.28.27-.22.21-.26.24-.48.43-.11.09-.59.5-.16.12-.45.36-.24.18-.39.29-.25.18-.48.33-.22.14c-.23.16-.46.31-.7.45l-.12.08-.61.36-.25.14-.51.28-.26.14-.62.32-.16.07-.79.37-.21.1-.61.26-.27.11-.62.24-.23.09-.87.31h0l-.84.27-.26.08-.66.19-.29.07-.74.19-.19,0-1,.21-.23,0-.75.15-.31,0-.72.11-.3,0-1,.13-39.94,3.05c-1,0-1.92,0-2.83,0s-1.81-.11-2.67-.22-1.7-.25-2.51-.42-1.6-.38-2.36-.62L35,115.57c.75.23,1.53.44,2.33.61s1.63.31,2.49.42,1.73.18,2.64.22,1.84,0,2.8,0l39.51-3,1-.13.31,0,.69-.11.33-.06.72-.13.24,0c.31-.07.62-.13.93-.21h0l.16,0,.72-.18.29-.08.65-.18.26-.08.83-.26,0,0c.29-.09.58-.2.86-.3l.07,0,.16-.06.62-.24.26-.1.61-.27.2-.08.79-.37.13-.07.64-.32.1,0,.14-.08.26-.14.26-.15.24-.13.61-.37.12-.06.69-.45.19-.13.51-.34.11-.08.11-.08.41-.3.15-.11.08-.06.44-.35.13-.1,0,0,.59-.49h0l.08-.08.47-.41.06-.06.22-.21a1.8,1.8,0,0,0,.2-.19l.06,0a2.28,2.28,0,0,1,.22-.22l.2-.21,0,0,.23-.24.2-.21,0,0,.24-.26.19-.21h0l.39-.43,0,0,.12-.14.23-.28.06-.07.14-.18.17-.2.09-.12.07-.09a1,1,0,0,0,.08-.11.76.76,0,0,0,.11-.14l.13-.18.14-.18.06-.09.2-.27.11-.15,0,0c.1-.15.21-.3.31-.46h0a1.3,1.3,0,0,1,.1-.15l.19-.3.06-.09.11-.17.13-.21.09-.15.12-.2.07-.12c0-.08.1-.16.14-.24l.1-.18,0-.07.25-.44,0,0h0c.09-.17.18-.34.26-.51l0,0,.09-.19a2.44,2.44,0,0,0,.14-.28.93.93,0,0,0,.05-.1c0-.07.07-.15.11-.22l.09-.19c0-.06.05-.11.07-.17a1.47,1.47,0,0,0,.1-.22.83.83,0,0,0,.07-.13l.1-.24c0-.08.07-.15.1-.23l0-.09.12-.3.09-.21,0-.06.17-.42a.61.61,0,0,1,0-.12v0l.21-.57v0c0-.06,0-.11,0-.16l.16-.46v0a1.42,1.42,0,0,1,.07-.22l.13-.4v0c0-.07,0-.14.07-.21s.08-.26.11-.39,0,0,0,0a2.17,2.17,0,0,0,.07-.24c0-.12.07-.25.11-.37a.06.06,0,0,1,0,0c0-.18.09-.36.14-.54s0-.11,0-.17l0-.14c0-.19.1-.38.14-.57v0c0-.07,0-.14,0-.21s.07-.32.1-.47l0-.08a1.7,1.7,0,0,0,0-.22l.09-.43a.43.43,0,0,1,0-.11s0-.1,0-.15c0-.22.08-.44.11-.66l0-.15a.19.19,0,0,1,0-.08l.12-.86v0s0-.09,0-.13c0-.24.06-.48.08-.72,0,0,0-.09,0-.13a.49.49,0,0,1,0-.12c0-.26.05-.52.07-.78a.22.22,0,0,1,0-.08v0l0-.42a2.64,2.64,0,0,1,0-.28v0c0-.15,0-.31,0-.47s0-.15,0-.23h0c0-.15,0-.3,0-.46a2.09,2.09,0,0,1,0-.25h0c0-.24,0-.47,0-.71Z"></path><path class="fbb9333f-884f-4f9a-850d-476d413c0f39 pUaVWDDl_5" d="M85.65,30.7A5.34,5.34,0,0,0,84.41,29a5.09,5.09,0,0,0-1.79-1.07,5,5,0,0,0-2.16-.24,5.57,5.57,0,0,0-2.13.65,6.08,6.08,0,0,0-1.71,1.4,6.5,6.5,0,0,0-1.13,1.94,6.23,6.23,0,0,0-.36,2.28,5.63,5.63,0,0,0,.49,2.2,5.35,5.35,0,0,0,1.23,1.72,5,5,0,0,0,1.79,1.07,5.17,5.17,0,0,0,2.16.26,5.57,5.57,0,0,0,2.13-.65,6.15,6.15,0,0,0,1.72-1.4,6.3,6.3,0,0,0,1.5-4.24A5.67,5.67,0,0,0,85.65,30.7Z"></path><path class="fbb9333f-884f-4f9a-850d-476d413c0f39 pUaVWDDl_6" d="M103.45,37a36,36,0,0,0-2.36-10.7,26.53,26.53,0,0,0-5.55-8.69A23.22,23.22,0,0,0,86.7,12a30.59,30.59,0,0,0-12.21-1.54L35,14.4A32.58,32.58,0,0,0,23.2,18.29,27.52,27.52,0,0,0,15,25.49,31,31,0,0,0,10.13,35a38.45,38.45,0,0,0-1.7,10.85l.9,41.45a36.55,36.55,0,0,0,2.19,10.63,26.55,26.55,0,0,0,5.3,8.75,22.92,22.92,0,0,0,8.59,5.84,29.8,29.8,0,0,0,12,1.85l39.94-3.05a32.89,32.89,0,0,0,12.18-3.74,27.58,27.58,0,0,0,8.52-7.28,30.64,30.64,0,0,0,5-9.76,38.44,38.44,0,0,0,1.69-11.17ZM95.74,84.45a23.08,23.08,0,0,1-2.58,8.26,16.82,16.82,0,0,1-6.54,6.51,29.09,29.09,0,0,1-12.18,3.31l-17.35,1.36-17.21,1.35c-5.1.4-9-.15-12.05-1.38a14,14,0,0,1-6.67-5.37,20.81,20.81,0,0,1-2.9-7.68,51.29,51.29,0,0,1-.74-8.3l-.38-16.7-.38-16.64a52.44,52.44,0,0,1,.36-8.34,23.06,23.06,0,0,1,2.53-8.06A16.88,16.88,0,0,1,26,26.34a28.68,28.68,0,0,1,11.84-3.43l17.06-1.66,17.19-1.67c5.14-.5,9.12,0,12.21,1.12A14.18,14.18,0,0,1,91.14,26a20.44,20.44,0,0,1,3,7.67A51,51,0,0,1,95,42l.52,16.93.52,17A53.74,53.74,0,0,1,95.74,84.45Z"></path><path class="fbb9333f-884f-4f9a-850d-476d413c0f39 pUaVWDDl_7" d="M78.1,50.45a23.62,23.62,0,0,0-5.45-7.64,22.3,22.3,0,0,0-7.88-4.75A22.55,22.55,0,0,0,55.3,37,24.2,24.2,0,0,0,46,39.82,26.47,26.47,0,0,0,38.49,46a27.94,27.94,0,0,0-4.93,8.52,27.36,27.36,0,0,0-1.64,10A25.54,25.54,0,0,0,34,74.23a23.58,23.58,0,0,0,5.35,7.67A22.24,22.24,0,0,0,56.66,88a24.08,24.08,0,0,0,9.41-2.79A26.6,26.6,0,0,0,73.68,79a27.93,27.93,0,0,0,5-8.61,27.33,27.33,0,0,0,1.63-10.16A25.54,25.54,0,0,0,78.1,50.45Zm-7.5,17.1a18,18,0,0,1-3.23,5.55,17,17,0,0,1-4.89,4,15.58,15.58,0,0,1-6.06,1.81,14.42,14.42,0,0,1-6.11-.79,14.21,14.21,0,0,1-5-3.11A15.16,15.16,0,0,1,41.8,70a16.48,16.48,0,0,1-1.37-6.28,17.79,17.79,0,0,1,1-6.49,18.23,18.23,0,0,1,3.19-5.51,17.12,17.12,0,0,1,4.85-4,15.6,15.6,0,0,1,6-1.84,14.3,14.3,0,0,1,11.19,3.81,15.19,15.19,0,0,1,3.5,4.93A16.34,16.34,0,0,1,71.65,61,17.58,17.58,0,0,1,70.6,67.55Z"></path></g><style data-made-with="vivus-instant">.pUaVWDDl_0{stroke-dasharray:309 311;stroke-dashoffset:310;animation:pUaVWDDl_draw_0 9600ms ease-out 0ms infinite,pUaVWDDl_fade 9600ms linear 0ms infinite;}.pUaVWDDl_1{stroke-dasharray:118 120;stroke-dashoffset:119;animation:pUaVWDDl_draw_1 9600ms ease-out 0ms infinite,pUaVWDDl_fade 9600ms linear 0ms infinite;}.pUaVWDDl_2{stroke-dasharray:51 53;stroke-dashoffset:52;animation:pUaVWDDl_draw_2 9600ms ease-out 0ms infinite,pUaVWDDl_fade 9600ms linear 0ms infinite;}.pUaVWDDl_3{stroke-dasharray:170 172;stroke-dashoffset:171;animation:pUaVWDDl_draw_3 9600ms ease-out 0ms infinite,pUaVWDDl_fade 9600ms linear 0ms infinite;}.pUaVWDDl_4{stroke-dasharray:351 353;stroke-dashoffset:352;animation:pUaVWDDl_draw_4 9600ms ease-out 0ms infinite,pUaVWDDl_fade 9600ms linear 0ms infinite;}.pUaVWDDl_5{stroke-dasharray:36 38;stroke-dashoffset:37;animation:pUaVWDDl_draw_5 9600ms ease-out 0ms infinite,pUaVWDDl_fade 9600ms linear 0ms infinite;}.pUaVWDDl_6{stroke-dasharray:634 636;stroke-dashoffset:635;animation:pUaVWDDl_draw_6 9600ms ease-out 0ms infinite,pUaVWDDl_fade 9600ms linear 0ms infinite;}.pUaVWDDl_7{stroke-dasharray:258 260;stroke-dashoffset:259;animation:pUaVWDDl_draw_7 9600ms ease-out 0ms infinite,pUaVWDDl_fade 9600ms linear 0ms infinite;}@keyframes pUaVWDDl_draw{100%{stroke-dashoffset:0;}}@keyframes pUaVWDDl_fade{0%{stroke-opacity:1;}91.66666666666667%{stroke-opacity:1;}100%{stroke-opacity:0;}}@keyframes pUaVWDDl_draw_0{8.333333333333332%{stroke-dashoffset: 310}39.58333333333333%{ stroke-dashoffset: 0;}100%{ stroke-dashoffset: 0;}}@keyframes pUaVWDDl_draw_1{8.333333333333332%{stroke-dashoffset: 119}39.58333333333333%{ stroke-dashoffset: 0;}100%{ stroke-dashoffset: 0;}}@keyframes pUaVWDDl_draw_2{8.333333333333332%{stroke-dashoffset: 52}39.58333333333333%{ stroke-dashoffset: 0;}100%{ stroke-dashoffset: 0;}}@keyframes pUaVWDDl_draw_3{8.333333333333332%{stroke-dashoffset: 171}39.58333333333333%{ stroke-dashoffset: 0;}100%{ stroke-dashoffset: 0;}}@keyframes pUaVWDDl_draw_4{8.333333333333332%{stroke-dashoffset: 352}39.58333333333333%{ stroke-dashoffset: 0;}100%{ stroke-dashoffset: 0;}}@keyframes pUaVWDDl_draw_5{8.333333333333332%{stroke-dashoffset: 37}39.58333333333333%{ stroke-dashoffset: 0;}100%{ stroke-dashoffset: 0;}}@keyframes pUaVWDDl_draw_6{8.333333333333332%{stroke-dashoffset: 635}39.58333333333333%{ stroke-dashoffset: 0;}100%{ stroke-dashoffset: 0;}}@keyframes pUaVWDDl_draw_7{8.333333333333332%{stroke-dashoffset: 259}39.58333333333333%{ stroke-dashoffset: 0;}100%{ stroke-dashoffset: 0;}}</style></svg>