<svg xmlns="http://www.w3.org/2000/svg" viewBox="0 0 23.57 23.57"><defs><style>.f65df003-5e62-4d26-93e4-dbbdf349415c{fill:#434244;}</style></defs><g id="e3848903-85d6-401c-9228-436ce9d26d32" data-name="Layer 2"><path class="f65df003-5e62-4d26-93e4-dbbdf349415c" d="M11.79,3C14.66,3,15,3,16.14,3a5.69,5.69,0,0,1,2,.37,3.32,3.32,0,0,1,1.24.8,3.42,3.42,0,0,1,.81,1.24,6.23,6.23,0,0,1,.37,2c.05,1.13.06,1.47.06,4.35s0,3.21-.06,4.35a6.22,6.22,0,0,1-.37,2,3.61,3.61,0,0,1-2.05,2.05,6.22,6.22,0,0,1-2,.37c-1.14.05-1.48.06-4.35.06s-3.22,0-4.35-.06a6.23,6.23,0,0,1-2-.37,3.42,3.42,0,0,1-1.24-.81,3.32,3.32,0,0,1-.8-1.24,5.69,5.69,0,0,1-.37-2C3,15,3,14.66,3,11.79S3,8.57,3,7.44a5.71,5.71,0,0,1,.37-2,3.5,3.5,0,0,1,2-2,5.71,5.71,0,0,1,2-.37C8.57,3,8.91,3,11.79,3m0-1.94C8.86,1,8.5,1,7.35,1.09a7.68,7.68,0,0,0-2.61.5A5.19,5.19,0,0,0,2.83,2.83,5.19,5.19,0,0,0,1.59,4.74a7.68,7.68,0,0,0-.5,2.61C1,8.5,1,8.86,1,11.79s0,3.29.07,4.43a7.8,7.8,0,0,0,.5,2.62A5.49,5.49,0,0,0,4.74,22a7.68,7.68,0,0,0,2.61.5c1.15.06,1.51.07,4.44.07s3.29,0,4.43-.07a7.8,7.8,0,0,0,2.62-.5A5.52,5.52,0,0,0,22,18.84a7.8,7.8,0,0,0,.5-2.62c.06-1.14.07-1.51.07-4.43s0-3.29-.07-4.44A7.68,7.68,0,0,0,22,4.74a5.49,5.49,0,0,0-3.14-3.15,7.8,7.8,0,0,0-2.62-.5C15.08,1,14.71,1,11.79,1"/><path class="f65df003-5e62-4d26-93e4-dbbdf349415c" d="M11.79,6.26a5.53,5.53,0,1,0,5.52,5.53,5.52,5.52,0,0,0-5.52-5.53m0,9.11a3.59,3.59,0,1,1,3.58-3.58,3.58,3.58,0,0,1-3.58,3.58"/><path class="f65df003-5e62-4d26-93e4-dbbdf349415c" d="M18.82,6a1.29,1.29,0,1,1-1.29-1.29A1.29,1.29,0,0,1,18.82,6"/></g></svg>