<svg xmlns="http://www.w3.org/2000/svg" xmlns:xlink="http://www.w3.org/1999/xlink" viewBox="0 0 49.48 151.04"><defs><style>.a054a4ed-5b42-4d1c-a0bd-27c8a13b574b{fill:none;}.aef49203-d88c-45d8-9851-432d249a3d0f{fill:url(#a996c4d4-da63-43a7-a798-4fbae9265fb6);}.a46b9158-58e9-4fca-a4bf-4a792ba19b40{clip-path:url(#a100bc0c-7522-436a-90ab-7fb51694faac);}.e0c60855-9f57-401d-9d16-10d89b6f9df7{fill:#29cd8f;}.beaa5dfb-d1ad-459f-84f6-806370cceab9{fill:#74e0c1;}.a08e2a18-74d4-4312-96c6-825a6f9440ec{fill:#0878b4;}.abdc1d45-f3ea-4f7a-995f-a1f82772f1b9{fill:#1487a7;}.e0f6caf1-640d-4aca-badc-dd4d2438b335{fill:#434244;}.b4d42312-a2d0-404f-9669-6fdbbd5e3547{fill:#848484;}</style><linearGradient id="a996c4d4-da63-43a7-a798-4fbae9265fb6" x1="13524.81" y1="-684.92" x2="13524.81" y2="-725.86" gradientTransform="translate(729.59 13562.88) rotate(-90)" gradientUnits="userSpaceOnUse"><stop offset="0.15" stop-color="#0878b4"/><stop offset="0.26" stop-color="#1190aa"/><stop offset="0.49" stop-color="#29cd8f"/><stop offset="1" stop-color="#29cd8f"/></linearGradient><clipPath id="a100bc0c-7522-436a-90ab-7fb51694faac"><path class="a054a4ed-5b42-4d1c-a0bd-27c8a13b574b" d="M3.48,40.66,24,20.3,44.43,40.66c0-10.15-.37-12.21-5.47-17.42C35.76,20,24,8.38,24,8.38S10.13,22,7.72,24.47C3.6,28.66,3.48,28.8,3.48,34.4Z"/></clipPath></defs><g id="b35c2e3e-9530-410f-9e07-07795b088586" data-name="Layer 2"><path class="aef49203-d88c-45d8-9851-432d249a3d0f" d="M24.2,24.71S36,36.31,39.2,39.57c5.11,5.21,5.47,4.67,5.47,11.87L24.2,31.08,3.73,51.44v-.72c0-5.59.12-5.74,4.24-9.93C10.38,38.33,24.2,24.71,24.2,24.71"/><g class="a46b9158-58e9-4fca-a4bf-4a792ba19b40"><rect class="e0c60855-9f57-401d-9d16-10d89b6f9df7" x="13.22" y="4.38" width="10.73" height="26.9"/><rect class="beaa5dfb-d1ad-459f-84f6-806370cceab9" x="2.64" y="-5.28" width="10.73" height="50.29"/><rect class="a08e2a18-74d4-4312-96c6-825a6f9440ec" x="33.99" y="-5.28" width="10.73" height="50.29"/><rect class="abdc1d45-f3ea-4f7a-995f-a1f82772f1b9" x="23.87" y="6.04" width="10.3" height="38.3"/></g><path class="e0f6caf1-640d-4aca-badc-dd4d2438b335" d="M4.72,147.83v-5.72h27v5.72Z"/><path class="e0f6caf1-640d-4aca-badc-dd4d2438b335" d="M9,130.42v10.21H4.72V114.5H9v10.2H31.74v5.72Z"/><path class="e0f6caf1-640d-4aca-badc-dd4d2438b335" d="M5.88,93.36A10,10,0,0,1,9.2,88.81a8.47,8.47,0,0,1,5.13-1.58,8.48,8.48,0,0,1,5.11,1.58,9.89,9.89,0,0,1,3.34,4.55,19.22,19.22,0,0,1,1.16,7v7h7.8V113h-27V100.34A19.22,19.22,0,0,1,5.88,93.36Zm12.43,1.57a4.62,4.62,0,0,0-4-1.94,4.62,4.62,0,0,0-4,1.94A9.72,9.72,0,0,0,9,100.6v6.69H19.69V100.6A9.72,9.72,0,0,0,18.31,94.93Z"/><path class="e0f6caf1-640d-4aca-badc-dd4d2438b335" d="M31.24,81.2a15.25,15.25,0,0,1-2.36,5.26l-3.9-2a16.22,16.22,0,0,0,2.14-4.64A18.86,18.86,0,0,0,28,74.32a10.71,10.71,0,0,0-1-5.13,2.87,2.87,0,0,0-2.55-1.69,2.33,2.33,0,0,0-1.91.94,7.08,7.08,0,0,0-1.18,2.4q-.42,1.45-1,4a51.38,51.38,0,0,1-1.47,5.7,9.51,9.51,0,0,1-2.29,3.74A5.73,5.73,0,0,1,12.4,85.8a6.55,6.55,0,0,1-4.07-1.39,9.29,9.29,0,0,1-2.92-4.18,19,19,0,0,1-1.08-6.84A25.16,25.16,0,0,1,5,67.85a16.22,16.22,0,0,1,1.78-4.71L10.63,65A18.69,18.69,0,0,0,9,69.17a17.91,17.91,0,0,0-.54,4.27,9.87,9.87,0,0,0,1,5,3,3,0,0,0,2.66,1.65,2.29,2.29,0,0,0,1.89-.94,7.07,7.07,0,0,0,1.16-2.4q.42-1.45,1-4a47.78,47.78,0,0,1,1.45-5.63,9.7,9.7,0,0,1,2.3-3.76,5.6,5.6,0,0,1,4.16-1.56,6.54,6.54,0,0,1,4.06,1.38A9.38,9.38,0,0,1,31,67.45a19.27,19.27,0,0,1,1.08,6.87A26.59,26.59,0,0,1,31.24,81.2Z"/><path class="b4d42312-a2d0-404f-9669-6fdbbd5e3547" d="M38.74,138.49a2.8,2.8,0,0,1,2.08-.7h3.64v1.48H41a1.88,1.88,0,0,0-1.25.37,1.34,1.34,0,0,0-.42,1.06,1.54,1.54,0,0,0,.49,1.2,2,2,0,0,0,1.41.45h3.22v1.48H41a1.88,1.88,0,0,0-1.25.37,1.34,1.34,0,0,0-.42,1.06,1.54,1.54,0,0,0,.48,1.2,2,2,0,0,0,1.42.45h3.22v1.48H38.11V147h.81a2.34,2.34,0,0,1-.65-.89A3,3,0,0,1,38,144.9a2.84,2.84,0,0,1,.27-1.26,2.1,2.1,0,0,1,.79-.88,2.64,2.64,0,0,1-.78-1,3.34,3.34,0,0,1-.28-1.36A2.56,2.56,0,0,1,38.74,138.49Z"/><path class="b4d42312-a2d0-404f-9669-6fdbbd5e3547" d="M38.71,131.36a2.6,2.6,0,0,1,2-.75h3.72V132h-.78a1.74,1.74,0,0,1,.64.77,3.43,3.43,0,0,1,0,2.47,2,2,0,0,1-.68.82,1.8,1.8,0,0,1-2.35-.34,3.11,3.11,0,0,1-.52-2V132.1h-.09a1.3,1.3,0,0,0-1,.4,1.75,1.75,0,0,0-.35,1.18,3.48,3.48,0,0,0,.16,1,2.78,2.78,0,0,0,.47.87l-1.08.58a3.54,3.54,0,0,1-.59-1.2,5.46,5.46,0,0,1-.2-1.48A3.12,3.12,0,0,1,38.71,131.36Zm4.49,1.35a1.37,1.37,0,0,0-.73-.61h-.73v1.53c0,.86.28,1.28.84,1.28a.74.74,0,0,0,.64-.32,1.45,1.45,0,0,0,.24-.89A1.92,1.92,0,0,0,43.2,132.71Z"/><path class="b4d42312-a2d0-404f-9669-6fdbbd5e3547" d="M38,125.11h1.42a1.42,1.42,0,0,0,0,.34,1.8,1.8,0,0,0,.5,1.35,2,2,0,0,0,1.46.49h3.08v1.49H38.11v-1.42H39A2.47,2.47,0,0,1,38,125.11Z"/><path class="b4d42312-a2d0-404f-9669-6fdbbd5e3547" d="M41.74,121.32l1,1.11h1.68v1.48H35.64v-1.48H41l-2.85-3.08v-1.78l2.66,2.65,3.69-2.9v1.8Z"/><path class="b4d42312-a2d0-404f-9669-6fdbbd5e3547" d="M41.76,110.69v5a1.72,1.72,0,0,0,1.11-.69,2.25,2.25,0,0,0,.41-1.37,2.3,2.3,0,0,0-.69-1.72l.92-.8a2.81,2.81,0,0,1,.77,1.08,4.07,4.07,0,0,1,.26,1.48,3.9,3.9,0,0,1-.42,1.84A3,3,0,0,1,43,116.72a3.51,3.51,0,0,1-3.35,0,3,3,0,0,1-1.16-1.17,3.59,3.59,0,0,1,0-3.35,3.07,3.07,0,0,1,1.15-1.14,3.55,3.55,0,0,1,1.72-.4A4,4,0,0,1,41.76,110.69Zm-2.11,4.39a1.77,1.77,0,0,0,1.12.6v-3.6a1.74,1.74,0,0,0-1.54,1.79A1.8,1.8,0,0,0,39.65,115.08Z"/><path class="b4d42312-a2d0-404f-9669-6fdbbd5e3547" d="M44.11,105.43a1.7,1.7,0,0,1,.32.63,3,3,0,0,1,.11.79,2.22,2.22,0,0,1-.55,1.62,2.09,2.09,0,0,1-1.59.57h-3v1H38.16v-1H36.71v-1.49h1.45v-1.69h1.19v1.69h3a1,1,0,0,0,.7-.22.86.86,0,0,0,.25-.65,1.3,1.3,0,0,0-.27-.84Z"/><path class="b4d42312-a2d0-404f-9669-6fdbbd5e3547" d="M36.81,104.21a.83.83,0,0,1-.63.27.85.85,0,0,1-.64-.27,1,1,0,0,1-.25-.68,1,1,0,0,1,.24-.68.79.79,0,0,1,.61-.27.9.9,0,0,1,.66.27.91.91,0,0,1,.27.68A1,1,0,0,1,36.81,104.21Zm1.3.07v-1.49h6.35v1.49Z"/><path class="b4d42312-a2d0-404f-9669-6fdbbd5e3547" d="M38.74,95.38a2.78,2.78,0,0,1,2.08-.72h3.64v1.48H41a1.78,1.78,0,0,0-1.25.39,1.48,1.48,0,0,0-.42,1.12,1.68,1.68,0,0,0,.49,1.29,2,2,0,0,0,1.42.48h3.21v1.48H38.11V99.49h.82a2.26,2.26,0,0,1-.66-.93A3.31,3.31,0,0,1,38,97.31,2.69,2.69,0,0,1,38.74,95.38Z"/><path class="b4d42312-a2d0-404f-9669-6fdbbd5e3547" d="M38.11,86.48h5.38c2.24,0,3.35,1.14,3.35,3.42a6.2,6.2,0,0,1-.23,1.74A3.64,3.64,0,0,1,45.94,93l-1.12-.66a3.27,3.27,0,0,0,.56-1,4.45,4.45,0,0,0,.2-1.29,2.09,2.09,0,0,0-.47-1.53A1.93,1.93,0,0,0,43.66,88h-.33a2.55,2.55,0,0,1,.63.93,3.27,3.27,0,0,1,.21,1.19,3.42,3.42,0,0,1-.39,1.64,2.85,2.85,0,0,1-1.08,1.15,3.07,3.07,0,0,1-1.61.42,3,3,0,0,1-1.59-.42,2.92,2.92,0,0,1-1.08-1.15A3.54,3.54,0,0,1,38,90.09a3.39,3.39,0,0,1,.23-1.25A2.3,2.3,0,0,1,39,87.9h-.85Zm4.3,2a1.74,1.74,0,0,0-1.32-.55,1.68,1.68,0,0,0-1.29.55,2.17,2.17,0,0,0,0,2.77,1.67,1.67,0,0,0,1.29.54,1.73,1.73,0,0,0,1.32-.54,2.17,2.17,0,0,0,0-2.77Z"/></g></svg>