<svg xmlns="http://www.w3.org/2000/svg" xmlns:xlink="http://www.w3.org/1999/xlink" viewBox="0 0 146.8 54.46"><defs><style>.a06fe715-22fe-4845-8808-1e95da149276{fill:#335b84;}.a002aba4-9edf-4d26-bdf0-c0775db794fd{fill:#fff;}.ed24b941-6d4a-4819-ac0e-8aaf8e8ff90f{fill:url(#e383ed6a-f705-4f23-b625-3a839c319372);}.b9a36972-b464-4907-b503-104c395be693{fill:url(#eabaa707-2ee9-407d-856a-0ba68c26bfce);}.a5d410e2-ad56-403e-b74c-138be9f51e86{fill:url(#b91a0386-8237-49e9-9297-efa585f87f54);}</style><linearGradient id="e383ed6a-f705-4f23-b625-3a839c319372" x1="16.68" y1="22.61" x2="51.02" y2="-11.32" gradientUnits="userSpaceOnUse"><stop offset="0" stop-color="#fff"/><stop offset="0.6" stop-color="#305784"/></linearGradient><linearGradient id="eabaa707-2ee9-407d-856a-0ba68c26bfce" x1="26.59" y1="36.03" x2="46.98" y2="44.62" xlink:href="#e383ed6a-f705-4f23-b625-3a839c319372"/><linearGradient id="b91a0386-8237-49e9-9297-efa585f87f54" x1="11.49" y1="41.35" x2="23.64" y2="27.24" xlink:href="#e383ed6a-f705-4f23-b625-3a839c319372"/></defs><g id="fe5cc3cb-aa3c-4c27-aa7e-2839fdad2bc2" data-name="Layer 2"><path d="M72,14.39V16.2H64.42V6.45h7.37V8.26H66.66v2.12h4.53v1.76H66.66v2.25Z"/><path d="M81.06,9.43a3.33,3.33,0,0,1,.85,2.48V16.2H79.74V12.25a1.94,1.94,0,0,0-.39-1.33,1.41,1.41,0,0,0-1.13-.44,1.73,1.73,0,0,0-1.31.51,2.12,2.12,0,0,0-.48,1.51v3.7H74.25V8.71h2.08v.88a2.79,2.79,0,0,1,1.07-.73,3.61,3.61,0,0,1,1.41-.26A3.11,3.11,0,0,1,81.06,9.43Z"/><path d="M89.24,15.84a2.16,2.16,0,0,1-.78.36,3.93,3.93,0,0,1-1,.11,2.87,2.87,0,0,1-2.07-.68,2.58,2.58,0,0,1-.73-2V10.55H83.52V8.88h1.16V7.05h2.17V8.88h1.86v1.67H86.85v3a1,1,0,0,0,.24.73.9.9,0,0,0,.69.26,1.44,1.44,0,0,0,.88-.28Z"/><path d="M98.29,13.07H92.62a1.82,1.82,0,0,0,.73,1.1,2.38,2.38,0,0,0,1.42.4,2.8,2.8,0,0,0,1-.17,2.59,2.59,0,0,0,.84-.55l1.16,1.25a3.89,3.89,0,0,1-3.1,1.21,4.89,4.89,0,0,1-2.24-.49A3.63,3.63,0,0,1,91,14.45a3.73,3.73,0,0,1-.53-2,3.81,3.81,0,0,1,.52-2,3.72,3.72,0,0,1,1.43-1.38,4.21,4.21,0,0,1,2-.49,4.16,4.16,0,0,1,2,.47,3.52,3.52,0,0,1,1.4,1.36,4,4,0,0,1,.51,2.05S98.32,12.71,98.29,13.07Zm-5.08-2.41a1.74,1.74,0,0,0-.61,1.14h3.69a1.81,1.81,0,0,0-1.84-1.56A1.86,1.86,0,0,0,93.21,10.66Z"/><path d="M103.51,8.88A3.82,3.82,0,0,1,105,8.6v2l-.48,0a2,2,0,0,0-1.47.52,2.13,2.13,0,0,0-.53,1.57V16.2h-2.17V8.71h2.08v1A2.39,2.39,0,0,1,103.51,8.88Z"/><path d="M113.18,9.08a3.41,3.41,0,0,1,1.34,1.35,4,4,0,0,1,.49,2,4,4,0,0,1-.49,2,3.41,3.41,0,0,1-1.34,1.35,3.83,3.83,0,0,1-1.9.48,2.91,2.91,0,0,1-2.26-.9v3.5h-2.17V8.71h2.07v.86a2.89,2.89,0,0,1,2.36-1A3.83,3.83,0,0,1,113.18,9.08ZM112.27,14a2.1,2.1,0,0,0,.54-1.51,2.12,2.12,0,0,0-.54-1.52,2,2,0,0,0-2.74,0,2.12,2.12,0,0,0-.54,1.52,2.1,2.1,0,0,0,.54,1.51,2,2,0,0,0,2.74,0Z"/><path d="M120.23,8.88a3.87,3.87,0,0,1,1.53-.28v2c-.24,0-.4,0-.49,0a2,2,0,0,0-1.46.52,2.13,2.13,0,0,0-.53,1.57V16.2h-2.17V8.71h2.07v1A2.39,2.39,0,0,1,120.23,8.88Z"/><path d="M123.68,7.32a1.14,1.14,0,0,1-.37-.87,1.12,1.12,0,0,1,.37-.86,1.42,1.42,0,0,1,1-.35,1.45,1.45,0,0,1,1,.33,1.09,1.09,0,0,1,.37.84,1.19,1.19,0,0,1-.37.9,1.37,1.37,0,0,1-1,.35A1.41,1.41,0,0,1,123.68,7.32Zm-.11,1.39h2.18V16.2h-2.18Z"/><path d="M129.15,16.08a4.76,4.76,0,0,1-1.42-.57l.73-1.56a4.37,4.37,0,0,0,1.21.52,5.25,5.25,0,0,0,1.39.2c.92,0,1.38-.23,1.38-.68a.48.48,0,0,0-.38-.46,6,6,0,0,0-1.15-.24,11,11,0,0,1-1.52-.32,2.31,2.31,0,0,1-1-.64,1.84,1.84,0,0,1-.44-1.31,2.09,2.09,0,0,1,.41-1.26,2.74,2.74,0,0,1,1.2-.86,5.26,5.26,0,0,1,1.86-.3,7.64,7.64,0,0,1,1.58.17,4.54,4.54,0,0,1,1.3.48l-.72,1.55a4.35,4.35,0,0,0-2.16-.56,2.17,2.17,0,0,0-1,.2.55.55,0,0,0-.35.5.5.5,0,0,0,.37.49,6.87,6.87,0,0,0,1.2.26,11.48,11.48,0,0,1,1.51.33,2.12,2.12,0,0,1,1,.63,1.81,1.81,0,0,1,.44,1.28,2,2,0,0,1-.42,1.24,2.73,2.73,0,0,1-1.22.85,5.46,5.46,0,0,1-1.9.29A7.06,7.06,0,0,1,129.15,16.08Z"/><path d="M143.85,13.07h-5.67a1.77,1.77,0,0,0,.72,1.1,2.4,2.4,0,0,0,1.42.4,2.8,2.8,0,0,0,1-.17,2.49,2.49,0,0,0,.84-.55l1.16,1.25a3.87,3.87,0,0,1-3.09,1.21,4.86,4.86,0,0,1-2.24-.49,3.65,3.65,0,0,1-1.51-1.37,3.82,3.82,0,0,1-.53-2,3.91,3.91,0,0,1,.52-2A3.68,3.68,0,0,1,138,9.09a4.21,4.21,0,0,1,2-.49,4.12,4.12,0,0,1,2,.47,3.46,3.46,0,0,1,1.4,1.36,4,4,0,0,1,.51,2.05S143.88,12.71,143.85,13.07Zm-5.09-2.41a1.83,1.83,0,0,0-.61,1.14h3.69A1.79,1.79,0,0,0,140,10.24,1.88,1.88,0,0,0,138.76,10.66Z"/><path d="M70.84,30.83H66.32l-.87,2.09H63.14l4.34-9.75h2.23l4.36,9.75H71.71Zm-.71-1.71-1.54-3.74L67,29.12Z"/><path d="M83.14,25.42v6.25a4,4,0,0,1-1.07,3.06,4.44,4.44,0,0,1-3.14,1,7.7,7.7,0,0,1-2.06-.26,4.39,4.39,0,0,1-1.61-.77l.86-1.56a3.58,3.58,0,0,0,1.2.62,4.53,4.53,0,0,0,1.45.23,2.34,2.34,0,0,0,1.66-.51A2,2,0,0,0,81,31.94v-.32a3,3,0,0,1-2.37.94,4,4,0,0,1-1.89-.45,3.56,3.56,0,0,1-1.36-1.28,3.84,3.84,0,0,1,0-3.79,3.46,3.46,0,0,1,1.36-1.27,3.89,3.89,0,0,1,1.89-.46,3,3,0,0,1,2.48,1.08v-1Zm-2.69,4.85A1.76,1.76,0,0,0,81,28.94a1.73,1.73,0,0,0-.55-1.33,2.23,2.23,0,0,0-2.84,0,1.71,1.71,0,0,0-.56,1.33,1.74,1.74,0,0,0,.56,1.33,2.23,2.23,0,0,0,2.84,0Z"/><path d="M85.83,24a1.12,1.12,0,0,1-.37-.86,1.14,1.14,0,0,1,.37-.87,1.39,1.39,0,0,1,1-.34,1.41,1.41,0,0,1,1,.33,1.07,1.07,0,0,1,.38.84,1.2,1.2,0,0,1-.38.9,1.37,1.37,0,0,1-1,.35A1.4,1.4,0,0,1,85.83,24Zm-.11,1.39h2.17v7.5H85.72Z"/><path d="M90.48,22.58h2.18V32.92H90.48Z"/><path d="M95.36,24a1.13,1.13,0,0,1-.38-.86,1.15,1.15,0,0,1,.38-.87,1.39,1.39,0,0,1,1-.34,1.43,1.43,0,0,1,1,.33,1.07,1.07,0,0,1,.38.84,1.2,1.2,0,0,1-.38.9,1.53,1.53,0,0,1-2,0Zm-.11,1.39h2.17v7.5H95.25Z"/><path d="M104.91,32.56a2.29,2.29,0,0,1-.79.35,3.93,3.93,0,0,1-1,.12,3,3,0,0,1-2.07-.68,2.61,2.61,0,0,1-.73-2V27.26H99.18V25.59h1.16V23.77h2.17v1.82h1.87v1.67h-1.87v3.06a1,1,0,0,0,.25.73.9.9,0,0,0,.69.25,1.41,1.41,0,0,0,.87-.27Z"/><path d="M114.36,25.42l-3.38,8a4,4,0,0,1-1.28,1.83,3.11,3.11,0,0,1-1.83.52,3.9,3.9,0,0,1-1.16-.18,2.57,2.57,0,0,1-.93-.5l.8-1.55a1.75,1.75,0,0,0,.57.35,1.71,1.71,0,0,0,.65.13,1.13,1.13,0,0,0,.73-.22,1.88,1.88,0,0,0,.5-.71l0-.07-3.24-7.56h2.24l2.11,5.09,2.11-5.09Z"/><path d="M64.85,39.89h1v9.75h-1Z"/><path d="M75.17,43.05A3.17,3.17,0,0,1,76,45.39v4.25H75V45.49a2.44,2.44,0,0,0-.57-1.75,2.17,2.17,0,0,0-1.63-.6,2.49,2.49,0,0,0-1.87.71,2.64,2.64,0,0,0-.69,1.94v3.85h-1V42.31h1v1.35a2.74,2.74,0,0,1,1.12-1A3.66,3.66,0,0,1,73,42.25,3,3,0,0,1,75.17,43.05Z"/><path d="M79.51,49.45a3.68,3.68,0,0,1-1.27-.65l.44-.78a3.83,3.83,0,0,0,1.16.59,4.45,4.45,0,0,0,1.45.23,2.74,2.74,0,0,0,1.48-.31,1,1,0,0,0,.48-.89A.78.78,0,0,0,83,47a1.85,1.85,0,0,0-.67-.35c-.27-.08-.63-.15-1.07-.23a11.52,11.52,0,0,1-1.44-.34,2,2,0,0,1-.92-.59,1.64,1.64,0,0,1-.39-1.16,1.81,1.81,0,0,1,.77-1.5,3.44,3.44,0,0,1,2.13-.59,5.77,5.77,0,0,1,1.42.19,3.74,3.74,0,0,1,1.17.5l-.43.79a3.67,3.67,0,0,0-2.16-.63,2.46,2.46,0,0,0-1.43.34,1,1,0,0,0-.48.88.85.85,0,0,0,.27.66,1.72,1.72,0,0,0,.68.37c.27.08.64.16,1.11.25a12.6,12.6,0,0,1,1.41.33,2.07,2.07,0,0,1,.91.57,1.58,1.58,0,0,1,.37,1.12,1.74,1.74,0,0,1-.8,1.52,3.76,3.76,0,0,1-2.22.57A5.76,5.76,0,0,1,79.51,49.45Z"/><path d="M90.78,49.19a1.65,1.65,0,0,1-.69.38,2.7,2.7,0,0,1-.85.14,1.95,1.95,0,0,1-2.15-2.14V43.14H85.78v-.83h1.31v-1.6h1v1.6h2.23v.83H88.08v4.38a1.39,1.39,0,0,0,.33,1,1.27,1.27,0,0,0,.94.34,2,2,0,0,0,.59-.1,1.62,1.62,0,0,0,.5-.28Z"/><path d="M93,40.5a.69.69,0,0,1-.21-.5.67.67,0,0,1,.21-.49.69.69,0,0,1,.51-.21.73.73,0,0,1,.52.2.66.66,0,0,1,.21.48A.73.73,0,0,1,93,40.5Zm0,1.81h1v7.33H93Z"/><path d="M101.13,49.19a1.65,1.65,0,0,1-.69.38,2.72,2.72,0,0,1-.86.14A2.14,2.14,0,0,1,98,49.15a2.11,2.11,0,0,1-.56-1.58V43.14H96.13v-.83h1.31v-1.6h1v1.6h2.23v.83H98.43v4.38a1.39,1.39,0,0,0,.33,1,1.26,1.26,0,0,0,.94.34,2,2,0,0,0,.59-.1,1.57,1.57,0,0,0,.49-.28Z"/><path d="M109.75,42.31v7.33h-1V48.3a2.68,2.68,0,0,1-1.07,1,3.27,3.27,0,0,1-1.56.37,2.84,2.84,0,0,1-3.09-3.15V42.31h1v4.15a2.47,2.47,0,0,0,.57,1.76,2.14,2.14,0,0,0,1.63.6,2.38,2.38,0,0,0,1.82-.71,2.71,2.71,0,0,0,.67-2V42.31Z"/><path d="M116.89,49.19a1.78,1.78,0,0,1-.69.38,2.72,2.72,0,0,1-.86.14,2.19,2.19,0,0,1-1.59-.56,2.14,2.14,0,0,1-.55-1.58V43.14h-1.31v-.83h1.31v-1.6h1v1.6h2.23v.83h-2.23v4.38a1.43,1.43,0,0,0,.32,1,1.29,1.29,0,0,0,.94.34,2,2,0,0,0,.6-.1,1.57,1.57,0,0,0,.49-.28Z"/><path d="M125.34,46.28h-6.13a2.65,2.65,0,0,0,.88,1.85,3,3,0,0,0,2,.7,3.2,3.2,0,0,0,1.25-.24,2.94,2.94,0,0,0,1-.72l.56.64a3.19,3.19,0,0,1-1.22.89,4.24,4.24,0,0,1-1.61.31,4.08,4.08,0,0,1-2-.48,3.55,3.55,0,0,1-1.36-1.33,3.87,3.87,0,0,1-.49-1.93,4,4,0,0,1,.47-1.92A3.32,3.32,0,0,1,120,42.73a3.73,3.73,0,0,1,3.66,0A3.34,3.34,0,0,1,124.9,44a4.08,4.08,0,0,1,.46,1.93ZM120,43.78a2.68,2.68,0,0,0-.82,1.76h5.2a2.68,2.68,0,0,0-.82-1.76,2.67,2.67,0,0,0-3.56,0Z"/><path d="M134.82,40.48a4.75,4.75,0,0,1,1.76,1.77,4.85,4.85,0,0,1,.64,2.48,5,5,0,0,1-.65,2.5A5,5,0,0,1,129.8,49,4.73,4.73,0,0,1,128,47.24a5.12,5.12,0,0,1,0-5,4.75,4.75,0,0,1,1.78-1.78,4.88,4.88,0,0,1,2.51-.66A5,5,0,0,1,134.82,40.48Zm-.3,8.09a4.37,4.37,0,0,0,2.17-3.84,4.42,4.42,0,0,0-.57-2.22,4.15,4.15,0,0,0-1.57-1.57,4.31,4.31,0,0,0-2.23-.58,4.39,4.39,0,0,0-2.25.58,4.21,4.21,0,0,0-1.59,1.6,4.54,4.54,0,0,0,0,4.44,4.19,4.19,0,0,0,1.58,1.6,4.34,4.34,0,0,0,2.23.58A4.25,4.25,0,0,0,134.52,48.57Zm-.06-3.66a1.89,1.89,0,0,1-.93.66l1.31,2h-.75l-1.22-1.88-.32,0H131.1v1.86h-.72V42h2.17a2.43,2.43,0,0,1,1.63.5,1.68,1.68,0,0,1,.6,1.36A1.88,1.88,0,0,1,134.46,44.91Zm-.8-.15a1.16,1.16,0,0,0,.41-.95,1.12,1.12,0,0,0-.41-.92,1.79,1.79,0,0,0-1.15-.33h-1.42V45.1h1.42A1.79,1.79,0,0,0,133.66,44.76Z"/><path class="a06fe715-22fe-4845-8808-1e95da149276" d="M50.57,3.36a3.18,3.18,0,0,1,1.22,1.22,3.36,3.36,0,0,1,.44,1.72A3.45,3.45,0,0,1,51.78,8a3.28,3.28,0,0,1-1.24,1.24,3.41,3.41,0,0,1-1.73.45,3.37,3.37,0,0,1-1.72-.45A3.26,3.26,0,0,1,45.86,8a3.37,3.37,0,0,1-.45-1.72,3.4,3.4,0,0,1,.45-1.72,3.3,3.3,0,0,1,1.23-1.23,3.35,3.35,0,0,1,1.74-.46A3.42,3.42,0,0,1,50.57,3.36ZM50.36,9a3.16,3.16,0,0,0,1.1-1.11,3.08,3.08,0,0,0,.41-1.56,3,3,0,0,0-.4-1.54,2.92,2.92,0,0,0-1.09-1.09,3,3,0,0,0-1.55-.4,3.07,3.07,0,0,0-1.56.4,3,3,0,0,0-1.5,2.65,3,3,0,0,0,.4,1.54A2.93,2.93,0,0,0,47.27,9a3.12,3.12,0,0,0,3.09,0Zm0-2.55a1.29,1.29,0,0,1-.65.46l.91,1.4h-.52L49.22,7H48v1.3h-.5V4.37H49a1.73,1.73,0,0,1,1.13.35,1.19,1.19,0,0,1,.41,1A1.23,1.23,0,0,1,50.32,6.42Zm-.55-.1a.78.78,0,0,0,.28-.65A.78.78,0,0,0,49.77,5,1.27,1.27,0,0,0,49,4.8H48V6.55h1A1.21,1.21,0,0,0,49.77,6.32Z"/><path class="a002aba4-9edf-4d26-bdf0-c0775db794fd" d="M46.67,40.1l-11.19-32a9.6,9.6,0,0,0-1.22-2.36A23.59,23.59,0,0,0,15.82,7a11.5,11.5,0,0,0-.49,1.14L5,37.63a23.46,23.46,0,0,0,4.84,7,23.77,23.77,0,0,0,4.42,3.47L16,42.47a3.88,3.88,0,0,1,6-2l12.52,9.07c.19.14.38.26.58.39A23.63,23.63,0,0,0,46.67,40.1ZM30.93,37.45,22.06,31.1a3.55,3.55,0,0,1-1.32-3.94l1.74-5.61a3,3,0,0,1,5.68,0l4.46,14.66A1.1,1.1,0,0,1,30.93,37.45Z"/><path class="a06fe715-22fe-4845-8808-1e95da149276" d="M35.49,8.14l11.18,32A23.59,23.59,0,0,0,34.27,5.77,9.84,9.84,0,0,1,35.49,8.14Z"/><path class="a06fe715-22fe-4845-8808-1e95da149276" d="M22.06,31.09l8.87,6.35a1.1,1.1,0,0,0,1.69-1.21L28.16,21.57a3,3,0,0,0-5.68,0l-1.74,5.61A3.55,3.55,0,0,0,22.06,31.09Z"/><path class="a06fe715-22fe-4845-8808-1e95da149276" d="M15.33,8.12A10.41,10.41,0,0,1,15.82,7a23.05,23.05,0,0,0-6,4.36A23.56,23.56,0,0,0,5,37.63Z"/><path class="a06fe715-22fe-4845-8808-1e95da149276" d="M34.48,49.55,22,40.48a3.87,3.87,0,0,0-6,2l-1.75,5.66a23.57,23.57,0,0,0,20.82,1.8C34.86,49.81,34.66,49.68,34.48,49.55Z"/><path class="ed24b941-6d4a-4819-ac0e-8aaf8e8ff90f" d="M20.74,27.16l1.74-5.61a3,3,0,0,1,5.68,0l.38,1.25h0s-1.71-8-6.27-10.94-9,2.26-9,2.26L9.85,23.72Z"/><path class="b9a36972-b464-4907-b503-104c395be693" d="M32.65,36.73a1.1,1.1,0,0,1-1.72.71l-8.87-6.35a3.55,3.55,0,0,1-1.32-3.93h0a14.1,14.1,0,0,0,.17,11l1,2.37S33,45.88,32.65,36.73Z"/><path class="a5d410e2-ad56-403e-b74c-138be9f51e86" d="M16,42.47a3.87,3.87,0,0,1,6-2c-8.55-6.2-16.62-3-17-2.84a23.26,23.26,0,0,0,4.84,7,23.5,23.5,0,0,0,4.42,3.48Z"/></g></svg>