<svg xmlns="http://www.w3.org/2000/svg" xmlns:xlink="http://www.w3.org/1999/xlink" viewBox="0 0 124.88 47.54"><defs><style>.afcedcec-58ab-4538-a07f-ca925ee76b95{fill:#dc502b;}.b67a1b57-ae83-4962-8fbd-699fdff9509c{fill:#eac310;}.b337e1ef-cc64-4503-b539-a2742f6f8781{fill:#cdcbcb;}.a27c8e18-556a-4256-a631-5bcbb32c86d5,.fafc0d4c-26a9-4c93-b35e-8830296343e8{opacity:0.16;}.fafc0d4c-26a9-4c93-b35e-8830296343e8{fill:url(#b2bdb30d-26f5-4806-a15b-ead82051ac93);}.b067d24f-aac8-4988-8cc2-82f5cd1a7b53{fill:#a8c6c9;}.a27c8e18-556a-4256-a631-5bcbb32c86d5{fill:url(#b6cf2bfe-07e7-41b0-affc-eb723aa718dc);}.fb17ac76-6739-44d1-9c56-b9744bb18f3d{fill:#828282;}.a291e5c0-b513-43a9-b292-73a640b0ecc1{fill:#515252;}.b83adb7f-8c63-473f-94db-60c2510a4531{fill:#90bbc3;}</style><linearGradient id="b2bdb30d-26f5-4806-a15b-ead82051ac93" x1="5.02" y1="18.11" x2="17.26" y2="18.11" gradientUnits="userSpaceOnUse"><stop offset="0" stop-color="#8f8f8e"/><stop offset="1" stop-color="#2d2d1f"/></linearGradient><linearGradient id="b6cf2bfe-07e7-41b0-affc-eb723aa718dc" x1="2.43" y1="33.8" x2="17.26" y2="33.8" xlink:href="#b2bdb30d-26f5-4806-a15b-ead82051ac93"/></defs><g id="ba5be64e-7d4b-4b82-8e27-6eda7df3228f" data-name="Layer 2"><path class="afcedcec-58ab-4538-a07f-ca925ee76b95" d="M3,22.32v.11l13.89,6.1a.94.94,0,0,0,.7,0L31.5,22.4v0l-13.84-6.3a.89.89,0,0,0-.73,0Z"/><path class="b67a1b57-ae83-4962-8fbd-699fdff9509c" d="M5.72,7.3v.89a1.06,1.06,0,0,0,.61,1l10.5,4.68a1,1,0,0,0,.83,0L28.11,9.11a1,1,0,0,0,.61-1V7.24"/><path class="b337e1ef-cc64-4503-b539-a2742f6f8781" d="M17.56,27.16l11.38-5a.75.75,0,0,0,.44-.68V9.66A.74.74,0,0,0,28.33,9L17.56,13.75a.78.78,0,0,1-.6,0L6.07,9a.75.75,0,0,0-1,.68v11.7a.75.75,0,0,0,.44.68L17,27.16A.7.7,0,0,0,17.56,27.16Z"/><path class="fafc0d4c-26a9-4c93-b35e-8830296343e8" d="M17.26,13.88,6,9A.66.66,0,0,0,5,9.59v12.3L17.26,27.3Z"/><path class="b067d24f-aac8-4988-8cc2-82f5cd1a7b53" d="M28.39,6.85,17.44,2.46a.47.47,0,0,0-.33,0L6,6.88a.46.46,0,0,0,0,.84l11.08,4.8a.45.45,0,0,0,.36,0L28.4,7.68A.45.45,0,0,0,28.39,6.85Z"/><path class="b337e1ef-cc64-4503-b539-a2742f6f8781" d="M17.51,45l14.15-6.27a.61.61,0,0,0,.37-.57v-15a.62.62,0,0,0-.88-.57l-13.64,6a.62.62,0,0,1-.5,0l-13.7-6a.62.62,0,0,0-.88.57V38.24a.61.61,0,0,0,.37.57L17,45A.61.61,0,0,0,17.51,45Z"/><path class="a27c8e18-556a-4256-a631-5bcbb32c86d5" d="M17.26,28.66,3.31,22.55a.62.62,0,0,0-.88.57V38.65l14.83,6.47C17.16,45,17.26,28.66,17.26,28.66Z"/><path class="fb17ac76-6739-44d1-9c56-b9744bb18f3d" d="M42.35,37.09v0a3.22,3.22,0,0,1,5.45-2.33.44.44,0,0,1-.3.76.54.54,0,0,1-.3-.1,2.38,2.38,0,0,0-1.69-.75A2.28,2.28,0,0,0,43.3,37v0a2.31,2.31,0,0,0,2.27,2.41,2.46,2.46,0,0,0,1.73-.76.36.36,0,0,1,.26-.12A.44.44,0,0,1,48,39a.43.43,0,0,1-.12.29,3.13,3.13,0,0,1-2.34,1A3.18,3.18,0,0,1,42.35,37.09Z"/><path class="fb17ac76-6739-44d1-9c56-b9744bb18f3d" d="M49.31,37.09v0a3.23,3.23,0,0,1,6.45,0v0a3.22,3.22,0,0,1-3.24,3.24A3.18,3.18,0,0,1,49.31,37.09Zm5.51,0v0a2.35,2.35,0,0,0-2.3-2.42A2.29,2.29,0,0,0,50.25,37v0a2.32,2.32,0,0,0,2.29,2.41A2.29,2.29,0,0,0,54.82,37.09Z"/><path class="a291e5c0-b513-43a9-b292-73a640b0ecc1" d="M59,39.83l-1.88-5.24a.92.92,0,0,1-.06-.25.46.46,0,0,1,.47-.44.48.48,0,0,1,.46.38l1.56,4.65,1.57-4.66a.48.48,0,0,1,.46-.37h0a.49.49,0,0,1,.48.37l1.56,4.66,1.58-4.67a.45.45,0,0,1,.44-.36.44.44,0,0,1,.46.43,1,1,0,0,1-.06.25l-1.89,5.25a.56.56,0,0,1-.51.42h0a.53.53,0,0,1-.51-.42l-1.54-4.52L60,39.83a.52.52,0,0,1-.5.42h0A.56.56,0,0,1,59,39.83Z"/><path class="a291e5c0-b513-43a9-b292-73a640b0ecc1" d="M67.38,38.36v0c0-1.3,1.07-2,2.64-2a6.83,6.83,0,0,1,1.91.26v-.21c0-1.11-.69-1.69-1.85-1.69a3.74,3.74,0,0,0-1.6.35l-.17,0a.4.4,0,0,1-.16-.77,4.84,4.84,0,0,1,2-.42,2.71,2.71,0,0,1,2,.68,2.44,2.44,0,0,1,.63,1.81v3.39a.43.43,0,0,1-.44.45.42.42,0,0,1-.44-.43v-.56a2.72,2.72,0,0,1-2.24,1.06A2.08,2.08,0,0,1,67.38,38.36Zm4.56-.48v-.6A6.55,6.55,0,0,0,70.12,37c-1.16,0-1.81.51-1.81,1.29v0c0,.78.72,1.23,1.56,1.23A1.87,1.87,0,0,0,71.94,37.88Z"/><path class="a291e5c0-b513-43a9-b292-73a640b0ecc1" d="M75.08,34.37a.46.46,0,1,1,.92,0v1.16a2.55,2.55,0,0,1,2.13-1.65.44.44,0,0,1,.45.46.46.46,0,0,1-.4.47C77,35,76,35.85,76,37.64v2.1a.46.46,0,1,1-.92,0Z"/><path class="a291e5c0-b513-43a9-b292-73a640b0ecc1" d="M82.67,40.3a3.08,3.08,0,0,1-3.09-3.23v0a3.06,3.06,0,0,1,3-3.22A2.92,2.92,0,0,1,85.42,37a.43.43,0,0,1-.43.43H80.51a2.16,2.16,0,0,0,2.18,2.09,2.54,2.54,0,0,0,1.79-.72.38.38,0,0,1,.26-.1.4.4,0,0,1,.41.39.38.38,0,0,1-.15.3A3.14,3.14,0,0,1,82.67,40.3Zm1.83-3.59a2,2,0,0,0-2-2.1,2.13,2.13,0,0,0-2,2.1Z"/><path class="a291e5c0-b513-43a9-b292-73a640b0ecc1" d="M87.35,31.82a.46.46,0,1,1,.92,0V35a2.36,2.36,0,0,1,2.12-1.21,2.26,2.26,0,0,1,2.37,2.48v3.43a.46.46,0,1,1-.92,0V36.53a1.65,1.65,0,0,0-1.71-1.86,1.82,1.82,0,0,0-1.86,1.94v3.13a.45.45,0,0,1-.45.47.46.46,0,0,1-.47-.47Z"/><path class="a291e5c0-b513-43a9-b292-73a640b0ecc1" d="M94.64,37.09v0a3.23,3.23,0,0,1,6.46,0v0a3.22,3.22,0,0,1-3.25,3.24A3.18,3.18,0,0,1,94.64,37.09Zm5.51,0v0a2.34,2.34,0,0,0-2.3-2.42A2.28,2.28,0,0,0,95.59,37v0a2.32,2.32,0,0,0,2.29,2.41A2.28,2.28,0,0,0,100.15,37.09Z"/><path class="a291e5c0-b513-43a9-b292-73a640b0ecc1" d="M108.37,39.74a.46.46,0,1,1-.92,0v-.67a2.34,2.34,0,0,1-2.11,1.21A2.26,2.26,0,0,1,103,37.8V34.37a.45.45,0,0,1,.46-.47.47.47,0,0,1,.47.47v3.21a1.64,1.64,0,0,0,1.71,1.86,1.82,1.82,0,0,0,1.85-1.94V34.37a.45.45,0,0,1,.46-.47.46.46,0,0,1,.46.47Z"/><path class="a291e5c0-b513-43a9-b292-73a640b0ecc1" d="M110.4,39.49a.43.43,0,0,1-.17-.33.4.4,0,0,1,.41-.4.45.45,0,0,1,.23.07,3.39,3.39,0,0,0,2,.66c.74,0,1.28-.38,1.28-1v0c0-.63-.73-.87-1.54-1.09-1-.28-2-.61-2-1.75v0a1.88,1.88,0,0,1,2.11-1.77,4.33,4.33,0,0,1,2,.53.44.44,0,0,1,.23.38.4.4,0,0,1-.41.4.53.53,0,0,1-.2,0,3.36,3.36,0,0,0-1.62-.48c-.73,0-1.19.38-1.19.9v0c0,.59.76.82,1.59,1.07s2,.66,2,1.77v0c0,1.17-1,1.85-2.21,1.85A4.28,4.28,0,0,1,110.4,39.49Z"/><path class="a291e5c0-b513-43a9-b292-73a640b0ecc1" d="M119.7,40.3a3.08,3.08,0,0,1-3.09-3.23v0a3.06,3.06,0,0,1,3-3.22A2.92,2.92,0,0,1,122.46,37a.43.43,0,0,1-.43.43h-4.48a2.16,2.16,0,0,0,2.18,2.09,2.52,2.52,0,0,0,1.78-.72.41.41,0,0,1,.27-.1.4.4,0,0,1,.4.39.37.37,0,0,1-.14.3A3.17,3.17,0,0,1,119.7,40.3Zm1.84-3.59a2,2,0,0,0-2-2.1,2.12,2.12,0,0,0-2,2.1Z"/><path class="a291e5c0-b513-43a9-b292-73a640b0ecc1" d="M49.28,17H46.05v11.9H44.12V17H41.24V15.29h2.88V11.56A5,5,0,0,1,45.38,7.7,4.69,4.69,0,0,1,48.7,6.55a7.86,7.86,0,0,1,.83,0c.28,0,.56.09.83.15L50,8.5c-.23-.06-.48-.11-.73-.15a4.77,4.77,0,0,0-.76,0,2.68,2.68,0,0,0-1.28.26,1.81,1.81,0,0,0-.76.74,3.42,3.42,0,0,0-.35,1.12,11.88,11.88,0,0,0-.08,1.37v3.5h3.23Z"/><path class="a291e5c0-b513-43a9-b292-73a640b0ecc1" d="M53.92,28.94H52V6.9h1.93Z"/><path class="a291e5c0-b513-43a9-b292-73a640b0ecc1" d="M58.51,22.64a5.67,5.67,0,0,0,.5,1.92,4.84,4.84,0,0,0,1.08,1.56,5.1,5.1,0,0,0,1.54,1,5.13,5.13,0,0,0,4.56-.34,5.21,5.21,0,0,0,1.71-1.65l1.49,1.23a7.36,7.36,0,0,1-2.7,2.21,7.51,7.51,0,0,1-3.16.68,7.27,7.27,0,0,1-2.82-.54,6.52,6.52,0,0,1-2.23-1.51A7.06,7.06,0,0,1,57,25a7.43,7.43,0,0,1-.54-2.86A7.57,7.57,0,0,1,57,19.26,6.89,6.89,0,0,1,58.45,17a6.75,6.75,0,0,1,4.9-2,6.65,6.65,0,0,1,2.77.56,6,6,0,0,1,3.32,3.63,7.6,7.6,0,0,1,.44,2.63v.88Zm9.27-1.58a4.4,4.4,0,0,0-1.16-3.16,4.32,4.32,0,0,0-3.27-1.21,4.58,4.58,0,0,0-1.81.37A5,5,0,0,0,60,18a5.3,5.3,0,0,0-1,1.4,3.65,3.65,0,0,0-.39,1.63Z"/><path class="b67a1b57-ae83-4962-8fbd-699fdff9509c" d="M72,28.63,82.07,16a.36.36,0,0,1,.29-.14h1.37a.37.37,0,0,1,.29.6L74,29.09a.37.37,0,0,1-.29.14H72.32A.37.37,0,0,1,72,28.63Z"/><path class="afcedcec-58ab-4538-a07f-ca925ee76b95" d="M84,28.63,74,16a.37.37,0,0,0-.29-.14H72.32a.37.37,0,0,0-.28.6l10,12.63a.36.36,0,0,0,.29.14h1.37A.37.37,0,0,0,84,28.63Z"/><path class="b83adb7f-8c63-473f-94db-60c2510a4531" d="M76.87,22.54l5.2,6.55a.36.36,0,0,0,.29.14h1.37a.37.37,0,0,0,.29-.6l-5.87-7.44"/><path class="a291e5c0-b513-43a9-b292-73a640b0ecc1" d="M76.86,22.56,82.07,16a.36.36,0,0,1,.29-.14h1.37a.37.37,0,0,1,.29.6L78,24"/></g></svg>