<svg xmlns="http://www.w3.org/2000/svg" viewBox="0 0 180.8 43.54"><defs><style>.bdf53cfd-dd1e-4774-b4db-b53a4004d580{fill:#008555;}.b7436ec7-edb8-4805-96e7-5281ecf4b41b{fill:#fff;}.b9db267c-2632-4570-8381-edfe31b86e0f{fill:#003165;}</style></defs><g id="f80a0a46-6fc2-456b-91aa-f3c6b4e46a63" data-name="Layer 2"><rect class="bdf53cfd-dd1e-4774-b4db-b53a4004d580" x="45.15" y="34.05" width="52.8" height="0.95"/><path class="b7436ec7-edb8-4805-96e7-5281ecf4b41b" d="M22.74,4.1A17.67,17.67,0,1,0,40.41,21.77,17.66,17.66,0,0,0,22.74,4.1"/><path class="bdf53cfd-dd1e-4774-b4db-b53a4004d580" d="M22.74,6.94A14.83,14.83,0,1,0,37.57,21.77,14.83,14.83,0,0,0,22.74,6.94"/><polygon class="b7436ec7-edb8-4805-96e7-5281ecf4b41b" points="12.48 16.32 7.87 27.59 16.78 30.5 21.06 14.05 12.48 16.32"/><polygon class="b7436ec7-edb8-4805-96e7-5281ecf4b41b" points="23.93 13.31 19.44 31.36 30.66 35.04 34.48 10.51 23.93 13.31"/><path class="b9db267c-2632-4570-8381-edfe31b86e0f" d="M22.74,2.43A19.34,19.34,0,1,0,42.08,21.77,19.34,19.34,0,0,0,22.74,2.43m0,2.19A17.15,17.15,0,1,1,5.59,21.77,17.15,17.15,0,0,1,22.74,4.62"/><path class="b9db267c-2632-4570-8381-edfe31b86e0f" d="M175.16,15.26a1.93,1.93,0,1,0,2,1.91,1.92,1.92,0,0,0-2-1.91m0,3.58a1.66,1.66,0,1,1,1.68-1.67,1.66,1.66,0,0,1-1.68,1.67"/><path class="b9db267c-2632-4570-8381-edfe31b86e0f" d="M176,17.75c0-.43-.08-.46-.23-.54a.54.54,0,0,0,.31-.51.62.62,0,0,0-.67-.62h-1.09v2.14h.43V17.4h.47c.35,0,.35.12.35.39a1.07,1.07,0,0,0,0,.43h.51v0c-.12,0-.12-.12-.12-.43m-.7-.74h-.55v-.54h.55c.27,0,.31.15.31.27s-.08.27-.31.27"/><path class="b9db267c-2632-4570-8381-edfe31b86e0f" d="M45.17,28.51h9.48a2.73,2.73,0,0,1-.23-1.14,7.16,7.16,0,0,1,.23-1.78l2.64-10.34h6.52l.82-3.19H58.11l.46-1.69c.23-.91.54-1,2.37-1h2.41a4.69,4.69,0,0,1,2.55.55l.51-3.73H57.16c-2.24,0-3.47.22-4.42.81-1.33.78-1.74,1.51-2.42,4.24l-.27.87H46.4l-.82,3.19h3.65l-2.42,9.43a9.68,9.68,0,0,1-1.64,3.83"/><path class="b9db267c-2632-4570-8381-edfe31b86e0f" d="M85.41,24.27,87,18.21a6.88,6.88,0,0,0,.27-1.91,4.71,4.71,0,0,0-.87-2.69c-.91-1.14-2-1.55-4.1-1.55h-10a10.84,10.84,0,0,0-4.33.55,4.76,4.76,0,0,0-2.5,3.14L63.58,23a5.29,5.29,0,0,0-.18,1.41,4,4,0,0,0,1.46,3.19c.91.78,1.41.87,4,.87H78.8c2.6,0,3.69-.23,4.69-1s1.42-1.5,1.92-3.28M79,17.53,77.39,24c-.28,1.19-.6,1.41-2,1.41H72.92c-1,0-1.55-.27-1.55-.95a4.39,4.39,0,0,1,.18-1l1.74-6.79c.32-1.09.68-1.41,2-1.41h2.23c1.18,0,1.73.32,1.73,1.14A3.74,3.74,0,0,1,79,17.53"/><path class="b9db267c-2632-4570-8381-edfe31b86e0f" d="M105.05,17.44l1.41-5.38h-4.6c-2.46,0-3.42.59-4.61,2.78l.14-.87V12.83l.09-.77H89.92a3,3,0,0,1,.23,1.18A8.35,8.35,0,0,1,89.92,15l-2.51,9.66a9.31,9.31,0,0,1-1.64,3.83h9.48a2.64,2.64,0,0,1-.18-1.14,10.39,10.39,0,0,1,.18-1.78l2-7.61c.27-1.05.82-1.41,2.23-1.41h2.83a4,4,0,0,1,2.78.87"/><path class="b9db267c-2632-4570-8381-edfe31b86e0f" d="M123.55,12.06h-4.74a3.54,3.54,0,0,0-1.64.23,1.86,1.86,0,0,0-.73.63l.73-2.87,1-3.91h-8.84a2.66,2.66,0,0,1,.23,1.13,10,10,0,0,1-.23,1.78l-4,15.68a10.2,10.2,0,0,1-1.64,3.78h8.7l.37-1.5c.41,1.18,1,1.5,2.91,1.5h6c2.87,0,4.42-1.23,5.19-4.24l1.51-5.92a9.53,9.53,0,0,0,.31-2.14,3.8,3.8,0,0,0-1.45-3.06,5.06,5.06,0,0,0-3.69-1.09m-3,5.28-1.5,5.84c-.45,1.77-.68,2.14-1.91,2.18H115c-1,0-1.51-.36-1.51-.95a3.85,3.85,0,0,1,.14-.87l1.73-6.65c.36-1.37.64-1.64,1.78-1.64h2c1.14,0,1.64.36,1.64,1.05a4,4,0,0,1-.23,1"/><path class="b9db267c-2632-4570-8381-edfe31b86e0f" d="M146.83,25.36H138.9a7.65,7.65,0,0,1-1.5-.09,1.07,1.07,0,0,1-.68-.95c0-.14.09-.6.13-.91l.41-1.55h13.58l1-4.06a7.25,7.25,0,0,0,.23-1.64,3.77,3.77,0,0,0-1.28-3c-.91-.87-2-1.14-4.42-1.14H136.08c-2.92,0-4.61,1.18-5.24,3.69L128.92,23a7.78,7.78,0,0,0-.13,1.37,4.12,4.12,0,0,0,1.36,3,5.32,5.32,0,0,0,3.79,1.14h14.4L149.75,25a8.2,8.2,0,0,1-2.92.36m-8.25-8.56c.37-1.32.64-1.55,1.92-1.55H143c.82,0,1.23.23,1.23.82,0,.09-.09.41-.13.73l-.5,1.91h-5.47Z"/><path class="b9db267c-2632-4570-8381-edfe31b86e0f" d="M162.19,26.23c.77,1.41.77,1.5.77,2.28h10.21A15,15,0,0,1,171,25.59l-3.55-6.06,10-7.47h-5.84c-.13.36-.54.82-1.64,1.73l-4.19,3-1.14-2a5.31,5.31,0,0,1-.86-2.69H153.53c.64.5.73.64,1.55,2l4.28,7.38-9.48,7h5.79c.14-.46.37-.69,1.23-1.37L161,24"/><path class="bdf53cfd-dd1e-4774-b4db-b53a4004d580" d="M105,31a1.2,1.2,0,0,0-.79-.22h-1.79c-.25,0-.33,0-.39.16a2.38,2.38,0,0,0-.11.42c0,.13.09.19.3.19h1.55a.77.77,0,0,1,.6.17.62.62,0,0,1,.22.51,1.07,1.07,0,0,1-.07.39l-.33,1.3c-.16.57-.23.69-.49.89s-.46.23-1.22.23H99.14l.14-1a1.33,1.33,0,0,0,.91.19h1.66c.28,0,.33,0,.39-.16a1.18,1.18,0,0,0,.1-.39c0-.13-.09-.19-.29-.19h-1.44c-.63,0-1-.23-1-.7a2.06,2.06,0,0,1,.1-.59l.31-1.17a1.12,1.12,0,0,1,.55-.83,1.57,1.57,0,0,1,.92-.23h3.59"/><path class="bdf53cfd-dd1e-4774-b4db-b53a4004d580" d="M109.68,35.31c-.16.62-.22.75-.45.93a1.43,1.43,0,0,1-1,.21H104.6l.08-.81a1.88,1.88,0,0,0,.66.09h2c.34,0,.43-.06.5-.36l.15-.58c-.16.21-.25.24-.67.24h-.93L106,35a.94.94,0,0,1-.81-.94,1.81,1.81,0,0,1,.09-.54l.4-1.55a2.7,2.7,0,0,0,.05-.41.66.66,0,0,0-.05-.26h2L107,33.88a.73.73,0,0,0,0,.22c0,.13.12.2.35.2h.47c.3,0,.39-.08.47-.41l.51-1.93a2.71,2.71,0,0,0,0-.41.52.52,0,0,0-.05-.26h2"/><path class="bdf53cfd-dd1e-4774-b4db-b53a4004d580" d="M113.37,31.63c.16-.3.24-.34.62-.34h1.24a1,1,0,0,1,.81.32,1.11,1.11,0,0,1,.23.64,2.29,2.29,0,0,1-.09.59l-.39,1.52a2.35,2.35,0,0,0,0,.4.68.68,0,0,0,0,.27h-2.15a2.28,2.28,0,0,0,.37-.87l.43-1.66a1.18,1.18,0,0,0,.06-.3.2.2,0,0,0-.17-.18h-.62c-.3,0-.38.06-.46.36l-.51,2a2.3,2.3,0,0,0,0,.4.71.71,0,0,0,0,.27h-2.15a2.28,2.28,0,0,0,.37-.87l.57-2.2a1.84,1.84,0,0,0,0-.41.66.66,0,0,0,0-.26h1.93"/><path class="bdf53cfd-dd1e-4774-b4db-b53a4004d580" d="M121,32h-1.48l-.49,1.89a.25.25,0,0,0,0,.12c0,.2.16.28.52.28H120a1.85,1.85,0,0,0,.65-.11l-.23.84H118.6L118,35a.92.92,0,0,1-.8-.9,1.76,1.76,0,0,1,0-.31l.47-1.78H117l.19-.72h.76l.19-.71,1.85-.12-.21.83h1.48"/><path class="bdf53cfd-dd1e-4774-b4db-b53a4004d580" d="M123.76,31.5a.73.73,0,0,1,.64-.21h1a1.12,1.12,0,0,1,.9.25,1,1,0,0,1,.32.71,1.64,1.64,0,0,1-.07.43l-.43,1.68a1.62,1.62,0,0,0,0,.4.74.74,0,0,0,0,.27h-2.16a2.44,2.44,0,0,0,.38-.87l.42-1.64a1,1,0,0,0,0-.24c0-.18-.12-.27-.38-.27H124c-.32,0-.4.08-.49.44l-.5,1.91a2.35,2.35,0,0,0,0,.4.68.68,0,0,0,0,.27h-2.15a2.28,2.28,0,0,0,.37-.87l.92-3.55a2.48,2.48,0,0,0,0-.41.71.71,0,0,0,0-.27h2"/><path class="bdf53cfd-dd1e-4774-b4db-b53a4004d580" d="M131.52,35h-3.25a1.21,1.21,0,0,1-.87-.27.92.92,0,0,1-.31-.67,1.76,1.76,0,0,1,0-.31l.42-1.65a1.09,1.09,0,0,1,1.2-.84h2.34c.56,0,.8.06,1,.26a.84.84,0,0,1,.29.67,1.29,1.29,0,0,1-.06.37l-.23.93H129l-.09.35a.81.81,0,0,0,0,.2.23.23,0,0,0,.15.21l.34,0h1.8a1.69,1.69,0,0,0,.66-.08m-1.4-1.42.11-.43a.86.86,0,0,0,0-.17c0-.13-.09-.19-.27-.19h-.57c-.29,0-.36.05-.43.36l-.11.43Z"/><path class="bdf53cfd-dd1e-4774-b4db-b53a4004d580" d="M136.91,32h-1.48l-.49,1.89a.25.25,0,0,0,0,.12c0,.2.15.28.51.28h.49a1.76,1.76,0,0,0,.64-.11l-.22.84h-1.86l-.59,0a.91.91,0,0,1-.8-.9,1.15,1.15,0,0,1,0-.31l.46-1.78h-.77l.19-.72h.77l.19-.71,1.85-.12-.21.83h1.48"/><path class="bdf53cfd-dd1e-4774-b4db-b53a4004d580" d="M139,34.36a2.35,2.35,0,0,0,0,.4.68.68,0,0,0,0,.27H136.8a2.28,2.28,0,0,0,.37-.87l.57-2.2a1.84,1.84,0,0,0,0-.41.66.66,0,0,0,0-.26h2m.09-.36H138l.25-1h1.84Z"/><path class="bdf53cfd-dd1e-4774-b4db-b53a4004d580" d="M144.58,32.13A1.18,1.18,0,0,0,144,32h-1.25c-.35,0-.44.06-.52.38l-.38,1.47a.62.62,0,0,0,0,.2c0,.17.14.24.51.24h1.06a1.54,1.54,0,0,0,.65-.09l-.33.82h-2.49a1.33,1.33,0,0,1-.91-.23.87.87,0,0,1-.33-.66,1.78,1.78,0,0,1,.07-.42l.41-1.56a1.08,1.08,0,0,1,.48-.71,1.47,1.47,0,0,1,.89-.16h2.86"/><path class="bdf53cfd-dd1e-4774-b4db-b53a4004d580" d="M153,32a2.36,2.36,0,0,0-.37.87l-.38,1.46a2.46,2.46,0,0,0,0,.4.68.68,0,0,0,0,.27h-1.61v-.48a.6.6,0,0,1-.7.48h-1.61a1.42,1.42,0,0,1-.95-.2,1,1,0,0,1-.37-.73,2,2,0,0,1,.1-.52l.64-2.54a1.22,1.22,0,0,1,.68-.92c.39-.18.4-.18,1.46-.18h3.33l-.08,1a2.33,2.33,0,0,0-.88-.13h-2c-.42,0-.53.08-.61.41L149,33.74a.48.48,0,0,0,0,.2c0,.16.12.25.35.25h.65c.3,0,.36-.06.48-.49l.21-.83h-.49a1.53,1.53,0,0,0-.61.09l.25-.93"/><path class="bdf53cfd-dd1e-4774-b4db-b53a4004d580" d="M155.51,31.46v.26l0,.2a1,1,0,0,1,1-.63h1l-.32,1.22a.93.93,0,0,0-.63-.19H156c-.32,0-.44.07-.51.32L155,34.36a2.3,2.3,0,0,0-.05.4A.71.71,0,0,0,155,35h-2.15a2.28,2.28,0,0,0,.37-.87l.57-2.2a1.84,1.84,0,0,0,.05-.41.66.66,0,0,0-.05-.26h1.71"/><path class="bdf53cfd-dd1e-4774-b4db-b53a4004d580" d="M161.6,31.29a.86.86,0,0,1,.68.22,1,1,0,0,1,.32.71,2.28,2.28,0,0,1-.08.52l-.42,1.62a1.68,1.68,0,0,0,0,.4.74.74,0,0,0,0,.27h-1.81a.92.92,0,0,1,0-.29v-.08a.72.72,0,0,1-.73.37h-1.08a1.16,1.16,0,0,1-.81-.25.84.84,0,0,1-.32-.66,1.18,1.18,0,0,1,.05-.35l.09-.36a1.07,1.07,0,0,1,.46-.74,1.25,1.25,0,0,1,.77-.15h1.74c.19,0,.2,0,.26,0a.38.38,0,0,0,.1-.26c0-.16-.09-.21-.39-.21h-1.82a1.63,1.63,0,0,0-.8.15l.41-.87m1.48,2c-.3,0-.35,0-.42.31l-.1.38a.4.4,0,0,0,0,.15c0,.17.08.22.36.22h.45c.32,0,.35,0,.42-.27l.21-.79Z"/><path class="bdf53cfd-dd1e-4774-b4db-b53a4004d580" d="M168,32.15a2,2,0,0,0-.92-.14h-1.57c-.18,0-.26.06-.26.2s0,.13.29.13h1.33a.78.78,0,0,1,.61.21.82.82,0,0,1,.23.54,1.8,1.8,0,0,1-.05.37l-.15.58a1.17,1.17,0,0,1-.44.74A1.5,1.5,0,0,1,166,35h-3.17l.09-.84a1.5,1.5,0,0,0,.39.09h2.1c.19,0,.28-.09.28-.27s0-.12-.19-.12H164.4a1.34,1.34,0,0,1-.84-.16.74.74,0,0,1-.31-.64.53.53,0,0,1,0-.22l.19-.76a1.23,1.23,0,0,1,.46-.69,1.52,1.52,0,0,1,.79-.15H168"/><path class="bdf53cfd-dd1e-4774-b4db-b53a4004d580" d="M173.14,32.15a2,2,0,0,0-.92-.14h-1.57c-.17,0-.26.06-.26.2s.05.13.29.13H172a.77.77,0,0,1,.61.21.79.79,0,0,1,.24.54,1.35,1.35,0,0,1-.06.37l-.15.58a1.17,1.17,0,0,1-.43.74,1.51,1.51,0,0,1-1.06.25H168l.08-.84a1.59,1.59,0,0,0,.39.09h2.11a.24.24,0,0,0,.27-.27c0-.1,0-.12-.19-.12h-1.1a1.32,1.32,0,0,1-.84-.16.75.75,0,0,1-.32-.64.78.78,0,0,1,0-.22l.19-.76a1.19,1.19,0,0,1,.47-.69,1.49,1.49,0,0,1,.79-.15h3.31"/></g></svg>