<svg xmlns="http://www.w3.org/2000/svg" xmlns:xlink="http://www.w3.org/1999/xlink" viewBox="0 0 203.12 54.94"><defs><style>.f2f5983e-86d7-4e1e-9435-4184bb14582c{isolation:isolate;}.b0290ecf-5ad5-4e13-b5bd-31bb1302fede{fill:url(#b21b5401-5b3f-44b9-a1d7-e3235dc1e7ed);}.e8309e4b-e53e-4457-b8c4-afd7d488d3ee{mix-blend-mode:multiply;}.ebe41f23-53ee-421e-8e2a-5e529fd231fc{fill:url(#a402017a-dcf4-4a17-9c91-25d4e2e1d67e);}</style><linearGradient id="b21b5401-5b3f-44b9-a1d7-e3235dc1e7ed" x1="2.91" y1="27.47" x2="200.21" y2="27.47" gradientUnits="userSpaceOnUse"><stop offset="0.35" stop-color="#b41e81"/><stop offset="0.63" stop-color="#ad558b"/></linearGradient><linearGradient id="a402017a-dcf4-4a17-9c91-25d4e2e1d67e" x1="2.91" y1="27.47" x2="200.21" y2="27.47" gradientUnits="userSpaceOnUse"><stop offset="0.35" stop-color="#00a3cc" stop-opacity="0"/><stop offset="0.63" stop-color="#00a3cc"/></linearGradient></defs><g class="f2f5983e-86d7-4e1e-9435-4184bb14582c"><g id="a153de49-1428-4e83-9db7-8f124f4a2168" data-name="Layer 2"><path class="b0290ecf-5ad5-4e13-b5bd-31bb1302fede" d="M149,23.92c1.49,1.41,2.24,3.51,2.25,6.28a19.78,19.78,0,0,1-.61,4.45l-3.75,15.8a1.81,1.81,0,0,1-1.76,1.39l-5,0a1.38,1.38,0,0,1-1.33-1.69l3.77-15.54A10.83,10.83,0,0,0,143,31.8q0-3.63-3.42-3.62a5.83,5.83,0,0,0-4.51,2.25,15.33,15.33,0,0,0-2.94,6.39l-3.32,14a1.36,1.36,0,0,1-1.32,1l-5.28,0a1.37,1.37,0,0,1-1.33-1.68l3.8-16a9.09,9.09,0,0,0,.34-2.37c0-2.39-1.14-3.69-3.45-3.68a6.12,6.12,0,0,0-4.71,2.17c-1.28,1.49-2,3.2-2.77,6.59l-3.3,13.93a1.36,1.36,0,0,1-1.32,1l-5.19,0a1.5,1.5,0,0,1-1.45-1.84l6.39-26.36a1.37,1.37,0,0,1,1.31-1l4.83,0a1.35,1.35,0,0,1,1.33,1.66l-.29,1.28h.11a14,14,0,0,1,3.88-2.77,10.55,10.55,0,0,1,4.35-.91,9,9,0,0,1,5.13,1.3,6,6,0,0,1,2.22,2.68.77.77,0,0,0,1.26.24,16.4,16.4,0,0,1,3.87-3,11.74,11.74,0,0,1,5.56-1.33A8.65,8.65,0,0,1,149,23.92Zm11,17.28a5.64,5.64,0,0,0,1.48,4.29,5.32,5.32,0,0,0,3.81,1.35,6.63,6.63,0,0,0,3.85-1.16,5.89,5.89,0,0,0,2-2.19,1.34,1.34,0,0,1,1.18-.75l6,0a.87.87,0,0,1,.76,1.28,16.17,16.17,0,0,1-5.13,5.7,15.48,15.48,0,0,1-9,2.83q-6.06,0-9.22-3.22t-3.19-9a20.45,20.45,0,0,1,1.93-8.58,18.33,18.33,0,0,1,5.79-7.22,15,15,0,0,1,9.16-2.91q6,0,9.17,3.13a11.84,11.84,0,0,1,3.19,8.66,23.39,23.39,0,0,1-.52,4.62.83.83,0,0,1-.81.66l-19.63.1a.6.6,0,0,0-.6.51A14.13,14.13,0,0,0,160.05,41.2Zm4.54-12.34a10.26,10.26,0,0,0-2.9,4.31.38.38,0,0,0,.36.52l11.75-.07a.45.45,0,0,0,.44-.39q.06-.6.06-.87a4.89,4.89,0,0,0-1.48-3.86A5.68,5.68,0,0,0,169,27.23,6.8,6.8,0,0,0,164.59,28.86Zm16.93,21.2,9-37.82a2,2,0,0,1,1.9-1.51l4,0a2,2,0,0,1,1.92,2.42l-8.88,37.39a1.42,1.42,0,0,1-1.38,1.09l-5.32,0A1.28,1.28,0,0,1,181.52,50.06Zm-10-35.1c.15-2.94.36-5.87.63-8.81.48-5.08-7.27-4.88-7.07.11.12,3,.32,5.64.57,8.58.33,3.73,5.67,4,5.87.12Zm8.25,3.16,3.2-4.77a2.76,2.76,0,0,0-1.06-3.69,2.7,2.7,0,0,0-3.66,1c-.77,1.46-2,3.56-2.77,5a2.54,2.54,0,0,0,1,3.36,2.47,2.47,0,0,0,3.32-.94ZM17.09,42.41l-4.75,8.4a2.18,2.18,0,0,1-1.89,1.11L3.77,52A.86.86,0,0,1,3,50.67l23-39.17a1.29,1.29,0,0,1,1.12-.64l9.49,0A1.29,1.29,0,0,1,38,12l4,39a.85.85,0,0,1-.85.94l-5.91,0a1.54,1.54,0,0,1-1.55-1.43l-.58-7.8a.86.86,0,0,0-.86-.8L17.83,42A.86.86,0,0,0,17.09,42.41ZM32.37,32.7c-.3-4.51-.66-11.81-.8-15a.49.49,0,0,0-.92-.19c-2.43,4.83-5.55,10.35-8.22,15.13l-1.1,1.94a.53.53,0,0,0,.46.78H32a.49.49,0,0,0,.48-.53Zm37.38-8.09A10,10,0,0,1,73,32.37c0,.19,0,.37,0,.54a1,1,0,0,1-1,1l-6.19,0a1.09,1.09,0,0,1-1.08-1.07h0a5.47,5.47,0,0,0-1.15-3.67,4,4,0,0,0-3.2-1.32,5.92,5.92,0,0,0-4.42,2,13,13,0,0,0-2.85,4.77,15.38,15.38,0,0,0-1,5.13,8.4,8.4,0,0,0,1.25,4.87A4.08,4.08,0,0,0,57,46.36a5.8,5.8,0,0,0,3.83-1.5A7.85,7.85,0,0,0,63,41.48a1,1,0,0,1,1-.69l6.15,0a1,1,0,0,1,1,1.43,16.37,16.37,0,0,1-5.23,7.08,14.79,14.79,0,0,1-9.34,3.24q-5.87,0-9.18-3.31T44,39.87a19.51,19.51,0,0,1,1.89-8.3,17.62,17.62,0,0,1,5.74-7,15.22,15.22,0,0,1,9.17-2.84Q66.49,21.69,69.75,24.61ZM82.12,42.07c-.43,1.8.21,2.49.61,2.83.94.8,2.44.6,3.46.43.62-.1.91.33.78.91l-1,4.09a1.94,1.94,0,0,1-1.63,1.4,14,14,0,0,1-1.87.15q-4.44,0-6.53-1.7t-2.1-5.59a18.57,18.57,0,0,1,.66-4.27l6-24.76a1.36,1.36,0,0,1,1.31-1l5.29,0a1.36,1.36,0,0,1,1.32,1.67l-1.33,5.58a.69.69,0,0,0,.67.84l2.94,0A1.36,1.36,0,0,1,92,24.24l-.78,3.28a1.35,1.35,0,0,1-1.32,1.05l-4,0a.68.68,0,0,0-.66.52S82.24,41.53,82.12,42.07Zm19.57-23.54.7,0a3.86,3.86,0,0,0,3.75-2.91h0a3.86,3.86,0,0,0-3.72-4.83l-.68,0A3.86,3.86,0,0,0,98,13.7h0A3.85,3.85,0,0,0,101.69,18.53ZM91.75,51.9l4,0a1.88,1.88,0,0,0,1.83-1.46l6.21-26.12a1.39,1.39,0,0,0-1.35-1.7l-5.09,0A1.39,1.39,0,0,0,96,23.69L89.9,49.57A1.89,1.89,0,0,0,91.75,51.9Zm69.62-36.26c-1.05-1.27-2.58-3.17-3.64-4.44a2.71,2.71,0,0,0-3.9,3.76c1.17,1.16,2.82,2.94,4,4.1a2.53,2.53,0,0,0,3.49,0,2.49,2.49,0,0,0,.06-3.46ZM171.53,15c.15-2.94.36-5.87.63-8.81.48-5.08-7.27-4.88-7.07.11.12,3,.32,5.64.57,8.58.33,3.73,5.67,4,5.87.12Zm8.25,3.16,3.2-4.77a2.76,2.76,0,0,0-1.06-3.69,2.7,2.7,0,0,0-3.66,1c-.77,1.46-2,3.56-2.77,5a2.54,2.54,0,0,0,1,3.36,2.47,2.47,0,0,0,3.32-.94ZM17.09,42.41l-4.75,8.4a2.18,2.18,0,0,1-1.89,1.11L3.77,52A.86.86,0,0,1,3,50.67l23-39.17a1.29,1.29,0,0,1,1.12-.64l9.49,0A1.29,1.29,0,0,1,38,12l4,39a.85.85,0,0,1-.85.94l-5.91,0a1.54,1.54,0,0,1-1.55-1.43l-.58-7.8a.86.86,0,0,0-.86-.8L17.83,42A.86.86,0,0,0,17.09,42.41ZM32.37,32.7c-.3-4.51-.66-11.81-.8-15a.49.49,0,0,0-.92-.19c-2.43,4.83-5.55,10.35-8.22,15.13l-1.1,1.94a.53.53,0,0,0,.46.78H32a.49.49,0,0,0,.48-.53Zm37.38-8.09A10,10,0,0,1,73,32.37c0,.19,0,.37,0,.54a1,1,0,0,1-1,1l-6.19,0a1.09,1.09,0,0,1-1.08-1.07h0a5.47,5.47,0,0,0-1.15-3.67,4,4,0,0,0-3.2-1.32,5.92,5.92,0,0,0-4.42,2,13,13,0,0,0-2.85,4.77,15.38,15.38,0,0,0-1,5.13,8.4,8.4,0,0,0,1.25,4.87A4.08,4.08,0,0,0,57,46.36a5.8,5.8,0,0,0,3.83-1.5A7.85,7.85,0,0,0,63,41.48a1,1,0,0,1,1-.69l6.15,0a1,1,0,0,1,1,1.43,16.37,16.37,0,0,1-5.23,7.08,14.79,14.79,0,0,1-9.34,3.24q-5.87,0-9.18-3.31T44,39.87a19.51,19.51,0,0,1,1.89-8.3,17.62,17.62,0,0,1,5.74-7,15.22,15.22,0,0,1,9.17-2.84Q66.49,21.69,69.75,24.61ZM82.12,42.07c-.43,1.8.21,2.49.61,2.83.94.8,2.44.6,3.46.43.62-.1.91.33.78.91l-1,4.09a1.94,1.94,0,0,1-1.63,1.4,14,14,0,0,1-1.87.15q-4.44,0-6.53-1.7t-2.1-5.59a18.57,18.57,0,0,1,.66-4.27l6-24.76a1.36,1.36,0,0,1,1.31-1l5.29,0a1.36,1.36,0,0,1,1.32,1.67l-1.33,5.58a.69.69,0,0,0,.67.84l2.94,0A1.36,1.36,0,0,1,92,24.24l-.78,3.28a1.35,1.35,0,0,1-1.32,1.05l-4,0a.68.68,0,0,0-.66.52S82.24,41.53,82.12,42.07Zm19.57-23.54.7,0a3.86,3.86,0,0,0,3.75-2.91h0a3.86,3.86,0,0,0-3.72-4.83l-.68,0A3.86,3.86,0,0,0,98,13.7h0A3.85,3.85,0,0,0,101.69,18.53ZM91.75,51.9l4,0a1.88,1.88,0,0,0,1.83-1.46l6.21-26.12a1.39,1.39,0,0,0-1.35-1.7l-5.09,0A1.39,1.39,0,0,0,96,23.69L89.9,49.57A1.89,1.89,0,0,0,91.75,51.9Zm69.62-36.26c-1.05-1.27-2.58-3.17-3.64-4.44a2.71,2.71,0,0,0-3.9,3.76c1.17,1.16,2.82,2.94,4,4.1a2.53,2.53,0,0,0,3.49,0,2.49,2.49,0,0,0,.06-3.46Zm31.85,32.62a3.5,3.5,0,1,1,3.43,3.55A3.5,3.5,0,0,1,193.22,48.26Zm6.2.11a2.71,2.71,0,1,0-2.76,2.71A2.75,2.75,0,0,0,199.42,48.37Zm-3.51.27,0,1.38a.28.28,0,0,1-.32.3.28.28,0,0,1-.32-.31l.07-3.46c0-.15.07-.21.22-.2l1.28,0c1,0,1.45.31,1.43,1.17a1,1,0,0,1-1,1.1l.83,1.32a.6.6,0,0,1,.1.25c0,.1-.2.16-.36.15a.4.4,0,0,1-.39-.21l-.89-1.5Zm.74-.56c.49,0,.95,0,1-.6s-.47-.53-.88-.53l-.79,0,0,1.13Z"/><g class="e8309e4b-e53e-4457-b8c4-afd7d488d3ee"><path class="ebe41f23-53ee-421e-8e2a-5e529fd231fc" d="M149,23.92c1.49,1.41,2.24,3.51,2.25,6.28a19.78,19.78,0,0,1-.61,4.45l-3.75,15.8a1.81,1.81,0,0,1-1.76,1.39l-5,0a1.38,1.38,0,0,1-1.33-1.69l3.77-15.54A10.83,10.83,0,0,0,143,31.8q0-3.63-3.42-3.62a5.83,5.83,0,0,0-4.51,2.25,15.33,15.33,0,0,0-2.94,6.39l-3.32,14a1.36,1.36,0,0,1-1.32,1l-5.28,0a1.37,1.37,0,0,1-1.33-1.68l3.8-16a9.09,9.09,0,0,0,.34-2.37c0-2.39-1.14-3.69-3.45-3.68a6.12,6.12,0,0,0-4.71,2.17c-1.28,1.49-2,3.2-2.77,6.59l-3.3,13.93a1.36,1.36,0,0,1-1.32,1l-5.19,0a1.5,1.5,0,0,1-1.45-1.84l6.39-26.36a1.37,1.37,0,0,1,1.31-1l4.83,0a1.35,1.35,0,0,1,1.33,1.66l-.29,1.28h.11a14,14,0,0,1,3.88-2.77,10.55,10.55,0,0,1,4.35-.91,9,9,0,0,1,5.13,1.3,6,6,0,0,1,2.22,2.68.77.77,0,0,0,1.26.24,16.4,16.4,0,0,1,3.87-3,11.74,11.74,0,0,1,5.56-1.33A8.65,8.65,0,0,1,149,23.92Zm11,17.28a5.64,5.64,0,0,0,1.48,4.29,5.32,5.32,0,0,0,3.81,1.35,6.63,6.63,0,0,0,3.85-1.16,5.89,5.89,0,0,0,2-2.19,1.34,1.34,0,0,1,1.18-.75l6,0a.87.87,0,0,1,.76,1.28,16.17,16.17,0,0,1-5.13,5.7,15.48,15.48,0,0,1-9,2.83q-6.06,0-9.22-3.22t-3.19-9a20.45,20.45,0,0,1,1.93-8.58,18.33,18.33,0,0,1,5.79-7.22,15,15,0,0,1,9.16-2.91q6,0,9.17,3.13a11.84,11.84,0,0,1,3.19,8.66,23.39,23.39,0,0,1-.52,4.62.83.83,0,0,1-.81.66l-19.63.1a.6.6,0,0,0-.6.51A14.13,14.13,0,0,0,160.05,41.2Zm4.54-12.34a10.26,10.26,0,0,0-2.9,4.31.38.38,0,0,0,.36.52l11.75-.07a.45.45,0,0,0,.44-.39q.06-.6.06-.87a4.89,4.89,0,0,0-1.48-3.86A5.68,5.68,0,0,0,169,27.23,6.8,6.8,0,0,0,164.59,28.86Zm16.93,21.2,9-37.82a2,2,0,0,1,1.9-1.51l4,0a2,2,0,0,1,1.92,2.42l-8.88,37.39a1.42,1.42,0,0,1-1.38,1.09l-5.32,0A1.28,1.28,0,0,1,181.52,50.06Zm-10-35.1c.15-2.94.36-5.87.63-8.81.48-5.08-7.27-4.88-7.07.11.12,3,.32,5.64.57,8.58.33,3.73,5.67,4,5.87.12Zm8.25,3.16,3.2-4.77a2.76,2.76,0,0,0-1.06-3.69,2.7,2.7,0,0,0-3.66,1c-.77,1.46-2,3.56-2.77,5a2.54,2.54,0,0,0,1,3.36,2.47,2.47,0,0,0,3.32-.94ZM17.09,42.41l-4.75,8.4a2.18,2.18,0,0,1-1.89,1.11L3.77,52A.86.86,0,0,1,3,50.67l23-39.17a1.29,1.29,0,0,1,1.12-.64l9.49,0A1.29,1.29,0,0,1,38,12l4,39a.85.85,0,0,1-.85.94l-5.91,0a1.54,1.54,0,0,1-1.55-1.43l-.58-7.8a.86.86,0,0,0-.86-.8L17.83,42A.86.86,0,0,0,17.09,42.41ZM32.37,32.7c-.3-4.51-.66-11.81-.8-15a.49.49,0,0,0-.92-.19c-2.43,4.83-5.55,10.35-8.22,15.13l-1.1,1.94a.53.53,0,0,0,.46.78H32a.49.49,0,0,0,.48-.53Zm37.38-8.09A10,10,0,0,1,73,32.37c0,.19,0,.37,0,.54a1,1,0,0,1-1,1l-6.19,0a1.09,1.09,0,0,1-1.08-1.07h0a5.47,5.47,0,0,0-1.15-3.67,4,4,0,0,0-3.2-1.32,5.92,5.92,0,0,0-4.42,2,13,13,0,0,0-2.85,4.77,15.38,15.38,0,0,0-1,5.13,8.4,8.4,0,0,0,1.25,4.87A4.08,4.08,0,0,0,57,46.36a5.8,5.8,0,0,0,3.83-1.5A7.85,7.85,0,0,0,63,41.48a1,1,0,0,1,1-.69l6.15,0a1,1,0,0,1,1,1.43,16.37,16.37,0,0,1-5.23,7.08,14.79,14.79,0,0,1-9.34,3.24q-5.87,0-9.18-3.31T44,39.87a19.51,19.51,0,0,1,1.89-8.3,17.62,17.62,0,0,1,5.74-7,15.22,15.22,0,0,1,9.17-2.84Q66.49,21.69,69.75,24.61ZM82.12,42.07c-.43,1.8.21,2.49.61,2.83.94.8,2.44.6,3.46.43.62-.1.91.33.78.91l-1,4.09a1.94,1.94,0,0,1-1.63,1.4,14,14,0,0,1-1.87.15q-4.44,0-6.53-1.7t-2.1-5.59a18.57,18.57,0,0,1,.66-4.27l6-24.76a1.36,1.36,0,0,1,1.31-1l5.29,0a1.36,1.36,0,0,1,1.32,1.67l-1.33,5.58a.69.69,0,0,0,.67.84l2.94,0A1.36,1.36,0,0,1,92,24.24l-.78,3.28a1.35,1.35,0,0,1-1.32,1.05l-4,0a.68.68,0,0,0-.66.52S82.24,41.53,82.12,42.07Zm19.57-23.54.7,0a3.86,3.86,0,0,0,3.75-2.91h0a3.86,3.86,0,0,0-3.72-4.83l-.68,0A3.86,3.86,0,0,0,98,13.7h0A3.85,3.85,0,0,0,101.69,18.53ZM91.75,51.9l4,0a1.88,1.88,0,0,0,1.83-1.46l6.21-26.12a1.39,1.39,0,0,0-1.35-1.7l-5.09,0A1.39,1.39,0,0,0,96,23.69L89.9,49.57A1.89,1.89,0,0,0,91.75,51.9Zm69.62-36.26c-1.05-1.27-2.58-3.17-3.64-4.44a2.71,2.71,0,0,0-3.9,3.76c1.17,1.16,2.82,2.94,4,4.1a2.53,2.53,0,0,0,3.49,0,2.49,2.49,0,0,0,.06-3.46ZM171.53,15c.15-2.94.36-5.87.63-8.81.48-5.08-7.27-4.88-7.07.11.12,3,.32,5.64.57,8.58.33,3.73,5.67,4,5.87.12Zm8.25,3.16,3.2-4.77a2.76,2.76,0,0,0-1.06-3.69,2.7,2.7,0,0,0-3.66,1c-.77,1.46-2,3.56-2.77,5a2.54,2.54,0,0,0,1,3.36,2.47,2.47,0,0,0,3.32-.94ZM17.09,42.41l-4.75,8.4a2.18,2.18,0,0,1-1.89,1.11L3.77,52A.86.86,0,0,1,3,50.67l23-39.17a1.29,1.29,0,0,1,1.12-.64l9.49,0A1.29,1.29,0,0,1,38,12l4,39a.85.85,0,0,1-.85.94l-5.91,0a1.54,1.54,0,0,1-1.55-1.43l-.58-7.8a.86.86,0,0,0-.86-.8L17.83,42A.86.86,0,0,0,17.09,42.41ZM32.37,32.7c-.3-4.51-.66-11.81-.8-15a.49.49,0,0,0-.92-.19c-2.43,4.83-5.55,10.35-8.22,15.13l-1.1,1.94a.53.53,0,0,0,.46.78H32a.49.49,0,0,0,.48-.53Zm37.38-8.09A10,10,0,0,1,73,32.37c0,.19,0,.37,0,.54a1,1,0,0,1-1,1l-6.19,0a1.09,1.09,0,0,1-1.08-1.07h0a5.47,5.47,0,0,0-1.15-3.67,4,4,0,0,0-3.2-1.32,5.92,5.92,0,0,0-4.42,2,13,13,0,0,0-2.85,4.77,15.38,15.38,0,0,0-1,5.13,8.4,8.4,0,0,0,1.25,4.87A4.08,4.08,0,0,0,57,46.36a5.8,5.8,0,0,0,3.83-1.5A7.85,7.85,0,0,0,63,41.48a1,1,0,0,1,1-.69l6.15,0a1,1,0,0,1,1,1.43,16.37,16.37,0,0,1-5.23,7.08,14.79,14.79,0,0,1-9.34,3.24q-5.87,0-9.18-3.31T44,39.87a19.51,19.51,0,0,1,1.89-8.3,17.62,17.62,0,0,1,5.74-7,15.22,15.22,0,0,1,9.17-2.84Q66.49,21.69,69.75,24.61ZM82.12,42.07c-.43,1.8.21,2.49.61,2.83.94.8,2.44.6,3.46.43.62-.1.91.33.78.91l-1,4.09a1.94,1.94,0,0,1-1.63,1.4,14,14,0,0,1-1.87.15q-4.44,0-6.53-1.7t-2.1-5.59a18.57,18.57,0,0,1,.66-4.27l6-24.76a1.36,1.36,0,0,1,1.31-1l5.29,0a1.36,1.36,0,0,1,1.32,1.67l-1.33,5.58a.69.69,0,0,0,.67.84l2.94,0A1.36,1.36,0,0,1,92,24.24l-.78,3.28a1.35,1.35,0,0,1-1.32,1.05l-4,0a.68.68,0,0,0-.66.52S82.24,41.53,82.12,42.07Zm19.57-23.54.7,0a3.86,3.86,0,0,0,3.75-2.91h0a3.86,3.86,0,0,0-3.72-4.83l-.68,0A3.86,3.86,0,0,0,98,13.7h0A3.85,3.85,0,0,0,101.69,18.53ZM91.75,51.9l4,0a1.88,1.88,0,0,0,1.83-1.46l6.21-26.12a1.39,1.39,0,0,0-1.35-1.7l-5.09,0A1.39,1.39,0,0,0,96,23.69L89.9,49.57A1.89,1.89,0,0,0,91.75,51.9Zm69.62-36.26c-1.05-1.27-2.58-3.17-3.64-4.44a2.71,2.71,0,0,0-3.9,3.76c1.17,1.16,2.82,2.94,4,4.1a2.53,2.53,0,0,0,3.49,0,2.49,2.49,0,0,0,.06-3.46Zm31.85,32.62a3.5,3.5,0,1,1,3.43,3.55A3.5,3.5,0,0,1,193.22,48.26Zm6.2.11a2.71,2.71,0,1,0-2.76,2.71A2.75,2.75,0,0,0,199.42,48.37Zm-3.51.27,0,1.38a.28.28,0,0,1-.32.3.28.28,0,0,1-.32-.31l.07-3.46c0-.15.07-.21.22-.2l1.28,0c1,0,1.45.31,1.43,1.17a1,1,0,0,1-1,1.1l.83,1.32a.6.6,0,0,1,.1.25c0,.1-.2.16-.36.15a.4.4,0,0,1-.39-.21l-.89-1.5Zm.74-.56c.49,0,.95,0,1-.6s-.47-.53-.88-.53l-.79,0,0,1.13Z"/></g></g></g></svg>