<svg xmlns="http://www.w3.org/2000/svg" viewBox="0 0 125.54 41.78"><defs><style>.aa94bd3f-399d-4812-a7b2-85f743be241e{fill:#0153a0;}</style></defs><g id="a930a060-3200-45df-8e9a-ee8c2d4772f4" data-name="Layer 2"><path class="aa94bd3f-399d-4812-a7b2-85f743be241e" d="M16,16c.2.29.26.49.39.54,4,1.58,5.34,3.26,5.14,6.32s-2.33,5.49-6.05,6.39c-3.4.84-6.87.26-10.31.42C4,29.74,3.9,29,3.9,28.11c0-7.3,0-14.59,0-21.88,0-1.33.55-1.73,1.79-1.69,3.08.08,6.18,0,9.25.17C18.43,5,20.31,6.45,20.79,9c.57,2.92-.61,4.92-3.9,6.6Zm-6.41,6.5c0,.9,0,1.8,0,2.7,0,2.29.76,2.77,3,2C15.92,26,16.9,21,14.23,18.68a4.11,4.11,0,0,0-4.05-1c-1.19.43-.4,1.92-.55,2.92A11.92,11.92,0,0,0,9.61,22.51Zm0-11.46a7.6,7.6,0,0,0,0,1.35c.19,1-.65,2.4.7,2.82a3.59,3.59,0,0,0,4.07-1.44,5,5,0,0,0,.51-5.11c-.74-1.73-2.37-2.13-4.08-2-1.91.19-1,1.74-1.2,2.75A9.49,9.49,0,0,0,9.61,11.05Z"/><path class="aa94bd3f-399d-4812-a7b2-85f743be241e" d="M57.42,13.6c2.57,5.79.44,9.3-5.84,10-1,.11-2.76-.52-2.67,1.35.09,1.67,1.7,1.57,3,1.66,1,.07,2,.06,3,.14,5,.39,7,4.23,4.47,8.52s-10.86,5.56-14.62,2.44c-2.6-2.17-2-5.1,1.55-7.69-2.32-2.8-2.23-3.63.86-6.95A6.71,6.71,0,0,1,44,20.26c-1.71-3.53-.2-7.1,3.6-8.1s7.59-.22,11.39-.35c.47,0,.9.14.95.71s-.27,1-.94,1C58.49,13.52,58,13.57,57.42,13.6Zm-6.1,16.62c-3.47,0-4.69.8-4.71,3.31s1.81,4.11,4.61,4.2a4.43,4.43,0,0,0,4.81-4C56.09,31.33,54.64,30.27,51.32,30.22Zm2-12.3c0-.78,0-1.14,0-1.5-.17-1.45-.3-3.15-2.15-3.27s-2.14,1.59-2.45,3a3.85,3.85,0,0,0-.1,1.07c.14,1.92-.24,4.61,2.38,4.68S53.12,19.3,53.32,17.92Z"/><path class="aa94bd3f-399d-4812-a7b2-85f743be241e" d="M61.86,20.87c.22-6,3.87-9.42,9.68-9.16,5.52.25,8.77,3.81,8.54,9.34S76,30.38,70.5,30.19,61.67,26.31,61.86,20.87Zm12.66,0a13.09,13.09,0,0,0-.66-5.27,2.82,2.82,0,0,0-2.77-2.16,2.86,2.86,0,0,0-2.84,2.11,17.3,17.3,0,0,0,0,10.81,2.7,2.7,0,0,0,2.59,2,2.89,2.89,0,0,0,2.62-2A15,15,0,0,0,74.52,20.87Z"/><path class="aa94bd3f-399d-4812-a7b2-85f743be241e" d="M26.49,16.15c-1-1.54-.48-2.46.86-3.15a11.18,11.18,0,0,1,9-.72,4.6,4.6,0,0,1,3.46,4.88c-.08,2.7,0,5.4,0,8.1,0,1.49,0,2.89,2.09,3.43-2.26,1.59-4.29,2.23-6.13.38-1.05-1.07-1.49-.81-2.52-.07-3.44,2.47-8,.93-8.57-2.83-.39-2.4.42-4.3,2.77-5.26a42.31,42.31,0,0,1,4.39-1.41c1.41-.41,3.08-.65,2.64-2.68s-1.88-2.76-3.84-2.66A7.38,7.38,0,0,0,26.49,16.15ZM34.66,23c-.41-.78.66-2.12-.84-2.42-1.71-.35-3.95,1.94-4,4,0,1.47.05,3.19,2.11,3C34.78,27.33,34.28,24.87,34.66,23Z"/><path class="aa94bd3f-399d-4812-a7b2-85f743be241e" d="M118.27,30.19c-3.11,0-4.74-1.32-5-4-.24-3-.14-6.11-.21-9.17,0-1.18.44-2.67-1.66-2.63-.69,0-.78-.57-.8-1.16,0-.75.23-1.27,1.06-1.21,1.32.08,1.56-.72,1.39-1.71-.59-3.38,2.46-3.21,4.22-4.22.84-.49,1,.3,1,1,0,1,.06,2,0,3-.08,1.25.11,2.15,1.71,2,.78-.09,1.4.1,1.43,1.13s-.61,1.4-1.54,1.31c-1.41-.15-1.63.62-1.6,1.79.05,3.06,0,6.12,0,9.18,0,1.47.23,2.76,2.19,2.66.43,0,1-.15,1.09.45s-.33,1-.87,1.15C119.8,29.9,118.82,30.07,118.27,30.19Z"/><path class="aa94bd3f-399d-4812-a7b2-85f743be241e" d="M82,12.1a22.58,22.58,0,0,0,3.42,0c1.68-.28,2.42.34,2.88,1.93,1,3.32,2.13,6.59,3.44,10.6,1.41-4,2.71-7.12,3.65-10.37.58-2,1.57-2.63,3.58-2-2.14,5.49-4.31,11-6.4,16.49-.46,1.23-1.34,1-2.21.93s-2,.42-2.46-1C86,23.24,84,17.77,82,12.1Z"/><path class="aa94bd3f-399d-4812-a7b2-85f743be241e" d="M102.34,21.07c0-2.33.15-4.67,0-7s1.26-2,2.72-2,2.57-.18,2.5,1.95c-.16,4.65-.13,9.32,0,14,0,1.8-.87,1.95-2.16,1.68-1.14-.24-3.14,1.09-3-1.62C102.42,25.74,102.35,23.4,102.34,21.07Z"/><path class="aa94bd3f-399d-4812-a7b2-85f743be241e" d="M104.82,8.2C103.06,8,102,7.07,102,5.28a2.67,2.67,0,0,1,2.92-2.85,2.7,2.7,0,0,1,2.88,2.91C107.78,7.08,106.69,8.08,104.82,8.2Z"/><path class="aa94bd3f-399d-4812-a7b2-85f743be241e" d="M67.82,9.83C69.9,7.45,71.39,5.66,73,4c1-1.06,2.31-1.86,3.48-.46s0,2.36-1.16,3C73.14,7.65,71.35,9.63,67.82,9.83Z"/></g></svg>