<svg xmlns="http://www.w3.org/2000/svg" viewBox="0 0 114.73 90.41"><defs><style>.bcfdc7e3-e42d-4988-8e15-0de29a08829b{fill:#77787b;}.b7c7b8ba-4b66-47dc-ad8c-08c3cb8bf5b5{fill:#221f1f;}.b4145616-ff7c-497a-b7b8-98c3b172a571{fill:#d6272d;}.bec18714-2f4b-4ff6-b86a-0253a4179a3a{fill:#d13334;}</style></defs><g id="a9cb04f2-711a-4cd9-af89-a62d46c59907" data-name="Layer 2"><path class="bcfdc7e3-e42d-4988-8e15-0de29a08829b" d="M4.37,80.21v0a7.27,7.27,0,0,1,7.48-7.34A7.66,7.66,0,0,1,17.54,75L15.9,76.89a5.82,5.82,0,0,0-4.07-1.77,4.81,4.81,0,0,0-4.79,5v0a4.84,4.84,0,0,0,4.79,5A5.75,5.75,0,0,0,16,83.37L17.64,85a7.56,7.56,0,0,1-5.89,2.51A7.21,7.21,0,0,1,4.37,80.21Z"/><path class="bcfdc7e3-e42d-4988-8e15-0de29a08829b" d="M18.43,80.21v0A7.36,7.36,0,0,1,26,72.83a7.29,7.29,0,0,1,7.57,7.3v0A7.35,7.35,0,0,1,26,87.5,7.28,7.28,0,0,1,18.43,80.21Zm12.51,0v0a4.92,4.92,0,0,0-4.94-5,4.84,4.84,0,0,0-4.89,5v0a4.91,4.91,0,0,0,4.93,5A4.84,4.84,0,0,0,30.94,80.21Z"/><path class="bcfdc7e3-e42d-4988-8e15-0de29a08829b" d="M35.23,80.21v0a7.32,7.32,0,0,1,7.49-7.34,7.93,7.93,0,0,1,5.58,1.93l-1.62,1.88a5.77,5.77,0,0,0-4.06-1.52,4.85,4.85,0,0,0-4.71,5v0a4.78,4.78,0,0,0,4.94,5.06,6,6,0,0,0,3.5-1.07V81.51H42.64V79.34h6.18v6a9.37,9.37,0,0,1-6.06,2.21A7.12,7.12,0,0,1,35.23,80.21Z"/><path class="bcfdc7e3-e42d-4988-8e15-0de29a08829b" d="M51.31,73.08h2.37l7.77,9.8v-9.8H64V87.26H61.83l-8-10.09V87.26H51.31Z"/><path class="b7c7b8ba-4b66-47dc-ad8c-08c3cb8bf5b5" d="M67,73.08h2.56V87.26H67Z"/><path class="b7c7b8ba-4b66-47dc-ad8c-08c3cb8bf5b5" d="M76.18,75.39h-4.6V73.08H83.36v2.31H78.75V87.26H76.18Z"/><path class="b7c7b8ba-4b66-47dc-ad8c-08c3cb8bf5b5" d="M85,81.24V73.08h2.55v8.06c0,2.64,1.39,4,3.67,4s3.65-1.33,3.65-4V73.08h2.55v8c0,4.24-2.44,6.36-6.24,6.36S85,85.36,85,81.24Z"/><path class="b7c7b8ba-4b66-47dc-ad8c-08c3cb8bf5b5" d="M99.13,85.19l1.53-1.78a6.74,6.74,0,0,0,4.58,1.84c1.58,0,2.58-.71,2.58-1.78v0c0-1-.59-1.56-3.28-2.17-3.09-.73-4.83-1.62-4.83-4.23v0c0-2.43,2.07-4.12,5-4.12a8.13,8.13,0,0,1,5.27,1.79l-1.37,1.88a6.68,6.68,0,0,0-3.94-1.46c-1.49,0-2.36.75-2.36,1.68v0c0,1.1.66,1.59,3.44,2.23,3.07.73,4.67,1.81,4.67,4.16v0c0,2.65-2.14,4.23-5.19,4.23A9,9,0,0,1,99.13,85.19Z"/><polygon class="b4145616-ff7c-497a-b7b8-98c3b172a571" points="56.65 10.97 17.96 35.15 56.65 59.33 56.65 67.39 5.07 35.15 56.65 2.91 56.65 10.97"/><polygon class="b4145616-ff7c-497a-b7b8-98c3b172a571" points="56.65 10.97 17.96 35.15 56.65 59.33 56.65 67.39 5.07 35.15 56.65 2.91 56.65 10.97"/><polygon class="b4145616-ff7c-497a-b7b8-98c3b172a571" points="56.65 46.97 77.6 35.15 56.65 23.33 56.65 17.42 85.66 35.15 56.65 52.88 56.65 46.97"/><polygon class="b4145616-ff7c-497a-b7b8-98c3b172a571" points="56.65 46.97 77.6 35.15 56.65 23.33 56.65 17.42 85.66 35.15 56.65 52.88 56.65 46.97"/><polygon class="b4145616-ff7c-497a-b7b8-98c3b172a571" points="56.65 23.33 35.69 35.15 56.65 46.97 56.65 52.88 27.64 35.15 56.65 17.42 56.65 23.33"/><polygon class="b4145616-ff7c-497a-b7b8-98c3b172a571" points="56.65 23.33 35.69 35.15 56.65 46.97 56.65 52.88 27.64 35.15 56.65 17.42 56.65 23.33"/><polygon class="b4145616-ff7c-497a-b7b8-98c3b172a571" points="56.65 59.33 95.33 35.15 56.65 10.97 56.65 2.91 108.23 35.15 56.65 67.39 56.65 59.33"/><polygon class="bec18714-2f4b-4ff6-b86a-0253a4179a3a" points="56.65 59.33 95.33 35.15 56.65 10.97 56.65 2.91 108.23 35.15 56.65 67.39 56.65 59.33"/><path class="b4145616-ff7c-497a-b7b8-98c3b172a571" d="M59.87,35.15a3.22,3.22,0,1,1-3.22-3.23,3.22,3.22,0,0,1,3.22,3.23"/><path class="b4145616-ff7c-497a-b7b8-98c3b172a571" d="M59.87,35.15a3.22,3.22,0,1,1-3.22-3.23A3.22,3.22,0,0,1,59.87,35.15Z"/></g></svg>