<svg xmlns="http://www.w3.org/2000/svg" xmlns:xlink="http://www.w3.org/1999/xlink" viewBox="0 0 74.48 76.09"><defs><style>.ee804712-d0db-44a8-8b8a-91de88a61be1{fill:url(#a06d5d76-b929-42ff-9e98-84e4b28e0c08);}</style><radialGradient id="a06d5d76-b929-42ff-9e98-84e4b28e0c08" cx="45.35" cy="9.19" r="50.13" gradientUnits="userSpaceOnUse"><stop offset="0" stop-color="#eeb69b"/><stop offset="0.43" stop-color="#dd0012"/><stop offset="1" stop-color="#970001"/></radialGradient></defs><g id="b50095fa-2847-4e66-a2da-c565294410b5" data-name="Layer 2"><polygon points="10.72 65.99 5.45 65.99 5.45 61.35 3.11 61.35 3.11 72.85 5.45 72.85 5.45 68.18 10.72 68.18 10.72 72.85 13.05 72.85 13.05 61.35 10.72 61.35 10.72 65.99"/><path d="M23.87,67.93c0,1.87-.93,2.87-2.61,2.87s-2.64-1-2.64-3v-6.5H16.29v6.58c0,3.24,1.8,5.1,4.93,5.1s5-1.9,5-5.19V61.35H23.87Z"/><polygon points="50.85 69.26 48.24 61.35 46.33 61.35 43.72 69.26 41.18 61.35 38.69 61.35 42.7 72.85 44.64 72.85 47.25 65.3 49.87 72.85 51.82 72.85 55.82 61.35 53.4 61.35 50.85 69.26"/><polygon points="60 67.9 64.25 67.9 64.25 65.81 60 65.81 60 63.45 66.17 63.45 66.17 61.35 57.7 61.35 57.7 72.85 66.39 72.85 66.39 70.75 60 70.75 60 67.9"/><rect x="69.17" y="61.35" width="2.3" height="11.49"/><path d="M36.08,70.45l1,2.4h2.44l-5-11.5H32.46l-5.07,11.5h2.38l1.05-2.4Zm-2.63-6.19,1.77,4.12H31.69Z"/><path class="ee804712-d0db-44a8-8b8a-91de88a61be1" d="M66.52,23.49C66.9,17.6,61,12.15,61,12.15A156.54,156.54,0,0,0,42,43a.29.29,0,0,0,0,.33.28.28,0,0,0,.3,0c3-1.49,15.49-7.93,20.75-12.94A10.12,10.12,0,0,0,66.52,23.49Zm-14-13.29a9.75,9.75,0,0,0-6.95-6.48S44,3.31,42.24,3.07c0,0-6.23,8-3.2,38.31a.24.24,0,0,0,.17.23.26.26,0,0,0,.3-.12c2-2.88,11.11-16.4,13-24.61C52.48,16.88,53.48,12.9,52.51,10.2ZM44,47.6a.26.26,0,0,0,.07.32c2,1.44,8.11,5.71,11.06,6.54,0,0,5.43,1.85,10.16-6.26l-21.06-.74A.28.28,0,0,0,44,47.6Zm26.89-18S53,39.2,43.72,45.43a.25.25,0,0,0,.11.47c3.31,0,15.84,0,16.16,0A12.69,12.69,0,0,0,63.61,45a12.29,12.29,0,0,0,6.77-6.47A12.69,12.69,0,0,0,70.85,29.59ZM30.74,45.43C21.49,39.2,3.61,29.59,3.61,29.59a12.69,12.69,0,0,0,.47,9A12.29,12.29,0,0,0,10.85,45a12.69,12.69,0,0,0,3.62.84c.32.06,12.85,0,16.16,0a.25.25,0,0,0,.11-.47Zm-.47,2L9.21,48.2c4.72,8.11,10.16,6.26,10.16,6.26,2.94-.83,9.05-5.1,11.06-6.54a.25.25,0,0,0,.06-.32A.26.26,0,0,0,30.27,47.46ZM28.9,3.72A9.73,9.73,0,0,0,22,10.2c-1,2.7,0,6.68,0,6.68,1.85,8.21,11,21.73,13,24.61a.25.25,0,0,0,.29.12.23.23,0,0,0,.18-.23c3-30.29-3.21-38.31-3.21-38.31C30.51,3.31,28.9,3.72,28.9,3.72ZM13.48,12.15S7.55,17.6,7.93,23.49a10.15,10.15,0,0,0,3.47,6.89c5.26,5,17.74,11.45,20.74,12.94a.3.3,0,0,0,.31,0,.29.29,0,0,0,0-.33A156.3,156.3,0,0,0,13.48,12.15Z"/></g></svg>