<svg xmlns="http://www.w3.org/2000/svg" viewBox="0 0 81.49 99.75"><defs><style>.acc7f869-0f68-4486-b692-228faf73e7d1{fill:#1c3e94;}.ec60758b-9cb4-42a2-98ad-9b598e31209c{fill:#da0404;}.ba605fcb-221a-49e6-8463-7bb41e995e7f{fill:#050505;}.aebfbd38-11a9-4438-a924-215a2487d4b0{fill:#009641;}.af3eb2e3-febf-4e8f-be45-575262d55791{fill:#003776;}</style></defs><g id="b9000538-e4d9-4dc7-8309-2c468e1d9477" data-name="Layer 2"><path class="acc7f869-0f68-4486-b692-228faf73e7d1" d="M39.07,43.56c0-1-.83-1.08-1.52-1.31.87-1.38-.87-1-1-1.42.95-2,3-1,4.5-1.68a1.28,1.28,0,0,0-1.65-.65c-1.3.61-1.75-.55-2.44-1.1-.23-.18-.09-.77-.72-.74-.17,0-.65-.17-.23-.66.2-.23,0-.79.62-.68,1.25.23,2.41-.54,3.67-.33.42.07,1,0,1-.6s-.61-.36-1-.43l-6.46-1.1a9.17,9.17,0,0,1,2.2-.21c.32,0,.76.07.87-.33s-.3-.5-.6-.63c-.92-.4-1.25-.87-.12-1.45l.59.24c-.33-1.76,1-1,1.93-1.09-.52-1-1.39-1.63-1.66-2.84,1.19.5,1.4,2,2.32,2.08,2.08.19,2.9,1.9,4.23,3,.3.25.52.81,1.4.26-1.07-1-2.05-2-3.08-2.93-.53-.48-1.3-.75-1.23-1.67l.1-.1c.25,0,.42.4,1,0-1.69-.53-1.46-1.8-1.38-3a1.62,1.62,0,0,0-.25-1.13c-.25-.36-.67-.81-.13-1.16s.74.23,1.08.53c.94.82,1,2.09,1.42,3.26.59-.7-.28-1.26.27-1.75,1.19,1.19,1.87,1.38,2.91.84.94,1.61.12,3.56.79,5.41.71-.65.87-1.27.65-1.76-.77-1.67.74-1.28,1.4-1.57.14-.06.59.46.55-.19-.08-1,.39-2.37-1.37-2.46.27-.64.95-.21,1.17-.69.76-.05.86.83,1.55,1.08l.25-1c.29-.08.27.13.36.25.79,1.16,1.34,1.2,2,.14a.74.74,0,0,1,1-.26c.88.33,1.74,1.2,1.27,1.87-1.06,1.49.34,2.86-.17,4.29-.24.69.52.73,1,.47a2.83,2.83,0,0,0,1.22-1.58c.76-1.93,3-2.92,4.11-2.41,2,1,3.46-.35,5.12-.46,1-.07,1.52.22,1.83.8.21.39-.43,1.27-.65,1.42-1.27.93-2.44,1.8-2.19,3.62-1,0-1,1.31-2,1.39-.76.06-1.25,1.53-2.26.38-.27-.32-.62-.07-.86.2-.53.59-.9,1.16-1.92.48-.62-.41-.31.85-.86,1.09-.75.34.29,1.21-.5,1.83-.35.28.85.83,1.65,1.13-.91.53-1.18,1.57-2.62,1.22-1-.24-.72,1-.35,1.58a4,4,0,0,0,2.55,1.53c2.66.77,4.77,2.6,7.21,3.82.29.14.57.43.34.82s-.64.42-1,.11c-1-.92-2.31-1-3.6-1.21-1.79-.31-3.13-1.69-4.72-2.52-.55-.28-1.06-.64-1.61-.92s-1-.38-1.38.13-.75,1,.07,1.39c.1,0,.22.33.17.39-1.39,1.89.16,3.37.65,5A3,3,0,0,1,54.87,52a18,18,0,0,1-2-4.06c-.23-.5-.16-1.52-1-1.24-.68.22-.3,1.11-.19,1.66a22.21,22.21,0,0,0,2.09,5.13c.19.4.77,1,0,1.25-.58.23-.68-.53-.76-.89-.48-2.11-1.77-3.89-2.35-6-.18-.62-.54-1.24-1.27-1.16s-1.38.13-1.55,1-1.36,1.29-1.58,2.31c-.09.46-.47,1.08-1,.9-.84-.26-.35-1.16-.28-1.56.43-2.32.29-2.5-2.25-2,1.22-1.89-1.15-1.54-1.45-2.51-1.32.44-1.44-1-2.25-1.41Z"/><path class="ec60758b-9cb4-42a2-98ad-9b598e31209c" d="M36.18,30.24c-1.13.58-.8,1.05.12,1.45.3.13.73.2.6.63s-.55.33-.87.33a9.17,9.17,0,0,0-2.2.21L40.29,34c.36.07.94-.09,1,.43s-.57.67-1,.6c-1.26-.21-2.42.56-3.67.33-.64-.11-.42.45-.62.68-.42.49.06.67.23.66.63,0,.49.56.72.74.69.55,1.14,1.71,2.44,1.1a1.28,1.28,0,0,1,1.65.65c-1.51.64-3.55-.32-4.5,1.68.16.4,1.9,0,1,1.42-.15.19-.93-.26-.55.32.9,1.38.32,2.64.07,4a3.58,3.58,0,0,0,.42,2.91,1.05,1.05,0,0,1,.06,1.39A.64.64,0,0,1,37,51a.82.82,0,0,1-.48-1.1c.05-.21.08-.56,0-.63-1.9-1.26-1.61-3.55-2.54-5.34-.7.75-1.51,1.32-1.35,2.5a.5.5,0,0,1-.72.48c-1.67-.91-3.15.86-4.8.31a.81.81,0,0,0-.69.4c-.76,1.83-2.72,2.44-3.89,3.84-.34.4-.78.87-1.27.53s-.2-1,.16-1.32c1.28-1.31,1.75-3.13,2.91-4.54.85-1,.34-2.28.29-3.61-1.86,1.63-4.31,1.54-5.83,3.32-.39-.9.58-1.43.14-2.13-1.93,1.38-3.22,3.5-5.39,4.59.77-1.22,1.28-2.56,2.46-3.49a3.91,3.91,0,0,0,1.71-3.66c-.09-.73.15-1.42-1.07-1.45-1,0-.35-.75-.1-1.06.64-.8,1.4-1.52,1.07-2.81-1.19.53-2.71.68-3.66,1.15-2,1-3.18-.57-4.6-.89-1-.22-1.62,1.18-2.36.15,1.78-1.45,1.78-1.45-.45-2.41A12.09,12.09,0,0,1,4.81,33c-.54-.34-1.26.16-1.9-.61,1.6-.23,2.92-1,4.51-.08,1.3.74,2.56-.1,3.74-.74.41-.22.43-.4.11-.74a1.16,1.16,0,0,1-.07-1.79,1.29,1.29,0,0,1,1.56-.26A1.64,1.64,0,0,1,14,30.44c0,.27-.08.53-.12.81,2,0,4,.65,5.26-1.66-.33-.53-1.18-.32-1.81-.61-.91-.41-1.37-1.11-.4-1.73.72-.46.41-1.43,1.38-1.75C20,25,20.81,25.85,21.68,27c.38.49.4,1.74,1.62.57.46-.44,1.74,0,2.65-.14a3.69,3.69,0,0,0,2.91-1.82c1.21.08.53.77.4,1.27-.32,1.21-1.31,2.25-.9,3.67,1-1.9,1.72-3.87,3.7-5,.44-.26.57-1.07.83-1.63s.52-1.37.88-2c.26-.47.73-1.24,1.22-.9.66.46,0,1.08-.34,1.58-.11.19-.34.32-.44.51-.86,1.59-1.7,3.18-2.54,4.77.67-.57,1.32-.27,2-.45-.4,2.13-2.25,3.47-2.24,5.6a2.25,2.25,0,0,0,1.4-1.55C33.51,29.72,34.68,29.6,36.18,30.24Z"/><path class="ba605fcb-221a-49e6-8463-7bb41e995e7f" d="M6.64,75.66q.69-7.5,1.4-15c.23-2.38-.53-3.12-2.81-2.32a1.41,1.41,0,0,1-2.09-1c-.32-1,.62-1.15,1.31-1.36s1.62-.48,2.44-.64C8,55.15,9,55,9.17,53.57a1.15,1.15,0,0,1,1.27-.91c.7,0,1.38.36,1.41,1,.08,1.53,1.19,1.1,2,1.12a30.32,30.32,0,0,1,12.63,2.75,14.39,14.39,0,0,1,6.51,6.19,2.66,2.66,0,0,1-.5,3.39,17.53,17.53,0,0,1-5.63,3.68c-.91.42-1,.73-.37,1.53,2.27,3,4.22,6.27,6.8,9.07a3.14,3.14,0,0,1,.88,2.48c0,.41.07,1-.49,1.15a1.1,1.1,0,0,1-1.19-.47q-2.55-2.84-5.09-5.68l-.56-.63c-4.94-5.73-6.42-6.36-14-6.19-.94,0-1,.47-1,1.15a31.22,31.22,0,0,0,.92,7.88,11.74,11.74,0,0,1,.07,5c-.1.6-.34,1.3-1.09,1.33s-.63-.69-.74-1.14-.28-.69-.86-.75a3.05,3.05,0,0,1-2.72-2.81A41.81,41.81,0,0,1,6.64,75.66Zm5.3-10.91c-.08,2.64-.07,2.69,2.55,2.48a25.75,25.75,0,0,0,8.51-2c.83-.38,2.08-.47,2.06-1.69,0-1.06-1-1.52-1.87-2a7,7,0,0,0-1.07-.5,50.72,50.72,0,0,0-9-2.11c-.71-.11-.86.11-.88.77C12.16,61.37,12,63.06,11.94,64.75Z"/><path class="aebfbd38-11a9-4438-a924-215a2487d4b0" d="M36.18,30.24c-1.5-.64-2.67-.52-3.39,1.2A2.25,2.25,0,0,1,31.39,33c0-2.13,1.84-3.47,2.24-5.6-.64.18-1.29-.12-2,.45.84-1.59,1.68-3.18,2.54-4.77.1-.19.33-.32.44-.51.3-.5,1-1.12.34-1.58-.49-.34-1,.43-1.22.9-.36.63-.58,1.33-.88,2s-.39,1.37-.83,1.63c-2,1.15-2.72,3.12-3.7,5-.41-1.42.58-2.46.9-3.67.13-.5.81-1.19-.4-1.27.1-.58.44-1.19-.24-1.67a1.66,1.66,0,0,1-.29-.3c1.4-1.26-.43-1.1-.75-1.49.1-.79,2.67.4,1.06-1.52,0,0,.12-.17.19-.18,1.88-.19.73-1.2.5-1.93.64-.41,1.18.38,1.77.14.2-.9-1-.92-.91-1.71.48-.3.71.12,1,.34.71.53,3.67,0,4.21-.64.32-.4,0-.62-.12-.88A9.52,9.52,0,0,0,33.08,13a4.94,4.94,0,0,1-1.62-3.77c0-1.67.77-2.32,2.35-1.89.91.25,1.56.5,1.9-.79.26-1,1.22-1,2.12-.8.67.17,1.38.38,1.24,1.29a1.93,1.93,0,0,1-1.74,1.59c-.41.09-1-.28-1.19.31s.31.89.84,1.08c.79.28.25,1.3.94,1.71.12-.19.36-.39.34-.56-.18-1.68.35-2.44,2.19-2.93,1.41-.39,1.52.24,1.92,1,.28.51.18,1.41,1,1.32s.67-.89.67-1.5.07-1,.94-.5,2.25-.92,2.62-2.34c2.1,1.1,2,3.35,2.6,5.42,2.4-.51,2.17-3,3.3-4.52.23-.3,0-1.06.72-.85.55.16.37.7.27,1.16-.22,1.09,0,2.23-.47,3.3a1,1,0,0,0,.23,1.25c.9.55.89,1.45.92,2.42,1-.28,1.08-1.47,2.22-1.46.59,0,1.22-.5,1.77.1s.21,1.17,0,1.76c-.27.77-.88,1.41-1.61,1.19s-1.18.2-1.75,0-.56.38-.77.63,0,.6.32.75c1.12.57,1.08,1.44.68,2.42-.53.56-1.73.77-1.06,2,.2.38.64.8.14,1.17a1.27,1.27,0,0,1-1.7-.25,6.74,6.74,0,0,1-1.88-3.71c-.11-.75-.33-.74-.83-.85s-1.21-.23-1.45-.76c-.6-1.35-1.07-.95-1.6,0-.13.25-.35.44-.5.68-.28.45-1.32.54-.74,1.4.68,1,1.17-.13,1.85-.38,0,1.16-1.09,1.69-1.21,2.77,1.1,0,1.26-1.1,2.25-1.44a18.83,18.83,0,0,1-.79,2.16c-.29.55-.21.83.33,1-.22.48-.9.05-1.17.69,1.76.09,1.29,1.43,1.37,2.46,0,.65-.41.13-.55.19-.66.29-2.17-.1-1.4,1.57.22.49.06,1.11-.65,1.76-.67-1.85.15-3.8-.79-5.41-1,.54-1.72.35-2.91-.84-.55.49.32,1.05-.27,1.75-.45-1.17-.48-2.44-1.42-3.26-.34-.3-.61-.83-1.08-.53s-.12.8.13,1.16a1.62,1.62,0,0,1,.25,1.13c-.08,1.22-.31,2.49,1.38,3-.56.36-.73,0-1,0l-.22-.13.12.23c-.07.92.7,1.19,1.23,1.67,1,.93,2,1.91,3.08,2.93-.88.55-1.1,0-1.4-.26-1.33-1.1-2.15-2.81-4.23-3-.92-.09-1.13-1.58-2.32-2.08.27,1.21,1.14,1.83,1.66,2.84-.88.08-2.26-.67-1.93,1.09Z"/><path class="ba605fcb-221a-49e6-8463-7bb41e995e7f" d="M59.44,59.2a3.36,3.36,0,0,0-1.89.39c-1,.52-1.34-.3-1.68-.88-.51-.83.25-1.07.81-1.3a10.29,10.29,0,0,1,1.61-.49c1.66-.35,3.43-.45,3.38-2.91a1.44,1.44,0,0,1,1.81-1.35c1,.17,1,1,.89,1.72-.18,1.34.49,1.44,1.56,1.36a23.87,23.87,0,0,1,8.18,1c2.56.73,3,1.8,2,4.3a13.84,13.84,0,0,1-4.23,5.6c-1,.86-1.4,1.42.27,2a13.37,13.37,0,0,1,4.84,3,4.53,4.53,0,0,1,1,5.57A14.7,14.7,0,0,1,73.12,83c-.64.4-1.13,1-2.22.43-.65-.35-2,.44-2.55,1.24a4.32,4.32,0,0,1-4.16,1.8c-1.23-.07-1.18-.56-1-1.31.66-3.47-.39-6.81-.77-10.2a.64.64,0,0,0-.51-.59c-1.56-.45-2-1.36-1.11-2.73a3.64,3.64,0,0,0,.45-2.7,48.82,48.82,0,0,1-.46-8.28C60.81,59.59,60.69,58.85,59.44,59.2Zm5.84,8.14a13.75,13.75,0,0,0,5.58-6.14c.67-1.33.27-2.06-1.25-2.36a19.84,19.84,0,0,0-4.22-.08c-1.3,0-1.56.66-1.38,1.69C64.39,62.71,64.83,65,65.28,67.34ZM66,71.68c.57,2,.74,3.9,1.09,5.76.24,1.32.11,3.67,1.13,3.69,1.58,0,2.68-1.79,3.49-3.31.15-.3.28-.61.42-.92a2.39,2.39,0,0,0-.4-2.68A7.37,7.37,0,0,0,66,71.68Z"/><path class="ba605fcb-221a-49e6-8463-7bb41e995e7f" d="M53.76,71.57l-6.44-1.46c-.8-.17-1.75-.46-1.76-1.32,0-1.07,1.13-1.18,1.92-1.26A18.23,18.23,0,0,1,58,69.17c.83.43,1,.94.36,1.54-2.6,2.33-3.23,5.53-4,8.69-.13.53,0,1.3-.75,1.25s-.67-.79-.72-1.37c-.22-2.2-.24-2.23-2.28-1.34-3.11,1.37-6.23,2.64-9.75,2.31A13.38,13.38,0,0,1,36.35,79c-2.41-1.14-3.31-3.56-2.69-7,1.4-7.63,5.8-12.14,13.43-13.83a5.32,5.32,0,0,1,5.75,1.86,1.14,1.14,0,0,1,0,1.26c-.25.65-.84.68-1.42.65-2.78-.13-5.24,1.05-7.73,2-.37.13-1.75.36-.4,1.37.59.44,0,1.24-.4,1.79a16.51,16.51,0,0,0-3,6.88,1.83,1.83,0,0,0,1.4,2.44c4,1.32,7.69,0,11.18-1.78C53.4,74.18,53.15,72.64,53.76,71.57Z"/><path class="acc7f869-0f68-4486-b692-228faf73e7d1" d="M55,21.69c-.67-1.21.53-1.42,1.06-2,1.25.13,1.26,1.2,1.51,2.35.86-1.21,2-.48,2.93-.83.61-.23.91.29.93.86a3.47,3.47,0,0,1-3.83,3.19c-.49-.11-1-.42-.9-.84C57.14,22.84,55.88,22.4,55,21.69Z"/><path class="ec60758b-9cb4-42a2-98ad-9b598e31209c" d="M11.26,25.39a1.3,1.3,0,0,1,1.66-1.22c.79.14,1.39.87,2.34.62.36-.1.51.38.35.74-.28.65-2.69,1.43-3.37,1.13A1.58,1.58,0,0,1,11.26,25.39Z"/><path class="aebfbd38-11a9-4438-a924-215a2487d4b0" d="M41.2,6.26c-1,0-1.26-.53-1.28-1.22s.22-1.15.94-1.16c.94,0,1,.71,1,1.42C41.9,5.85,41.78,6.35,41.2,6.26Z"/><path class="af3eb2e3-febf-4e8f-be45-575262d55791" d="M39,43.52l-.2.21s0-.11,0-.15.15-.15.25,0Z"/><path class="af3eb2e3-febf-4e8f-be45-575262d55791" d="M40.68,27.29l-.12-.23.22.13Z"/><path d="M15.05,94.24H13.66v1.08h1.55v.55H13V92.19h2.14v.55H13.66v1h1.39Z"/><path d="M17.55,95.87V92.19h.76l1,1.58A10.91,10.91,0,0,1,19.89,95h0c0-.49-.06-1-.06-1.53V92.19h.63v3.68h-.7l-1-1.62A12.75,12.75,0,0,1,18.15,93h0c0,.47,0,1,0,1.56v1.32Z"/><path d="M23.69,92.75h-1v-.56h2.78v.56H24.37v3.12h-.68Z"/><path d="M29.66,94.24H28.28v1.08h1.55v.55H27.6V92.19h2.15v.55H28.28v1h1.38Z"/><path d="M32.16,92.24a5.78,5.78,0,0,1,1-.08,1.71,1.71,0,0,1,1.14.3.92.92,0,0,1,.31.73,1,1,0,0,1-.66.93h0a.94.94,0,0,1,.51.71,7.53,7.53,0,0,0,.29,1h-.69a5.16,5.16,0,0,1-.25-.87c-.1-.48-.28-.63-.66-.64h-.34v1.51h-.67Zm.67,1.63h.4c.45,0,.74-.24.74-.61s-.29-.59-.72-.59a2.66,2.66,0,0,0-.42,0Z"/><path d="M37.75,92.75h-1v-.56h2.78v.56H38.42v3.12h-.67Z"/><path d="M42,94.83l-.31,1H41l1.18-3.68H43l1.2,3.68H43.5l-.33-1Zm1.06-.51-.29-.91c-.07-.22-.13-.47-.19-.69h0c0,.22-.11.47-.17.69l-.29.91Z"/><path d="M47.16,92.19v3.68h-.67V92.19Z"/><path d="M49.67,95.87V92.19h.77l1,1.58A9.56,9.56,0,0,1,52,95h0c0-.49-.06-1-.06-1.53V92.19h.62v3.68H51.9l-1-1.62A10.94,10.94,0,0,1,50.28,93h0c0,.47,0,1,0,1.56v1.32Z"/><path d="M58.22,94.37c0-.48,0-1.05,0-1.55h0c-.12.45-.27,1-.43,1.41l-.54,1.6h-.52l-.49-1.58c-.14-.47-.27-1-.37-1.43h0c0,.48,0,1.07-.07,1.57l-.08,1.48H55l.25-3.68h.88l.48,1.48c.13.43.25.87.34,1.28h0c.1-.4.22-.85.37-1.29l.5-1.47h.88L59,95.87h-.66Z"/><path d="M63.44,94.24H62.05v1.08H63.6v.55H61.38V92.19h2.14v.55H62.05v1h1.39Z"/><path d="M65.94,95.87V92.19h.76l1,1.58A10.91,10.91,0,0,1,68.28,95h0c0-.49-.05-1-.05-1.53V92.19h.62v3.68h-.7l-1-1.62A12.75,12.75,0,0,1,66.54,93h0c0,.47,0,1,0,1.56v1.32Z"/><path d="M72.08,92.75H71v-.56h2.78v.56H72.76v3.12h-.68Z"/></g></svg>