<svg xmlns="http://www.w3.org/2000/svg" viewBox="0 0 75.82 84.97"><defs><style>.bfd2ddad-4348-4e92-8fcf-9e4951903eb9{fill:#1e110d;}.a0070432-e03a-4922-a868-f4b8eb5e28b6{fill:#f7be00;}.e30971b6-29be-44e7-8fc1-5ee24a64ec1e{fill:#ff5100;}.b95a9983-a7cd-427c-a467-c991e4510a0b{fill:#e1251b;}.a0b1ae34-29f1-48da-9a5b-d9b60d0956f3{fill:#fff;}</style></defs><g id="b0a4fa6e-4102-4a54-b4db-4a9d34cf1c3b" data-name="Layer 2"><path class="bfd2ddad-4348-4e92-8fcf-9e4951903eb9" d="M71.87,47.42a6.15,6.15,0,0,0-6.55-4.36,19.77,19.77,0,0,0-2.31.27,9.14,9.14,0,0,0,2.55-4.4l2.73.17h.08a1.22,1.22,0,0,0,.83-.34l.14-.18a1.57,1.57,0,0,0,.21-.17.86.86,0,0,0,.14-.18,1.46,1.46,0,0,0,.21-.16l.14-.18a1.57,1.57,0,0,0,.21-.17,1.15,1.15,0,0,0,.14-.17l.2-.17a1.19,1.19,0,0,0,.15-.18,1.56,1.56,0,0,0,.2-.16,1.19,1.19,0,0,0,.15-.18,1.06,1.06,0,0,0,.2-.17.65.65,0,0,0,.15-.18,1,1,0,0,0,.2-.16c.06-.06.1-.12.15-.18A1.06,1.06,0,0,0,72,36a1.22,1.22,0,0,0,.15-.17l.2-.17a1,1,0,0,0,.3-.88c-.21-1.47-.43-2.85-.69-4.34a1.12,1.12,0,0,0-1-.9l-3.35-.31,0-.05a.91.91,0,0,0,.18-.21,1.09,1.09,0,0,0,.17-.13,1.18,1.18,0,0,0,.18-.21,1.09,1.09,0,0,0,.17-.13,1.24,1.24,0,0,0,.18-.22.7.7,0,0,0,.17-.13.91.91,0,0,0,.18-.21,1.09,1.09,0,0,0,.17-.13,1.68,1.68,0,0,0,.18-.21l.17-.14a.91.91,0,0,0,.18-.21,1.09,1.09,0,0,0,.17-.13,1.18,1.18,0,0,0,.18-.21,1.09,1.09,0,0,0,.17-.13,1.24,1.24,0,0,0,.18-.22.7.7,0,0,0,.17-.13,1,1,0,0,0,.33-.92c-.25-1.69-.52-3.32-.83-5a1.11,1.11,0,0,0-1-.89h0l.14-.18a1.57,1.57,0,0,0,.21-.17,1,1,0,0,0,.26-1c-.34-1.2-.69-2.38-1.07-3.61a1.13,1.13,0,0,0-.84-.75c-4.59-1-5.86-1.22-10.45-1.9a1.2,1.2,0,0,0-1,.3,1,1,0,0,0-.17.21,1.09,1.09,0,0,0-.35.35.83.83,0,0,0-.18.13,1.12,1.12,0,0,0-.17.21.62.62,0,0,0-.18.14,1.06,1.06,0,0,0-.17.2,1.09,1.09,0,0,0-.35.35.83.83,0,0,0-.18.13,1.57,1.57,0,0,0-.17.21,1.09,1.09,0,0,0-.35.35.83.83,0,0,0-.18.13l0,0a9.13,9.13,0,0,0-1.64-.93c-1.5-.76-4.72-1.2-9.55-1.32-2.15-.05-4,0-4.83,0-2.32.06-2.5.15-2.72.26a1.31,1.31,0,0,0-.44.4,1.26,1.26,0,0,0-.35.34,1.17,1.17,0,0,0-.35.35,1.26,1.26,0,0,0-.35.34,1.17,1.17,0,0,0-.35.35,1.14,1.14,0,0,0-.35.34,1.26,1.26,0,0,0-.35.34,1.17,1.17,0,0,0-.35.35,1.26,1.26,0,0,0-.35.34,1.11,1.11,0,0,0-.52.8,1.38,1.38,0,0,0,0,.29c.24,1.36.5,2.78.77,4.24l-1.1,0a1.28,1.28,0,0,0-.76.32c0-.31,0-.62.07-.92.05-.83.11-1.62.08-2.42-.13-3.89-1.91-6-5.28-6.4a17.33,17.33,0,0,0-10.93,2.72,15.43,15.43,0,0,0-3,2.34l-.35.34-.35.35L10,18l-.35.35-.35.34L9,19l-.35.35-.35.34a10.51,10.51,0,0,0-3.21,5.55C4.6,27.43,5,30.37,9.26,31.83a20,20,0,0,0,2.05.58c-1.3.09-2.58.19-3.86.3a1.13,1.13,0,0,0-.87.52,1,1,0,0,0-.35.34,1.26,1.26,0,0,0-.35.34,1.17,1.17,0,0,0-.35.35,1.14,1.14,0,0,0-.35.34,1.17,1.17,0,0,0-.35.35,1,1,0,0,0-.35.34,1.26,1.26,0,0,0-.35.34,1.17,1.17,0,0,0-.35.35,1.06,1.06,0,0,0-.51.82l-.09,1a44.1,44.1,0,0,0-.25,5.7,16.12,16.12,0,0,0,.95,4.65,8.77,8.77,0,0,0,1.78,3l-.06.08a1.25,1.25,0,0,0-.19.15,1.46,1.46,0,0,0-.16.19l-.19.15a1.56,1.56,0,0,0-.16.2,1.25,1.25,0,0,0-.19.15.9.9,0,0,0-.15.19.88.88,0,0,0-.35.35l-.2.14a1,1,0,0,0-.15.2,1,1,0,0,0-.2.15.9.9,0,0,0-.15.19l-.2.15a1.09,1.09,0,0,0-.32.83A126.33,126.33,0,0,0,6.15,76.2,1.11,1.11,0,0,0,7,77c1.48.34,2.91.64,4.4.93a1.18,1.18,0,0,0,1-.3,1.2,1.2,0,0,0,.17-.21,1.1,1.1,0,0,0,.18-.14,1.63,1.63,0,0,0,.17-.2l.18-.14a1.63,1.63,0,0,0,.17-.2l.18-.14a1.73,1.73,0,0,0,.17-.21,1.1,1.1,0,0,0,.18-.14,1.63,1.63,0,0,0,.17-.2l.18-.14a1.2,1.2,0,0,0,.17-.21,1.1,1.1,0,0,0,.18-.14,1.63,1.63,0,0,0,.17-.2l.18-.14a1.63,1.63,0,0,0,.17-.2l.18-.14a1.06,1.06,0,0,0,.16-.21.85.85,0,0,0,.19-.14,1,1,0,0,0,.3-1c-.16-.73-.3-1.39-.44-2q3.5,4.31,6.61,8.41h0a1.15,1.15,0,0,0,.93.45h.16c.26,0,2.64-.36,5.38-.51a1.12,1.12,0,0,0,.79-.36l.12-.16a1,1,0,0,0,.23-.19s.08-.1.12-.15l.11-.08c0,.42,0,.84.07,1.26a1.12,1.12,0,0,0,1.09,1c1.89.08,3.74.11,5.61.11l2.06,0a1.16,1.16,0,0,0,.95-.52l0,0a1,1,0,0,0,.29.47,1.17,1.17,0,0,0,.81.32h0c2.49-.09,4.91-.26,7.4-.5a1.16,1.16,0,0,0,.86-.52,1.14,1.14,0,0,0,.35-.34,1.17,1.17,0,0,0,.35-.35,1,1,0,0,0,.35-.34,1.26,1.26,0,0,0,.35-.34,1.17,1.17,0,0,0,.35-.35,1.14,1.14,0,0,0,.35-.34,1.17,1.17,0,0,0,.35-.35h0A4.43,4.43,0,0,0,55.29,80l.47,0a14.25,14.25,0,0,0,8.1-3.84c.19-.17.37-.35.55-.53l.35-.34c.12-.11.24-.23.35-.35s.24-.22.35-.34l.35-.34c.12-.12.24-.23.35-.35l.35-.34L67,73a16.87,16.87,0,0,0,3.55-5.23,29.2,29.2,0,0,0,2.24-9.94h0c0-.14,0-.28,0-.41,0-.4.07-.82.08-1.24A23.9,23.9,0,0,0,71.87,47.42Z"/><path class="a0070432-e03a-4922-a868-f4b8eb5e28b6" d="M7.28,51.11c2.28.11,6.54.25,6.54.25,0-.21,12.78,16.79,13,17.27-.4-7-.45-9.52-.59-16.58l3.76.06c.48,10.13.86,13.44,1.66,23.64-2.95.15-5.49.51-5.48.51-4.57-6-9.47-12-14.32-17.6h-.13c1.08,7,1.54,8.08,3.09,15.15-1.47-.28-2.9-.58-4.36-.91A125,125,0,0,1,7.28,51.11Z"/><path class="e30971b6-29be-44e7-8fc1-5ee24a64ec1e" d="M7.55,33.79c2.87-.25,5.84-.44,8.57-.61,0,.25,0,.54,0,.82,0,2,.06,3.93.23,5.89A4,4,0,0,0,17,41.61a2,2,0,0,0,3.67-.12,6.14,6.14,0,0,0,.83-2.62,45,45,0,0,0,0-6.15c-.19-2.17-1.54-3.46-3.81-3.87a32.89,32.89,0,0,1-4.84-1.13c-2.64-.9-4-2.55-3.48-5.39s2.51-5.12,5.38-6.83a16.24,16.24,0,0,1,10.2-2.57c2.86.31,4.15,2.08,4.27,5.37,0,1.13-.11,2.28-.17,3.57-2.78.05-5.58.17-8.3.35-.07-1.1,0-2.13-.18-3.08-.23-1.52-1.27-2.09-2.74-1.63A3.68,3.68,0,0,0,15.44,20c-.82,2.51-.15,3.83,2.34,4.28,1.74.32,3.55.56,5.38.74a5,5,0,0,1,4.6,3.58A31.55,31.55,0,0,1,29,34.17a19.57,19.57,0,0,1-1.12,10.14,9.4,9.4,0,0,1-9.31,6,21.44,21.44,0,0,1-4.44-.51,7.91,7.91,0,0,1-6-5.14,15,15,0,0,1-.89-4.35A52.85,52.85,0,0,1,7.55,33.79Z"/><path class="e30971b6-29be-44e7-8fc1-5ee24a64ec1e" d="M48.89,32.41c-.41.09.07,2.41.15,2.7.39,1.37,1.21,3.28,2.61,4a7.29,7.29,0,0,0,5.93-.22,4.18,4.18,0,0,0,1.51-1.31,5.06,5.06,0,0,0,.55-1.91c1.72,0,3.45.09,5.17.15,0,0,.22,4.53-3,7S52.19,46,49.35,44a6.33,6.33,0,0,1-2.24-3.24,21.67,21.67,0,0,1-.75-7.12c0-.51,0-1,0-1.57l-1.68-.34c.44,4.29.86,8.53,1.25,12.82l-4.51.22c.25-8.33-.58-16.58-.77-24.9,0-.31-4.15-.87-4.15-.85q-.51-2.64-1-5.27c0-.18,12.88-.59,16.06,1,3.69,1.65,4.58,4.83,4.61,9,0,3.69-.06,6.49-3.75,7.89A26.38,26.38,0,0,1,48.89,32.41ZM45.7,24.75c2.07.25,2.54.48,4.51,0a2,2,0,0,0,1.88-2.16,2.63,2.63,0,0,0-1.87-2.35c-2-.88-2.59-.77-4.69-.73C45.59,21.29,45.64,23,45.7,24.75Z"/><path class="a0070432-e03a-4922-a868-f4b8eb5e28b6" d="M39.22,29c0,2,0,4,0,6-2.69-.08-3.12-.17-5.78-.22,0,1.51,0,3,0,4.55l6.21,0c.08,1.76.15,3.44.22,5.22l-8.94,0q-.21-11,0-22.23c3.42-.14,4.63-.18,8.06-.21.08,1.4.16,2.82.24,4.27-2.49,0-2.72,0-5.19.08.1,1.12.2,2.2.3,3.35C36.74,29.55,36.86,29.3,39.22,29Z"/><path class="a0070432-e03a-4922-a868-f4b8eb5e28b6" d="M57,13.06c4.58.68,5.84.91,10.38,1.89.37,1.19.72,2.37,1.06,3.59-3.32-.62-3.26-.61-6.6-1.13l.89,3c3.18.23,2.92,0,6.08.31.3,1.65.58,3.29.82,5-3.69-.55-3.89-.65-7.55-1.11.15,1.3.41,4,.51,5.37,4,.3,4.29.33,8.23.7.25,1.45.47,2.83.68,4.3-5.23-.33-6.84-.41-12.11-.63C59,27.77,58.07,19.72,57,13.06Z"/><path class="e30971b6-29be-44e7-8fc1-5ee24a64ec1e" d="M71.65,57.78a28.28,28.28,0,0,1-2.16,9.6c-1.87,4.19-4.8,6.91-8.62,8a11.42,11.42,0,0,1-2.06.42c-1.92.16-3.13-.82-3.85-2.64a16.68,16.68,0,0,1-1-5.22A78.87,78.87,0,0,1,54.07,56a16.78,16.78,0,0,1,2.29-7.2,8.42,8.42,0,0,1,5.09-4,21,21,0,0,1,3.93-.63,5.06,5.06,0,0,1,5.42,3.63,23.07,23.07,0,0,1,1,8.42C71.75,56.71,71.69,57.25,71.65,57.78ZM58.41,60.2c0,1.66,0,3.35.05,5a15.28,15.28,0,0,0,.62,3.44c.32,1,1.17,1.37,2.34,1.11,2.34-.52,4-2.11,4.84-4.88a24.14,24.14,0,0,0,1-7.94A18.16,18.16,0,0,0,66.75,53a2.28,2.28,0,0,0-2.38-1.78c-2.43-.06-4.05,1.09-5,3.58A17.33,17.33,0,0,0,58.41,60.2Z"/><path class="a0070432-e03a-4922-a868-f4b8eb5e28b6" d="M51.31,76.9c-2.51.24-4.92.41-7.34.5.23-9,.36-17.89.37-26.91-1.36,0-12.33,0-13.78,0,0-1.27.09-2.47.14-3.66,0-.46.39-.35.67-.35,3,0,15.63,0,18.63,0,1.59,0,3.19,0,4.84,0,.06,1.12.12,2.12.17,3.22l-3.47.06C51.79,58.86,51.74,67.84,51.31,76.9Z"/><path class="e30971b6-29be-44e7-8fc1-5ee24a64ec1e" d="M34.26,77.08c-.35-6.1-.65-12.21-.88-18.41,2.69,0,5.32-.11,8-.21.19,6.25.35,12.43.47,18.71C39.34,77.22,36.83,77.19,34.26,77.08Z"/><path class="e30971b6-29be-44e7-8fc1-5ee24a64ec1e" d="M38.67,56.88a5.93,5.93,0,0,1-3.88,0l-.33-.12a2.4,2.4,0,0,1-1.45-2,1.94,1.94,0,0,1,1.82-2.3,8.56,8.56,0,0,1,3.89.36,1.89,1.89,0,0,1,1.56,1.67A2.13,2.13,0,0,1,39,56.74Z"/><path class="b95a9983-a7cd-427c-a467-c991e4510a0b" d="M31.1,4l15.67-.06a3.6,3.6,0,1,1,0,7.18l-15.67.06A3.68,3.68,0,0,1,27.31,7.5,3.59,3.59,0,0,1,31.1,4Z"/><path class="a0b1ae34-29f1-48da-9a5b-d9b60d0956f3" d="M46.77,3.91a3.6,3.6,0,1,1,0,7.18l-15.67.06A3.68,3.68,0,0,1,27.31,7.5,3.59,3.59,0,0,1,31.1,4l15.67-.06m0-.51L31.1,3.46A4.38,4.38,0,0,0,28,4.71,4,4,0,0,0,26.79,7.5a4.18,4.18,0,0,0,4.34,4.16L46.8,11.6a4.46,4.46,0,0,0,3-1.1,4,4,0,0,0,1.29-3.09,4.1,4.1,0,0,0-4.35-4Z"/><path class="a0b1ae34-29f1-48da-9a5b-d9b60d0956f3" d="M50.06,8.12c-.33-.09-.33-.25-.86-1.78-.12-.32-.27-.29-.4-.07l0,.1A11.72,11.72,0,0,1,48,8a.23.23,0,0,1-.16.12c-.09,0-.09.14,0,.14h.69c.13,0,.13-.12,0-.18s-.2-.1-.09-.26h.79c.15.16.08.24-.08.27s-.07.18,0,.18H50c.18,0,.18-.09.11-.14Zm-1.25-.51H48.5l.3-.71,0-.07.27.78Z"/><path class="a0b1ae34-29f1-48da-9a5b-d9b60d0956f3" d="M47.5,6.32c.11,0,.09-.16,0-.16h-.56a.1.1,0,0,0-.07,0L46.4,7s-.06,0-.07,0l0,0-.49-.76a.07.07,0,0,0-.06,0h-.59c-.13,0-.12.16,0,.16s.22.19.23.3V7.82c0,.17-.08.29-.22.29a.09.09,0,0,0,0,.17h.68c.07,0,.07-.18,0-.18A.34.34,0,0,1,45.61,8a.71.71,0,0,1,0-.21V6.62l.67,1.08a.08.08,0,0,0,.09,0l0,0,.5-.83v.94a.27.27,0,0,1-.07.21.37.37,0,0,1-.21.08c-.1,0-.09.18,0,.17h.93c.07,0,.09-.17,0-.17A.2.2,0,0,1,47.32,8a.36.36,0,0,1,0-.21V6.63a.63.63,0,0,1,0-.24c.05,0,.13,0,.21-.07Z"/><path class="a0b1ae34-29f1-48da-9a5b-d9b60d0956f3" d="M44.6,7.9V6.52c0-.24.2-.08.2-.26s-.09-.12-.13-.12h-.61s-.12,0-.12.13.2,0,.2.25V7.9c0,.23-.2.1-.2.25s.09.13.12.13h.61s.13,0,.13-.14-.2,0-.2-.24Z"/><path class="a0b1ae34-29f1-48da-9a5b-d9b60d0956f3" d="M43.43,7.18a3.62,3.62,0,0,0-.57-.27l-.1,0a.27.27,0,0,1-.23-.26.24.24,0,0,1,.27-.25l.05,0a.43.43,0,0,1,.35.17,1.13,1.13,0,0,0,.19.19c.07.09.18.06.12-.09l-.13-.44a.09.09,0,0,0-.16,0c0,.06-.06.07-.12,0a.61.61,0,0,0-.25-.07.17.17,0,0,0-.1,0,.61.61,0,0,0-.61.63.58.58,0,0,0,.22.42,1.24,1.24,0,0,0,.37.17l.13.06.11,0c.13,0,.28.19.28.32s-.17.27-.32.27l-.07,0c-.17,0-.33,0-.61-.35-.11-.13-.21-.06-.16.11s.17.48.24.48.12-.08.12-.14a.76.76,0,0,0,.41.08h.07c.38,0,.72-.16.72-.6a.55.55,0,0,0-.22-.45Z"/><path class="a0b1ae34-29f1-48da-9a5b-d9b60d0956f3" d="M41.53,7.91V6.58c0-.23.21-.13.21-.3s-.1-.13-.13-.13H41s-.12,0-.12.13.19.07.19.3V7.91c0,.24-.18.1-.18.25s.09.14.12.14h.61s.13,0,.13-.13-.21,0-.21-.25Z"/><path class="a0b1ae34-29f1-48da-9a5b-d9b60d0956f3" d="M40.44,8.09a.35.35,0,0,1-.19-.1.68.68,0,0,1,0-.21l0-1.08c0-.16.09-.3.22-.3s.09-.21,0-.21h-.67c-.07,0-.07.21,0,.21a.27.27,0,0,1,.18.1.66.66,0,0,1,.06.2v.8c0,.11,0,.07-.07,0l-.41-.78-.29-.53s0,0-.06,0h-.55c-.14,0-.12.21,0,.21.24,0,.24.18.24.29V7.78c0,.18-.09.32-.24.32s-.06.21,0,.21h.69c.07,0,.07-.2,0-.2A.26.26,0,0,1,39.1,8,.46.46,0,0,1,39,7.78V6.89s.06-.06.08,0l.41.76.33.61s0,.05.06.05h.54c.09,0,.09-.21,0-.21Z"/><path class="a0b1ae34-29f1-48da-9a5b-d9b60d0956f3" d="M38.05,7.78c-.14.2-.16.3-.54.3h0c-.1,0-.11,0-.11-.08V7.33s0-.1.06-.1h.06a.09.09,0,0,1,.1.08c.06.14.18.15.19.05V6.93c0-.14-.13-.15-.19.05s-.05.07-.1.07l-.07,0s0,0,0-.09V6.76c0-.06,0-.2,0-.26a.09.09,0,0,1,.1-.06h0c.46,0,.49.13.56.29s.23.09.2,0l-.1-.5H36.84c-.17,0-.15.17,0,.23s.12,0,.12.26V7.82c0,.2,0,.24-.14.29a.1.1,0,0,0,0,.2h1.24l.2-.52c.05-.14-.09-.18-.21,0Z"/><path class="a0b1ae34-29f1-48da-9a5b-d9b60d0956f3" d="M35.65,8.2v0Z"/><path class="a0b1ae34-29f1-48da-9a5b-d9b60d0956f3" d="M36.33,8.1s-.07,0-.08-.31,0-.27-.17-.36a.6.6,0,0,0,.29-.61.62.62,0,0,0-.62-.61h-1c-.13,0-.15.19,0,.19a.28.28,0,0,1,.21.07s0,.17,0,.23V7.86s0,.17-.06.21a.23.23,0,0,1-.17.08c-.1,0-.08.17,0,.17h.92s0,0,0-.05V8.2s0-.06-.07-.06a.17.17,0,0,1-.14-.08.23.23,0,0,1-.09-.21V7.71c0-.13.13-.11.3-.1h.06c.16,0,.12.36.12.5s.05.21.11.21h.4c.09,0,.13,0,.13-.11s-.11-.09-.14-.1Zm-.68-.82a.49.49,0,0,1-.2,0c-.05,0-.08,0-.08-.06V6.49s0,0,.08,0a.49.49,0,0,1,.2,0,.43.43,0,0,1,.26.39.45.45,0,0,1-.26.4Z"/><path class="a0b1ae34-29f1-48da-9a5b-d9b60d0956f3" d="M34.18,7.79c-.15.21-.16.3-.55.31h0c-.11,0-.12,0-.12-.09V7.34s0-.09.08-.09h.05a.13.13,0,0,1,.12.08c0,.14.15.15.15,0V7c0-.14-.12-.15-.17,0a.1.1,0,0,1-.1.07l-.06,0c-.06,0-.07,0-.07-.09V6.77a1.1,1.1,0,0,1,0-.25.09.09,0,0,1,.1-.06h0c.48,0,.49.13.57.29s.24.09.2,0l-.09-.5H33c-.18,0-.15.16,0,.23s.14,0,.14.26V7.83c0,.21,0,.24-.16.29s-.09.21,0,.21H34.2l.19-.52c0-.14-.11-.17-.21,0Z"/><path class="a0b1ae34-29f1-48da-9a5b-d9b60d0956f3" d="M32,6.4a.65.65,0,0,1,.55-.6.22.22,0,0,0,.16-.27.21.21,0,0,0-.28-.14,1.07,1.07,0,0,0-.87,1,1,1,0,0,0,.16.53c.26.44.56.49.57,1a.61.61,0,0,1-.53.59.83.83,0,0,1-.62-.1.27.27,0,0,0-.32,0l0,0s0,0,0,0a.31.31,0,0,0,0,.23s0,.07.08.08v0A1.49,1.49,0,0,0,31.85,9a1,1,0,0,0,.83-1,1.27,1.27,0,0,0-.47-1A.8.8,0,0,1,32,6.4Z"/><path class="a0b1ae34-29f1-48da-9a5b-d9b60d0956f3" d="M48.81,8.44h-15a1.8,1.8,0,0,1-.17.37A2.94,2.94,0,0,1,31,10.45h-.25a.1.1,0,0,1-.07,0,.09.09,0,0,1-.09,0,2.86,2.86,0,0,1,0-5.68H31a3,3,0,0,1,2,.76.18.18,0,0,0,.25,0,.18.18,0,0,0,0-.27A3.33,3.33,0,0,0,31,4.34H30.6a3.23,3.23,0,0,0,0,6.43H31a3.33,3.33,0,0,0,2.6-1.28,3.44,3.44,0,0,0,.42-.69h16V8.44Z"/><path class="a0b1ae34-29f1-48da-9a5b-d9b60d0956f3" d="M30.7,5.15a.25.25,0,0,0,0-.07.1.1,0,0,0-.06,0,.26.26,0,0,0-.32,0l-1.1.71a.24.24,0,0,0-.09.34.27.27,0,0,0,.35.1l.31-.2a4,4,0,0,1-.82,2.59.24.24,0,0,0,0,.36.25.25,0,0,0,.35,0,4.71,4.71,0,0,0,.94-3.24l.39-.25h0a.16.16,0,0,0,.07-.11.25.25,0,0,0,0-.17Z"/><path class="a0b1ae34-29f1-48da-9a5b-d9b60d0956f3" d="M31.92,8.16c-.3-.1-.3-.26-.79-1.7-.12-.34-.25-.28-.35,0v0a.77.77,0,0,0-.07.17c0,.09-.06.16-.1.23A5.58,5.58,0,0,1,30,8.05a.21.21,0,0,1-.19.09c-.09,0-.09.14,0,.14h.63c.1,0,.1-.1,0-.15s-.2-.1-.09-.28h.71c.13.17.08.23-.06.28s-.08.15,0,.15h.77c.18,0,.17-.09.11-.11Zm-1.14-.49H30.5l.11-.32.1-.21L30.78,7l0,0,.25.75Z"/><path class="a0b1ae34-29f1-48da-9a5b-d9b60d0956f3" d="M32.4,9.07a.27.27,0,0,0-.18-.1.25.25,0,0,0-.26.25,3.26,3.26,0,0,1-1.17.07h-.07l-.1,0a1.58,1.58,0,0,1-.75-.33.12.12,0,0,0-.13,0,1.5,1.5,0,0,0-.37.23.22.22,0,0,0,0,.36.25.25,0,0,0,.34,0c.06,0,.06-.09.12-.06a1.69,1.69,0,0,0,.79.33H31a2.9,2.9,0,0,0,1.4-.31c.05-.06.1-.16,0-.42Z"/></g></svg>