<svg xmlns="http://www.w3.org/2000/svg" viewBox="0 0 96.79 45.71"><defs><style>.a6cc7b7d-9580-4193-b385-e9ffb89d5104{fill:#006937;}</style></defs><g id="a1540af0-8da4-4c7a-aa42-a6339118bedf" data-name="Layer 2"><path class="a6cc7b7d-9580-4193-b385-e9ffb89d5104" d="M12,14.08c0,2.47,2.23,3.58,4.34,4.08C23,19.74,32.05,17.47,36.66,24A12.12,12.12,0,0,1,38.6,31c0,7.11-4.9,12.27-16.06,12.27C9.89,43.29,5.05,37,3.41,31.43a.24.24,0,0,1,.22-.31h6.56a1.54,1.54,0,0,1,1.5.86c1.38,2.34,4.44,5,10.85,5,6,0,9.17-2.28,9.17-5.44,0-2.6-1.6-4.22-4-4.94-6.74-2-15.88.76-20.7-5.9A10.83,10.83,0,0,1,5.16,14.3c0-7,5.67-11.87,15.05-11.87,12.14,0,16.75,5.7,18.08,10.63a.23.23,0,0,1-.23.3H31.71a1.76,1.76,0,0,1-1.41-.7c-1.38-1.86-4.38-3.9-10.09-3.9C14.83,8.76,12,11.2,12,14.08Z"/><path class="a6cc7b7d-9580-4193-b385-e9ffb89d5104" d="M93.4,13.57a.23.23,0,0,0-.24-.23H91.38c-6.19,0-8,2.94-9.08,4.71a.21.21,0,0,1-.4-.11V13.57a.23.23,0,0,0-.24-.23H74.82a.23.23,0,0,0-.23.23V42.23a.23.23,0,0,0,.23.24h6.84a.24.24,0,0,0,.24-.24V27.33c0-4.61,2.28-6.68,8.5-6.68h0a2.7,2.7,0,0,0,3-3Z"/><path class="a6cc7b7d-9580-4193-b385-e9ffb89d5104" d="M56.4,12.59c-9,0-15.69,6.43-15.69,15.31s6.65,15.31,15.62,15.31c6.73,0,12.26-3.7,14.54-9.36a.24.24,0,0,0-.22-.33h-7a1,1,0,0,0-.75.36,8.8,8.8,0,0,1-1.63,1.48A8.65,8.65,0,0,1,56.54,37h-.23a8.93,8.93,0,0,1-8.68-7.42H70.36A1.55,1.55,0,0,0,71.9,28v0A15.44,15.44,0,0,0,56.4,12.59Zm7.76,12.09H48.45a.26.26,0,0,1-.24-.36,8.85,8.85,0,0,1,8.1-5.47h0a8.85,8.85,0,0,1,8.09,5.47A.26.26,0,0,1,64.16,24.68Z"/></g></svg>