<svg xmlns="http://www.w3.org/2000/svg" viewBox="0 0 103.23 41.11"><defs><style>.f8b92759-c179-469d-b72c-6c4089f49359{fill:#004a98;}</style></defs><g id="a7381503-377e-44ac-a215-b6b1fa06fcb1" data-name="Layer 2"><path class="f8b92759-c179-469d-b72c-6c4089f49359" d="M25.54,28.05l.63-7.43s0-.32.14-1.07.2-2,.26-3.47V14.23a5.23,5.23,0,0,1,.17-1.83c.07-.21.36-.47.85-.79a1.42,1.42,0,0,1,.71-.13,3.24,3.24,0,0,1,1.8.72,2.09,2.09,0,0,1,1.14,1.64q0,1.94-.38,6-.54,5.65-.6,6.67v1.57a6,6,0,0,1-.74,2.22,3.29,3.29,0,0,1-1.92.58,2,2,0,0,1-.72-.12c-.45,0-.81-.35-1.05-1.05A4.76,4.76,0,0,1,25.54,28.05Zm6-22.77a2.75,2.75,0,0,1-.77,1.4c-.53.69-1,1-1.43,1l-.3,0-.24,0A2.48,2.48,0,0,1,27.14,7a2.21,2.21,0,0,1-.83-1.51,2.38,2.38,0,0,1,.77-1.86A2.43,2.43,0,0,1,28.77,3a3,3,0,0,1,1.86.76A2,2,0,0,1,31.57,5.28Z"/><path class="f8b92759-c179-469d-b72c-6c4089f49359" d="M54.34,30.89q-1.86-.3-2-1.65-.35-.87-.52-7.86a24.48,24.48,0,0,0-.08-2.45,19.74,19.74,0,0,0-3.64,7.43,21.7,21.7,0,0,0-.63,3,2.45,2.45,0,0,1-2.14,1.31,3.63,3.63,0,0,1-1.66-.49,3.58,3.58,0,0,1-.85-.62,12.86,12.86,0,0,1-.64-3.28c-.12-1.94-.3-4.33-.55-7.19a15.78,15.78,0,0,0-2.8,4.61q-1.1,2.69-1.69,4.73c-.69,1-1.85,1.23-3.49.82-.59-.21-1-.92-1.32-2.15a13.76,13.76,0,0,1-.29-2.9c.14-4.73.21-7.12.21-7.15V13c0-.34.23-.64.7-.91a2.6,2.6,0,0,1,1.3-.4,2.42,2.42,0,0,1,1.74.93,2.64,2.64,0,0,1,.83,1.68,18.84,18.84,0,0,0,0,2.09,18,18,0,0,0-.22,1.86,27.55,27.55,0,0,0,2.08-2.72,36.79,36.79,0,0,1,2.55-3.14,3.8,3.8,0,0,1,2.46-.79,1.71,1.71,0,0,1,1.41.71c.53.32.86,1.41,1,3.25.06,1.18.11,2.38.17,3.6a20.42,20.42,0,0,1,2-3.3,38.72,38.72,0,0,1,4.25-5,3.58,3.58,0,0,1,.75-.43q3.18,0,3.18,3.69-.16,2.67,0,9.29a20.44,20.44,0,0,0,.34,2.74c.07.73.11,1.36.11,1.88a3.42,3.42,0,0,1-.74,2.59A3,3,0,0,1,54.34,30.89Z"/><path class="f8b92759-c179-469d-b72c-6c4089f49359" d="M76.57,31.34a7.82,7.82,0,0,1-.36-.77A4.9,4.9,0,0,1,76,29l.2-12.59a3.64,3.64,0,0,1,0-.67V11.17L76,4.55c0-1.15.82-1.71,2.46-1.7.26,0,.76.35,1.48,1,.5.48.76,1.48.76,3v5.41l-.12,3.83V30.53c-.09.18-.26.48-.5.9a4.33,4.33,0,0,1-1.73.38A4.75,4.75,0,0,1,76.57,31.34Z"/><path class="f8b92759-c179-469d-b72c-6c4089f49359" d="M85.49,30.28a7.61,7.61,0,0,1-3.38-3.54,9.78,9.78,0,0,1-1-4.38,15.23,15.23,0,0,1,2.63-8.17c2-3,4.11-4.56,6.47-4.55a9.09,9.09,0,0,1,6.21,2.87,11,11,0,0,1,3.44,6.08l.27,1.05c.14.54.22.84.22.9a1.75,1.75,0,0,1-1,1.79,14.61,14.61,0,0,1-2.57.43L92,23.83l-3.69.62a2.94,2.94,0,0,0-.71,0l-.66.08c-.27,0-.6,0-1-.06l-.12.11c0,.79.63,1.56,1.88,2.32a7,7,0,0,0,3.73,1.13,30.55,30.55,0,0,0,3-.56c1.75-.37,2.73-.55,2.92-.55s.34.24.36.37,0,.28,0,.45c-.1,1-1,2-2.69,2.88a8.05,8.05,0,0,1-3.64,1.15A13,13,0,0,1,85.49,30.28Zm10-11.75a8,8,0,0,0-1.29-3c-.88-1.36-1.8-2-2.78-2q-1.89,0-3.83,2.67a9,9,0,0,0-1.92,4,1,1,0,0,0,.57.2l.52-.07.51-.06a34.28,34.28,0,0,0,4.18-.73C93.62,19,95,18.68,95.48,18.53Z"/><path class="f8b92759-c179-469d-b72c-6c4089f49359" d="M61.86,10.77c0,.73,0,5.42,0,5.7L62.07,24c.22,1.89,4.17,3,7.64.63,5-2.93,2.2-7.26,1.18-8.21a6,6,0,0,0-5.36-1.32c-.66.13-3.06.94-3.65,3l-.57-4.8a7.15,7.15,0,0,1,4.26-2.56c2.87-.54,5.05.14,7.59,1.8A9.35,9.35,0,0,1,76,24c-3.35,6.74-10.41,6.4-11.7,6.39A10.38,10.38,0,0,1,62.49,30c0,.43,0,1.09.08,2s.1,1.31.1,1.27.09.6.28,1.68.29,1.65.29,1.71a2.3,2.3,0,0,1-.37,1.12,2.13,2.13,0,0,1-.75.81,9.51,9.51,0,0,1-1.11.11,2.56,2.56,0,0,1-2-.81,5.66,5.66,0,0,1-.63-2.76q-.91-13.2-.91-17.65V12.1c0-1.14.13-2,.58-2.25C60,8.7,61.82,9.18,61.86,10.77Z"/><path class="f8b92759-c179-469d-b72c-6c4089f49359" d="M24.32,20.1a5.73,5.73,0,0,0-1.58-2A20.66,20.66,0,0,0,16,14.7c-.56-.15-1.13-.28-1.7-.42-1.37-.33-2.79-.68-4.17-1.09a2.06,2.06,0,0,1-1.63-1.37c-.3-1.24.9-2.89,1.49-3.46l0,0c.37-.61,2.31-1.56,4.11-1.56A2.89,2.89,0,0,1,16.8,8.11a4.41,4.41,0,0,1,.42,1.18,3.2,3.2,0,0,0,.42,1.17,2.67,2.67,0,0,0,1,1.07,4.11,4.11,0,0,0,1.62.21c.27,0,.63-.21,1.17-.69a2.14,2.14,0,0,0,.83-1.89c-.91-4-2.73-6-5.91-6.57a12.87,12.87,0,0,0-2.1-.16A12.08,12.08,0,0,0,10.31,3,13.71,13.71,0,0,0,5.78,6.11a11.41,11.41,0,0,0-2.87,6A4.55,4.55,0,0,0,5,15.86a12.56,12.56,0,0,0,4.18,1.88c1.11.26,2.23.52,3.35.8,5.77,1.35,7,2.7,7,3.61a4.79,4.79,0,0,1-2.14,4.4,9.62,9.62,0,0,1-5.12,1.28c-.33,0-.56,0-.65,0a2.67,2.67,0,0,1-1.79-.66,6.92,6.92,0,0,1-1.11-2.48,1.45,1.45,0,0,0-.58-1.3A1.7,1.7,0,0,0,7.22,23a3.37,3.37,0,0,0-.52.05A2.71,2.71,0,0,0,5,24.71a4.4,4.4,0,0,0-.54,1.71,5.64,5.64,0,0,0,.58,2.67,7.55,7.55,0,0,0,2.55,2.47,8.82,8.82,0,0,0,2,.66,12.75,12.75,0,0,0,2.53.26h.2a13.26,13.26,0,0,0,8.14-2.27,9.56,9.56,0,0,0,4.36-7.92A5.32,5.32,0,0,0,24.32,20.1Z"/></g></svg>