<?xml version="1.0" encoding="utf-8"?>
<!-- Generator: Adobe Illustrator 25.2.3, SVG Export Plug-In . SVG Version: 6.00 Build 0)  -->
<svg version="1.1" xmlns="http://www.w3.org/2000/svg" xmlns:xlink="http://www.w3.org/1999/xlink" x="0px" y="0px"
	 viewBox="0 0 144 56" style="enable-background:new 0 0 144 56;" xml:space="preserve">
<style type="text/css">
	.st0{opacity:0.3;fill:#BFC0C0;}
	.st1{fill:#D52A33;}
	.st2{fill:#D03539;}
	.st3{clip-path:url(#SVGID_10_);fill:#D9D9D9;}
	.st4{clip-path:url(#SVGID_10_);fill:#FFFFFF;}
	.st5{clip-path:url(#SVGID_10_);}
	.st6{clip-path:url(#SVGID_16_);fill:#FFFFFF;}
	.st7{clip-path:url(#SVGID_22_);fill:#FFFFFF;}
	.st8{clip-path:url(#SVGID_28_);fill:#FFFFFF;}
	.st9{clip-path:url(#SVGID_34_);fill:#FFFFFF;}
	.st10{fill:#004C95;}
	.st11{fill:#0B559F;}
	.st12{fill:#0B2C95;}
	.st13{fill:url(#SVGID_37_);}
	.st14{fill:#076839;}
	.st15{fill:#FFFFFF;}
	.st16{fill:#DE2826;}
	.st17{fill:#202D4E;}
	.st18{fill:#77787B;}
	.st19{fill:#221F1F;}
	.st20{fill:#355C83;}
	.st21{fill:url(#SVGID_38_);}
	.st22{fill:url(#SVGID_39_);}
	.st23{fill:url(#SVGID_40_);}
	.st24{fill:#DB5133;}
	.st25{fill:#EAC330;}
	.st26{fill:#CECCCC;}
	.st27{opacity:0.16;fill:url(#SVGID_41_);}
	.st28{fill:#AAC7CA;}
	.st29{opacity:0.16;fill:url(#SVGID_42_);}
	.st30{fill:#838383;}
	.st31{fill:#515252;}
	.st32{fill:#92BCC3;}
	.st33{fill:#E6BF5E;}
	.st34{fill:#8A2780;}
	.st35{fill-rule:evenodd;clip-rule:evenodd;fill:#E0C0A2;}
	.st36{fill-rule:evenodd;clip-rule:evenodd;fill:#9F672E;stroke:#000000;stroke-width:0.5743;stroke-miterlimit:10;}
	.st37{fill-rule:evenodd;clip-rule:evenodd;fill:#FFFFFF;}
	.st38{opacity:0.5;fill-rule:evenodd;clip-rule:evenodd;fill:#8A2780;}
	.st39{fill-rule:evenodd;clip-rule:evenodd;fill:#832F80;}
	.st40{fill-rule:evenodd;clip-rule:evenodd;fill:#C896BB;}
	.st41{fill-rule:evenodd;clip-rule:evenodd;fill:#122129;}
	.st42{fill:#1D1C1A;}
	.st43{fill:none;stroke:#E5E5E5;stroke-width:2.5062;stroke-linecap:round;stroke-linejoin:round;stroke-miterlimit:10;}
	.st44{fill:#832F80;}
	.st45{opacity:0.8;}
	.st46{fill:#434244;}
	.st47{fill:none;stroke:#8A2780;stroke-width:0.8181;stroke-miterlimit:10;}
	.st48{fill:#1F5D8C;}
	.st49{fill:url(#SVGID_43_);}
	.st50{fill:none;stroke:#000000;stroke-width:0.4431;stroke-miterlimit:10;}
	.st51{fill:url(#SVGID_44_);}
	.st52{fill:url(#SVGID_45_);}
	.st53{fill:url(#SVGID_46_);}
	.st54{fill:url(#SVGID_47_);}
	.st55{clip-path:url(#SVGID_49_);fill:#29B080;}
	.st56{clip-path:url(#SVGID_49_);fill:#78DFC1;}
	.st57{clip-path:url(#SVGID_49_);fill:#087897;}
	.st58{clip-path:url(#SVGID_49_);fill:#14808A;}
	.st59{fill:#848484;}
	.st60{fill:url(#SVGID_50_);}
	.st61{clip-path:url(#SVGID_52_);fill:#29B080;}
	.st62{clip-path:url(#SVGID_52_);fill:#78DFC1;}
	.st63{clip-path:url(#SVGID_52_);fill:#087897;}
	.st64{clip-path:url(#SVGID_52_);fill:#14808A;}
	.st65{fill:url(#SVGID_53_);}
	.st66{clip-path:url(#SVGID_55_);}
	.st67{clip-path:url(#SVGID_59_);fill:#29B080;}
	.st68{clip-path:url(#SVGID_59_);fill:#78DFC1;}
	.st69{clip-path:url(#SVGID_59_);fill:#087897;}
	.st70{clip-path:url(#SVGID_59_);fill:#14808A;}
	.st71{clip-path:url(#SVGID_65_);fill:#FFFFFF;}
	.st72{clip-path:url(#SVGID_71_);fill:#FFFFFF;}
	.st73{fill:url(#SVGID_90_);}
	.st74{opacity:0.1;fill:url(#SVGID_91_);}
	.st75{fill:#212429;}
	.st76{clip-path:url(#SVGID_95_);fill:#29B080;}
	.st77{clip-path:url(#SVGID_95_);fill:#78DFC1;}
	.st78{clip-path:url(#SVGID_95_);fill:#087897;}
	.st79{clip-path:url(#SVGID_95_);fill:#14808A;}
	.st80{opacity:0.1;}
	.st81{clip-path:url(#SVGID_101_);}
	.st82{fill:#BFC0C0;}
	.st83{clip-path:url(#SVGID_103_);}
	.st84{fill:url(#SVGID_104_);}
	.st85{fill:url(#SVGID_105_);}
	.st86{fill:url(#SVGID_106_);}
	.st87{fill:url(#SVGID_107_);}
	.st88{fill:url(#SVGID_108_);}
	.st89{fill:url(#SVGID_109_);}
	.st90{fill:none;stroke:url(#SVGID_110_);stroke-width:0.3139;stroke-miterlimit:10;}
	.st91{fill:url(#SVGID_111_);}
	.st92{fill:#FBFBFB;}
	.st93{fill:#F9F9F9;}
	.st94{fill:#F8F8F8;}
	.st95{fill:#F7F7F7;}
	.st96{fill:#F5F5F5;}
	.st97{fill:#F4F4F4;}
	.st98{fill:#F3F3F3;}
	.st99{fill:#F2F2F2;}
	.st100{fill:#F0F0F0;}
	.st101{fill:#EFEFEF;}
	.st102{fill:#EEEEEE;}
	.st103{fill:#ECECEC;}
	.st104{fill:#EBEBEB;}
	.st105{fill:#EAEAEA;}
	.st106{fill:#E8E8E8;}
	.st107{fill:#E7E7E7;}
	.st108{fill:#E6E6E6;}
	.st109{fill:#E5E5E5;}
	.st110{fill:#E3E3E3;}
	.st111{fill:#E2E2E2;}
	.st112{fill:#E1E1E1;}
	.st113{fill:#DFDFDF;}
	.st114{fill:#DEDEDE;}
	.st115{fill:#DDDDDD;}
	.st116{fill:#DBDBDB;}
	.st117{fill:#DADADA;}
	.st118{fill:#D9D9D9;}
	.st119{fill:#D8D8D8;}
	.st120{fill:#D6D6D6;}
	.st121{fill:#D5D5D5;}
	.st122{fill:#D4D4D4;}
	.st123{fill:#D2D2D2;}
	.st124{fill:#D1D1D1;}
	.st125{fill:#D0D0D0;}
	.st126{fill:#CECECE;}
	.st127{fill:#CDCDCD;}
	.st128{fill:#CCCCCC;}
	.st129{fill:#CBCBCB;}
	.st130{fill:#C9C9C9;}
	.st131{fill:#C8C8C8;}
	.st132{fill:#C7C7C7;}
	.st133{fill:#C5C5C5;}
	.st134{fill:#C4C4C4;}
	.st135{fill:#C3C3C3;}
	.st136{fill:#C1C1C1;}
	.st137{fill:#C0C0C0;}
	.st138{fill:#BFBFBF;}
	.st139{fill:#BDBDBD;}
	.st140{fill:#BCBCBC;}
	.st141{fill:#BBBBBB;}
	.st142{fill:#BABABA;}
	.st143{fill:#B8B8B8;}
	.st144{fill:#B7B7B7;}
	.st145{fill:#B6B6B6;}
	.st146{fill:#B4B4B4;}
	.st147{fill:#B3B3B3;}
	.st148{fill:#B2B2B2;}
	.st149{fill:#B0B0B0;}
	.st150{fill:#AFAFAF;}
	.st151{fill:#AEAEAE;}
	.st152{fill:#ADADAD;}
	.st153{fill:#ABABAB;}
	.st154{fill:#AAAAAA;}
	.st155{fill:#A9A9A9;}
	.st156{fill:#A7A7A7;}
	.st157{fill:#A6A6A6;}
	.st158{fill:#A5A5A5;}
	.st159{fill:#A3A3A3;}
	.st160{fill:#A2A2A2;}
	.st161{fill:#A1A1A1;}
	.st162{fill:#A0A0A0;}
	.st163{fill:#9E9E9E;}
	.st164{fill:#9D9D9D;}
	.st165{fill:#9C9C9C;}
	.st166{fill:#9A9A9A;}
	.st167{fill:#999999;}
	.st168{fill:#989898;}
	.st169{fill:#969696;}
	.st170{fill:#959595;}
	.st171{fill:#949494;}
	.st172{fill:#939393;}
	.st173{fill:#919191;}
	.st174{fill:#909090;}
	.st175{fill:#8F8F8F;}
	.st176{fill:#8D8D8D;}
	.st177{fill:#8C8C8C;}
	.st178{fill:url(#SVGID_112_);}
	.st179{fill:#B4B9BB;}
	.st180{fill:none;stroke:url(#SVGID_113_);stroke-width:0.3139;stroke-miterlimit:10;}
	.st181{fill:url(#SVGID_114_);}
	.st182{fill:#FAFAFA;}
	.st183{fill:#F6F6F6;}
	.st184{fill:#F1F1F1;}
	.st185{fill:#EDEDED;}
	.st186{fill:#E4E4E4;}
	.st187{fill:#DCDCDC;}
	.st188{fill:#D3D3D3;}
	.st189{fill:#CFCFCF;}
	.st190{fill:#CACACA;}
	.st191{fill:#C6C6C6;}
	.st192{fill:#C2C2C2;}
	.st193{fill:#BEBEBE;}
	.st194{fill:#B9B9B9;}
	.st195{fill:#B5B5B5;}
	.st196{fill:#ACACAC;}
	.st197{fill:#A4A4A4;}
	.st198{fill:#9B9B9B;}
	.st199{fill:#979797;}
	.st200{fill:#929292;}
	.st201{fill:#8E8E8E;}
	.st202{fill:url(#SVGID_115_);}
	.st203{fill:none;stroke:url(#SVGID_116_);stroke-width:0.3139;stroke-miterlimit:10;}
	.st204{fill:url(#SVGID_117_);}
	.st205{fill:url(#SVGID_118_);}
	.st206{fill:none;stroke:#000000;stroke-width:0.653;stroke-miterlimit:10;}
	.st207{fill:url(#SVGID_119_);}
	.st208{clip-path:url(#SVGID_121_);fill:#29B080;}
	.st209{clip-path:url(#SVGID_121_);fill:#78DFC1;}
	.st210{clip-path:url(#SVGID_121_);fill:#087897;}
	.st211{clip-path:url(#SVGID_121_);fill:#14808A;}
	.st212{clip-path:url(#SVGID_123_);}
	.st213{clip-path:url(#SVGID_125_);}
	.st214{fill:url(#SVGID_126_);}
	.st215{fill:url(#SVGID_127_);}
	.st216{fill:url(#SVGID_128_);}
	.st217{fill:url(#SVGID_129_);}
	.st218{fill:url(#SVGID_130_);}
	.st219{fill:url(#SVGID_131_);}
	.st220{fill:none;stroke:url(#SVGID_132_);stroke-width:0.3139;stroke-miterlimit:10;}
	.st221{fill:url(#SVGID_133_);}
	.st222{fill:#FEFEFE;}
	.st223{fill:#FCFCFC;}
	.st224{fill:#E0E0E0;}
	.st225{fill:#D7D7D7;}
	.st226{fill:#B1B1B1;}
	.st227{fill:#A8A8A8;}
	.st228{fill:#9F9F9F;}
	.st229{fill:url(#SVGID_134_);}
	.st230{fill:none;stroke:url(#SVGID_135_);stroke-width:0.3139;stroke-miterlimit:10;}
	.st231{fill:url(#SVGID_136_);}
	.st232{fill:#FDFDFD;}
	.st233{fill:#E9E9E9;}
	.st234{fill:url(#SVGID_137_);}
	.st235{fill:none;stroke:url(#SVGID_138_);stroke-width:0.3139;stroke-miterlimit:10;}
	.st236{fill:url(#SVGID_139_);}
	.st237{fill:url(#SVGID_140_);}
	.st238{fill:url(#SVGID_141_);}
	.st239{clip-path:url(#SVGID_143_);fill:#29B080;}
	.st240{clip-path:url(#SVGID_143_);fill:#78DFC1;}
	.st241{clip-path:url(#SVGID_143_);fill:#087897;}
	.st242{clip-path:url(#SVGID_143_);fill:#14808A;}
	.st243{fill:url(#SVGID_144_);}
	.st244{fill:url(#SVGID_145_);}
	.st245{fill:none;stroke:url(#SVGID_146_);stroke-miterlimit:10;}
	.st246{fill:none;stroke:url(#SVGID_147_);stroke-miterlimit:10;}
	.st247{fill:none;stroke:url(#SVGID_148_);stroke-miterlimit:10;}
	.st248{fill:none;stroke:url(#SVGID_149_);stroke-miterlimit:10;}
	.st249{fill:none;stroke:url(#SVGID_150_);stroke-miterlimit:10;}
	.st250{fill:url(#SVGID_151_);}
	.st251{fill:none;stroke:url(#SVGID_152_);stroke-miterlimit:10;}
	.st252{fill:url(#SVGID_153_);}
	.st253{fill:none;stroke:url(#SVGID_154_);stroke-miterlimit:10;}
	.st254{fill:none;stroke:url(#SVGID_155_);stroke-miterlimit:10;}
	.st255{fill:none;stroke:url(#SVGID_156_);stroke-miterlimit:10;}
	.st256{fill:none;stroke:url(#SVGID_157_);stroke-miterlimit:10;}
	.st257{fill:none;stroke:url(#SVGID_158_);stroke-miterlimit:10;}
	.st258{fill:url(#SVGID_159_);}
	.st259{fill:none;stroke:url(#SVGID_160_);stroke-miterlimit:10;}
	.st260{clip-path:url(#SVGID_164_);fill:#29B080;}
	.st261{clip-path:url(#SVGID_164_);fill:#78DFC1;}
	.st262{clip-path:url(#SVGID_164_);fill:#087897;}
	.st263{clip-path:url(#SVGID_164_);fill:#14808A;}
	.st264{fill:url(#SVGID_167_);}
	.st265{clip-path:url(#SVGID_171_);fill:#29B080;}
	.st266{clip-path:url(#SVGID_171_);fill:#78DFC1;}
	.st267{clip-path:url(#SVGID_171_);fill:#087897;}
	.st268{clip-path:url(#SVGID_171_);fill:#14808A;}
	.st269{clip-path:url(#SVGID_175_);fill:#29B080;}
	.st270{clip-path:url(#SVGID_175_);fill:#78DFC1;}
	.st271{clip-path:url(#SVGID_175_);fill:#087897;}
	.st272{clip-path:url(#SVGID_175_);fill:#14808A;}
	.st273{clip-path:url(#SVGID_177_);}
	.st274{fill:url(#SVGID_178_);}
	.st275{clip-path:url(#SVGID_180_);}
	.st276{clip-path:url(#SVGID_184_);fill:#29B080;}
	.st277{clip-path:url(#SVGID_184_);fill:#78DFC1;}
	.st278{clip-path:url(#SVGID_184_);fill:#087897;}
	.st279{clip-path:url(#SVGID_184_);fill:#14808A;}
	.st280{fill:#FFFFFF;stroke:#231F20;stroke-width:0.5;stroke-miterlimit:10;}
	.st281{fill:none;stroke:#434244;stroke-width:0.6587;stroke-miterlimit:10;}
	.st282{fill:url(#SVGID_187_);}
	.st283{fill:url(#SVGID_188_);}
	.st284{fill:url(#SVGID_195_);}
	.st285{fill:url(#SVGID_196_);}
	.st286{fill:url(#SVGID_197_);}
	.st287{clip-path:url(#SVGID_199_);fill:#29B080;}
	.st288{clip-path:url(#SVGID_199_);fill:#78DFC1;}
	.st289{clip-path:url(#SVGID_199_);fill:#087897;}
	.st290{clip-path:url(#SVGID_199_);fill:#14808A;}
	.st291{clip-path:url(#SVGID_203_);fill:#FFFFFF;}
	.st292{clip-path:url(#SVGID_207_);}
	.st293{clip-path:url(#SVGID_209_);}
	.st294{fill:url(#SVGID_210_);}
	.st295{fill:url(#SVGID_211_);}
	.st296{fill:url(#SVGID_212_);}
	.st297{fill:url(#SVGID_213_);}
	.st298{fill:url(#SVGID_214_);}
	.st299{fill:url(#SVGID_215_);}
	.st300{fill:none;stroke:url(#SVGID_216_);stroke-width:0.3139;stroke-miterlimit:10;}
	.st301{fill:url(#SVGID_217_);}
	.st302{fill:url(#SVGID_218_);}
	.st303{fill:none;stroke:url(#SVGID_219_);stroke-width:0.3139;stroke-miterlimit:10;}
	.st304{fill:url(#SVGID_220_);}
	.st305{fill:url(#SVGID_221_);}
	.st306{fill:none;stroke:url(#SVGID_222_);stroke-width:0.3139;stroke-miterlimit:10;}
	.st307{fill:url(#SVGID_223_);}
	.st308{fill:url(#SVGID_224_);}
	.st309{fill:url(#SVGID_225_);}
	.st310{clip-path:url(#SVGID_227_);fill:#29B080;}
	.st311{clip-path:url(#SVGID_227_);fill:#78DFC1;}
	.st312{clip-path:url(#SVGID_227_);fill:#087897;}
	.st313{clip-path:url(#SVGID_227_);fill:#14808A;}
	.st314{fill:none;stroke:url(#SVGID_228_);stroke-miterlimit:10;}
	.st315{fill:none;stroke:url(#SVGID_229_);stroke-miterlimit:10;}
	.st316{fill:none;stroke:url(#SVGID_230_);stroke-miterlimit:10;}
	.st317{fill:none;stroke:url(#SVGID_231_);stroke-miterlimit:10;}
	.st318{fill:none;stroke:url(#SVGID_232_);stroke-miterlimit:10;}
	.st319{fill:url(#SVGID_233_);}
	.st320{fill:none;stroke:url(#SVGID_234_);stroke-miterlimit:10;}
	.st321{clip-path:url(#SVGID_236_);}
	.st322{fill:url(#SVGID_237_);}
	.st323{clip-path:url(#SVGID_239_);}
	.st324{clip-path:url(#SVGID_243_);fill:#29B080;}
	.st325{clip-path:url(#SVGID_243_);fill:#78DFC1;}
	.st326{clip-path:url(#SVGID_243_);fill:#087897;}
	.st327{clip-path:url(#SVGID_243_);fill:#14808A;}
	.st328{fill:url(#SVGID_246_);}
	.st329{fill:url(#SVGID_247_);}
	.st330{fill:url(#SVGID_264_);}
	.st331{fill:#1F4193;}
	.st332{fill:#D80D18;}
	.st333{fill:#050505;}
	.st334{fill:#089645;}
	.st335{fill:#043974;}
	.st336{fill:#118556;}
	.st337{fill:#043263;}
	.st338{fill:#1E110D;}
	.st339{fill:#F6BC27;}
	.st340{fill:#FF5200;}
	.st341{display:none;}
	.st342{display:inline;}
	.st343{opacity:0.3;clip-path:url(#SVGID_266_);}
	.st344{opacity:0.3;}
	.st345{clip-path:url(#SVGID_268_);fill:#B0B0B0;}
	.st346{clip-path:url(#SVGID_268_);}
	.st347{clip-path:url(#SVGID_270_);}
</style>
<g id="Layer_1">
</g>
<g id="Nombres_servicios">
</g>
<g id="Layer_2">
	<g>
		<g>
			<path id="XMLID_243_" class="st15" d="M55.7,20.8c-5,0-9-4.1-9-9c0-5,4.1-9,9-9h32.7c5,0,9,4.1,9,9c0,5-4.1,9-9,9H55.7z"/>
			<path id="XMLID_241_" class="st16" d="M55.7,19.9c-4.5,0-8.2-3.7-8.2-8.2s3.7-8.2,8.2-8.2h32.7c4.5,0,8.2,3.7,8.2,8.2
				s-3.7,8.2-8.2,8.2H55.7z"/>
			<g>
				<g>
					<g id="XMLID_239_">
						<g id="XMLID_240_">
							<path class="st15" d="M57.7,15.3c-0.7,0-1.4-0.2-2-0.7c-0.2-0.2-0.3-0.5-0.1-0.7c0.2-0.2,0.5-0.3,0.7-0.1
								c0.9,0.7,2,0.5,2.7,0c0.3-0.2,0.9-0.8,0.5-1.8c-0.3-0.7-0.6-1.3-0.8-1.7c-0.4-0.8-0.6-1.2-0.6-1.6c-0.1-0.5,0.1-1,0.4-1.3
								c0.4-0.4,1-0.7,1.6-0.7c0.3,0,0.5,0.2,0.5,0.5c0,0.3-0.2,0.5-0.5,0.5c-0.3,0-0.6,0.1-0.8,0.3c-0.1,0.1-0.2,0.3-0.1,0.5
								c0,0.3,0.2,0.6,0.5,1.3c0.2,0.4,0.5,1,0.8,1.7c0.5,1.1,0.2,2.3-0.8,3C59.2,15,58.4,15.3,57.7,15.3z"/>
						</g>
					</g>
					<g id="XMLID_237_">
						<g id="XMLID_238_">
							<path class="st15" d="M51.5,14.9c-0.1,0-0.3,0-0.4-0.1c-0.2-0.2-0.2-0.5,0-0.7c0.4-0.4,2.1-3,1.9-6.5C53,7.3,53.2,7,53.5,7
								C53.8,7,54,7.2,54,7.5c0.2,3.5-1.4,6.5-2.2,7.3C51.7,14.9,51.6,14.9,51.5,14.9z"/>
						</g>
					</g>
					<path id="XMLID_234_" class="st15" d="M57.2,13.4c-0.1,0-0.1,0-0.2-0.1l-0.4-1.1h-1.5l-0.4,1.1c0,0.1-0.1,0.1-0.2,0.1h-0.6
						c-0.1,0-0.1,0-0.1-0.1c0,0,0-0.1,0-0.2l1.8-4.8c0-0.1,0.1-0.1,0.1-0.1l0.4-0.1c0,0,0,0,0,0c0.1,0,0.1,0,0.2,0.1l1.5,4.1
						l0.4,0.8c0,0.1,0,0.1,0,0.2c0,0-0.1,0.1-0.1,0.1H57.2z M56.3,11.2L55.9,10l-0.5,1.2H56.3z"/>
					<g>
						<path class="st15" d="M55.7,19.1c-4,0-7.3-3.3-7.3-7.3c0-4,3.3-7.3,7.3-7.3c1.1,0,2.1,0.2,3.1,0.7C59,5.4,59.1,5.6,59,5.8
							c-0.1,0.2-0.4,0.3-0.6,0.2c-0.8-0.4-1.8-0.6-2.7-0.6c-3.5,0-6.4,2.9-6.4,6.4s2.9,6.4,6.4,6.4c2.5,0,4.7-1.4,5.8-3.7
							c0.1-0.2,0.2-0.3,0.4-0.3h32c0.2,0,0.4,0.2,0.4,0.4c0,0.2-0.2,0.4-0.4,0.4H62.2c-0.6,1.1-1.4,2.1-2.5,2.8
							C58.5,18.7,57.1,19.1,55.7,19.1z"/>
					</g>
					<g id="XMLID_233_">
						<path class="st15" d="M51.9,9c-0.1,0-0.2,0-0.3-0.1c-0.2-0.2-0.2-0.5,0-0.7c0.8-0.9,2-1.6,3.2-1.7c0.3,0,0.5,0.2,0.6,0.4
							c0,0.3-0.2,0.5-0.4,0.6c-1,0.1-1.9,0.6-2.6,1.4C52.2,8.9,52.1,9,51.9,9z"/>
					</g>
					<g>
						<path id="XMLID_232_" class="st15" d="M61.6,13.4c-0.1,0-0.2-0.1-0.2-0.2v-4l-0.1-0.6c0,0,0-0.1,0-0.1c0,0,0.1-0.1,0.1-0.1
							h2.4c0.1,0,0.2,0.1,0.2,0.2v0.5c0,0.1-0.1,0.2-0.2,0.2h-1.5v1.2h1.3c0.1,0,0.1,0,0.1,0.1c0,0,0,0.1,0,0.1l-0.1,0.5
							c0,0.1-0.1,0.1-0.2,0.1h-1.2v1.3H64c0.1,0,0.1,0,0.1,0.1c0,0,0,0.1,0,0.1L64,13.3c0,0.1-0.1,0.1-0.2,0.1H61.6z"/>
						<path id="XMLID_229_" class="st15" d="M67.4,13.4c-0.1,0-0.1,0-0.1-0.1l-1.2-1.7c0,0-0.1,0-0.1,0h-0.3v1l0.1,0.5
							c0,0,0,0.1,0,0.1c0,0-0.1,0.1-0.1,0.1H65c-0.1,0-0.2-0.1-0.2-0.2v-4l-0.1-0.6c0,0,0-0.1,0-0.1c0,0,0.1-0.1,0.1-0.1h1.3
							c0.2,0,0.4,0,0.6,0.1c0.2,0.1,0.4,0.2,0.5,0.3c0.2,0.1,0.3,0.3,0.4,0.5c0.1,0.2,0.1,0.4,0.1,0.7c0,0.3-0.1,0.6-0.3,0.9
							c-0.1,0.2-0.3,0.4-0.5,0.5l1.3,1.8c0,0.1,0,0.1,0,0.2c0,0.1-0.1,0.1-0.1,0.1H67.4z M66.1,10.8c0.1,0,0.2,0,0.3-0.1
							c0.1,0,0.2-0.1,0.3-0.2c0.1-0.1,0.1-0.2,0.2-0.3c0-0.1,0.1-0.2,0.1-0.3c0-0.1,0-0.2-0.1-0.3c0-0.1-0.1-0.2-0.2-0.2
							c-0.1-0.1-0.2-0.1-0.3-0.1c-0.1,0-0.2,0-0.3,0h-0.3v1.5H66.1z"/>
						<path id="XMLID_228_" class="st15" d="M69,13.4c-0.1,0-0.2-0.1-0.2-0.2v-4l-0.1-0.6c0,0,0-0.1,0-0.1c0,0,0.1-0.1,0.1-0.1h2.4
							c0.1,0,0.2,0.1,0.2,0.2v0.5c0,0.1-0.1,0.2-0.2,0.2h-1.5v1.2h1.3c0.1,0,0.1,0,0.1,0.1c0,0,0,0.1,0,0.1l-0.1,0.5
							c0,0.1-0.1,0.1-0.2,0.1h-1.2v1.3h1.6c0.1,0,0.1,0,0.1,0.1c0,0,0,0.1,0,0.1l-0.1,0.5c0,0.1-0.1,0.1-0.2,0.1H69z"/>
						<path id="XMLID_227_" class="st15" d="M75.8,13.4c0,0-0.1,0-0.1-0.1l-2.6-3c0,0,0,0,0,0v2.3l0.1,0.5c0,0,0,0.1,0,0.1
							c0,0-0.1,0.1-0.1,0.1h-0.6c-0.1,0-0.2-0.1-0.2-0.2v-4l-0.1-0.6c0,0,0-0.1,0-0.1c0,0,0.1-0.1,0.1-0.1h0.4c0,0,0.1,0,0.1,0.1
							l2.6,3c0,0,0,0,0,0l0,0V9.2l-0.1-0.6c0,0,0-0.1,0-0.1c0,0,0.1-0.1,0.1-0.1h0.7c0.1,0,0.2,0.1,0.2,0.2v4.1l0,0.5
							c0,0,0,0.1,0,0.1c0,0-0.1,0.1-0.1,0.1H75.8z"/>
						<path id="XMLID_226_" class="st15" d="M77.5,13.4c-0.1,0-0.2-0.1-0.2-0.2v-4l-0.1-0.6c0,0,0-0.1,0-0.1c0,0,0.1-0.1,0.1-0.1
							h0.7c0.1,0,0.2,0.1,0.2,0.2v4.1l0.1,0.5c0,0,0,0.1,0,0.1c0,0-0.1,0.1-0.1,0.1H77.5z"/>
						<path id="XMLID_197_" class="st15" d="M80.4,13.5c-0.2,0-0.4,0-0.6-0.1c-0.2-0.1-0.3-0.1-0.4-0.2c-0.1-0.1-0.3-0.2-0.3-0.3
							c0,0-0.1-0.1,0-0.2c0,0,0,0,0-0.1c0-0.1,0-0.1,0-0.2c0-0.1,0-0.2,0-0.3c0-0.1,0.1-0.1,0.1-0.1c0,0,0,0,0,0c0,0,0.1,0,0.1,0.1
							c0.1,0.1,0.2,0.2,0.3,0.3c0.1,0.1,0.2,0.1,0.4,0.2c0.1,0.1,0.3,0.1,0.4,0.1c0.2,0,0.3-0.1,0.4-0.2C81,12.4,81,12.2,81,12
							c0-0.1,0-0.2-0.1-0.3c-0.1-0.1-0.2-0.2-0.3-0.3c-0.1-0.1-0.3-0.2-0.5-0.3c-0.2-0.1-0.4-0.2-0.5-0.3c-0.2-0.1-0.3-0.3-0.4-0.4
							C79.1,10.3,79,10,79,9.8c0-0.2,0-0.4,0.1-0.6c0.1-0.2,0.2-0.3,0.3-0.5c0.1-0.1,0.3-0.2,0.5-0.3c0.2-0.1,0.4-0.1,0.6-0.1
							c0.3,0,0.6,0,0.8,0.1c0.2,0.1,0.4,0.2,0.5,0.2c0.1,0,0.1,0.1,0.1,0.2l-0.2,0.5c0,0.1-0.1,0.1-0.1,0.1c0,0,0,0,0,0
							c-0.1,0-0.1,0-0.1-0.1c0,0,0,0-0.1,0c0,0-0.1-0.1-0.2-0.1c-0.1,0-0.2-0.1-0.3-0.1c-0.1,0-0.2,0-0.3,0c-0.1,0-0.1,0-0.2,0
							c-0.1,0-0.1,0.1-0.2,0.1c0,0-0.1,0.1-0.1,0.1c0,0.1,0,0.1,0,0.2c0,0.1,0,0.2,0.1,0.3c0.1,0.1,0.2,0.2,0.3,0.3
							c0.1,0.1,0.3,0.2,0.5,0.3c0.2,0.1,0.4,0.2,0.5,0.3c0.2,0.1,0.3,0.3,0.4,0.5c0.1,0.2,0.2,0.4,0.2,0.7c0,0.2,0,0.4-0.1,0.6
							c-0.1,0.2-0.2,0.4-0.3,0.5c-0.1,0.1-0.3,0.2-0.5,0.3C80.9,13.4,80.7,13.5,80.4,13.5z"/>
						<path id="XMLID_176_" class="st15" d="M82.8,13.4c-0.1,0-0.2-0.1-0.2-0.2v-4l-0.1-0.6c0,0,0-0.1,0-0.1c0,0,0.1-0.1,0.1-0.1
							h0.7c0.1,0,0.2,0.1,0.2,0.2v4.1l0.1,0.5c0,0,0,0.1,0,0.1s-0.1,0.1-0.1,0.1H82.8z"/>
						<path id="XMLID_174_" class="st15" d="M89,13.4c-0.1,0-0.2-0.1-0.2-0.2v-2.6l-1.4,2.2c0,0-0.1,0.1-0.1,0.1l0,0
							c-0.1,0-0.1,0-0.1-0.1l-1.6-2.2v2.1l0.1,0.5c0,0,0,0.1,0,0.1c0,0-0.1,0.1-0.1,0.1h-0.6c-0.1,0-0.2-0.1-0.2-0.2v-4l-0.1-0.6
							c0,0,0-0.1,0-0.1c0,0,0.1-0.1,0.1-0.1h0.5c0.1,0,0.1,0,0.1,0.1l1.9,2.8l1.8-2.8c0,0,0.1-0.1,0.1-0.1h0.4
							c0.1,0,0.2,0.1,0.2,0.2v4.1l0.1,0.5c0,0,0,0.1,0,0.1c0,0-0.1,0.1-0.1,0.1H89z"/>
						<path id="XMLID_61_" class="st15" d="M93.5,13.4c-0.1,0-0.1,0-0.2-0.1l-0.4-1.1h-1.5L91,13.3c0,0.1-0.1,0.1-0.2,0.1h-0.6
							c-0.1,0-0.1,0-0.1-0.1c0,0,0-0.1,0-0.2l1.8-4.7c0-0.1,0.1-0.1,0.1-0.1l0.4-0.1c0,0,0,0,0,0c0.1,0,0.1,0,0.2,0.1l1.4,4l0.3,0.8
							c0,0.1,0,0.1,0,0.2c0,0-0.1,0.1-0.1,0.1H93.5z M92.6,11.3l-0.4-1.2l-0.5,1.2H92.6z"/>
					</g>
					<g id="XMLID_144_">
						<path class="st15" d="M55.8,17.4c-0.1,0-0.3,0-0.4,0c-1.1-0.1-2.1-0.5-3-1.1c-0.1,0.1-0.2,0.1-0.4,0.1c-0.3,0-0.5-0.3-0.4-0.6
							l0,0c0,0,0,0,0,0c0-0.3,0.2-0.5,0.5-0.6c0.3-0.1,0.6,0,0.8,0.1c0.7,0.6,1.6,1,2.6,1.1c0.5,0,1.1,0,1.6-0.2
							c0-0.2,0.1-0.4,0.2-0.5c0.2-0.2,0.6-0.1,0.7,0.2c0.2,0.3,0.2,0.5,0.1,0.7c-0.1,0.3-0.4,0.5-0.4,0.5c0,0,0,0-0.1,0
							C57.1,17.3,56.5,17.4,55.8,17.4z"/>
					</g>
				</g>
			</g>
		</g>
		<g>
			<g>
				<g>
					<path class="st17" d="M51.9,32.1C51.9,32.1,51.9,32.1,51.9,32.1c-1.1-0.5-2-0.7-2.9-0.7c-0.9,0-1.5,0.3-1.8,0.7
						c-1-0.6-2-0.8-3.2-0.8c-2.5,0.1-4.6,1.3-6.2,3.6c-1.4,2.1-2.2,4.5-2.2,7.1c-0.1,3.1,1,4.6,3.1,4.6c2,0,4.1-1.7,6.4-5l-0.5,3.1
						c-0.3,1.7-0.8,3-1.3,3.9c-0.7,1.2-1.7,1.8-2.8,1.8c-1.8,0-3.2-0.9-4.4-2.8c0,0-0.1-0.1-0.1-0.1c0,0-0.1,0-0.1,0
						c-1.5,0.7-2.3,1.6-2.4,2.7c0,1,0.9,1.8,2.7,2.3c0.7,0.2,1.4,0.4,2.1,0.5c0.6,0.1,1.2,0.1,1.7,0.1c1.8,0,3.3-0.5,4.7-1.3
						c1.3-0.8,2.4-2.1,3.3-3.8c0.6-1.3,1.2-3,1.5-5.1l0.8-5C50.7,35.4,51.2,33.5,51.9,32.1C51.9,32.2,51.9,32.2,51.9,32.1z
						 M40.9,42.7C40.8,42.7,40.8,42.7,40.9,42.7c-0.5-0.1-0.6-0.7-0.6-1.2c0-1.5,0.3-3,0.7-4.4c0.6-1.9,1.5-2.9,2.7-2.9
						c0.1,0,0.2,0,0.4,0c0.8,0.1,1.5,0.7,2.2,1.7C44,40.4,42.2,42.7,40.9,42.7z"/>
				</g>
				<g>
					<path class="st17" d="M22.3,32.6c2.8-3.3,6.2-7.4,6.3-10.1c0-1.2-0.9-2-2.5-2.3c-0.4-0.1-0.9-0.1-1.4-0.1c-0.4,0-0.7,0-1.1,0.1
						c-0.1,0-0.1,0.1-0.1,0.1c0.1,0.4,0.1,0.8,0.1,1.2c0,0.8-0.2,1.5-0.5,2.1c-0.8,1.7-1.2,2.4-3.8,6.5c-0.6,0.9-1.2,1.9-2,3.1
						c-0.7-3.8-1.5-7.5-2.5-9.8c-0.6-1.4-1.6-2.2-3.1-2.1c-1.6,0-3.2,0.8-4.7,2.3c0,0,0,0.1,0,0.1c0,0,0.1,0.1,0.1,0.1
						c0.1,0,0.2,0.1,0.4,0.2c0.1,0.1,0.3,0.2,0.5,0.2c1.6,0.7,3.9,5.6,5,13.4c-0.3,1.7-1.2,3.6-2,5.3c-0.9,1.8-1.7,3.4-1.7,4.8
						c0,0.9,0.6,1.5,1.6,1.7c0.2,0,0.5,0,0.8,0c1.2,0,2.6-0.4,3.8-1c0,0,0.1-0.1,0-0.1c-0.2-0.5-0.4-1.3-0.3-1.8
						c0-2.3,2.4-7.6,4.9-11C20.5,34.7,21.4,33.7,22.3,32.6z"/>
				</g>
				<g>
					<path class="st17" d="M64.1,31.9c-0.8,0-1.6,0.1-2.3,0.3c-0.1,0-0.1,0.1-0.1,0.1c0.1,0.4,0.1,0.8,0.1,1.1
						c-0.1,1.1-1,3.4-2.7,6.8c-2.2,4.3-3.2,5.3-3.7,5.3c0,0,0,0,0,0c0,0-0.1,0-0.1-0.1c0-0.1-0.1-0.2,0-0.4c0.1-1.1,0.8-4.3,2.2-9.4
						c0.3-1,0.4-1.7,0.4-2.1c0.1-1.2-0.6-1.5-1.2-1.7c-0.2,0-0.4-0.1-0.6-0.1c-0.8,0-1.7,0.2-2.7,0.6c-0.1,0-0.1,0.1-0.1,0.1
						c0.1,0.4,0.2,0.8,0.2,1.2c-0.1,1.4-0.5,3.6-1.3,6.4c-0.8,2.8-1.2,5-1.3,6.4c-0.1,1.6,0.5,2.5,1.8,2.7c0.2,0,0.4,0.1,0.7,0.1
						c2,0,4.1-1.9,6.3-5.9c-0.2,1-0.3,2-0.4,2.8c-0.1,1.7,0.5,2.7,1.8,3c0.2,0,0.4,0.1,0.6,0.1c0.9,0,1.7-0.3,2.5-0.9
						c0,0,0-0.1,0-0.1c-0.3-0.9-0.5-1.9-0.4-3c0.1-2.1,0.6-4.6,1.5-7.6l0.6-2c0.2-0.8,0.4-1.4,0.4-2C66.2,32.5,65.5,31.9,64.1,31.9z
						"/>
				</g>
				<g>
					<path class="st17" d="M33.7,33c-1-1.1-2.4-1.7-4-1.6c-2.6,0.1-4.9,1.4-6.7,4.1c-1.7,2.4-2.6,5-2.6,7.8c0,1.8,0.5,3.2,1.5,4.3
						c0.8,0.8,1.7,1.3,2.9,1.5c0.4,0.1,0.8,0.1,1.2,0.1c2.6-0.1,4.8-1.4,6.7-4.1c1.7-2.4,2.5-5,2.6-7.8C35.2,35.4,34.7,34,33.7,33z
						 M30.4,37.1c0,1.7-0.3,3.5-0.9,5.4c-0.7,2.5-1.7,3.8-2.9,3.8c-1.2,0-1.7-1-1.7-3c0-1.7,0.3-3.6,0.9-5.4
						c0.7-2.5,1.7-3.8,2.9-3.8c0.1,0,0.2,0,0.3,0C30,34.2,30.5,35.2,30.4,37.1z"/>
				</g>
				<g>
					<path class="st17" d="M135.6,33c-1-1.1-2.4-1.7-4-1.6c-2.6,0.1-4.9,1.4-6.7,4.1c-1.7,2.4-2.6,5-2.6,7.8c0,1.8,0.5,3.2,1.5,4.3
						c0.8,0.8,1.7,1.3,2.9,1.5c0.4,0.1,0.8,0.1,1.2,0.1c2.6-0.1,4.8-1.4,6.7-4.1c1.7-2.4,2.5-5,2.6-7.8C137,35.4,136.6,34,135.6,33z
						 M132.3,37.1c0,1.7-0.3,3.5-0.9,5.4c-0.7,2.5-1.7,3.8-2.9,3.8c-1.2,0-1.7-1-1.7-3c0-1.7,0.3-3.6,0.9-5.4
						c0.7-2.5,1.7-3.8,2.9-3.8c0.1,0,0.2,0,0.3,0C131.9,34.2,132.3,35.2,132.3,37.1z"/>
				</g>
				<g>
					<path class="st17" d="M77.3,31.4c-0.1,0-0.2,0-0.4,0c-1.5,0-3.2,2-5.3,6c0.5-2.1,0.7-3.4,0.7-4c0-1.2-0.7-1.5-1.3-1.6
						c-0.2,0-0.4,0-0.6,0c-0.7,0-1.6,0.3-2.6,0.7c0,0-0.1,0.1-0.1,0.1c0.1,0.4,0.2,0.8,0.2,1.2c0,1.9-0.6,5.2-1.7,9.9
						c-0.5,2.1-0.7,3.5-0.8,4.1c0,0.9,0.5,1.4,1.4,1.6c0.2,0,0.4,0,0.7,0c0.8,0,1.6-0.2,2.3-0.4c0.1,0,0.1-0.1,0.1-0.1
						c-0.1-0.4-0.2-0.8-0.2-1.1c0-1.3,0.7-3.4,1.9-6.1c1.3-2.9,2.5-4.5,3.5-4.5c0.2,0,0.5,0.2,0.8,0.7c0,0,0.1,0.1,0.1,0.1l0,0
						c0,0,0.1,0,0.1,0c1.4-1.8,2.1-3.5,2.1-5.1C78.3,31.8,77.8,31.5,77.3,31.4z"/>
				</g>
				<g>
					<path class="st17" d="M98,30.3c0.5,0.1,1.1,0,1.6-0.2c0.8-0.3,1-1,1.1-1.8c0-0.8-0.5-1-0.9-1.1c-0.1,0-0.3,0-0.4,0
						c-0.3,0-0.6,0.1-0.9,0.1c-1.1,0.3-1.2,1.1-1.2,2.1C97.2,29.9,97.4,30.2,98,30.3z"/>
				</g>
				<g>
					<path class="st17" d="M81.4,45.7c0.1-1.9,0.8-5.6,2.2-10.9c0.2-0.6,0.3-1.1,0.3-1.6c0-1.1-0.6-1.4-1.2-1.5c-0.2,0-0.4,0-0.6,0
						c-0.9,0-1.8,0.2-2.9,0.7c-0.1,0-0.1,0.1-0.1,0.1c0.2,0.5,0.3,1,0.3,1.5c0,1.4-0.4,3.5-1.2,6.3c-0.7,2.8-1.1,5-1.2,6.4
						c0,1.3,0.5,2.1,1.6,2.3c0.2,0,0.4,0.1,0.7,0c0.8,0,1.7-0.3,2.6-1c0,0,0.1-0.1,0-0.2C81.6,47.4,81.4,46.6,81.4,45.7z"/>
				</g>
				<g>
					<path class="st17" d="M98.5,45.7c0.1-1.9,0.8-5.6,2.2-10.9c0.2-0.6,0.3-1.1,0.3-1.6c0-1.1-0.6-1.4-1.2-1.5c-0.2,0-0.4,0-0.6,0
						c-0.9,0-1.8,0.2-2.9,0.7c-0.1,0-0.1,0.1-0.1,0.1c0.2,0.5,0.3,1,0.3,1.5c0,1.4-0.4,3.5-1.2,6.3c-0.7,2.8-1.1,5-1.2,6.4
						c0,1.3,0.5,2.1,1.6,2.3c0.2,0,0.4,0.1,0.7,0c0.8,0,1.7-0.3,2.6-1c0,0,0.1-0.1,0-0.2C98.7,47.4,98.5,46.6,98.5,45.7z"/>
				</g>
				<g>
					<path class="st17" d="M122,36.8c0.3-1.4,0.5-2.4,0.5-2.9c0.1-1.8-0.6-2.7-2.1-2.7c-1.9,0-3.9,2.1-6.3,6.3
						c0.1-0.4,0.2-0.8,0.3-1.3c0.2-0.9,0.3-1.6,0.3-2.1c0.1-1.9-0.6-2.8-2-2.8c-1.8,0-3.8,2-6.1,6l0.4-1.5c0.3-1,0.4-1.9,0.4-2.6
						c0.1-1.2-0.6-1.6-1.2-1.7c-0.2,0-0.3,0-0.5,0c-0.7,0-1.5,0.2-2.5,0.6c-0.1,0-0.1,0.1-0.1,0.1c0.1,0.4,0.2,0.8,0.2,1.2
						c-0.1,1.8-0.9,5.9-2.5,12c-0.2,0.8-0.3,1.5-0.4,2c-0.1,1.1,0.7,1.5,1.3,1.6c0.2,0,0.4,0.1,0.6,0.1c0.6,0,1.3-0.1,2.1-0.4
						c0.1,0,0.1-0.1,0.1-0.1c-0.1-0.4-0.1-0.8-0.1-1.2c0.1-1.3,1-3.7,2.7-7.1c2.1-4.2,3.1-5.1,3.5-5.1c0,0,0,0,0,0
						c0.1,0,0.1,0.2,0.1,0.3c0,0.9-0.7,4.1-2,9.5c-0.3,1.3-0.5,2.1-0.5,2.5c0,1.1,0.6,1.5,1.2,1.6c0.2,0,0.4,0,0.6,0
						c0.7,0,1.4-0.1,2.2-0.4c0.1,0,0.1-0.1,0.1-0.1c-0.1-0.4-0.1-0.8-0.1-1.2c0.1-1.3,1-3.7,2.7-7.1c2.1-4.2,3.1-5.1,3.5-5.1
						c0,0,0,0,0,0c0.1,0,0.1,0.2,0.1,0.3c0,0.4-0.5,2.6-1.4,6.6c-0.4,1.8-0.6,3.3-0.7,4.5c-0.1,1.6,0.6,2.4,2,2.4
						c0.8,0,1.6-0.3,2.5-0.9c0,0,0.1-0.1,0-0.2c-0.4-0.6-0.6-1.5-0.5-2.5C120.3,44.5,120.9,41.6,122,36.8z"/>
				</g>
				<g>
					<path class="st17" d="M91.5,31.4c-1.7,0.1-3.2,0.6-4.3,1.7c-1.2,1.1-1.9,2.7-1.9,4.6c0,1.1,0.3,2.2,1.1,3
						c0.8,0.8,1.7,1.5,2.4,2.3c0.7,0.8,0.9,1.7,0.5,2.6c-0.3,0.8-0.9,1.1-1.7,1.2c-1.2,0-2.1-0.8-2.6-2.6c0,0,0-0.1-0.1-0.1
						c0,0-0.1,0-0.1,0c-1.3,1.1-2,2.1-2,3.2c0,1.1,0.7,1.7,2.1,1.9c0.5,0.1,1.1,0.1,1.7,0.1c1.9-0.1,3.5-0.7,4.7-1.8
						c1.3-1.2,2-2.9,2.1-5c0-1.2-0.4-2.3-1.2-3.1l-2.1-1.7c-0.9-0.7-1.3-1.8-0.9-2.9c0.4-1.2,1.7-1.3,2.7-0.5
						c0.5,0.4,0.8,0.9,1.2,1.3c0,0,0.1,0.1,0.1,0.1c0,0,0.1,0,0.1,0c1.1-0.9,1.6-1.8,1.6-2.7C95,31.8,93.8,31.3,91.5,31.4z"/>
				</g>
				<g>
					<path class="st17" d="M81.1,30c0.2,0,0.5,0,0.6,0c1.2-0.4,2.3-1.1,2.9-1.6c0.7-0.5,1-1,0.9-1.5c-0.1-0.2-0.4-0.7-1.2-0.8
						c-0.6-0.1-1.5-0.3-1.8,0.4c-0.5,1-1.1,2-1.9,2.7c0,0-0.2,0.2-0.1,0.4C80.6,29.9,80.8,30,81.1,30z"/>
				</g>
			</g>
		</g>
	</g>
</g>
<g id="Grilla" class="st341">
</g>
</svg>
