<svg xmlns="http://www.w3.org/2000/svg" xmlns:xlink="http://www.w3.org/1999/xlink" viewBox="0 0 126.43 142.33"><defs><style>.a8c430c3-c475-4a39-b3aa-e81ecee5a18a{fill:url(#bf49bb31-6538-4a31-9c49-2d63af3b072d);}.a627d05e-c185-4dae-81f3-68504e5d6d65{fill:url(#e1c5fb0e-7cc8-4077-9ce5-a953c3e5fcca);}</style><linearGradient id="bf49bb31-6538-4a31-9c49-2d63af3b072d" x1="59.81" y1="111.46" x2="83.75" y2="111.46" gradientUnits="userSpaceOnUse"><stop offset="0.13" stop-color="#0878b1"/><stop offset="0.65" stop-color="#29ca8c"/><stop offset="1" stop-color="#29ca8c"/></linearGradient><linearGradient id="e1c5fb0e-7cc8-4077-9ce5-a953c3e5fcca" x1="199.79" y1="59.22" x2="308.99" y2="59.22" gradientTransform="translate(-198.36 7.78) rotate(-4.77)" xlink:href="#bf49bb31-6538-4a31-9c49-2d63af3b072d"/></defs><g id="aab9b9e6-b124-4fbc-8ae9-aff5956779c1" data-name="Layer 2"><polygon class="a8c430c3-c475-4a39-b3aa-e81ecee5a18a" points="59.81 98.77 63.16 124.15 83.75 109.31 59.81 98.77"/><g id="a519068a-9874-4ad6-a761-9c7e991f43aa" data-name="WPsRkb"><path d="M94.67,0A17,17,0,0,1,103,2.87,15.3,15.3,0,0,1,108.35,10q2.7,7,5.38,14c1,2.6.49,3.76-2.09,4.74L70.32,44.5,29.76,60a2.69,2.69,0,0,0-1.1.72l1.4-.11,86.71-7.23a14.32,14.32,0,0,1,1.73-.09,2.39,2.39,0,0,1,2.43,1.87,8.32,8.32,0,0,1,.27,1.57q2.6,30.89,5.15,61.79c.54,6.42-1.83,11.49-7.44,14.75a14.46,14.46,0,0,1-5.75,1.85c-10.55,1-21.12,1.84-31.68,2.71-1.93.16-3.21-.82-3.31-2.45s1-2.69,3-2.85c10.25-.87,20.51-1.71,30.76-2.58,4.84-.41,8.19-3.35,9-7.95a11.87,11.87,0,0,0,.1-3q-1.4-17-2.83-34.07c0-.39-.11-.78-.18-1.24L14.23,92.3l.12,1.48q1.41,16.85,2.81,33.68c.54,6.41,4.79,10,11.2,9.46l29.57-2.46c.35,0,.7-.07,1.06-.09,1.8-.09,3.12.92,3.21,2.45a2.72,2.72,0,0,1-2.73,2.84c-10.78.91-21.56,1.92-32.36,2.64-7.69.52-14.45-5.58-15.15-13.41C11,118,10.12,107.06,9.21,96.14c-.82-9.76-1.62-19.53-2.46-29.3A9.38,9.38,0,0,0,6.2,64.4C4.52,59.92,2.78,55.47,1.1,51c-3.1-8.24.54-16.49,8.75-19.64Q49.23,16.27,88.63,1.24L91.22.29Zm13.54,24.31c-1.87-4.73-3.5-9.41-5.54-13.9A9.14,9.14,0,0,0,91.86,5.79c-1.39.42-2.75,1-4.11,1.48q-5.27,2-10.51,4a1.24,1.24,0,0,0,.14.33q10,8.14,20,16.26a1.25,1.25,0,0,0,1,.13C101.62,26.84,104.79,25.62,108.21,24.31ZM33.47,52.89a1.39,1.39,0,0,0-.09-.26Q23.33,44.44,13.27,36.26a1.09,1.09,0,0,0-.82-.2c-4.75,1-8.29,6.75-6.84,11.42C6.69,51,8.12,54.37,9.39,57.81c.46,1.23.94,2.45,1.43,3.73ZM116,58.79l-1.37.11c-3.14.26-6.27.56-9.41.77a1.84,1.84,0,0,0-1.78,1.23c-2.79,6-5.64,12-8.48,18-.16.35-.3.71-.5,1.17l23.16-1.94ZM12.25,67.5l1.61,19.4c3.7-.31,7.31-.64,10.93-.89a1.66,1.66,0,0,0,1.56-1.12c2.82-6.06,5.68-12.1,8.52-18.14.16-.34.28-.7.47-1.18ZM92,30.51a6.57,6.57,0,0,0-.58-.59c-6.5-5.28-13-10.57-19.52-15.81a1.86,1.86,0,0,0-1.52-.17c-2.74,1-5.46,2.06-8.18,3.11l-4.54,1.74c.29.29.43.45.59.59,6.5,5.28,13,10.57,19.52,15.81a1.66,1.66,0,0,0,1.39.21C83.38,33.83,87.58,32.2,92,30.51ZM72.53,37.94a7.2,7.2,0,0,0-.52-.51q-9.81-8-19.64-15.9a1.86,1.86,0,0,0-1.52-.14c-2.87,1-5.71,2.17-8.56,3.26l-4,1.54c.07.19.07.24.1.27q10,8.16,20,16.29a1.31,1.31,0,0,0,1.07.18C63.76,41.32,68.05,39.66,72.53,37.94ZM18.77,33.63c.11.21.13.31.19.36q9.95,8.11,19.93,16.18a1.73,1.73,0,0,0,1.4.07c4-1.48,8-3,11.92-4.52a8.12,8.12,0,0,0,.82-.45c-6.82-5.53-13.52-11-20.25-16.41a1.41,1.41,0,0,0-1.16-.1C27.35,30.35,23.1,32,18.77,33.63ZM52.89,83.54a6.08,6.08,0,0,0,.61,0c4.37-.36,8.74-.7,13.1-1.13a2,2,0,0,0,1.26-1.06c2.9-6,5.73-12.07,8.58-18.11.16-.34.29-.71.47-1.18-.51,0-.9,0-1.28,0-4,.33-8,.7-12,1a1.84,1.84,0,0,0-1.76,1.25c-2.79,6-5.64,12-8.46,18C53.2,82.74,53.07,83.11,52.89,83.54Zm20.73-1.62c4.61-.39,9-.78,13.36-1.09a1.85,1.85,0,0,0,1.77-1.24c2.77-6,5.6-12,8.41-17.92.18-.39.34-.79.58-1.36-4.83.41-9.46.78-14.09,1.21-.32,0-.7.49-.86.84q-4.46,9.36-8.86,18.75C73.84,81.3,73.78,81.5,73.62,81.92Zm-17.5-18a4.37,4.37,0,0,0-.61-.06c-4.37.36-8.74.7-13.1,1.13A2,2,0,0,0,41.14,66c-2.89,6-5.73,12.08-8.58,18.12-.16.35-.29.71-.49,1.18.52,0,.91,0,1.29,0,4-.33,8-.69,12-1a1.83,1.83,0,0,0,1.77-1.23c2.77-6,5.6-11.94,8.41-17.91C55.77,64.76,55.92,64.36,56.12,63.89Z"/><path d="M57.74,111.12c-.35-4.2-.71-8.39-1.05-12.59-.24-3,1.64-4.32,4.35-3q11.61,5.44,23.2,10.93c2.7,1.27,2.87,3.56.41,5.28q-10.47,7.29-21,14.55c-2.55,1.77-4.6.81-4.86-2.26C58.45,119.7,58.1,115.41,57.74,111.12ZM62.41,102l1.47,17.62,14.53-10.08Z"/><path d="M72.81,135.91a2.74,2.74,0,0,1-2.44,2.83,2.64,2.64,0,0,1-.39-5.27A2.75,2.75,0,0,1,72.81,135.91Z"/><path class="a627d05e-c185-4dae-81f3-68504e5d6d65" d="M108.21,24.31c-3.42,1.31-6.59,2.53-9.78,3.71a1.25,1.25,0,0,1-1-.13q-10-8.1-20-16.26a1.24,1.24,0,0,1-.14-.33q5.25-2,10.51-4c1.36-.52,2.72-1.06,4.11-1.48a9.14,9.14,0,0,1,10.81,4.62C104.71,14.9,106.34,19.58,108.21,24.31ZM33.38,52.63Q23.33,44.44,13.27,36.26a1.09,1.09,0,0,0-.82-.2c-4.75,1-8.29,6.75-6.84,11.42C6.69,51,8.12,54.37,9.39,57.81c.46,1.23.94,2.45,1.43,3.73l22.65-8.65A1.39,1.39,0,0,0,33.38,52.63Zm81.2,6.27c-3.14.26-6.27.56-9.41.77a1.84,1.84,0,0,0-1.78,1.23c-2.79,6-5.64,12-8.48,18-.16.35-.3.71-.5,1.17l23.16-1.94L116,58.79ZM13.86,86.9c3.7-.31,7.31-.64,10.93-.89a1.66,1.66,0,0,0,1.56-1.12c2.82-6.06,5.68-12.1,8.52-18.14.16-.34.28-.7.47-1.18L12.25,67.5Zm77.55-57c-6.5-5.28-13-10.57-19.52-15.81a1.86,1.86,0,0,0-1.52-.17c-2.74,1-5.46,2.06-8.18,3.11l-4.54,1.74c.29.29.43.45.59.59,6.5,5.28,13,10.57,19.52,15.81a1.66,1.66,0,0,0,1.39.21c4.23-1.57,8.43-3.2,12.84-4.89A6.57,6.57,0,0,0,91.41,29.92ZM72,37.43q-9.81-8-19.64-15.9a1.86,1.86,0,0,0-1.52-.14c-2.87,1-5.71,2.17-8.56,3.26l-4,1.54c.07.19.07.24.1.27q10,8.16,20,16.29a1.31,1.31,0,0,0,1.07.18c4.3-1.61,8.59-3.27,13.07-5A7.2,7.2,0,0,0,72,37.43ZM19,34q9.95,8.11,19.93,16.18a1.73,1.73,0,0,0,1.4.07c4-1.48,8-3,11.92-4.52a8.12,8.12,0,0,0,.82-.45c-6.82-5.53-13.52-11-20.25-16.41a1.41,1.41,0,0,0-1.16-.1C27.35,30.35,23.1,32,18.77,33.63,18.88,33.84,18.9,33.94,19,34ZM53.5,83.59c4.37-.36,8.74-.7,13.1-1.13a2,2,0,0,0,1.26-1.06c2.9-6,5.73-12.07,8.58-18.11.16-.34.29-.71.47-1.18-.51,0-.9,0-1.28,0-4,.33-8,.7-12,1a1.84,1.84,0,0,0-1.76,1.25c-2.79,6-5.64,12-8.46,18-.16.35-.29.72-.47,1.15A6.08,6.08,0,0,0,53.5,83.59ZM87,80.83a1.85,1.85,0,0,0,1.77-1.24c2.77-6,5.6-12,8.41-17.92.18-.39.34-.79.58-1.36-4.83.41-9.46.78-14.09,1.21-.32,0-.7.49-.86.84q-4.46,9.36-8.86,18.75c-.09.19-.15.39-.31.81C78.23,81.53,82.6,81.14,87,80.83Zm-31.47-17c-4.37.36-8.74.7-13.1,1.13A2,2,0,0,0,41.14,66c-2.89,6-5.73,12.08-8.58,18.12-.16.35-.29.71-.49,1.18.52,0,.91,0,1.29,0,4-.33,8-.69,12-1a1.83,1.83,0,0,0,1.77-1.23c2.77-6,5.6-11.94,8.41-17.91.18-.39.33-.79.53-1.26A4.37,4.37,0,0,0,55.51,63.83Z"/></g></g></svg>