<svg xmlns="http://www.w3.org/2000/svg" xmlns:xlink="http://www.w3.org/1999/xlink" viewBox="0 0 142.88 143.59"><defs><style>.f4f89226-8c86-4f8a-8bd3-5231ed8c59fe{fill:url(#be5fd85e-8bd8-4bb8-ba5d-45e56a59103a);}</style><linearGradient id="be5fd85e-8bd8-4bb8-ba5d-45e56a59103a" x1="396.27" y1="179.29" x2="518.93" y2="179.29" gradientTransform="matrix(0.98, -0.18, 0.18, 0.98, -410.91, -4.46)" gradientUnits="userSpaceOnUse"><stop offset="0.13" stop-color="#0878b1"/><stop offset="0.65" stop-color="#29ca8c"/><stop offset="1" stop-color="#29ca8c"/></linearGradient></defs><g id="a2325d8e-b7ee-4a52-9396-00b38fe06c61" data-name="Layer 2"><path d="M0,68.16C.06,67.43.09,66.7.17,66A13.2,13.2,0,0,1,10.58,54.59c2.2-.44,4.41-.81,6.78-1.25-.2-1.1-.4-2.11-.57-3.12a9.35,9.35,0,0,1,18.4-3.35c.2,1,.36,1.94.57,3.09l1.57-.29c3.79-.69,7.57-1.44,11.38-2.05A2.45,2.45,0,0,0,51,45.76c1.7-4.86,3.56-9.66,5.28-14.51a3.46,3.46,0,0,1,2.94-2.51q17.07-3.06,34.11-6.26a3.37,3.37,0,0,1,3.55,1.24c3.45,4,7,8,10.43,12.07a1.84,1.84,0,0,0,2,.72,64,64,0,0,1,9-1.38,12.84,12.84,0,0,1,12.86,10.33c.69,3.35,1.26,6.73,1.88,10.09l9.63,52.52c1.51,8.26-3,14.79-11.25,16.31L28.48,143.24c-7.67,1.4-12.91-1.35-16.11-8.45,0-.07-.12-.11-.19-.17ZM64.3,50,12.42,59.53c-5.19.95-7.84,4.79-6.88,10q5.64,30.85,11.31,61.72c1,5.25,4.83,7.95,10.08,7q51.83-9.48,103.63-19c5.25-1,7.9-4.85,6.93-10.12q-5.64-30.79-11.29-61.59c-1-5.37-4.77-8-10.15-7Zm-8-3.9L102,37.73c-.31-.4-.53-.71-.77-1-2.35-2.71-4.73-5.41-7-8.15A1.71,1.71,0,0,0,92.3,28c-9,1.68-18,3.31-27,5-1.48.27-3.3.18-4.34,1s-1.15,2.62-1.66,4C58.35,40.61,57.38,43.27,56.34,46.11ZM30.63,50.85c-.22-1.2-.36-2.28-.62-3.32a4.14,4.14,0,0,0-8.15,1.1,31.4,31.4,0,0,0,.65,3.71Z"/><path d="M72.05,0a3.21,3.21,0,0,1,2.69,3c.7,4.22,1.54,8.42,2.28,12.63a2.56,2.56,0,0,1-2.69,3.24A2.39,2.39,0,0,1,72,16.84c-.88-4.58-1.71-9.17-2.53-13.77C69.22,1.74,70,.89,71,.19Z"/><path d="M65.25,18.16c-.5.9-.74,2-1.4,2.39a4.27,4.27,0,0,1-2.65.27c-.58-.08-1.09-.65-1.63-1-3.13-2.16-6.27-4.31-9.39-6.48-1.54-1.07-1.94-2.6-1-3.88s2.44-1.47,4-.4C56.58,11.4,60,13.77,63.46,16.2A12.75,12.75,0,0,1,65.25,18.16Z"/><path d="M84.07,14.09a6.52,6.52,0,0,1,.62-1.64q3.63-5.38,7.36-10.68a2.61,2.61,0,0,1,3.7-.93,2.64,2.64,0,0,1,.56,3.88c-2.44,3.57-4.91,7.12-7.37,10.68A2.58,2.58,0,0,1,86,16.59C85,16.33,84.34,15.6,84.07,14.09Z"/><path class="f4f89226-8c86-4f8a-8bd3-5231ed8c59fe" d="M64.3,50l51.75-9.48c5.38-1,9.17,1.62,10.15,7q5.65,30.79,11.29,61.59c1,5.27-1.68,9.16-6.93,10.12q-51.81,9.51-103.63,19c-5.25,1-9.11-1.73-10.08-7Q11.2,100.38,5.54,69.53c-1-5.21,1.69-9.05,6.88-10Zm17.23,4.24A30.65,30.65,0,0,0,69.9,58.8a3.91,3.91,0,0,0-1.43,1.74,2.23,2.23,0,0,0,.86,2.65,2.76,2.76,0,0,0,3.16.1,47.83,47.83,0,0,1,7.67-3.38A27.5,27.5,0,1,1,60.32,81.2c.37-2.07-.36-3.4-2-3.68s-2.68.68-3.08,2.73A31.73,31.73,0,0,0,56.34,96.9,32.73,32.73,0,1,0,81.53,54.25Zm2,11.26a21.3,21.3,0,1,0,24.81,17.08A21.31,21.31,0,0,0,83.51,65.51Zm-53.1,7.1c-2.12.39-4.25.76-6.37,1.17a2.6,2.6,0,0,0-2.38,3A2.65,2.65,0,0,0,25,78.88c4.26-.75,8.5-1.53,12.75-2.34a2.65,2.65,0,0,0,2.34-3.14,2.6,2.6,0,0,0-3.27-2C34.66,71.81,32.53,72.22,30.41,72.61Zm32.66-.73a2.65,2.65,0,0,0,2-3,2.59,2.59,0,1,0-5.07,1A2.64,2.64,0,0,0,63.07,71.88Z"/><path d="M81.53,54.25A32.73,32.73,0,1,1,56.34,96.9a31.73,31.73,0,0,1-1.11-16.65c.4-2,1.47-3,3.08-2.73s2.38,1.61,2,3.68A27.54,27.54,0,1,0,80.16,59.91a47.83,47.83,0,0,0-7.67,3.38,2.76,2.76,0,0,1-3.16-.1,2.23,2.23,0,0,1-.86-2.65A3.91,3.91,0,0,1,69.9,58.8,30.65,30.65,0,0,1,81.53,54.25Z"/><path d="M83.51,65.51a21.3,21.3,0,1,1-17.1,24.8A21.3,21.3,0,0,1,83.51,65.51Zm1,5.1a16.11,16.11,0,1,0,18.69,13A16.12,16.12,0,0,0,84.54,70.61Z"/><path d="M30.41,72.61c2.12-.39,4.25-.8,6.37-1.17a2.6,2.6,0,0,1,3.27,2,2.65,2.65,0,0,1-2.34,3.14c-4.25.81-8.49,1.59-12.75,2.34a2.65,2.65,0,0,1-3.3-2.12,2.6,2.6,0,0,1,2.38-3C26.16,73.37,28.29,73,30.41,72.61Z"/><path d="M63.07,71.88a2.64,2.64,0,0,1-3-2,2.59,2.59,0,1,1,5.07-1A2.65,2.65,0,0,1,63.07,71.88Z"/><path d="M97.34,84.12c.39,1.73-.32,3.09-1.82,3.47s-2.63-.47-3.18-2.13c-1-3.06-2.71-4.21-5.92-4a2.59,2.59,0,0,1-3-2.31,2.67,2.67,0,0,1,2.43-2.84A10.28,10.28,0,0,1,97.34,84.12Z"/></g></svg>