<svg xmlns="http://www.w3.org/2000/svg" xmlns:xlink="http://www.w3.org/1999/xlink" viewBox="0 0 150.18 140.34"><defs><style>.b536adc6-eb88-4be3-9f8c-59d4dfd24b74{fill:url(#a9ad1c25-7fa0-4bdc-8e22-53fc96c9c934);}</style><linearGradient id="a9ad1c25-7fa0-4bdc-8e22-53fc96c9c934" x1="-223.48" y1="187.72" x2="-90.85" y2="187.72" gradientTransform="matrix(0.99, 0.1, -0.1, 0.99, 250.42, -85.55)" gradientUnits="userSpaceOnUse"><stop offset="0.13" stop-color="#0878b1"/><stop offset="0.65" stop-color="#29ca8c"/><stop offset="1" stop-color="#29ca8c"/></linearGradient></defs><g id="baefb8f1-a48f-4aa9-a00a-bbf5e40bb8ff" data-name="Layer 2"><path d="M116.41,39.72l5.51.56c5.3.56,10.64.94,15.91,1.74A14.34,14.34,0,0,1,150.1,58c-1,10.06-2,20.12-3.06,30.18q-2,19.43-4,38.85a14.51,14.51,0,0,1-13,13.21,18.36,18.36,0,0,1-3.92,0Q70,134.51,13.81,128.77C6.42,128,1.08,123.17.07,116.32a8.59,8.59,0,0,1,0-2.09Q3.69,78.45,7.33,42.68c.58-5.77,3.91-9.33,9-11.54a15.27,15.27,0,0,1,7.87-.83q33.54,3.44,67.08,6.84l2,.2c.1-1,.19-2,.29-2.86.24-2.26,1.4-3.5,3.14-3.35S99.33,32.73,99.1,35q-2.62,25.65-5.23,51.29l-.18,1.79,12,1.22c.06-.43.15-.88.19-1.33q3.84-37.53,7.65-75c.36-3.48-1.23-6.07-4.26-7a6.08,6.08,0,0,0-7.65,4.88c-.06.32-.07.65-.12,1a2.8,2.8,0,1,1-5.57-.58C96.3,6.44,98.59,2.91,103,1A11,11,0,0,1,115.18,3a11.13,11.13,0,0,1,3.95,10q-1.25,12.51-2.54,25C116.54,38.5,116.49,39,116.41,39.72ZM31,112.8l94.87,9.67,6.46-63.42-17.74-1.81L114.45,59c-1.12,11-2.22,22-3.39,33a6.75,6.75,0,0,1-1,2.85c-3.17,5-6.43,10-9.65,15-.72,1.13-1.59,2-3,1.86s-2.12-1.16-2.61-2.43c-2.15-5.58-4.37-11.14-6.48-16.74a6.79,6.79,0,0,1-.36-3c1.07-11,2.21-22,3.33-33l.16-1.55L37.5,49.41,37.34,51q-.92,8.88-1.81,17.75c-.05.47-.09.94-.18,1.39a2.71,2.71,0,0,1-2.68,2.23,2.67,2.67,0,0,1-2.75-2.31,7.31,7.31,0,0,1,0-1.81Q31,57.67,32.1,47c.31-3.08,1.22-3.82,4.27-3.51L90.18,49,92,49.2l.64-6.26-1.41-.14q-34-3.46-67.93-6.92c-6.08-.62-10.12,2.69-10.73,8.76Q9.06,78.53,5.61,112.42c-.62,6,2.71,10.14,8.76,10.76l112.37,11.45c6.13.63,10.19-2.7,10.82-8.84Q141,92,144.45,58.15c.63-6.15-2.65-10.18-8.82-10.82s-12.11-1.24-18.17-1.85l-1.53-.16-.64,6.26,1.59.16,18,1.84c2.79.28,3.61,1.28,3.33,4q-3.44,33.75-6.88,67.5c-.27,2.68-1.3,3.52-4,3.24L28.56,118.29C25.78,118,25,117,25.25,114.23q1.09-10.83,2.21-21.66a6.6,6.6,0,0,1,.4-1.77,2.77,2.77,0,0,1,5.27,1.11,13,13,0,0,1-.1,1.4L31.2,111.2Zm72.27-17.88-8.39-.85,3.37,8.62Z"/><path d="M97.19,25.51a2.8,2.8,0,0,1-2.45-3.06A2.89,2.89,0,0,1,97.8,20a2.82,2.82,0,0,1,2.49,3.17A2.74,2.74,0,0,1,97.19,25.51Z"/><path class="b536adc6-eb88-4be3-9f8c-59d4dfd24b74" d="M31,112.8l.16-1.6L33,93.31a13,13,0,0,0,.1-1.4,2.77,2.77,0,0,0-5.27-1.11,6.6,6.6,0,0,0-.4,1.77q-1.12,10.83-2.21,21.66c-.28,2.78.53,3.78,3.31,4.06l98.81,10.07c2.69.28,3.72-.56,4-3.24q3.45-33.75,6.88-67.5c.28-2.76-.54-3.76-3.33-4l-18-1.84-1.59-.16.64-6.26,1.53.16q9.09.92,18.17,1.85c6.17.64,9.45,4.67,8.82,10.82Q141,92,137.56,125.79c-.63,6.14-4.69,9.47-10.82,8.84L14.37,123.18c-6-.62-9.38-4.72-8.76-10.76q3.45-33.89,6.91-67.78c.61-6.07,4.65-9.38,10.73-8.76q34,3.43,67.93,6.92l1.41.14L92,49.2,90.18,49,36.37,43.53c-3-.31-4,.43-4.27,3.51Q31,57.66,29.94,68.29a7.31,7.31,0,0,0,0,1.81,2.67,2.67,0,0,0,2.75,2.31,2.71,2.71,0,0,0,2.68-2.23c.09-.45.13-.92.18-1.39q.9-8.87,1.81-17.75l.16-1.63,53.92,5.5-.16,1.55c-1.12,11-2.26,22-3.33,33a6.79,6.79,0,0,0,.36,3c2.11,5.6,4.33,11.16,6.48,16.74.49,1.27,1.17,2.28,2.61,2.43s2.32-.73,3-1.86c3.22-5,6.48-10,9.65-15a6.75,6.75,0,0,0,1-2.85c1.17-11,2.27-22,3.39-33l.18-1.71,17.74,1.81-6.46,63.42ZM24.46,52.39c.23-2.32.49-4.65.7-7a2.81,2.81,0,1,0-5.57-.55q-.75,7-1.43,14a2.9,2.9,0,0,0,2.49,3.45c1.64.16,2.88-1,3.09-2.9C24,57.05,24.22,54.72,24.46,52.39Zm-5.6,54.86c.24-2.37.5-4.74.72-7.12A2.81,2.81,0,1,0,14,99.49q-.78,7.11-1.45,14.24a2.81,2.81,0,1,0,5.58.5C18.41,111.91,18.63,109.58,18.86,107.25Zm12.86-29.2a2.79,2.79,0,0,0-3,2.5,2.83,2.83,0,0,0,2.51,3A2.76,2.76,0,0,0,34.27,81,2.72,2.72,0,0,0,31.72,78.05Z"/><path d="M24.46,52.39c-.24,2.33-.46,4.66-.72,7-.21,1.92-1.45,3.06-3.09,2.9a2.9,2.9,0,0,1-2.49-3.45q.68-7,1.43-14a2.81,2.81,0,1,1,5.57.55C25,47.74,24.69,50.07,24.46,52.39Z"/><path d="M18.86,107.25c-.23,2.33-.45,4.66-.71,7a2.81,2.81,0,1,1-5.58-.5q.67-7.12,1.45-14.24a2.81,2.81,0,1,1,5.56.64C19.36,102.51,19.1,104.88,18.86,107.25Z"/><path d="M31.72,78.05a2.72,2.72,0,0,1,2.55,3,2.76,2.76,0,0,1-3.06,2.58,2.83,2.83,0,0,1-2.51-3A2.79,2.79,0,0,1,31.72,78.05Z"/></g></svg>