<svg xmlns="http://www.w3.org/2000/svg" xmlns:xlink="http://www.w3.org/1999/xlink" viewBox="0 0 127.34 140.16"><defs><style>.aea10c80-b758-4098-b26f-266d9d9c77e2{fill:url(#b449e167-f8b0-4a76-81ab-de03407a48b0);}</style><linearGradient id="b449e167-f8b0-4a76-81ab-de03407a48b0" x1="21.05" y1="36.5" x2="106.34" y2="36.5" gradientUnits="userSpaceOnUse"><stop offset="0.13" stop-color="#0878b1"/><stop offset="0.65" stop-color="#29ca8c"/><stop offset="1" stop-color="#29ca8c"/></linearGradient></defs><g id="a6f9f1c9-c3a4-47bc-b0cb-7b7ef26a2bcb" data-name="Layer 2"><g id="ed77ec53-4522-4ca4-bd04-259412111531" data-name="s5tB8l"><path d="M117.07,0c2.51,1.08,3.28,3,3.28,5.69-.07,20.58,0,41.16,0,61.74,0,3.83-1.56,5.38-5.41,5.38-8.49,0-17,0-25.47,0a2.2,2.2,0,0,0-2.22,1.32c-1.29,2.36-2.69,4.66-4,7C81.58,84,80,86.81,77.27,89c.94,1.62,1.81,3.2,2.77,4.74.17.28.65.37,1,.56A16.33,16.33,0,0,1,83.77,96a35.46,35.46,0,0,1,2.88,3.11c1.54,1.71,2.63,1.86,4.49.49a22.58,22.58,0,1,1,16.69,40.38c-9.6,1.13-17.29-2.49-22.39-10.65S75.61,112.44,70.76,104a3.92,3.92,0,0,1-.55-2.07c.13-2.73-1.9-4.41-3-6.51-.11-.21-.7-.2-1.07-.2-1.58,0-3.16,0-4.73,0a2.23,2.23,0,0,0-1.54.61c-.92,1.35-1.68,2.81-2.49,4.24a1.24,1.24,0,0,0-.22.76c.39,1.78-.49,3.16-1.32,4.6-4.44,7.65-8.79,15.35-13.29,23-4.7,7.94-11.76,11.93-21,11.73C9.25,139.89-.8,128.72.05,116.47a22.46,22.46,0,0,1,15.3-20.22,5.68,5.68,0,0,1,1.31-.36,2,2,0,0,1,.93,3.94c-1.25.55-2.58.94-3.78,1.58a18.46,18.46,0,0,0,5.07,34.34,18.68,18.68,0,0,0,19.62-8.69c4.2-7,8.19-14.11,12.28-21.18.7-1.22,1.41-2.44,2.2-3.8l-6.18-3.6-3.1,3.41c-2.86,3.16-6.31,3.57-9.74,1.1a20,20,0,0,0-7.52-3.46c-1.57-.34-2.24-1.32-1.94-2.6s1.29-1.7,2.83-1.39a22.4,22.4,0,0,1,8.79,3.94c2,1.47,3,1.35,4.69-.52.95-1,1.86-2.14,2.86-3.13a3.83,3.83,0,0,1,1.87-1.27,3.14,3.14,0,0,0,2.57-2.09c.57-1.13,1.26-2.21,1.92-3.35C45.44,84.82,43.22,79,40,73.85a1.85,1.85,0,0,0-1.82-1c-8.67,0-17.34,0-26,0C8.73,72.82,7,71.14,7,67.7c0-20.67,0-41.34,0-62C7,3,7.78,1.09,10.28,0ZM106.34,4.21H21.05v64.5h1.7c15.93,0,31.86-.09,47.78.08,2.81,0,4.23-.81,5.55-3.24C80,58.3,84.26,51.22,88.38,44.07a3.62,3.62,0,0,1,3.05-2.2c2.22-.1,3.55,1.31,3.68,4A45,45,0,0,1,91,67.26c-.19.42-.37.86-.58,1.35h15.92Zm-32,97.85,3.24,5.6c3.73,6.47,7.38,13,11.23,19.4a18.49,18.49,0,1,0,5-24.37c-4,2.86-7.2,2.51-10.47-1.11l-2.8-3.09Zm16.4-53.88L90,49.6Q83.29,61.14,76.61,72.68c-1.66,2.87-3,6-5.58,7.65.75,2.38,1.43,4.53,2.18,6.93,1.31-1.37,3-2.58,3.92-4.21,3.81-6.52,7.61-13.07,11-19.82C90.48,58.6,91.06,53.43,90.77,48.18Zm-32,38.28a4.95,4.95,0,1,0,9.89-.06,4.95,4.95,0,0,0-9.89.06Zm-2.32-6.11c-2.4-1.5-3.61-4.14-5.08-6.58a1.85,1.85,0,0,0-1.15-.91c-1.93-.1-3.87,0-6.12,0,2.8,4.26,4.57,8.87,7.87,12.38ZM72,72.9H55.39a42.33,42.33,0,0,0,2.83,3.61,3.46,3.46,0,0,0,3.7,1.07,6.85,6.85,0,0,1,3.51,0,3.43,3.43,0,0,0,3.6-1C70.05,75.56,70.87,74.32,72,72.9ZM11.24,13.21v5.87h5.53V13.21Zm99.35,0v5.85h5.55V13.21ZM11.23,23.33v5.86h5.56V23.33ZM116.1,29.25v-5.9h-5.51v5.9ZM11.22,39.35h5.56V33.47H11.22ZM116.16,33.5h-5.6v5.81h5.6Zm0,20.24h-5.55V59.6h5.55Zm-104.91,0v5.85h5.56V53.72Zm0-10.12v5.88h5.52V43.6ZM116.1,49.47V43.6h-5.52v5.87ZM110.59,4.15V8.94h5.49V4.15ZM16.79,9V4.23H11.23V9ZM110.56,68.6h5.56V63.86h-5.56Zm-93.8,0V63.88H11.24v4.75ZM53.85,97.81l3-5.14-2.1-3.59-4,7Zm20.08-6.33-3.3,1.46,2.88,4.88,3-1.81Z"/><path d="M36.06,117.62a13.45,13.45,0,1,1-13.48-13.48A13.43,13.43,0,0,1,36.06,117.62Zm-4.1,0A9.34,9.34,0,1,0,22.54,127,9.35,9.35,0,0,0,32,117.65Z"/><path class="aea10c80-b758-4098-b26f-266d9d9c77e2" d="M106.34,4.21v64.4H90.42c.21-.49.39-.93.58-1.35a45,45,0,0,0,4.11-21.41c-.13-2.67-1.46-4.08-3.68-4a3.62,3.62,0,0,0-3.05,2.2C84.26,51.22,80,58.3,76.08,65.55c-1.32,2.43-2.74,3.27-5.55,3.24-15.92-.17-31.85-.08-47.78-.08h-1.7V4.21ZM63.39,15l-1.7.08a7.56,7.56,0,0,0-.82.07c-8.6,1.46-14.68,6.18-17.46,14.47s-1,15.77,5.14,21.93,13.78,7.86,22.07,5.12C77.73,54.29,82.25,49.21,84.37,42a2.06,2.06,0,1,0-3.92-1.23c-.11.3-.18.61-.28.91-2.51,7.8-9.74,12.56-18.17,12C54.43,53.14,48,47,46.54,39.11a17.35,17.35,0,0,1,33.82-7.45c.46,1.56,1.47,2.26,2.64,1.93s1.73-1.49,1.27-3.11A21.39,21.39,0,0,0,63.39,15ZM56.18,36.35h0c0,2.14,0,4.28,0,6.42,0,3.34,2.87,5,5.77,3.4,3.74-2.08,7.44-4.22,11.13-6.39C76,38.05,76,34.71,73.07,33q-5.47-3.2-11-6.31c-3-1.68-5.81,0-5.87,3.38C56.15,32.16,56.18,34.25,56.18,36.35Z"/><path d="M63.39,15A21.39,21.39,0,0,1,84.27,30.48c.46,1.62,0,2.74-1.27,3.11s-2.18-.37-2.64-1.93a17.35,17.35,0,0,0-33.82,7.45C48,47,54.43,53.14,62,53.67c8.43.59,15.66-4.17,18.17-12,.1-.3.17-.61.28-.91A2.06,2.06,0,1,1,84.37,42c-2.12,7.19-6.64,12.27-13.75,14.62-8.29,2.74-15.87,1.08-22.07-5.12s-7.91-13.7-5.14-21.93,8.86-13,17.46-14.47a7.56,7.56,0,0,1,.82-.07Z"/><path d="M56.18,36.35c0-2.1,0-4.19,0-6.29.06-3.42,2.88-5.06,5.87-3.38q5.53,3.12,11,6.31c2.94,1.72,3,5.06,0,6.79C69.41,42,65.71,44.09,62,46.17c-2.9,1.62-5.72-.06-5.77-3.4,0-2.14,0-4.28,0-6.42Zm4.2-5.74V42.35l10.37-6-9.67-5.54A5.88,5.88,0,0,0,60.38,30.61Z"/><path d="M118.17,117.63a13.46,13.46,0,1,1-13.48-13.49A13.48,13.48,0,0,1,118.17,117.63Zm-22.79,0a9.34,9.34,0,1,0,9.3-9.35A9.34,9.34,0,0,0,95.38,117.6Z"/></g></g></svg>