<svg xmlns="http://www.w3.org/2000/svg" xmlns:xlink="http://www.w3.org/1999/xlink" viewBox="0 0 176.79 81.47"><defs><style>.f0b49214-f26c-431a-bbf7-008393ed810b{fill:url(#b62de6f4-c2c1-4196-b388-5b281f0a3609);}</style><linearGradient id="b62de6f4-c2c1-4196-b388-5b281f0a3609" x1="5.3" y1="40.71" x2="115.71" y2="40.71" gradientUnits="userSpaceOnUse"><stop offset="0.13" stop-color="#0878b1"/><stop offset="0.65" stop-color="#29ca8c"/><stop offset="1" stop-color="#29ca8c"/></linearGradient></defs><g id="e29abeb5-eea3-4ea8-ad5b-7962676bf5e8" data-name="Layer 2"><g id="b903f731-55bb-4490-afaa-59ee233b2337" data-name="YpKR9j"><path d="M176.79,44.58c-.47,2.24-.83,4.51-1.41,6.71a40.78,40.78,0,0,1-40.69,30.15,21,21,0,0,1-5-.56c-3.27-.95-6.38.19-9.55.44a43,43,0,0,1-12.84-1,6.56,6.56,0,0,0-2.85-.12,41.6,41.6,0,0,1-21.81-.46,4.74,4.74,0,0,0-2.48,0,41.66,41.66,0,0,1-24.47-.29,4.06,4.06,0,0,0-2.29,0C29.2,87.08,4.69,72,.45,46.92c-.13-.79-.3-1.56-.45-2.34V37c.54-2.52.94-5.08,1.65-7.55A40.71,40.71,0,0,1,53.21,2a4.58,4.58,0,0,0,2.62,0,41.18,41.18,0,0,1,24-.34,6.37,6.37,0,0,0,3.3,0,38.53,38.53,0,0,1,20.1-.58c2.41.61,4.54,0,6.76-.41A41,41,0,0,1,125.21.9a6.58,6.58,0,0,0,2.54,0,40.77,40.77,0,0,1,48.72,35,8.1,8.1,0,0,0,.32,1.14Zm-75.9-1C101.54,59,115.09,76,135.94,76.16a35.58,35.58,0,0,0,35.58-35.7c-.27-19.81-16.86-35.84-36.32-35.13-21.71.78-33.93,18.83-34.27,32.59h50.58c-2.18-2.1-4-3.81-5.81-5.6a2.63,2.63,0,1,1,3.63-3.78q5.17,5.07,10.25,10.25a2.44,2.44,0,0,1,.18,3.59c-3.56,3.68-7.2,7.28-10.88,10.84a2.36,2.36,0,0,1-3.43-.12,2.59,2.59,0,0,1-.21-3.59,14.19,14.19,0,0,1,1.32-1.37L151,43.91l-.24-.38Zm-54,31.91c-.28-.22-.49-.39-.71-.55-1.77-1.37-3.6-2.67-5.29-4.14a2.53,2.53,0,0,1-.22-3.7,2.65,2.65,0,0,1,3.6-.29c.37.26.7.6,1.05.89a35.24,35.24,0,0,0,27.09,8.29,5.17,5.17,0,0,0,.89-.33c-12.5-8.39-19.43-19.82-19.43-34.85s7-26.53,19.35-35A55.41,55.41,0,0,0,65,5.55C44.32,7.23,29.28,27.48,33.7,47.76a82.56,82.56,0,0,0,2.94,8.8A2.68,2.68,0,0,1,35.45,60a2.71,2.71,0,0,1-3.56-1.17,6.88,6.88,0,0,1-.38-.77A40.45,40.45,0,0,1,38.22,13.5c2.55-2.76,5.57-5.08,8.27-7.51-8.81-2.3-24,.72-33.55,12.79a35.44,35.44,0,0,0-1.53,41.86C20.09,73.38,35.25,78.07,46.91,75.44ZM96,75.9c-14-9.33-20.79-22.09-19.7-38.83A37,37,0,0,1,79.48,24.6,2.62,2.62,0,0,1,83,23a2.67,2.67,0,0,1,1.36,3.6c-.15.44-.33.86-.5,1.29a35.44,35.44,0,0,0,26.64,47.7c1.5.27,3,.34,4.56.5a1.13,1.13,0,0,0-.53-.79C104.2,68.56,97.88,59.17,95.86,47c-.19-1.16-.12-2.77-.83-3.32s-2.3-.19-3.5-.25c-1.88-.09-3-1.09-3.08-2.6s1.2-2.68,3.12-2.73c1.25,0,2.5,0,3.89,0a40.44,40.44,0,0,1,6-18.66A41.83,41.83,0,0,1,115.71,5.46c-.78,0-1.06,0-1.34,0A34.87,34.87,0,0,0,90.49,17.09a12.18,12.18,0,0,1-1.3,1.38,2.41,2.41,0,0,1-3.31,0,2.42,2.42,0,0,1-.54-3.4,10.9,10.9,0,0,1,1.9-2.23c2.82-2.49,5.7-4.93,8.4-7.25C86.5,4.37,73.58,9.42,66,19.7A35.53,35.53,0,0,0,64.8,60C73.16,72.86,87.47,77,96,75.9Z"/><path class="f0b49214-f26c-431a-bbf7-008393ed810b" d="M46.91,75.44c-11.66,2.63-26.82-2.06-35.5-14.8a35.44,35.44,0,0,1,1.53-41.86C22.46,6.71,37.68,3.69,46.49,6c-2.7,2.43-5.72,4.75-8.27,7.51A40.45,40.45,0,0,0,31.51,58a6.88,6.88,0,0,0,.38.77A2.71,2.71,0,0,0,35.45,60a2.68,2.68,0,0,0,1.19-3.4,82.56,82.56,0,0,1-2.94-8.8C29.28,27.48,44.32,7.23,65,5.55a55.41,55.41,0,0,1,8.23.16c-12.37,8.52-19.36,20-19.35,35.05s6.93,26.46,19.43,34.85a5.17,5.17,0,0,1-.89.33,35.24,35.24,0,0,1-27.09-8.29c-.35-.29-.68-.63-1.05-.89a2.65,2.65,0,0,0-3.6.29,2.53,2.53,0,0,0,.22,3.7c1.69,1.47,3.52,2.77,5.29,4.14C46.42,75.05,46.63,75.22,46.91,75.44ZM76.33,37.07A37,37,0,0,1,79.48,24.6,2.62,2.62,0,0,1,83,23a2.67,2.67,0,0,1,1.36,3.6c-.15.44-.33.86-.5,1.29a35.44,35.44,0,0,0,26.64,47.7c1.5.27,3,.34,4.56.5a1.13,1.13,0,0,0-.53-.79C104.2,68.56,97.88,59.17,95.86,47c-.19-1.16-.12-2.77-.83-3.32s-2.3-.19-3.5-.25c-1.88-.09-3-1.09-3.08-2.6s1.2-2.68,3.12-2.73c1.25,0,2.5,0,3.89,0a40.44,40.44,0,0,1,6-18.66A41.83,41.83,0,0,1,115.71,5.46c-.78,0-1.06,0-1.34,0A34.87,34.87,0,0,0,90.49,17.09a12.18,12.18,0,0,1-1.3,1.38,2.41,2.41,0,0,1-3.31,0,2.42,2.42,0,0,1-.54-3.4,10.9,10.9,0,0,1,1.9-2.23c2.82-2.49,5.7-4.93,8.4-7.25C86.5,4.37,73.58,9.42,66,19.7A35.53,35.53,0,0,0,64.8,60C73.16,72.86,87.47,77,96,75.9,82.07,66.57,75.24,53.81,76.33,37.07Z"/></g></g></svg>